<svg width="488" height="356" viewBox="0 0 488 356" fill="none" xmlns="http://www.w3.org/2000/svg">
<g clip-path="url(#clip0)">
<rect width="488" height="356" fill="white"/>
<path d="M408.833 401.152L408.283 400.12L407.638 397.598L405.679 393.996L402.477 392.315L396.074 387.512L389.456 383.117L379.206 380.716L369.339 381.773L369.554 380.908L369.984 379.851L368.335 381.364L366.926 383.766L367.547 381.148L368.502 378.747L367.571 378.915L366.782 379.059L367.618 377.138L366.615 375.121L365.635 375.505L364.847 376.465L361.932 374.232L359.208 372.407L357.751 371.807L355.72 371.086L352.71 372.695V375.217H351.563V376.057L348.743 376.994L347.047 380.284L346.904 376.441L344.037 377.162L342.221 376.417L341.552 373.752L345.637 376.73L350.201 374.112L351.228 370.15L347.525 369.285L343.368 369.982L342.627 371.542L341.647 372.119L342.914 373.199L341.815 373.56L341.05 372.599L337.466 375.193L333.5 375.793L335.388 374.448L337.777 373.031L341.432 368.613L344.562 363.81L342.866 358.335L340.357 350.338H339.784L338.637 348.224L338.494 349.041L338.828 349.833L338.183 348.993L337.323 350.362V348.729L336.988 347.024L336.845 347.672L336.463 348.224L333.524 344.166L326.834 344.334V340.9L323.489 340.612L323.967 340.948L324.517 341.164L321.96 340.756L320.168 342.029L317.779 340.732L314.745 341.861L314.028 339.459L312.069 337.658L309.512 337.13L308.365 338.835L309.178 336.433L308.819 333.912L305.618 330.358L305.235 330.742L303.013 328.773L303.539 329.997L300.075 328.653H295.822L297.303 327.26L298.211 326.515L297.327 323.465L294.938 323.73L294.603 322.577L293.528 322.073L293.887 322.793L293.409 323.802L293.026 322.505L291.641 321.04L291.043 322.001L289.968 321.616L290.781 321.785L291.521 321.4L291.091 320.488H290.135L290.733 319.983L290.04 319.815L292.429 319.431L294.651 318.567L289.538 319.047H284.401L285.644 319.503L286.91 319.791L280.626 320.968L274.414 319.095L271.428 319.575L268.369 319.767L267.414 318.158L266.625 316.333L263.304 313.932L260.437 311.819L259.529 313.668L261.321 315.229H260.485L259.72 314.82L257.116 316.645L253.819 319.047L255.611 323.61L253.628 326.443L252.72 320.2L252.362 314.364L250.546 312.827L240.989 317.99L241.491 317.678L241.992 317.438L238.074 318.975L236.545 323.273L233.821 326.948L231.838 331.462L228.947 327.86L224.67 324.81L221.994 324.282L219.247 324.81L216.427 326.179L213.56 327.476L211.745 326.828L210.263 326.203L210.144 326.443L208.519 324.978L206.13 322.817L204.027 320.248L202.809 315.445V312.683V309.609L203.119 310.906L204.003 304.902L205.222 298.562L204.147 297.626L202.928 296.905L203.549 297.218L203.358 297.77L202.809 297.05L201.925 297.362L201.208 296.737L200.658 295.921L201.71 296.137L202.618 296.713L191.794 293.784L180.708 297.626L183.575 295.777L181.951 294.288L181.592 295.032L180.015 294.456L179.657 290.061L179.179 285.259L181.688 283.433L184.077 280.552L184.268 282.089L184.985 283.481L185.343 278.871L186.562 275.1L188.354 271.93L189.381 268.616L186.992 267.44L185.869 267.728L179.155 268.04L174.377 270.25L172.442 275.917L169.527 280.552L170.506 280.912L169.24 282.257L167.591 281.848L165.202 281.32L161.475 282.713L157.27 283.602L154.236 281.44L151.01 281.104L150.676 280.408L151.512 280.624L146.494 273.612L143.245 264.99L144.511 266.695L144.679 268.713L144.057 262.661L143.245 256.081L144.918 250.366L145.921 245.563L144.559 242.249L143.173 238.743L144.918 238.454L144.249 236.725L145.873 236.149L145.443 235.645L147.116 234.3L148.86 233.699L149.146 232.739L149.672 233.555L152.683 231.154L154.666 227.528L155.526 227.36L155.884 227.047L156.529 228.2L155.741 229.161L156.959 228.44L159.946 226.039L160.997 227.312L161.881 225.583L168.619 227.624L174.902 230.53L175.571 229.377L175.094 228.224L177.101 229.161L178.367 231.346L178.893 230.842L179.585 231.058L178.725 228.272L178.343 226.063L177.483 226.351L176.718 226.159L177.005 225.655L177.435 225.294L175.524 225.607L174.496 224.67L179.609 224.262L184.388 222.341L184.985 223.517L184.627 224.718H186.036L186.896 223.661L187.016 224.238L186.49 224.526L187.852 223.926L188.664 223.061L189.071 223.854L188.091 224.118L190.17 223.685L192.248 223.926L191.555 224.07H190.839L192.344 224.814L193.945 225.174L193.562 224.646H194.709V225.583L195.235 226.423H197.027L199.416 226.591L202.188 226.975L205.389 229.905L206.488 234.156L206.703 237.182L207.253 237.013L206.99 235.885L207.444 236.653L207.993 236.389V239.679L209.881 241.144V242.633L211.099 242.417L212.127 246.667L213.871 249.069H215.567L218.172 246.067L217.526 239.103L214.97 232.403L216.093 234.948L216.642 236.605L214.253 227.168L212.485 219.171L214.229 217.057L215.185 213.527L215.711 214.128L216.499 214.416V213.912L216.26 213.407L223.882 208.604L229.52 202.265H231.719L234.108 200.68L232.435 200.92L231.002 200.199H232.507L231.002 198.11L232.483 198.903L233.152 198.014L235.183 198.35L236.186 195.949L235.47 196.573L235.04 197.414L233.51 195.733L232.435 194.148L233.104 195.468L233.487 194.748L235.04 194.508L236.067 195.132L235.756 193.812L235.183 192.587H235.517V192.203L236.473 194.316L237.118 196.213L234.729 191.29L230.237 188.552L232.173 189.153L233.702 190.521L234.06 189.489L233.128 188.672H233.893L234.442 188.192L233.152 186.655L231.695 184.95L232.698 186.391L234.323 186.511L233.487 184.878L231.742 183.966L231.36 182.261L231.073 180.483L230.835 181.804L230.524 183.029L232.22 183.605L234.036 184.782L233.51 183.149L232.722 181.66L233.295 182.164L233.08 178.586L234.418 177.914L235.733 176.929L235.541 177.458L236.234 176.905L235.637 177.53L236.21 177.962L234.801 178.802L234.944 179.235L234.538 179.907L234.06 180.532L234.657 180.988L235.446 182.188L234.705 183.125L236.067 183.389V184.878L236.975 185.43L235.733 187.352L235.565 189.633L239.006 182.693V175.2L238.576 177.866L239.866 180.267L242.255 177.169L243.426 175.536L244.453 170.878L249.518 167.948L252.457 167.396L254.703 165.282H255.515V166.771L259.123 165.09L259.649 163.601L260.485 164.466L260.079 165.474L257.69 161.392L260.318 153.539V154.02L260.891 154.404V153.347L261.178 152.435L261.393 153.443L262.229 153.683L264.332 151.282L266.41 151.618L267.055 150.249L268.393 151.066L271.475 148.328L271.762 146.455L274.151 146.167L277.114 144.918L280.101 145.254L282.609 141.796L283.254 143.165L284.33 142.877L283.039 144.03L281.749 145.23L285.022 145.422H288.2L286.002 145.879L285.094 147.416L281.94 146.479L278.452 149.097L278.141 149.385L276.158 150.754L276.851 151.042V154.572L277.759 154.788L279.193 155.773L282.084 152.339L285.93 149.145L286.265 150.033L287.197 150.225L292.549 148.088L297.996 145.687L291.187 143.525L286.408 141.268L282.824 138.362L279.814 135.961L281.415 134.256L282.633 132.286H278.261L273.482 130.87L279.073 130.533L284.043 128.444L283.876 126.619L284.64 126.331L277.329 124.098L268.417 126.811L261.632 132.527L254.727 137.882L258.741 133.871L260.628 129.837L264.069 127.436L266.673 124.122L271.141 122.152L275.704 118.262H286.528L294.986 119.055L301.508 117.806L306.669 115.14L308.748 113.267L311.639 111.706L318.089 109.305L318.567 105.486L320.025 105.799L317.134 104.574H318.782L320.12 104.069L319.26 103.493L318.543 102.028L319.141 99.6268L316.752 97.8257L315.127 98.5221L313.526 99.4107L313.239 98.8103H312.881L312.331 95.3042L311.352 95.8566L306.119 98.6662L300.768 100.755L301.437 100.059L302.225 99.6748L300.457 98.8103L298.808 97.4655L304.208 98.0419L309.249 95.1841L306.741 96.1207H304.351L308.939 95.4003L313.215 93.6712H312.594L313.693 92.9508L308.318 91.0777L306.048 89.2766L304.447 90.6454L302.87 91.8942L304.041 90.7895L304.638 89.2286L303.802 89.7809L302.798 89.5407L304.065 88.4121L301.293 90.3812V89.0605L299.668 90.5493L300.887 89.1325L301.46 87.5475L300.576 87.3554L300.887 85.7945L300.266 86.1067L299.884 86.683L297.638 84.7379L293.958 82.7446H294.675H295.392H294.938L295.32 82.5765L294.46 82.1683L293.6 81.8081L294.508 81.64L295.272 81.1117H293.528L291.88 79.6228H294.269L292.644 80.1031L293.791 80.4873L294.986 80.6794V80.055L294.627 80.4393L295.248 78.8303L295.87 77.5335L294.245 76.5249L292.262 75.6124L293.743 74.3156L291.354 72.7546L292.62 72.1303L292.118 71.4338L290.494 72.0102L288.702 72.4905L290.327 71.0976L291.402 69.4407L289.419 69.969L287.722 70.2812L288.296 69.8969L287.818 69.5607L290.088 68.312L288.511 67.2313L288.821 66.751L289.299 65.9345L287.268 66.1987L285.715 65.8865L287.197 65.7424L288.057 64.5897H287.101L285.572 63.7732H286.337L286.79 63.1969L285.19 61.8521L284.927 60.1951L283.708 60.051L282.155 60.1951L283.111 58.9704L283.35 58.2979L281.128 59.4987L281.439 61.732L280.053 61.3718L279.264 62.3804L280.196 63.317L281.224 64.0854H279.169L278.309 64.7578L278.906 65.7424L280.005 66.1026L277.616 67.4475L277.042 70.2091V68.36L275.633 67.0872L272.79 69.4887L270.114 72.6346L270.257 70.9776L269.755 69.3686L269.397 70.5693L268.465 71.4098L268.919 69.7288L268.513 68.9123L266.339 71.3138L263.161 73.4751L266.458 71.674L267.509 68.4561L264.523 66.6069L260.987 68.2399V67.3514H259.529L260.867 67.1593V65.8625L261.584 66.4629L261.99 67.3034L262.444 65.4783L263.543 64.6138L261.154 61.0836L255.969 59.4026L259.434 59.2345L261.823 57.7456L262.444 55.5603V53.351L256.041 52.6065L253.915 49.8689L252.648 49.1965L251.334 49.6527L251 48.452L248.61 48.1639L243.832 45.5943L235.756 46.0986L228.971 44.2975L228.708 50.061L227.275 52.2223L226.08 54.7678H227.131H228.206L227.466 56.0166L228.684 56.4248L228.995 59.9069L227.513 61.684L226.558 65.07L225.029 68.6722L230.237 73.6432L232.961 81.3278L226.223 88.0038L219.39 92.5666L220.585 94.968L222.138 96.673L222.592 99.867L223.046 103.613L223.428 106.015V108.416L223.07 110.818L223.332 112.931L222.544 111.658L221.469 110.217L219.94 112.402L221.182 115.452L217.909 112.619L214.134 113.723L214.874 108.68L210.359 106.999L210.239 103.445L209.14 99.0505L208.662 93.6712L207.253 89.4687L201.614 88.7002L195.33 90.5493L192.057 85.8906L185.487 83.4891L176.169 79.0224H165.752L166.182 78.6382L164.008 79.1905L164.653 73.1389L159.874 67.8317L157.318 66.8951L154.928 66.0546L156.553 60.9876L157.533 55.4642L159.922 51.1657L160.734 47.8277L162.909 46.8431V45.3301L165.298 45.162L168.189 43.6011L167.09 43.1208L166.038 42.5204L171.988 40.2631L165.393 37.5014L166.206 37.0932L166.875 36.5168L162.932 35.5563L160.018 34.5476L160.902 34.1874L160.089 33.2028L166.062 35.8685L173.111 36.829L174.998 35.6523L176.623 34.5476V33.1068V32.6745L178.247 34.3075L178.869 33.1788L185.057 31.858L186.92 25.7103L182.883 24.6297L178.104 23.7411L173.947 22.6125L170.028 21.4598H174.066L175.739 21.1716L179.108 22.1562L182.429 23.2849L182.978 24.2214L187.757 24.6777L190.624 22.5164L193.013 19.8748L191.102 18.506L189.501 17.2092L194.542 18.6261L199.559 19.6827L198.843 18.9863L199.153 18.2419L200.42 19.1304L201.853 19.4666L200.874 17.2813L198.484 15.24L198.651 15.0239V14.7117L197.314 14.5676L196.047 14.9759L197.433 14.1834L197.815 14.0153H199.153H198.651L200.109 15.4081L201.447 14.7357L205.365 17.7616L210.884 13.9433V8.39592L207.42 4.26543L210.024 3.54501L212.748 2.60844L212.127 0.735317L209.546 0.951439L211.601 0.351078L212.485 -1.28191L208.495 -2.09839L204.648 -3.75539L206.584 -4.11561L208.304 -4.40377L201.566 -5.96471H194.614L195.283 -4.09159L194.948 -2.33855L196.668 -1.13783L198.628 -0.177242H197.409L197.935 0.327057L196.979 1.35968L197.648 1.2156L195.259 3.23282L193.419 6.23463L191.771 8.94826L190.122 11.5178L184.077 10.0289L183.575 4.64967L184.603 4.91383V2.32026L182.214 -0.297306L179.108 -1.42599L177.196 0.423119L176.145 2.82456L175.643 4.38551L173.636 4.19339L172.8 1.50378L170.411 -1.97832L172.513 -2.62671L174.449 -3.10701L172.059 -3.73137H169.527L168.332 -4.37977L164.079 -4.71597L165.035 -5.02815H163.888L165.561 -6.2529L167.424 -7.18946L166.421 -7.78982L165.393 -7.47764L167.209 -8.4142L169.598 -8.2701L162.885 -15.7146L156.147 -21.7182H157.581L158.799 -22.2225L160.495 -25.1283L157.939 -27.4096L162.216 -27.7218L166.445 -27.1455L168.237 -28.5863L169.718 -30.2433L171.773 -33.4132L175.046 -36.1749L163.434 -38L153.495 -36.5831L154.905 -35.8867L155.98 -34.71H153.973L152.253 -31.5881L152.754 -26.2809L155.645 -23.039L154.666 -22.8469L153.829 -22.2705L154.212 -20.7336L156.123 -20.9017L153.352 -19.8691L150.652 -18.6203L152.157 -17.0834H149.29L148.262 -13.4092L150.795 -12.3285L150.15 -11.6081L151.153 -11.1518L149.075 -8.7504L153.065 -4.95611L158.942 -3.73137L159.826 -1.32993L159.946 -2.38657L160.782 -2.96291L158.034 -0.849644L156.72 1.5518H158.465L159.802 0.567219L158.942 0.97546L159.181 -0.0811844L160.137 0.855381L161.475 2.44034L156.147 5.63427L152.539 9.45256L153.017 13.1268L150.341 14.7357L151.799 15.5282L151.225 16.777L150.341 14.9999L148.716 13.8232H150.819L152.802 14.2554L151.99 12.7906L152.468 11.878L151.13 11.7339L150.054 12.4784L149.362 9.09233L151.225 5.17799L149.409 5.77835L147.88 6.88301L148.358 5.94645L148.908 5.03391L146.518 4.76974L144.703 3.66507L142.313 3.95325L139.351 4.43355L140.378 6.01849L140.044 5.80237L142.433 7.6755L146.04 9.1884L142.266 8.70811L139.398 7.24323L138.514 9.06832L134.285 8.25183L130.295 8.66008H126.305L120.906 7.74753L115.817 6.42673L113.069 4.79375L110.895 3.18478L103.727 1.09552L96.8461 4.96185L99.2353 5.44215L101.625 5.80237L104.516 4.33749L109.891 2.48836L105.83 5.37011L100.717 7.05111L101.099 9.95686L103.488 14.7598L102.604 14.2554L102.341 14.9759L101.433 14.5436L101.911 13.7752L101.29 15.7203L103.321 18.1218L99.9282 15.7203L97.3956 12.7665L98.9247 13.535L100.358 12.9106L99.0203 11.2536L97.6106 9.95686L96.6549 10.2931L96.4399 11.3017L92.0198 8.13176L86.4051 8.27585L77.3977 7.98767L68.3903 7.60345L71.8308 5.63427L74.9368 4.19339L70.6122 0.78334L64.8781 0.0388985L63.8029 0.903419L60.0757 0.231018L54.676 -1.13783L49.2525 -2.55467L44.1395 -4.81203L38.692 -5.77259L34.9171 -3.51525L30.5208 -2.55467L30.8553 -3.94751L32.0977 -4.69195L30.4731 -5.60449V-7.40558H28.5617L27.2715 -6.61312L28.3705 -7.06938H29.589L27.4865 -6.01275L28.6094 -5.00414H26.6741L27.1042 -3.85145L25.6946 -3.29911L27.5104 -2.89087L20.3427 -6.49304L14.6324 -10.5755L15.7314 -9.37476L17.1411 -8.82244L13.8678 -6.421L10.5229 -5.19625L10.8335 -6.10881L11.4069 -6.85325L7.15408 -3.97151L2.66234 -1.08978L2.82956 -2.19445V-3.27511L2.66234 -3.13101L3.403 -4.40377L7.05853 -5.94071L9.44775 -8.19806L8.6832 -8.36616L8.46817 -9.06258L-3.47803 -4.04357L-10.6457 2.51238L-13.4889 0.855381L-16.0454 1.09552L-15.1136 1.5518L-14.4685 2.3923L-24.2883 0.13496L-33.8452 -4.09159L-42.2553 -6.34896L-50.5938 -8.02996L-69.9944 -9.44682L-88.5349 -11.1758L-89.9445 -12.9049L-97.7812 -13.5293L-97.5184 -14.4899L-99.1431 -15.1382L-101.126 -13.9856L-103.635 -13.8415H-101.986L-101.293 -15.1623L-103.683 -16.0988L-104.973 -17.3716L-111.495 -13.5293L-116.68 -13.3372L-118.496 -12.6167L-120.073 -11.488H-119.069L-118.233 -10.7676L-119.045 -10.1913L-118.807 -8.94252L-119.571 -10.1913L-119.786 -11.392L-123.848 -10.1672L-127.336 -8.84646L-130.179 -5.55647L-133.309 -2.26649L-136.606 -0.873665L-141.385 0.927422L-144.634 2.96866L-147.692 4.64967L-141.887 7.05111L-136.75 10.5812L-133.118 12.5744L-129.606 12.9587L-128.889 13.8472L-126.5 14.3515L-124.875 16.2246L-120.837 18.0017L-125.974 17.5214L-130.442 14.5676L-129.128 16.2486L-127.981 18.6501L-125.257 18.3859L-124.636 20.0189H-130.466L-137.395 19.5146L-136.678 18.1938L-135.722 16.777L-141.337 17.7135L-143.225 19.8268L-148.529 21.6519L-154 23.0447L-153.02 22.3963L-153.952 22.6605L-149.891 24.7017L-145.375 25.9505L-147.764 26.3347L-148.839 25.6383L-147.119 28.2799L-143.941 30.6813L-137.968 30.8494L-132.784 31.3537V30.5853L-133.883 30.2971L-132.377 30.6573L-131.446 31.9781L-127.384 29.9129L-124.35 28.1598L-123.394 30.0329L-125.568 31.2577L-124.278 32.2183L-123.489 33.5631L-124.493 35.9645L-126.882 37.6215L-130.992 38.7262L-135.436 40.7434L-137.108 39.1584L-137.658 40.5753L-139.808 41.824L-138.327 42.2563L-139.33 43.2169L-138.828 44.1775L-142.125 45.9545L-144.013 49.0764L-144.993 50.061L-144.18 51.4778L-142.579 52.3664L-141.648 51.1416L-141.433 52.5345L-140.931 54.0474L-137.251 53.7592L-135.746 54.4556L-134.886 54.6477L-134.265 55.2961L-136.009 55.5363L-138.398 56.1847L-139.521 54.4556L-141.91 56.641L-139.282 58.2019L-137.204 60.4592L-131.254 59.5947L-128.865 55.1521L-128.292 55.6083L-127.718 55.3202L-128.459 61.0356L-126.189 65.3102L-127.169 66.8951L-128.172 68.336L-123.394 66.5109L-119.189 67.4475L-118.735 66.7751H-117.899L-116.226 68.7202L-114.291 69.4887L-113.861 66.8711L-113.383 65.046L-111.878 65.4783L-111.424 66.6069L-113.048 66.3428L-112.905 67.7116L-109.465 66.9432L-106 65.1661L-108.604 68.5041L-107.482 71.2657L-109.608 72.9228L-108.437 75.06L-111.376 76.2367L-114.124 79.6468L-116.37 80.4393L-118.902 81.4719L-120.67 84.1375L-121.005 85.7705L-122.582 85.0501L-123.035 86.1547L-123.609 85.3863L-123.489 84.4977L-129.534 86.8992L-133.739 91.3658L-131.876 90.045L-130.633 88.7002L-130.06 89.3246L-129.916 90.1171L-128.555 89.5888L-127.742 88.6282L-126.046 86.8751V88.1719L-121.267 86.683L-118.568 86.9472L-115.509 84.954L-113.359 84.4017L-112.714 83.4171L-112.093 83.0088L-112.977 82.7446H-113.932L-110.014 80.1511L-105.236 78.254L-100.218 74.5557L-95.177 71.2657L-94.938 70.3052L-95.6787 70.5933L-93.6479 68.6962L-91.4259 67.0872L-92.9072 65.6464H-95.0814L-92.955 62.4524L-91.2586 60.7474L-89.8729 60.3152L-88.5827 59.6428L-89.2994 58.442L-90.5896 57.8897L-87.1252 55.7284L-82.8007 53.3269L-78.7868 51.1657L-74.5578 50.4692L-77.0665 52.5105L-73.411 54.3596L-79.1213 53.8553L-83.183 56.4729L-84.8077 60.123L-81.8689 61.3478L-84.0431 62.4765L-85.7873 64.1095L-83.398 64.7819L-82.7051 64.0614L-80.1009 63.2449L-78.3567 61.684V62.4524L-76.2303 61.8521V60.5553L-75.2268 61.4679L-75.4658 60.123L-74.6056 59.1865L-74.1995 60.5553L-73.2438 59.5227L-71.6191 60.051L-69.5165 58.4901H-69.9227H-70.5678L-69.8033 57.7456L-68.8953 57.2173L-69.8033 55.9205L-71.7624 56.8331L-70.4006 56.4008L-69.9944 55.104L-70.7829 55.3682L-71.7863 55.5123L-71.189 55.104L-71.5474 54.7438L-69.6599 53.1588L-67.6768 51.79L-68.5609 53.2069L-67.8441 54.6237L-67.5813 53.8793V54.4556L-67.0317 53.5911V52.5345L-65.2637 53.6632L-61.7276 53.0148L-63.0417 53.3029V54.4796L-61.4648 54.2875L-63.0656 55.3922L-61.2976 55.2001L-61.5365 55.8485H-60.1985H-59.0039L-58.1199 56.9531L-54.7272 55.4883L-55.5156 56.713L-55.874 58.1298L-52.6485 58.8263L-49.4947 59.7388H-45.1702L-40.9652 59.5227L-36.1867 61.1797L-30.6914 61.3478H-32.0533V62.5965L-32.3878 61.3238L-33.4391 60.5553L-27.8243 66.8711L-18.6019 70.4733L-18.8408 69.3446L-20.3221 68.8163L-20.8239 67.6156H-22.9742L-22.3291 67.1593V66.3668L-19.7726 67.1593L-17.3834 67.2794L-17.5028 69.6808L-14.7074 71.2898L-15.0419 68.5521L-16.0932 65.4062V64.95L-15.5437 63.7012L-14.9941 66.5349L-13.8712 68.9363L-11.1714 70.065L-8.92549 69.5607L-10.144 71.0496L-9.59447 72.6586H-8.94937L-8.56709 72.1303L-8.06535 73.9554L-6.05838 75.6364L-6.99019 75.084L-8.01756 74.7478L-7.20523 75.9966L-5.58055 76.9332L-6.46457 77.0773L-7.2769 76.693L-4.4337 79.0945L-1.80556 82.2884H-3.02406L-2.02058 83.4891L-1.30382 83.2249L-1.54274 82.3844L-0.610931 83.0088L0.464203 83.249L-1.70998 85.2421V87.1633L-0.133102 85.5303L0.273102 84.8339L1.56328 84.4737L2.7101 83.7293L2.87737 86.611L4.35867 88.6042H3.23573L2.39952 89.2766H3.78525L4.95599 88.4841L3.37909 89.7329L3.23573 91.7261L4.97986 91.0777L7.05853 89.5888L7.22575 90.5253L8.49207 90.3092L6.67624 91.4139L7.36911 92.6146L6.38956 92.4225H5.38606L6.38956 93.3591L6.89127 94.5117L5.31438 93.9594L9.08937 94.92L7.7036 95.3282L7.99033 96.529L7.56024 96.7931L10.0928 100.035L11.4547 98.0178L12.506 96.3368L12.6493 97.0573L13.3661 97.3695L12.4582 98.1379L14.6324 99.5788L13.0555 99.2906L11.5503 98.9544L12.8883 101.524L15.0625 102.845L14.5368 104.622L13.9634 106.399L15.4686 105.943L16.1376 106.855L19.1242 105.51L20.9878 107.912L17.1411 107.696L16.9738 111.322L17.5951 110.289L18.2879 109.329L19.4587 110.121L21.2984 109.425L17.9057 111.01L19.387 112.018L18.1924 112.282L17.0217 112.643L17.9773 113.675L19.4587 114.588H21.0595H23.3054H22.4691L22.0152 115.188L23.377 115.02L23.162 116.101L25.0256 115.524L25.9574 113.867L25.1928 115.789L22.8036 116.293L24.0221 116.437L22.9709 117.085L24.9061 116.509L26.2919 116.053L27.1042 116.797L28.8723 114.564V116.245L28.0599 117.854L29.2545 117.734L30.8314 117.277L30.0191 120.039L32.6712 120.928V119.655L32.3605 118.718L32.8384 120.76L34.248 121.6L33.2446 122.32L32.4084 121.792L33.6507 122.801L35.7533 121.792L35.8966 123.401H37.0674L36.4222 124.53L36.1356 125.61L38.0469 127.099L37.7841 128.444L38.931 129.981L39.5283 131.974L38.5248 134.328L37.354 136.105L37.0674 135.697L36.6134 135.552L37.4257 134.712L37.8558 135.408L38.3336 134.28V134.784L38.5248 133.127V131.35L37.0674 133.007L37.4496 133.919L37.2585 132.791L37.5691 130.005L34.033 129.741L29.828 128.66L30.7359 132.358L32.1455 136.585L32.4322 135.985L33.4596 136.585L32.4561 137.45L33.603 138.194L32.7667 139.371L32.3844 138.77L33.7941 140.668L36.0161 140.98L34.4392 141.556L32.7667 143.549L32.4084 147.608L32.0499 152.122L31.142 155.124L30.4969 157.526L32.1933 171.622L37.6886 184.566L37.0435 184.326L36.924 185.046L37.8558 185.262L39.2893 184.398L40.2211 185.815L40.6512 187.856L39.6477 187.159L39.361 186.055L41.4635 191.722L45.2863 198.038L47.1738 201.112L49.563 203.513L53.8159 205.434L57.9971 207.596L62.3933 214.008L65.5232 221.212L70.7317 228.68L73.8616 236.581L74.4112 236.365V237.494L74.889 237.11V236.461L75.4863 237.47L75.343 238.646L73.336 236.989H70.3972L74.2678 240.88L78.4967 241.192L81.3877 246.139L82.8452 251.782L89.6306 257.81L92.9277 256.489L91.0163 254.256L88.8183 252.215L86.9785 246.283L83.9681 241.48L84.3504 242.273V243.161L81.1249 237.11L77.4694 231.538L75.0801 228.969L72.6909 226.111L71.568 221.02L70.3733 215.977L75.1518 218.811L78.7357 221.98L81.7222 228.008L84.9477 233.868L90.8013 238.67L95.5798 244.41L94.648 246.451L96.2966 247.316L96.0337 247.796V248.324L99.3309 250.534L102.413 253.247L101.911 253.607L101.29 253.199L108.721 261.82L111.54 271.282L110.847 273.059L111.492 275.917L114.407 278.751L117.943 280.888L126.855 286.051L136.269 290.59L140.067 292.463L143.986 294.096H150.198L155.956 292.775L155.096 292.631L155.55 291.983L157.222 292.679L159.611 293.832L158.536 293.279L157.652 292.487L161.714 295.104L164.557 297.914L168.045 301.756L172.824 303.63L176.527 303.245L179.323 300.844L183.313 303.245L185.559 305.983L186.873 306.848L187.996 307.928L187.422 308.336L186.562 307.568L190.122 312.587L195.33 316.429L194.255 320.296L197.361 323.634L197.6 322.145L196.382 320.608L200.802 325.675L204.84 329.565L204.553 328.701L204.027 327.956L205.556 329.181L206.464 331.15L209.881 330.406L213.393 332.927V331.895L214.205 331.726L214.851 334.128L216.69 334.416L217.694 332.303L216.977 330.838L220.848 327.068L225.435 329.613L226.176 329.013L226.582 328.581L227.155 329.805L228.182 330.622L226.534 332.591L229.783 338.258V344.046L229.377 349.617L229.879 350.001L230.906 350.41L226.343 356.269L222.663 360.904L224.909 362.489L227.131 364.314L225.292 363.161L223.643 361.721L219.701 365.275L216.619 370.27L215.328 374.376L214.349 378.795L215.758 380.092L217.216 381.316L217.646 380.26L218.387 379.419L218.673 380.02L218.339 380.548L218.864 379.347L219.39 377.954L218.1 381.028L216.857 384.294L216.404 384.606L215.711 385.399L213.321 390.01L214.158 394.284L213.608 395.773L213.178 396.902L215.782 398.847L218.769 400.816L223.906 409.509L227.752 419.115L231.456 428.217L235.207 436.55L247.368 445.915L258.884 455.113L260.103 468.801L258.359 481.697L256.782 494.568L254.201 507.272L253.843 517.79L253.437 528.669L249.757 539.403L245.194 547.857L245.552 553.092L246.699 558.327L245.672 562.073L244.477 565.747L246.866 571.895L250.594 570.454L249.638 571.943L248.587 573.336L250.235 573.648L250.044 576.049L249.638 575.041L248.563 574.825L248.324 578.979V582.629L247.679 583.902L246.699 584.863L247.655 586.256L249.327 586.4L247.87 589.041L245.815 591.323L246.938 591.515L248.395 592.283L246.006 592.571L246.819 593.532L244.931 595.933L245.982 595.405L245.194 597.134L243.784 598.455L244.525 597.158L243.832 596.005L243.115 596.918L241.467 596.342H242.518L243.474 595.861L242.112 594.709L238.934 594.517L239.77 595.117L239.269 595.549L239.961 595.741L240.344 594.901L238.6 597.831L237.453 600.352V599.44L236.545 599.584L238.002 598.599L239.531 597.735V599.392L241.538 600.28L242.518 599.968L242.685 601.289L243.163 601.625L243.641 601.097L243.187 602.898V604.315L242.542 604.459V604.987L241.371 604.459L240.32 604.699L243.067 605.155L245.982 606.26L245.289 606.428L246.054 607.628L243.832 606.452L242.327 607.34L241.634 606.5L240.63 606.812L242.566 608.013L243.426 609.67L242.733 609.31H241.944L242.064 610.27L243.044 610.534L241.538 612.023L242.088 614.857L242.733 613.2L243.784 612.143L243.259 613.944L244.501 616.082L243.545 615.337H242.327L242.47 616.706L243.689 617.835L242.733 617.691L241.825 617.33L242.47 618.771L243.904 619.372L242.231 618.603L240.392 618.771L242.064 619.516L243.569 620.692L242.852 620.812L242.16 620.452L242.685 621.605L243.713 622.325L244.286 621.221L244.979 620.188L244.644 620.933L245.242 621.341L244.095 622.445L242.59 623.19L243.928 624.271L244.859 624.847H244.238L245.266 627.08L243.975 626.384L245.672 627.488L245.791 628.713L245.289 628.185L246.365 630.274V627.633L247.44 629.001L246.58 627.08L248.085 627.729H249.662L249.853 630.274L248.348 631.787L249.423 630.322L248.539 628.905V629.722L248.419 630.466L246.866 630.274L245.051 629.362L245.242 631.379L245.074 633.468L246.508 632.483L247.965 632.099L246.89 632.988L245.982 633.828L246.627 634.885L247.296 635.605L248.61 633.876L248.252 633.228L249.256 632.411L250.546 632.267L251.43 632.411L254.345 632.988L251.454 633.492H249.208L248.587 635.893H246.627L248.157 637.574L250.355 638.151V636.23L249.996 635.437L255.324 635.077L252.481 638.151L252.983 637.19L252.457 636.446L251.955 637.118L251.239 637.574L251.788 636.806L251.071 636.47L251.478 638.655L254.703 640L256.375 637.19L257.092 633.444L262.396 631.355H267.294L265.861 628.017L262.444 626.936L264.045 624.535L263.161 623.886L265.383 621.197L267.366 618.411L265.837 617.306V616.154L266.936 617.594L268.25 618.315L270.281 615.793L269.612 614.185L275.346 609.069L278.524 603.378L272.813 598.935V591.875L276.684 589.474L279.909 587.264L280.268 585.367L280.411 583.566L282.538 580.924L284.497 578.523H283.063L281.916 577.682L286.48 576.914L284.449 574.657L285.166 574.897L285.715 575.377L282.131 571.799L282.8 566.732L288.057 568.677L293.6 566.156L293.385 561.857L292.764 556.406L303.706 556.574L313.12 551.771L314.864 549.514L316.298 547.112L315.748 544.398L314.625 543.15L313.574 539.427L312.212 536.113L310.731 534.192L309.488 532.295L309.369 527.732L310.492 523.362L314.195 534.24L326.715 534.577L331.947 529.101L335.842 522.209L337.729 518.079L339.569 515.197V513.18V511.307L340.166 512.339L340.931 513.228L341.552 512.651L342.269 512.195L339.688 516.998L336.319 521.993L344.491 512.627L349.747 503.022L350.87 496.994L350.392 490.846L351.419 490.414L351.921 489.429L351.037 489.189L350.416 488.493L351.873 488.013L352.518 488.781L359.686 482.441L368.12 478.239L369.602 476.293L370.318 477.326L372.54 476.173L374.284 475.261L376.244 476.726L378.919 475.813L382.456 471.395L384.845 465.751L389.91 450.214L391.726 433.404L391.152 433.019L390.985 431.963L391.797 429.561L392.634 427.16L393.255 427.976L393.374 429.009L397.532 424.206L399.276 418.515L402.645 416.906L404.437 413.4L407.184 408.813L409 401.008L408.833 401.152ZM222.711 159.639L214.683 165.066L205.413 166.699L204.792 165.691L204.911 162.689L210.789 162.232L217.957 160.768L219.056 159.735L222.138 157.862L222.902 158.606L222.783 159.639H222.711ZM222.305 153.827L227.083 153.323H231.408L230.954 152.891L231.504 152.411H230.046H228.493L232.674 151.546L237.118 149.145L235.255 150.609L233.726 152.242L233.893 153.972L231.958 156.373H226.558L222.114 157.838L221.373 156.997H219.629L219.987 154.932L222.377 153.731L222.305 153.827ZM181.067 127.748L180.899 128.132L182.739 126.379L182.572 127.436L181.975 128.372L184.364 125.971L188.163 126.283L192.607 128.828L197.385 130.942L198.221 134.376L199.679 137.185V138.338L201.949 140.091L206.894 141.268H211.434V141.82L211.171 142.108L215.209 142.997L217.765 145.11L218.1 147.344L219.51 148.04L218.315 148.856L217.67 150.225L214.158 148.592L211.028 145.951L211.458 152.555L207.826 158.726L204.601 153.683L201.447 154.26L203.191 150.465L203.358 145.663L197.983 143.885L194.709 148.688V148.28V146.407L191.245 153.227L191.603 160.984L185.726 160.696L187.135 148.328L185.63 148.904L184.436 149.985L186.275 146.215L188.808 142.757L189.214 143.093L190.074 144.03L196.31 142.973L201.734 141.916L199.822 140.331L197.146 139.275L194.996 139.035L191.699 138.65L186.729 137.786L182.548 137.642V136.273L181.736 135.168L176.384 138.218L172.776 136.729L170.028 137.834L167.233 137.714L174.018 131.878L181.186 127.796L181.067 127.748Z" fill="#F7F7F9" stroke="#DCDDE0" stroke-linecap="round" stroke-linejoin="round"/>
<path d="M894.963 27.0871L892.294 25.2147L887.811 23.3423L888.528 23.5706L889.229 23.7685H888.04L887.216 24.1034L886.774 23.7229L887.384 23.3423L885.234 23.1444H883.45L884.807 23.9969L884.395 25.2756L885.432 25.6562L885.036 26.9806L883.236 24.0882L882.199 21.4851L878.372 19.019L873.69 16.8725L874.224 17.1313L872.912 16.5224L869.512 14.5587L865.592 13.493L865.394 12.9907L866.187 13.3104L858.837 10.9965L850.572 10.4637L847.735 10.2049L843.008 9.5503L843.359 11.0726L842.505 12.0469L844.381 14.1324L841.483 15.6547L839.745 14.8174L837.747 13.6909L837.274 12.8385L837 12.1078H835.704H834.362L827.591 11.5141L820.591 11.6511L817.618 11.9099L814.766 11.1639L814.491 10.1744L814.186 9.51986L812.662 7.37342L807.431 5.22699L799.715 6.12514L792.365 5.56188L793.356 5.02908L791.968 3.97871H790.001L788.049 4.51151L787.957 2.8522L785.014 1.9236L786.539 1.80182L787.912 1.31469L781.263 -0.207605L774.233 1.95405L773.455 0.994997L776.505 1.26901L776.353 0.477423V-0.238056L777.085 0.264301L777.756 0.00551605L777.634 0.705769L777.298 1.51258L778.503 0.720997L778.899 -0.496845L775.331 -0.405512H772.403L775.758 -0.725191H779.402L771.701 -2.93251L762.979 -3.46531L763.436 -2.70417L764.092 -1.91258L760.89 -1.53201L759.151 0.112076L760.463 -0.0249386H761.698L760.569 0.660103L759.395 1.08634L760.524 2.01494L761.118 3.35456L758.068 2.80653L755.72 3.67424L756.162 3.94825L756.696 4.07004L755.857 4.22227L755.095 4.54195L755.507 4.67896L755.827 4.96819L751.099 2.98921L746.677 4.3136L744.481 3.23277L742.102 2.19761L740.669 2.83699L739.8 4.54195L737.634 6.15559L735.179 5.80545L732.876 4.1766L731.351 2.24329L732.876 1.99972L731.595 0.84277L730.726 1.83226L729.216 -0.314165L731.321 0.112076L732.846 -0.253284L731.214 -1.1971L729.689 -1.83646L731.565 -2.27793L732.068 -3.13042L730.299 -3.37398L731.824 -4.39392L727.814 -5.91621L724.642 -6.47947L723.467 -6.38813L722.324 -6.06845L719.533 -7.21017L717.017 -7.45373L716.209 -5.03329L713.86 -3.86112H707.76L702.972 -5.96189L703.628 -6.25112H704.329L697.635 -7.11883L689.797 -6.5099L690.285 -5.85533H691.123L689.415 -6.70781L688.287 -8.91513L685.984 -7.52985L684.581 -9.05215L681.379 -8.74768L679.412 -7.37762L681.348 -7.71252L682.873 -7.48418L680.662 -6.69258L678.329 -6.60125L676.896 -5.61176L674.303 -4.9724L670.262 -3.89157L666.724 -2.94774L669.24 -4.16558L671.604 -5.88577L676.179 -7.74297L680.327 -10.2548L679.854 -10.4527H679.335L683.056 -11.6857L686.716 -13.3907L689.568 -16.0243L686.609 -18.2164L688.455 -17.7444L690.163 -16.9833L689.797 -19.0536L688.47 -20.4541L688.775 -19.8148L687.555 -19.3581L687.357 -20.9717L685.694 -21.0935L678.939 -22.6158L670.399 -21.8242L672.077 -22.8441L672.885 -24.3664L670.338 -24.6557L667.776 -24.2142L667.532 -24.7927H664.147L666.922 -25.7213L669.728 -26.1932L660.06 -27L659.465 -21.0783L654.982 -21.2457L650.651 -21.7176L651.825 -20.515L652.923 -19.282L649.263 -19.6169L647.51 -19.1145L644.46 -18.5665L641.41 -18.3686L640.892 -19.8909L636.317 -19.6625L635.524 -19.1906L634.136 -18.7187L635.539 -18.6122L637.369 -18.7339L630.583 -16.8615L623.583 -16.0699L621.174 -15.4306L618.231 -14.5933L619.42 -14.365L620 -13.6495L619.496 -13.9083H618.932L618.765 -13.0862L618.185 -12.3555L617.026 -12.4621L615.867 -12.9797V-12.2642L617.819 -11.64V-11.2747L618.795 -10.7267L617.453 -10.8028L615.928 -11.0007L616.447 -10.4679L615.715 -10.681L617.346 -9.76763L619.298 -9.09781L616.63 -8.35189L613.076 -7.45373L606.824 -7.56029L600.831 -6.29679L600.541 -5.3073L601.228 -4.30258L601.594 -2.30838L602.554 -0.862192L604.964 -0.101046L606.58 1.96928L602.966 1.57348L600.343 0.0511818L595.768 -0.11627L592.413 0.477423H593.649L594.381 1.3299L591.636 1.51258L588.586 1.3299L592.505 3.87215L595.082 5.86635H595.921L596.729 5.65323H592.52L588.052 4.6333L586.939 0.0664062L585.277 -2.97818L584.636 0.857996L580.626 3.65901L583.264 8.37814L582.959 13.5692L589.059 14.1476L594.304 17.8925L593.664 18.3035L593.039 18.6384L593.679 19.978L594.304 20.4804L595.433 20.7544L596.699 21.1502L594.045 20.9218L591.773 19.8715L592.124 18.608L592.002 16.7355L587.93 14.9849L584.621 17.6032L585.063 18.4253L585.505 19.3843L584.865 20.526L583.996 21.6525L582.273 23.6924L580.031 25.1234L575.151 26.3564L569.859 24.4688L573.352 24.21L577.149 23.7838L578.414 22.8552L579.528 21.4242L581.297 17.0248L579.772 12.808V10.4789L579.863 8.33247V6.90151V5.37922L578.75 4.61807L577.774 3.6438L579.573 0.599209L579.146 -3.00863L575.182 -3.70889H571.766L567.572 1.37557L563.577 6.27736L564.751 7.79966L565.056 9.90043L564.949 11.7576L567.496 12.2295L568.792 14.102L570.225 15.0762L569.448 16.7051L568.502 18.2274L563.409 15.6547L558.575 13.9193L553.055 11.2248L546.04 12.1686L547.565 14.7109L545.094 16.4311L544.164 17.2836V15.8983L543.463 15.3502V14.7565L541.938 14.9392L541.145 15.8222L537.592 15.9592L533.611 16.629L530.821 17.9077L527.451 18.136L528.305 17.5271L529.326 17.314V15.7917L528.488 15.0762L529.662 14.9849L530.806 14.6804L527.1 15.1219L526.017 17.2379L525.331 17.6032H524.553L523.471 16.7812L521.336 17.3901L519.811 18.0143L518.393 18.8363L515.953 19.4148L516.197 20.7544L514.199 20.6478L513.086 21.7134L512.75 22.5507L512.628 23.3118L510.875 23.9055L509.167 24.5601L507.733 23.6772L505.568 22.1701L506.849 20.3586L509.899 19.8562L505.781 16.5224L500.764 16.3854L503.158 18.6993L502.152 21.6069L502.991 22.8095L503.738 23.936L503.143 26.0672L503.052 28.3811L502.106 27.2394L501.069 27.6504L501.298 26.7522L500.169 25.9759H498.339L496.677 26.4934L494.1 27.7265L491.614 29.3401L491.919 31.4714L493.2 33.9222L489.19 33.3894L487.406 32.5369L485.667 31.8824L484.142 31.1517L483.227 31.8215L482.221 32.2629L485.271 34.5007L485.621 36.5406L482.572 36.2209L479.781 34.6986L478.164 33.359L477.478 31.3039L477.356 28.1223L473.788 26.4782L474.398 26.326L474.688 25.778H473.757L472.842 25.6105L473.925 25.2908H472.583L473.163 25.1691H473.742L471.973 23.9055L469.975 22.8856L476.731 24.9711L484.356 26.9958L493.688 24.6362L491.218 18.4101L487.924 17.2379L483.242 15.0458L477.798 13.2951L473.025 14.9088L473.712 13.9193L474.276 13.082L473.498 12.7623L472.751 13.1734L472.263 12.5036L470.814 12.7623L471.607 12.3209L470.296 11.7728L471.821 11.9403L473.346 11.4227L471.729 10.7377L470.082 10.418L467.993 11.1792L465.34 11.5902L464.699 11.1792L463.891 11.4227L463.54 10.2658L461.42 9.68731L464.836 9.44374L467.703 8.36291L466.56 7.72355H465.248L462.579 6.68839L460.109 8.78915L460.49 7.76922L459.118 7.90622L460.216 7.03851L458.691 7.26686L459.88 6.88628L459.164 6.5666L460.094 6.32303L460.841 5.74456L459.103 5.21176L457.288 5.91201L457.883 6.0338L458.371 6.41438L457.135 7.23642L455.504 8.42381L455.824 7.06896L455.915 5.66845L453.415 7.4952L451.28 9.51986L452.301 7.70832L453.826 6.00335H452.85L452.423 6.27736L450.807 5.86635L449.434 6.36871L448.885 8.14979L446.659 9.06316L446.979 9.53507L447.406 10.1136L446.034 9.99177L444.417 9.77865V9.07839H441.245L442.267 9.67208H443.441L443.167 10.0679L443.624 10.4485L443.396 10.6159L443.792 11.3618L441.688 10.8442L440.803 10.4028L439.766 11.3009L440.33 12.4883H439.049L437.921 13.3713L438.836 11.849V10.2353L437.982 11.6054L436.93 12.808L436.427 10.966L435.984 12.2752L435.252 12.4427L435.634 12.9146L434.795 12.5644L433.91 12.3665L434.444 13.4017L433.56 12.7015L432.157 14.102L431.836 15.6243H430.769L431.501 16.0505H429.336L428.512 16.8725L430.388 17.2227H432.202L431.12 17.4662L430.952 17.8316L428.512 17.5728L429.305 18.3187H427.917L429.153 18.7297L428.314 19.1103L428.482 19.3539L427.567 19.1712L428.283 19.6888L426.941 18.5775L425.34 18.9581H426.255L427.14 19.1408L425.95 19.5822L424.532 19.7192L424.791 19.8715H424.075L424.822 20.2368L424.075 20.724L425.477 20.252L426.804 20.6022H425.615L425.127 21.1654H426.026L426.926 21.0741L426.286 21.3481L426.438 21.8809L425.508 21.6678L424.425 21.4546L424.547 21.1654L423.709 21.4546L424.075 21.82L422.961 22.2158L424.486 22.4137L426.011 22.5203H424.044L423.465 23.388L421.269 23.5706L421.726 24.3927H421.238H420.735V24.5297L421.253 24.6515L419.957 25.0777L419.606 24.9407L420.323 25.2756L421.177 25.2147L420.125 25.5953H419.256L419.408 26.4782H420.43L419.637 27.0871L418.31 27.6352L419.164 27.8331L419.698 28.5333L418.447 28.3202V29.3401L417.67 29.5076L418.569 30.1165H417.289L416.938 31.1212L417.715 30.8015L417.578 31.4409L418.28 31.3039L418.89 30.8929L417.807 31.6997H416.465H417.273L416.984 31.2582L415.992 31.6388L415.184 32.1564L414.849 32.5369L415.52 32.4304H414.62L414.483 33.0089L415.245 32.7349H416.023L415.337 32.9175L414.91 33.4808L415.382 33.9679L414.406 34.6682L412.683 34.9726L409.893 37.0582L409.252 37.6214L411.341 37.0125L412.226 37.7737L412.958 36.7385L413.842 36.1905L414.757 35.6881L414.559 36.0839H415.123L414.101 36.7842L412.82 38.0781L413.491 37.9563L413.324 38.4587L411.799 38.7022L410.594 38.9915V38.1238L408.962 38.3826L409.283 38.5957L409.71 38.7327L408.185 39.2198L408.413 39.4177L406.888 39.9353L407.453 40.4377L407.056 40.6508L407.376 40.8944L406.507 40.3768L405.699 40.0571L406.385 40.94L407.193 41.7012L405.196 40.5747L402.939 40.7117L403.671 41.1227L403.015 41.2749L403.869 41.5033L404.738 41.2749L404.387 41.8686L405.043 42.1122L403.045 42.2035L401.139 42.0817L402.253 42.4623L401.078 42.6145L402.436 42.9495L403.96 43.33L403.381 43.8172L402.741 44.1216L402.359 42.8733L401.795 43.7715L401.261 43.2082L400.514 43.3148V43.9237L401.109 44.1977H399.157L397.845 43.8476L398.196 44.2282L398.654 44.4717L398.318 45.2177L397.495 45.7048L398.181 46.1158L397.54 46.2376H398.516L399.66 46.6486L397.739 47.0749H399.126L397.357 47.3032L397.784 47.7904H400.133L402.085 47.2119L402.862 47.6838L403.945 47.8817L403.213 48.3232L402.603 48.8407L400.362 48.0644L397.693 48.4602L398.044 48.6733L397.571 48.7951L398.12 49.2213L398.821 49.0539L398.44 49.1909L397.434 49.3431L398.364 49.8759L399.447 49.5714L399.035 50.6675L397.998 51.0328L398.303 51.4286L398.547 51.8701L399.05 51.5809L399.294 51.0328V51.794L399.736 52.4638L400.987 51.4134L403.228 50.5914L402.283 51.0785L401.658 51.9767H400.514L400.621 53.3467L399.98 53.4685V53.8491L399.126 54.047L398.41 54.458L398.821 54.1688L398.898 53.6664L398.227 54.3819L398.425 55.1887L398.699 54.9299L398.791 55.3409L398.913 54.9908L399.142 54.4885L399.614 54.9756L400.011 55.0669L400.941 54.5037L401.612 54.2449L400.331 55.0517L400.545 55.3409H401.063L401.566 55.2496L400.651 55.6758L399.95 56.1478L400.575 56.9546L401.78 56.3152L400.484 56.5435L400.789 57.1068L399.889 56.8023L398.974 56.4979L400.011 58.6291L402.466 59.3902L403.991 59.7099L407.636 58.7813L409.069 57.3656L409.755 56.0412L411.021 56.437L411.997 55.5236L412.134 54.4885L412.82 52.9662L413.369 54.6559L414.894 56.7414L414.361 57.4874L415.535 58.7509L415.154 59.4968L416.038 59.1314L417.685 65.5403L418.63 70.4421L425.721 67.5345L428.451 60.8516L429.122 59.8469L429.549 58.6443L428.878 58.0963H428.009L430.525 57.4113L431.501 56.2695L432.812 56.437L433.316 55.3714L433.788 55.5236L434.093 55.2648L433.331 55.1126L432.797 54.8386L434.322 54.3362L434.627 52.1441L432.812 50.7284L430.479 49.7389V47.836L430.113 46.1615L430.495 46.0397L430.235 45.6744L431.089 44.4413V42.371L432.111 41.9752L432.019 40.0875L433.178 41.1227L433.377 40.4377L435.527 39.2351L437.235 38.5044L439.69 36.5406L442.435 34.5007L441.688 33.5417L440.91 32.7196L442.054 32.0955V30.5732L443.441 30.1165L444.509 29.9186L446.811 28.5333H449.114L450.761 29.5076L452.286 30.8168V32.0042V32.8262L446.781 36.4949L442.206 39.2351L441.596 41.3815V43.7258V45.994L441.794 47.9274L443.121 50.6523L446.293 51.1242L445.881 51.931L446.674 52.3572L446.339 52.7226L445.79 53.2858L453.415 50.9872L461.39 49.7541L461.298 50.6827L460.627 50.3021L462.884 51.9919L465.157 53.0575H461.375L459.941 55.0365L454.955 54.458L450.166 54.6559L447.635 55.8737L448.306 57.396L447.635 57.5483L447.299 58.1724L448.626 58.5378L449.922 58.9183L449.8 60.0296L449.556 61.3692L448.962 63.5918H446.689L445.302 62.4348L443.365 61.7802L441.444 64.018L440.605 66.1036L441.047 68.387L441.276 70.6248L439.476 72.4059L437.342 74.0347L438.241 73.4106L439.537 73.0909L437.143 74.3239L436.991 73.9282L434.475 73.6541V73.1366L428.375 73.8216L422.275 75.9072L422.778 76.242H423.388L420.582 75.3135L417.304 74.7045L417.792 74.126H418.539L415.047 75.6483L413.888 74.2326L412.027 74.0804L410.67 73.9586L410.579 72.9843L409.328 72.5733H409.847H410.304L410.091 71.9644L409.481 71.8122L410.137 70.2899L409.877 69.2699L410.777 69.0111L410.67 68.661L411.753 67.8694L412.439 67.7172L412.195 66.1949L411.494 66.3928L411.799 65.6773H410.67L410.914 64.3681L409.13 66.1188L408.352 65.586L407.453 66.3167L406.843 65.9513L406.172 65.586L406.294 67.4888L406.736 68.5392L406.278 68.6762L406.019 68.2043L407.346 71.4773V74.5219L408.795 75.6788L410.655 77.4142L408.154 76.4247L407.087 78.0992L405.013 77.0184L403.045 77.9166L403.488 78.221L404.021 78.3276L400.834 78.0384L397.144 79.926L395.436 82.9706L397.174 84.2037L395.894 84.3254L394.948 84.7212L395.36 84.8582L395.665 85.1931L394.567 84.706L393.499 84.9343L394.704 85.3606L396.015 85.4367H395.604L395.741 85.8477L392.6 85.9391L389.229 86.9133L388.284 88.5726L387.613 90.2928L385.585 91.5107L385.493 92.287L382.001 92.7285L378.951 91.4193L377.914 93.3679L377.076 95.6665L374.026 94.9663L371.25 96.2754L371.815 96.3972L372.364 96.2298L372.486 96.5495H372.882H372.104L371.418 97.3867L374.071 98.0261L375.795 99.3505L376.237 98.8786L376.893 99.0004L376.71 99.3048H377.792L377.64 99.7767L378.601 100.096L378.692 101.543L379.729 103.065L380.4 103.841L381.086 104.602L381.269 105.485L380.812 105.592L382.077 106.871L382.703 108.484L382.062 107.221L381.163 106.277L380.751 108.073L381.071 109.063L380.476 111.285L379.317 113.843L380.08 114.315L380.476 114.924L370.473 113.599L361.704 113.508H361.963L362.085 113.675L360.56 114.041L359.234 114.893L359.539 115.548L360.24 115.73L359.798 116.568L360.606 116.141V117.329H360.987L360.56 119.978L360.881 122.718L359.508 126.326L358.822 129.736L359.539 129.461L359.996 128.837L359.844 129.812L359.371 130.618L360.057 130.451L360.682 130.116L360.271 132.476L360.088 135.307L362.36 135.14L364.144 134.424L366.279 136.342L368.978 138.641L370.732 137.56L372.76 136.281L376.496 135.672L379.424 134.47L381.498 133.085L382.748 131.029L383.572 129.598L383.877 128.807L384.304 126.447L385.295 123.875L389.961 120.434L392.295 117.055L393.606 114.254L396.778 113.173L397.495 113.797L398.516 114.36L400.041 114.573H401.566L402.481 114.391L403.411 114.863L405.165 114.01L405.623 112.138L409.115 110.905L412.165 113.508L414.04 115.822L415.855 118.014L416.48 119.78L417.898 121.561L418.844 121.119H420.445L422.397 122.154L423.77 123.083L425.676 124.94L427.124 126.934L426.743 129.72L426.301 131.867L427.826 131.44L428.985 129.492L429.671 129.02L430.22 128.533L429.671 127.224L428.97 126.493L430.8 124.194L433.605 125.838L432.782 123.585L430.967 122.185L428.375 120.952L427.765 119.171L424.562 117.648L421.375 114.497L420.003 111.133L417.182 109.809L417.944 106.581L421.421 105.988L420.964 106.383H420.567L420.979 107.723L421.68 108.895L422.275 107.845L422.977 106.932L424.593 108.621L426.042 110.692L427.307 112.503L431.105 114.832L432.294 115.685L433.956 117.07L435.969 118.592L436.64 120.647V122.642L436.198 123.738L438.607 126.889L441.169 128.716H440.666H440.147L440.635 129.949L441.215 130.892H444.158L446.689 131.38L444.677 131.547L442.237 131.273L441.977 133.739L443.304 135.946L444.006 135.596L444.829 136.906L445.546 136.038L446.644 136.966L446.11 135.14L445.47 133.267L446.415 133.937L447.421 133.77L446.903 133.039L446.202 132.141H447.726L448.916 132.993L447.909 130.39L445.027 128.868L446.232 128.548L445.988 127.3L446.567 127.62L446.354 128.213L445.607 125.762L446.003 123.098L446.674 124.423L448.016 125.351L447.223 124.864L447.467 124.286L448.077 124.818L448.824 125.153L448.458 124.636L448.108 124.118L448.946 124.21L449.892 124.651L448.794 123.753L448.153 122.611L452.195 122.002L456.327 123.007L455.488 124.042L454.802 124.955L456.937 123.433L459.011 121.804H460.826L462.351 121.424L460.231 119.597L458.005 116.918L460.246 113.356L462 109.565L461.71 109.717L462.183 109.306L461.68 108.789L462.183 108.195L462.351 108.652L462.152 109.093L463.937 107.83L463.769 106.049L464.333 105.561L465.202 105.166L465.126 105.455L465.233 103.461L465.889 103.735L466.163 104.42L467.52 102.897L469.152 101.908L469.777 102.441L469.96 100.918L470.54 102.243L472.065 102.365L470.54 102.913L469.015 102.639L469.991 103.065L469.655 103.567L472.537 104.07L475.023 104.846L473.285 105.851L471.76 106.916L474.322 108.545L476.822 109.23L479.964 108.058L482.709 106.916L480.62 106.581L478.591 106.003L478.363 104.161L478.286 104.374L482.282 102.547L486.475 100.827H488.321L490.074 100.721L488 102.045L485.728 102.38L486.918 103.445L487.787 104.526L486.079 105.333L485.576 107.084L483.929 106.932L483.12 106.779L483.471 107.312L482.693 107.693L484.813 108.789L486.735 109.9L488.504 111.209L490.227 112.381L492.102 113.005L494.054 113.386L492.789 113.082L491.782 113.767L495.473 116.218L495.717 120.221L489.297 122.246L482.297 120.967L479.872 119.627L477.57 118.668L473.559 118.912L469.808 120.191L465.751 120.921L462.351 121.424L462.991 122.459L464.409 122.809L462.488 123.037V123.799L457.776 123.951L454.207 126.995L455.366 126.858H456.525L456.281 128.944L457.029 130.466L456.419 130.664L455.854 130.938L455.732 130.207L455.244 129.751L455.702 131.029L457.334 132.476L457.471 134.089V135.414L458.767 135.094L460.109 135.246L458.874 135.84L457.776 136.342H458.767L459.728 136.007L459.347 136.373L459.514 136.799L461.497 136.494L462.808 137.682L466.285 136.951L470.052 136.845L472.766 137.758L475.496 137.925L478.454 136.555L481.397 135.931L480.909 137.454L481.321 139.174L480.848 139.006L480.437 139.098L480.65 140.909L480.94 142.842L481.733 143.04L482.51 143.817L481.321 145.933L480.101 147.988L479.125 148.521L477.905 150.667L476.975 154.214L477.692 157.852L476.868 155.889L476.09 153.91L473.468 154.579L470.906 153.894L470.982 154.351L470.616 154.655L469.869 153.59L470.799 153.833L468.618 153.072L466.514 153.605V153.087L465.706 154.047L461.939 154.427L457.852 153.879L453.277 152.935L449.236 151.55L444.951 149.251L440.193 149.556L438.394 152.479L437.845 155.523L434.795 156.634L431.471 154.61L428.283 153.301L425.538 151.626L423.251 149.936L420.308 148.688L416.999 148.11L414.178 147.318L412.5 146.207L411.387 144.136L412.454 143.193L413.598 142.051L413.491 140.62L413.324 139.524L413.08 137.271L413.644 135.079L412.683 135.155H411.616L411.112 134.835L410.502 134.683H408.642L406.477 136.494L405.379 135.307L401.932 135.17L397.906 135.444L393.56 135.779L384.929 138.671L378.738 142.005L377.396 141.442L376.527 141.259L376.191 140.863L376.115 140.331L372.775 140.909L369.847 139.387L368.505 139.6L367.453 141.122L366.203 143.36L364.678 145.552L362.467 146.831L360.316 148.17L358.456 151.565L357.495 155.34L357.694 156.497V157.913L356.016 160.699L353.515 162.8L350.969 163.972L348.605 165.205L344.487 170.914L341.056 177.551L339.348 181.326L338.159 186.502L338.571 185.756L339.501 187.111L339.714 188.283V190.612L340.111 190.231L339.562 190.673L340.385 195.56L339.562 200.735L338.144 202.912L337 204.846L338.296 205.668L338.891 207.312L339.333 206.703L340.019 206.413L339.394 206.809L339.028 207.433L339.76 207.159L339.287 207.707L343.207 207.997L346.866 208.773L342.2 208.91L338.921 211.163L340.111 210.996L341.636 211.133L340.187 211.041L338.86 211.407L339.44 211.97H340.599L340.477 212.838L341.041 213.675L342.673 213.325L343.862 213.568L343.039 213.309L342.353 213.644L342.703 214.086H343.435L342.886 215.06L344.549 215.715L344.274 216.156V216.674L344.503 216.476L344.945 216.156L346.561 219.52L348.498 222.991L348.849 222.854L349.337 222.672L349.017 223.326L348.376 223.204L349.383 224.894L351.213 225.838L350.679 226.264L350.45 226.401L354.293 229.324L358.334 232.369L364.129 234.698L370.534 233.175H369.527L370.091 232.917L372.699 232.688L373.385 232.78L374.483 233.038L375.444 232.536L375.993 233.084L375.673 233.221L382.169 232.932L388.863 229.781L391.242 229.263L394.292 228.791L393.759 229.354L395.665 229.476L396.976 230.588L398.257 230.877L397.998 231.638L398.394 231.425V231.805H398.852L398.242 231.988H399.142L399.66 234.896H401.978L402.085 235.094V234.683V235.109L402.329 235.398L402.253 234.759V234.119L402.359 234.789L402.71 235.368L403.015 234.774V234.363L405.043 234.88L406.156 233.723L407.071 234.119L407.742 232.764L407.163 233.952L407.376 235.002V234.546H407.819L408.413 235.855L409.389 236.722L409.755 236.327L410.106 236.083V237.286L410.548 238.412L410.64 240.543L411.692 241.853H413.766L415.748 241.426L414.483 242.949L414.147 245.217L411.6 245.506L409.862 246.709L409.435 246.359L409.115 246.633L409.893 247.333L410.929 247.652L409.984 247.911L409.252 247.363L408.718 249.023L408.23 250.788L407.986 250.484L407.62 250.058L408.444 251.9L409.74 252.95L408.871 252.798L408.291 252.082L409.328 253.529L408.993 253.726L409.847 255.02L411.173 255.736H410.685L410.213 255.553L414.498 260.668L419.378 261.749L418.036 263.606L416.877 265.235L418.188 265.768L419.85 265.509L418.325 269.574L419.332 274.43L419.744 277.322L421.116 280.367L420.552 284.051L418.752 286.821L416.221 293.504L415.687 300.598L418.173 306.687L421.36 312.609L422.565 316.262L423.068 320.022L424.715 328.304L428.924 333.967L429.412 337.331L431.105 341.045L432.309 343.192L433.194 345.49L432.797 346.937L432.248 347.439L432.95 350.225L433.743 352.706L434.841 352.478L436.701 354L439.461 353.665L442.252 352.843L447.848 352.447L453.201 351.701L455.153 350.56L458.203 349.174L462.046 345.917L465.309 342.05L469.701 335.961L472.446 329.126L470.463 328.456L470.021 326.112L472.492 328.319L471.439 326.34L476.197 323.478L479.567 319.52L479.445 319.733H479.217L479.339 317.176L479.705 314.603L479.567 314.786V314.344L478.195 311.391L476.99 306.718L478.82 306.048L481.306 304.267L482.099 303.018L483.151 301.496L488.549 298.451L493.231 294.128L493.734 288.465L492.926 281.432L492.011 278.859L490.684 276.074L490.349 272.572V269.178L489.495 267.26L488.839 264.976L489.449 262.784L490.379 261.551L492.621 257.441L494.146 254.137L500.49 247.911L508.114 240.817L513.543 234.332L517.508 226.904L518.621 224.833L519.673 222.732L521.198 219.871L522.449 217.496L521.9 217.283L521.381 217.572L522.037 214.923L519.948 213.599L516.502 214.329L512.765 215.365L510.036 215.897L507.337 216.369L503.509 216.659L500.459 214.482L498.766 215.897L496.616 215.654L497.104 213.34L497.867 211.133L499.224 211.483L499.864 210.295L498.675 209.291L497.623 208.195L494.573 204.998L491.355 202.577L491.248 203.171L491.172 203.765L489.251 199.502L487.955 195.012L486.262 193.489L484.554 191.708L483.334 184.523L479.705 179.667V177.794L480.482 176.881L474.962 167.428L471.76 157.883L473.437 161.871L476.273 165.053L476.883 162.221L477.966 159.39L478.058 159.527L478.256 159.207L477.661 161.749L477.356 164.124L480.604 168.021L484.173 174.004L486.75 176.896L489.022 180.063L489.312 182.864L489.998 186.167L491.935 188.207L493.978 190.125L495.29 192.591L496.54 195.149L498.065 197.051L499.27 199.046L499.163 201.557L498.812 203.247L500.093 207.433L501.969 210.798L505.019 210.493L507.672 208.727L512.155 207.068L516.639 205.363L520.161 204.145L523.516 202.532L525.24 200.781L527.298 198.893L526.414 197.645L526.078 196.123L530.302 198.224L534.969 195.179L537.5 193.444L539.757 191.769L539.833 190.049L539.94 188.176L540.947 187.217L541.282 187.735L544.53 182.574L541.648 177.81L538.507 176.287L535.701 173.836L535.579 172.01L535.045 170.259L529.631 175.785H523.394L522.952 175.876L523.181 176.455L522.571 175.694L522.678 174.902L516.974 166.986L508.831 160.897L510.463 159.375L511.988 157.609L512.964 157.746L513.818 157.959L514.961 157.533L515.77 156.65L516.99 157.396H518.164L519.399 158.568L520.39 160.227L521.915 162.45L523.974 164.687L527.451 167.397L531.644 168.752L533.047 167.96L534.313 167.199L536.768 167.762L538.034 170.259L543.691 172.36L549.791 172.664H552.597L555.937 172.405L559.292 172.208H562.951L562.524 171.873L561.975 172.025L564.797 174.872L567.13 176.759L567.542 177.231V177.81L568.396 177.475L569.204 177.018L569.676 179.545L573.763 179.241L572.391 180.915L570.012 181.326L572.787 185.01H578.018L578.536 183.016L580.153 181.981L579.665 183.381H580.915L579.619 187.461L580.122 191.86L580.427 192.5V194.463L581.663 199.38L583.325 203.947L586.634 211.985L589.806 220.266L589.501 219.597L589.318 218.927L590.05 221.804L591.956 224.087L595.006 222.078L597.98 221.302L597.065 219.779L597.964 217.968L598.727 216.445L598.559 214.923L599.779 211.285L599.626 207.921L599.916 208.027L600.191 208.316L600.008 203.308L602.188 201.573L607.648 195.605L613.946 189.927H613.549L613.305 190.277L613.961 189.257L614.113 189.714L616.492 188.785L618.261 186.761L619.329 184.097L621.342 182.148L621.601 183.061L621.692 184.021L621.83 183.594L622.119 183.823L622.272 183.412V182.985L622.44 183.518V184.097V183.031L622.79 182.042L622.638 182.818L622.989 182.239L623.065 183.412L623.736 183.716V183.168L623.461 182.696L623.797 182.848L623.873 182.346L624.132 183.046L624.254 183.747L624.62 182.742L624.742 183.533L625.063 182.666L624.986 181.752L625.154 182.529L625.337 183.366L625.856 182.346L626.389 181.174L626.206 182.468L627.045 182.057L626.694 182.544L626.466 183.077L626.74 182.848V183.229L627.319 182.666L627.411 181.783L627.731 180.534L627.015 178.205H627.777L628.067 177.718L627.96 177.992H628.234L628.753 180.413L630.369 179.849L630.644 181.25L631.528 181.341L631.757 184.386L632.382 185.512L633.069 187.111L633.648 186.959L634.029 188.176L634.624 187.035L634.456 187.567H634.685L634.517 188.618L634.746 188.74L635.005 189.257L634.746 188.45L636.271 189.516L636.988 190.886H635.432L637.033 192.21V191.571L637.262 190.719L638.543 195.894L638.086 200.766L638.726 199.944L639.184 199.259L638.848 200.781L639.092 201.375L639.412 200.72L639.885 200.157L639.55 200.842V201.603L640.038 201.116L640.404 200.537L640.221 201.055L640.449 201.557L640.617 200.994L640.876 200.461L640.754 201.07L640.846 201.694L642.371 200.172L643.331 198.421V199.046L644.216 198.954L644.689 197.752L644.826 196.519L645.756 198.269L647.174 199.183V203.308L648.15 208.179L648.379 207.449L648.288 206.688L649.416 210.798L649.995 213.325L649.233 216.05V218.82L649.751 217.481L650.361 216.278L649.736 224.331L654.159 231.942L655.119 236.174L656.842 240.011L660.945 242.69L663.796 243.451L664.162 243.877L664.574 244.212L663.598 241.32L662.439 237.834L661.692 233.267L659.069 229.963L658.764 230.831L658.123 231.379L656.797 228.746L653.945 225.488L654.464 226.219L654.814 227.041L652.969 222.078L651.231 217.678L652.13 214.634L653.381 211.589L654.403 209.199L656.08 208.514L656.522 210.569L658.413 211.117L659.587 212.107L660.289 212.35L661.021 213.096L661.631 213.842V215.014L661.814 216.263L662.592 215.958L663.049 215.578L663.171 216.537L662.988 217.283H665.077L667.06 216.065L666.373 216.963L665.291 217.633L666.343 218.379L667.136 219.307L666.694 221.21L666.251 223.006L668.402 221.91L669.042 218.866L669.835 219.703L670.857 220.221L670.659 219.155L669.82 218.166L671.345 219.277L670.292 218.15L671.436 218.744L670.643 217.952H671.192L671.634 217.633L671.36 217.465L671.055 217.374L671.604 216.993L672.077 217.404L674.364 216.567L677.536 214.634L678.253 212.213L678.741 211.102L677.673 204.1L673.464 198.969L672.305 197.341L670.323 195.59L669.5 193.641L668.981 190.429L670.689 188.024L671.299 185.756L673.541 185.056L674.547 183.823L675.569 184.051L676.377 183.975V183.533L676.255 183.046L676.347 183.214L676.469 182.97L676.728 183.457L677.216 183.96L677.826 184.112L679.107 183.625L679.61 184.203L680.128 184.386L679.884 186.289L680.098 188.146L681.486 187.141L680.784 186.137L681.226 185.649L681.44 184.69L682.218 184.873H682.111L684.795 183.747L686.792 182.62L687.646 183.077L688.775 182.133L689.034 182.62L689.446 182.239L689.08 181.661L688.912 181.006L689.263 181.752L689.964 182.102L689.888 180.839L689.034 179.986L689.766 179.499L690.696 179.347L689.858 179.621H690.193L691.047 181.143L692.785 181.219V180.687L693.395 180.306L694.143 180.611H695.454L695.363 180.2L695.103 179.834L697.543 179.621L698.047 178.51L700.456 177.338L702.286 175.633L701.981 175.222L701.432 175.13L702.591 174.719L703.613 174.948L704.238 173.791L704.36 172.786L704.909 172.938L705.442 172.74L705.305 172.39L704.955 172.238L705.626 172.01L706.251 172.299L705.992 171.385L706.434 170.533L705.732 170.274L704.833 169.924H706.205L706.769 169.132L706.373 168.874L706.007 168.021L706.983 168.143L706.754 168.645L707.654 167.702L707.959 166.301L709.026 164.992L710.902 163.728L711.131 162.556L710.338 161.521L711.634 161.43L710.917 160.699L711.619 160.197L712.091 160.471L712.32 159.846V159.055L711.786 159.375L711.146 159.755L711.832 158.979L712.869 158.279L710.643 157.685H709.392L708.736 157.228H707.654L710.155 156.254L712.366 154.99L709.728 152.113L706.525 150.591L706.724 150.865H706.251L708.706 151.337L712.213 152.433L709.301 147.029L704.955 142.705L705.946 140.27L707.943 138.595L707.501 138.291V137.743L707.867 137.895L707.989 137.606L708.081 137.986L708.264 138.321L709.285 137.408V136.708L710.81 135.946L712.671 135.277L713.342 134.744L714.562 133.952L710.673 133.161L707.257 133.815L706.449 134.302H704.68V133.298L704.528 131.775L703.003 131.699L701.295 130.786L703.78 127.361L708.691 124.316L710.322 122.611L712.305 121.88L712.869 124.529L710.719 126.858L711.634 127.224H712.64L711.497 128.137L710.505 129.02L714.607 127.163L719.182 124.94L720.082 126.463L722.049 126.676L721.775 128.731L722.568 129.872L720.936 130.131L720.067 131.577H720.768L721.439 131.821H721.104L720.829 132.004L721.561 132.339L722.125 132.506L721.881 132.689L721.744 132.948L722.796 132.384L722.4 131.791L723.833 132.43H725.358V134.272L725.663 136.038L724.962 135.368L723.849 135.794L724.764 137.164L725.77 138.352L724.992 139.981L724.093 141.396L724.52 141.883L725.008 142.431L724.581 142.873L724.306 142.766L724.642 143.482L724.87 144.091L725.663 143.284L726.731 142.629V143.284L727.204 143.406V142.979L727.493 142.249L728.057 142.797L727.753 142.249L728.988 141.762L729.933 142.371L731.55 141.122L733.075 139.265L732.038 134.104L729.201 128.959L727.997 126.813L730.513 124.621L733.227 120.708L736.277 117.496L735.789 116.811L735.194 116.202L736.109 117.085L735.545 116.05L736.109 116.659L736.277 117.481L736.597 116.872L736.292 116.309L738.015 115.213L739.54 113.98V114.406V114.832L740.089 114.467L740.501 113.965L749.925 110.585L758.816 99.1374L761.545 93.2461L762.933 87.3244L764.458 83.0619L763.162 78.9365L762.75 76.2725L757.459 74.5675V76.0898L756.345 77.6121L756.986 76.851L757.214 75.9072L755.69 77.0793L753.722 77.4447L754.424 76.6531L755.232 75.968L754.043 75.5113L755.049 74.5219L753.524 75.5875L752.228 75.9832L752.533 74.7959L752.289 73.4715H750.261L748.461 72.8778L754.149 67.7476L760.981 62.2217L768.133 56.7719L776.963 55.2496L780.912 55.0517L785.182 55.615L784.847 55.1126V54.5037L785.396 54.6102L785.96 54.7625L789.864 54.0013L794.164 55.752L792.639 55.9651L791.114 56.2239L796.253 56.6501L802.139 55.615L800.615 55.1126L799.318 54.7472L802.368 50.7132L806.547 46.3746L811.762 45.4765L816.093 45.0807L815.086 47.2271L815.94 48.4906L815.65 49.3279L815.376 50.2869L819.188 47.288L823.016 46.466L823.245 46.0549L823.717 45.9027L825.029 42.2644L830.229 42.6754L828.979 42.4775L829.284 43.2082L826.234 44.213L824.709 48.1405L822.635 49.8455L819.875 51.7179L813.455 57.3656L806.638 61.1409L805.845 63.3939L804.549 65.1293L803.024 72.2536L804.396 79.7433L805.738 83.1533L806.211 86.959L809.017 84.4929L811.015 81.4483V80.1543L810.862 79.2257L812.829 78.8452L814.964 78.9365L814.674 77.125L814.979 75.1003L817.496 73.989L819.509 73.7303L820.271 71.1424L820.424 68.0978L821.781 66.8951L823.168 66.2862L822.269 66.9104L822.376 67.839L823.428 66.3167L822.482 63.3939L823.092 61.2018L821.445 61.6128L821.049 60.532L820.881 58.827L822.055 57.1829L823.123 56.1478L823.824 54.1383L824.648 52.5247L827.469 52.616L828.292 52.0528L830.382 51.2003L831.815 50.8502L831.495 51.9767L831.113 53.0727L832.76 52.0376L834.621 50.6827L838.936 50.3783L842.352 52.89L845.036 50.3326L847.354 48.2623L848.437 47.7904L849.626 47.4098L849.489 47.0292L849.108 46.8617L854.872 44.0912L861.46 42.2035L860.865 41.7468L860.758 40.9857L863.32 42.508L866.279 43.2235L867.468 40.9248L865.73 38.9154H866.34L865.638 37.8802L865.333 38.3217L864.418 38.1086L865.287 36.5863L864.373 34.6986H862.512L861.887 33.1459L860.362 33.3894L858.532 33.7852L859.31 33.2068L858.09 32.4608L859.706 32.7653L861.323 32.9784L860.621 31.9585H858.989L862.649 32.7044L864.922 33.8309L868.063 32.3086L870.213 30.4819H869.542L869.085 30.9233L869.603 30.3296L870.732 30.0099L869.954 28.9596V27.0871L870.671 27.3003V26.5087L871.22 26.6457L871.342 26.2194L871.906 27.1633L872.79 26.3564L872.409 27.3916L872.851 28.9139L874.956 29.4163L877.502 29.675L882.458 32.7196L886.82 33.7091L887.018 34.3941V35.0944H887.963V34.3485L888.756 34.4246L889.534 34.5464L888.543 33.4199L887.521 33.0393L888.741 32.6131L889.824 32.0042L889.626 31.243H888.756H889.824L890.083 30.2687L889.199 29.8882L888.314 29.264L889.976 29.5685L890.495 30.1165L891.745 29.8729L892.965 30.1469L892.874 29.2488L891.944 28.6855L894.185 28.8378L896 27.7417L895.619 27.3459L895.085 27.1785L894.963 27.0871ZM541.648 106.216L542.395 105.196L543.844 104.8H544.942L544.423 103.643L545.308 103.963L546.284 104.359V104.724L546.513 105.135L546.741 105.744H545.933L545.064 105.972L546.04 106.186L547.077 106.368L547.351 108.743L548.876 110.661H545.826L543.569 111.788L541.328 109.489L541.724 106.444V106.353L541.648 106.216ZM529.448 135.749L528.488 135.916L529.25 135.596L523.15 135.749L517.645 133.678L515.998 130.558L516.151 128.122L517.447 125.443L519.673 124.499L514.412 118.927L512.552 111.986L512.003 112.397L511.927 113.112L511.149 111.529L509.929 109.9L511.256 107.982L511.652 105.531L513.086 105.227H515.327L516.303 103.917L516.807 102.639L519.429 102.106L522.373 100.979L526.277 103.141L527.405 107.023L523.227 107.145L522.876 109.9L521.153 109.519L519.46 109.626L522.098 113.599L525.895 116.385V120.739L526.475 125.458L527.496 126.021L528.61 126.767H527.954L527.725 126.265L529.037 130.253L529.509 135.733L529.448 135.749Z" fill="#F7F7F9" stroke="#DCDDE0" stroke-linecap="round" stroke-linejoin="round"/>
<rect x="154" y="121.532" width="180.155" height="72.2914" fill="white" fill-opacity="0.5" stroke="#00BC7F" stroke-width="2" stroke-linecap="round" stroke-linejoin="round"/>
<g filter="url(#filter0_d)">
<g filter="url(#filter1_d)">
<rect x="165.475" y="135.302" width="45.8993" height="45.8993" rx="2" fill="url(#paint0_linear)"/>
</g>
</g>
<path fill-rule="evenodd" clip-rule="evenodd" d="M192.589 155.598V159.405L189.948 160.935L188.102 159.788V169.725L188.154 169.726L198.108 163.989V152.528L197.922 152.527L192.589 155.598Z" fill="white"/>
<path fill-rule="evenodd" clip-rule="evenodd" d="M188.021 146.777L178.098 152.531L184.792 156.476L186.147 155.649L189.438 157.49V153.664L192.591 151.763V155.598L198.109 152.528V152.514L188.021 146.777Z" fill="white"/>
<path fill-rule="evenodd" clip-rule="evenodd" d="M186.77 159.024V162.846L183.768 164.757V157.11L184.906 156.407L178.156 152.529L178.098 152.531V163.989L188.103 169.725V159.788L186.77 159.024Z" fill="white"/>
<g filter="url(#filter2_d)">
<g filter="url(#filter3_d)">
<rect x="222.849" y="135.302" width="45.8993" height="45.8993" rx="2" fill="url(#paint1_linear)"/>
</g>
</g>
<path fill-rule="evenodd" clip-rule="evenodd" d="M249.962 155.598V159.405L247.321 160.935L245.475 159.788V169.725L245.527 169.726L255.481 163.989V152.528L255.295 152.527L249.962 155.598Z" fill="white"/>
<path fill-rule="evenodd" clip-rule="evenodd" d="M245.394 146.777L235.471 152.531L242.165 156.476L243.52 155.649L246.811 157.49V153.664L249.964 151.763V155.598L255.482 152.528V152.514L245.394 146.777Z" fill="white"/>
<path fill-rule="evenodd" clip-rule="evenodd" d="M244.143 159.024V162.846L241.141 164.757V157.11L242.279 156.407L235.529 152.529L235.471 152.531V163.989L245.476 169.725V159.788L244.143 159.024Z" fill="white"/>
<g filter="url(#filter4_d)">
<g filter="url(#filter5_d)">
<rect x="277.928" y="135.302" width="45.8993" height="45.8993" rx="2" fill="url(#paint2_linear)"/>
</g>
</g>
<path fill-rule="evenodd" clip-rule="evenodd" d="M305.041 155.598V159.405L302.401 160.935L300.554 159.788V169.725L300.606 169.726L310.56 163.989V152.528L310.374 152.527L305.041 155.598Z" fill="white"/>
<path fill-rule="evenodd" clip-rule="evenodd" d="M300.474 146.777L290.551 152.531L297.246 156.476L298.6 155.649L301.891 157.49V153.664L305.044 151.763V155.598L310.562 152.528V152.514L300.474 146.777Z" fill="white"/>
<path fill-rule="evenodd" clip-rule="evenodd" d="M299.222 159.024V162.846L296.22 164.757V157.11L297.358 156.407L290.608 152.529L290.55 152.531V163.989L300.555 169.725V159.788L299.222 159.024Z" fill="white"/>
<g filter="url(#filter6_d)">
<rect x="41.2559" y="178.874" width="45.8993" height="45.8993" rx="2" fill="white"/>
<rect x="41.7559" y="179.374" width="44.8993" height="44.8993" rx="1.5" stroke="#DCDDE0"/>
</g>
<path d="M74.5324 205.266L80.4948 208.709V215.594L74.5324 219.036L68.5699 215.594V208.709L74.5324 205.266Z" fill="#00BC7F"/>
<g filter="url(#filter7_d)">
<rect x="21.748" y="85.928" width="45.8993" height="45.8993" rx="2" fill="white"/>
<rect x="22.248" y="86.428" width="44.8993" height="44.8993" rx="1.5" stroke="#DCDDE0"/>
</g>
<path d="M55.0245 113.468L60.987 116.91V123.795L55.0245 127.237L49.062 123.795V116.91L55.0245 113.468Z" fill="#00BC7F"/>
<g filter="url(#filter8_d)">
<rect x="245.475" y="301.817" width="45.8993" height="45.8993" rx="2" fill="white"/>
<rect x="245.975" y="302.317" width="44.8993" height="44.8993" rx="1.5" stroke="#DCDDE0"/>
</g>
<path d="M279.9 329.356L285.862 332.799V339.683L279.9 343.126L273.937 339.683V332.799L279.9 329.356Z" fill="#00BC7F"/>
<g filter="url(#filter9_d)">
<rect x="424.385" y="201.824" width="45.8993" height="45.8993" rx="2" fill="white"/>
<rect x="424.885" y="202.324" width="44.8993" height="44.8993" rx="1.5" stroke="#DCDDE0"/>
</g>
<path d="M459.957 229.363L465.92 232.806V239.691L459.957 243.133L453.995 239.691V232.806L459.957 229.363Z" fill="#00BC7F"/>
<g filter="url(#filter10_d)">
<rect x="424.385" y="74.4532" width="45.8993" height="45.8993" rx="2" fill="white"/>
<rect x="424.885" y="74.9532" width="44.8993" height="44.8993" rx="1.5" stroke="#DCDDE0"/>
</g>
<path d="M458.81 101.993L464.772 105.435V112.32L458.81 115.763L452.847 112.32V105.435L458.81 101.993Z" fill="#00BC7F"/>
<path d="M420.368 99.9765L419.373 99.4729C363.45 71.1666 296.105 78.426 247.5 118V118" stroke="#00BC7F" stroke-width="3" stroke-linecap="round" stroke-linejoin="round" stroke-dasharray="5 5"/>
<path d="M72.5005 112L79.5575 106.986C130.689 70.6551 200.359 75.4747 246.001 118.5V118.5" stroke="#00BC7F" stroke-width="3" stroke-linecap="round" stroke-linejoin="round" stroke-dasharray="5 5"/>
<path d="M69.0003 233V233C124.417 276.905 205.626 263.368 243.805 203.861L244.999 202" stroke="#00BC7F" stroke-width="3" stroke-linecap="round" stroke-linejoin="round" stroke-dasharray="5 5"/>
<path d="M245.5 317.5L244.769 316.607C217.65 283.493 217.957 235.762 245.5 203V203" stroke="#00BC7F" stroke-width="3" stroke-linecap="round" stroke-linejoin="round" stroke-dasharray="5 5"/>
<path d="M420.942 227.921V227.921C369.951 264.766 299.605 258.407 256.048 213.014L245 201.5" stroke="#00BC7F" stroke-width="3" stroke-linecap="round" stroke-linejoin="round" stroke-dasharray="5 5"/>
<rect x="191" y="200" width="115" height="16" fill="white"/>
<path d="M201.222 203.6V209.048L196.998 203.6H195.642V212H197.286V206.54L201.51 212H202.866V203.6H201.222Z" fill="#76767D"/>
<path d="M209.219 212.168C211.751 212.168 213.623 210.272 213.623 207.788C213.623 205.316 211.751 203.432 209.219 203.432C206.675 203.432 204.803 205.316 204.803 207.788C204.803 210.272 206.675 212.168 209.219 212.168ZM209.219 210.644C207.551 210.644 206.471 209.396 206.471 207.788C206.471 206.216 207.551 204.956 209.219 204.956C210.875 204.956 211.967 206.216 211.967 207.788C211.967 209.396 210.875 210.644 209.219 210.644Z" fill="#76767D"/>
<path d="M222.618 203.6L219.87 207.572L217.122 203.6H215.55V212H217.194V206.468L219.87 210.176L222.546 206.468V212H224.19V203.6H222.618Z" fill="#76767D"/>
<path d="M232.598 212H234.314L231.086 203.6H228.95L225.734 212H227.438L228.134 210.176H231.914L232.598 212ZM228.674 208.724L230.018 205.172L231.362 208.724H228.674Z" fill="#76767D"/>
<path d="M239.494 203.6H235.846V212H239.494C241.966 212 243.514 210.224 243.514 207.8C243.514 205.328 241.942 203.6 239.494 203.6ZM239.458 210.512H237.478V205.076H239.458C240.898 205.076 241.858 206.168 241.858 207.764C241.858 209.384 240.898 210.512 239.458 210.512Z" fill="#76767D"/>
<path d="M252.554 212.168C254.57 212.168 255.914 211.004 255.914 209.564C255.914 208.196 254.942 207.656 253.658 207.26L251.57 206.588C251.018 206.42 250.766 206.168 250.766 205.796C250.766 205.304 251.294 204.884 252.122 204.884C253.07 204.884 253.85 205.352 254.198 206.036L255.722 205.592C255.266 204.428 253.922 203.432 252.11 203.432C250.358 203.432 249.086 204.536 249.098 205.844C249.086 206.924 249.89 207.632 250.994 207.98L253.142 208.652C253.946 208.916 254.246 209.216 254.246 209.66C254.246 210.212 253.634 210.716 252.65 210.716C251.438 210.716 250.586 210.02 250.25 209.144L248.678 209.624C249.146 210.932 250.502 212.168 252.554 212.168Z" fill="#76767D"/>
<path d="M264.049 205.088V203.6H257.857V212H264.037V210.512H259.465V208.448H263.437V207.008H259.465V205.088H264.049Z" fill="#76767D"/>
<path d="M271.417 212H273.313L271.225 208.892C272.413 208.484 273.061 207.44 273.061 206.336C273.061 205.004 272.005 203.6 270.181 203.6H266.089V212H267.721V209.06H269.509L271.417 212ZM267.721 205.076H270.133C270.913 205.076 271.465 205.664 271.465 206.336C271.465 207.032 270.925 207.62 270.073 207.62H267.721V205.076Z" fill="#76767D"/>
<path d="M280.834 203.6L278.434 209.912L276.034 203.6H274.222L277.534 212H279.334L282.646 203.6H280.834Z" fill="#76767D"/>
<path d="M290.397 205.088V203.6H284.205V212H290.385V210.512H285.813V208.448H289.785V207.008H285.813V205.088H290.397Z" fill="#76767D"/>
<path d="M297.765 212H299.661L297.573 208.892C298.761 208.484 299.409 207.44 299.409 206.336C299.409 205.004 298.353 203.6 296.529 203.6H292.437V212H294.069V209.06H295.857L297.765 212ZM294.069 205.076H296.481C297.261 205.076 297.813 205.664 297.813 206.336C297.813 207.032 297.273 207.62 296.421 207.62H294.069V205.076Z" fill="#76767D"/>
<rect x="21" y="136" width="48" height="28" fill="white"/>
<path d="M26.2734 139.6V145.048L22.0494 139.6H20.6934V148H22.3374V142.54L26.5614 148H27.9174V139.6H26.2734Z" fill="#76767D"/>
<path d="M34.2704 148.168C36.8024 148.168 38.6744 146.272 38.6744 143.788C38.6744 141.316 36.8024 139.432 34.2704 139.432C31.7264 139.432 29.8544 141.316 29.8544 143.788C29.8544 146.272 31.7264 148.168 34.2704 148.168ZM34.2704 146.644C32.6024 146.644 31.5224 145.396 31.5224 143.788C31.5224 142.216 32.6024 140.956 34.2704 140.956C35.9264 140.956 37.0184 142.216 37.0184 143.788C37.0184 145.396 35.9264 146.644 34.2704 146.644Z" fill="#76767D"/>
<path d="M47.6701 139.6L44.9221 143.572L42.1741 139.6H40.6021V148H42.2461V142.468L44.9221 146.176L47.5981 142.468V148H49.2421V139.6H47.6701Z" fill="#76767D"/>
<path d="M57.6494 148H59.3654L56.1374 139.6H54.0014L50.7854 148H52.4894L53.1854 146.176H56.9654L57.6494 148ZM53.7254 144.724L55.0694 141.172L56.4134 144.724H53.7254Z" fill="#76767D"/>
<path d="M64.5456 139.6H60.8976V148H64.5456C67.0176 148 68.5656 146.224 68.5656 143.8C68.5656 141.328 66.9936 139.6 64.5456 139.6ZM64.5096 146.512H62.5296V141.076H64.5096C65.9496 141.076 66.9096 142.168 66.9096 143.764C66.9096 145.384 65.9496 146.512 64.5096 146.512Z" fill="#76767D"/>
<path d="M26.9476 162.168C29.1676 162.168 30.5836 160.812 30.9676 159.468L29.3716 159.06C29.0956 159.888 28.1956 160.62 26.9236 160.62C25.2676 160.62 24.2116 159.288 24.2116 157.776C24.2116 156.264 25.2676 154.98 26.9236 154.98C28.1956 154.98 29.0956 155.736 29.3716 156.552L30.9796 156.156C30.5956 154.824 29.1796 153.432 26.9116 153.432C24.4156 153.432 22.5316 155.316 22.5316 157.788C22.5316 160.272 24.4156 162.168 26.9476 162.168Z" fill="#76767D"/>
<path d="M34.4897 160.488V153.6H32.8457V162H38.6777V160.488H34.4897Z" fill="#76767D"/>
<path d="M40.4563 162H42.1243V153.6H40.4563V162Z" fill="#76767D"/>
<path d="M50.591 155.088V153.6H44.399V162H50.579V160.512H46.007V158.448H49.979V157.008H46.007V155.088H50.591Z" fill="#76767D"/>
<path d="M58.2107 153.6V159.048L53.9867 153.6H52.6307V162H54.2747V156.54L58.4987 162H59.8547V153.6H58.2107Z" fill="#76767D"/>
<path d="M68.8238 153.6H61.5398V155.088H64.3598V162H66.0038V155.088H68.8238V153.6Z" fill="#76767D"/>
</g>
<defs>
<filter id="filter0_d" x="162.475" y="134.302" width="51.8993" height="51.8993" filterUnits="userSpaceOnUse" color-interpolation-filters="sRGB">
<feFlood flood-opacity="0" result="BackgroundImageFix"/>
<feColorMatrix in="SourceAlpha" type="matrix" values="0 0 0 0 0 0 0 0 0 0 0 0 0 0 0 0 0 0 127 0"/>
<feOffset dy="2"/>
<feGaussianBlur stdDeviation="1.5"/>
<feColorMatrix type="matrix" values="0 0 0 0 0.145098 0 0 0 0 0.160784 0 0 0 0 0.215686 0 0 0 0.08 0"/>
<feBlend mode="normal" in2="BackgroundImageFix" result="effect1_dropShadow"/>
<feBlend mode="normal" in="SourceGraphic" in2="effect1_dropShadow" result="shape"/>
</filter>
<filter id="filter1_d" x="153.475" y="131.302" width="69.8993" height="69.8993" filterUnits="userSpaceOnUse" color-interpolation-filters="sRGB">
<feFlood flood-opacity="0" result="BackgroundImageFix"/>
<feColorMatrix in="SourceAlpha" type="matrix" values="0 0 0 0 0 0 0 0 0 0 0 0 0 0 0 0 0 0 127 0"/>
<feOffset dy="8"/>
<feGaussianBlur stdDeviation="6"/>
<feColorMatrix type="matrix" values="0 0 0 0 0.144162 0 0 0 0 0.149883 0 0 0 0 0.174672 0 0 0 0.08 0"/>
<feBlend mode="normal" in2="BackgroundImageFix" result="effect1_dropShadow"/>
<feBlend mode="normal" in="SourceGraphic" in2="effect1_dropShadow" result="shape"/>
</filter>
<filter id="filter2_d" x="219.849" y="134.302" width="51.8993" height="51.8993" filterUnits="userSpaceOnUse" color-interpolation-filters="sRGB">
<feFlood flood-opacity="0" result="BackgroundImageFix"/>
<feColorMatrix in="SourceAlpha" type="matrix" values="0 0 0 0 0 0 0 0 0 0 0 0 0 0 0 0 0 0 127 0"/>
<feOffset dy="2"/>
<feGaussianBlur stdDeviation="1.5"/>
<feColorMatrix type="matrix" values="0 0 0 0 0.145098 0 0 0 0 0.160784 0 0 0 0 0.215686 0 0 0 0.08 0"/>
<feBlend mode="normal" in2="BackgroundImageFix" result="effect1_dropShadow"/>
<feBlend mode="normal" in="SourceGraphic" in2="effect1_dropShadow" result="shape"/>
</filter>
<filter id="filter3_d" x="210.849" y="131.302" width="69.8993" height="69.8993" filterUnits="userSpaceOnUse" color-interpolation-filters="sRGB">
<feFlood flood-opacity="0" result="BackgroundImageFix"/>
<feColorMatrix in="SourceAlpha" type="matrix" values="0 0 0 0 0 0 0 0 0 0 0 0 0 0 0 0 0 0 127 0"/>
<feOffset dy="8"/>
<feGaussianBlur stdDeviation="6"/>
<feColorMatrix type="matrix" values="0 0 0 0 0.144162 0 0 0 0 0.149883 0 0 0 0 0.174672 0 0 0 0.08 0"/>
<feBlend mode="normal" in2="BackgroundImageFix" result="effect1_dropShadow"/>
<feBlend mode="normal" in="SourceGraphic" in2="effect1_dropShadow" result="shape"/>
</filter>
<filter id="filter4_d" x="274.928" y="134.302" width="51.8993" height="51.8993" filterUnits="userSpaceOnUse" color-interpolation-filters="sRGB">
<feFlood flood-opacity="0" result="BackgroundImageFix"/>
<feColorMatrix in="SourceAlpha" type="matrix" values="0 0 0 0 0 0 0 0 0 0 0 0 0 0 0 0 0 0 127 0"/>
<feOffset dy="2"/>
<feGaussianBlur stdDeviation="1.5"/>
<feColorMatrix type="matrix" values="0 0 0 0 0.145098 0 0 0 0 0.160784 0 0 0 0 0.215686 0 0 0 0.08 0"/>
<feBlend mode="normal" in2="BackgroundImageFix" result="effect1_dropShadow"/>
<feBlend mode="normal" in="SourceGraphic" in2="effect1_dropShadow" result="shape"/>
</filter>
<filter id="filter5_d" x="265.928" y="131.302" width="69.8993" height="69.8993" filterUnits="userSpaceOnUse" color-interpolation-filters="sRGB">
<feFlood flood-opacity="0" result="BackgroundImageFix"/>
<feColorMatrix in="SourceAlpha" type="matrix" values="0 0 0 0 0 0 0 0 0 0 0 0 0 0 0 0 0 0 127 0"/>
<feOffset dy="8"/>
<feGaussianBlur stdDeviation="6"/>
<feColorMatrix type="matrix" values="0 0 0 0 0.144162 0 0 0 0 0.149883 0 0 0 0 0.174672 0 0 0 0.08 0"/>
<feBlend mode="normal" in2="BackgroundImageFix" result="effect1_dropShadow"/>
<feBlend mode="normal" in="SourceGraphic" in2="effect1_dropShadow" result="shape"/>
</filter>
<filter id="filter6_d" x="38.2559" y="177.874" width="51.8993" height="51.8993" filterUnits="userSpaceOnUse" color-interpolation-filters="sRGB">
<feFlood flood-opacity="0" result="BackgroundImageFix"/>
<feColorMatrix in="SourceAlpha" type="matrix" values="0 0 0 0 0 0 0 0 0 0 0 0 0 0 0 0 0 0 127 0"/>
<feOffset dy="2"/>
<feGaussianBlur stdDeviation="1.5"/>
<feColorMatrix type="matrix" values="0 0 0 0 0.145098 0 0 0 0 0.160784 0 0 0 0 0.215686 0 0 0 0.08 0"/>
<feBlend mode="normal" in2="BackgroundImageFix" result="effect1_dropShadow"/>
<feBlend mode="normal" in="SourceGraphic" in2="effect1_dropShadow" result="shape"/>
</filter>
<filter id="filter7_d" x="18.748" y="84.928" width="51.8993" height="51.8993" filterUnits="userSpaceOnUse" color-interpolation-filters="sRGB">
<feFlood flood-opacity="0" result="BackgroundImageFix"/>
<feColorMatrix in="SourceAlpha" type="matrix" values="0 0 0 0 0 0 0 0 0 0 0 0 0 0 0 0 0 0 127 0"/>
<feOffset dy="2"/>
<feGaussianBlur stdDeviation="1.5"/>
<feColorMatrix type="matrix" values="0 0 0 0 0.145098 0 0 0 0 0.160784 0 0 0 0 0.215686 0 0 0 0.08 0"/>
<feBlend mode="normal" in2="BackgroundImageFix" result="effect1_dropShadow"/>
<feBlend mode="normal" in="SourceGraphic" in2="effect1_dropShadow" result="shape"/>
</filter>
<filter id="filter8_d" x="242.475" y="300.817" width="51.8993" height="51.8993" filterUnits="userSpaceOnUse" color-interpolation-filters="sRGB">
<feFlood flood-opacity="0" result="BackgroundImageFix"/>
<feColorMatrix in="SourceAlpha" type="matrix" values="0 0 0 0 0 0 0 0 0 0 0 0 0 0 0 0 0 0 127 0"/>
<feOffset dy="2"/>
<feGaussianBlur stdDeviation="1.5"/>
<feColorMatrix type="matrix" values="0 0 0 0 0.145098 0 0 0 0 0.160784 0 0 0 0 0.215686 0 0 0 0.08 0"/>
<feBlend mode="normal" in2="BackgroundImageFix" result="effect1_dropShadow"/>
<feBlend mode="normal" in="SourceGraphic" in2="effect1_dropShadow" result="shape"/>
</filter>
<filter id="filter9_d" x="421.385" y="200.824" width="51.8993" height="51.8993" filterUnits="userSpaceOnUse" color-interpolation-filters="sRGB">
<feFlood flood-opacity="0" result="BackgroundImageFix"/>
<feColorMatrix in="SourceAlpha" type="matrix" values="0 0 0 0 0 0 0 0 0 0 0 0 0 0 0 0 0 0 127 0"/>
<feOffset dy="2"/>
<feGaussianBlur stdDeviation="1.5"/>
<feColorMatrix type="matrix" values="0 0 0 0 0.145098 0 0 0 0 0.160784 0 0 0 0 0.215686 0 0 0 0.08 0"/>
<feBlend mode="normal" in2="BackgroundImageFix" result="effect1_dropShadow"/>
<feBlend mode="normal" in="SourceGraphic" in2="effect1_dropShadow" result="shape"/>
</filter>
<filter id="filter10_d" x="421.385" y="73.4532" width="51.8993" height="51.8993" filterUnits="userSpaceOnUse" color-interpolation-filters="sRGB">
<feFlood flood-opacity="0" result="BackgroundImageFix"/>
<feColorMatrix in="SourceAlpha" type="matrix" values="0 0 0 0 0 0 0 0 0 0 0 0 0 0 0 0 0 0 127 0"/>
<feOffset dy="2"/>
<feGaussianBlur stdDeviation="1.5"/>
<feColorMatrix type="matrix" values="0 0 0 0 0.145098 0 0 0 0 0.160784 0 0 0 0 0.215686 0 0 0 0.08 0"/>
<feBlend mode="normal" in2="BackgroundImageFix" result="effect1_dropShadow"/>
<feBlend mode="normal" in="SourceGraphic" in2="effect1_dropShadow" result="shape"/>
</filter>
<linearGradient id="paint0_linear" x1="165.475" y1="135.302" x2="208.915" y2="181.201" gradientUnits="userSpaceOnUse">
<stop stop-color="#00BC7F"/>
<stop offset="1" stop-color="#007854"/>
</linearGradient>
<linearGradient id="paint1_linear" x1="222.849" y1="135.302" x2="266.289" y2="181.201" gradientUnits="userSpaceOnUse">
<stop stop-color="#00BC7F"/>
<stop offset="1" stop-color="#007854"/>
</linearGradient>
<linearGradient id="paint2_linear" x1="277.928" y1="135.302" x2="321.368" y2="181.201" gradientUnits="userSpaceOnUse">
<stop stop-color="#00BC7F"/>
<stop offset="1" stop-color="#007854"/>
</linearGradient>
<clipPath id="clip0">
<rect width="488" height="356" fill="white"/>
</clipPath>
</defs>
</svg>
