<svg width="120" height="100" viewBox="0 0 120 100" fill="none" xmlns="http://www.w3.org/2000/svg">
<path fill-rule="evenodd" clip-rule="evenodd" d="M114.219 38.1574C114.954 38.5264 114.954 39.5759 114.219 39.9449L97.411 48.3797C97.1304 48.5629 96.9579 48.8769 96.9579 49.217V66.4843C96.9579 66.8631 96.7439 67.2093 96.4051 67.3787L60.5495 85.3065C60.268 85.4473 59.9366 85.4473 59.6551 85.3065L29.9421 70.45C29.6033 70.2806 29.3893 69.9343 29.3893 69.5556V51.7458L29.3895 51.7459L35.697 48.4965C35.9795 48.351 36.3144 48.3484 36.5991 48.4895L59.6564 59.9196C59.9373 60.0589 60.2673 60.0583 60.5477 59.9181L101.387 39.4984C101.756 39.3141 101.756 38.7882 101.387 38.6039L60.5478 18.1842C60.2673 18.044 59.9373 18.0435 59.6563 18.1828L10.9617 42.3272L5.86485 39.9287C5.10928 39.5731 5.09655 38.5029 5.84344 38.1295L59.6544 11.224C59.9364 11.083 60.2684 11.0832 60.5501 11.2246L114.219 38.1574Z" fill="#323339"/>
<path opacity="0.5" d="M10.9615 42.3271L59.6562 18.1826C59.9372 18.0433 60.2672 18.0439 60.5477 18.1841L101.387 38.6038C101.756 38.7881 101.756 39.314 101.387 39.4982L60.5476 59.9179C60.2672 60.0582 59.9372 60.0587 59.6563 59.9195L36.1462 48.2649L29.3893 51.7457L10.9615 42.3271Z" fill="white"/>
<path d="M43.781 33.3855C43.4888 33.2158 43.1307 33.2052 42.829 33.3572L17.044 46.3481C16.7046 46.5191 16.4915 46.8676 16.4939 47.2476L16.715 81.9796C16.7172 82.3225 16.8949 82.6403 17.1858 82.8218L22.4823 86.1248C22.8153 86.3325 23.2468 86.0931 23.2468 85.7006V50.416C23.2468 50.2272 23.3532 50.0544 23.5219 49.9695L48.8356 37.2145C49.1902 37.0358 49.2051 36.5349 48.8617 36.3356L43.781 33.3855Z" fill="#00BC7F"/>
</svg>
