<svg width="68" height="52" viewBox="0 0 68 52" fill="none" xmlns="http://www.w3.org/2000/svg">
<path fill-rule="evenodd" clip-rule="evenodd" d="M35.3901 0.597212C34.4998 0.201971 33.5003 0.201971 32.6101 0.597212L2.29987 14.0542C0.736175 14.7485 7.62939e-05 16.3714 7.62939e-05 17.8219C7.62939e-05 19.2723 0.736175 20.8953 2.29987 21.5895L8.48429 24.3353C7.05668 26.4662 5.73655 29.4202 5.27906 33.4077C3.73212 33.8956 2.61019 35.3419 2.61019 37.0503C2.61019 38.3107 3.22103 39.4286 4.16254 40.124C4.24321 40.4751 4.29141 41.0513 4.21796 41.8115C4.13264 42.6945 3.89785 43.6658 3.51639 44.5509C2.71586 46.4098 1.58181 47.3122 0.325599 47.3122V51.5349C3.13108 51.5349 5.10148 49.9575 6.36955 48.0974C6.45512 48.2043 6.54301 48.3102 6.6327 48.4148C8.00644 50.0162 10.189 51.6999 12.895 51.6999V47.4771C11.972 47.4771 10.8555 46.8515 9.83741 45.6651C9.35802 45.1064 8.97631 44.5057 8.72295 43.9749C8.59692 43.7109 8.51238 43.4844 8.46187 43.3072C8.41728 43.1511 8.4098 43.0703 8.40851 43.0566L8.31238 43.0564C8.35826 42.7732 8.3946 42.493 8.42114 42.2177C8.48274 41.5822 8.49718 40.9279 8.44589 40.2935C9.52787 39.6193 10.2477 38.4189 10.2477 37.0503C10.2477 35.6721 9.51756 34.4644 8.42295 33.7929C8.84873 30.0516 10.1364 27.4283 11.4313 25.6436L12.8615 26.2786L12.764 29.493L12.763 29.5569V39.0921C12.763 39.5862 12.9328 40.0407 13.2171 40.4004C13.7514 41.5883 14.6942 42.5535 15.7442 43.3185C17.0247 44.2514 18.6502 45.0245 20.4701 45.6439C24.1163 46.8848 28.8407 47.6091 33.9429 47.6091C39.045 47.6091 43.7694 46.8848 47.4156 45.6439C49.2355 45.0245 50.861 44.2514 52.1415 43.3185C53.1915 42.5535 54.1343 41.5884 54.6686 40.4004C54.9529 40.0407 55.1227 39.5862 55.1227 39.0921V26.2857L65.7003 21.5895C67.264 20.8953 68.0001 19.2723 68.0001 17.8219C68.0001 16.3714 67.264 14.7485 65.7003 14.0542L35.3901 0.597212ZM33.9228 13.331L15.154 22.6762L34.0001 31.0434L63.7773 17.823L34.0001 4.60036L4.22285 17.8207L11.3978 21.0085L32.5114 10.4959L33.9228 13.331ZM50.8999 28.1605L35.3901 35.0465C34.4998 35.4417 33.5003 35.4417 32.6101 35.0465L17.0298 28.1293L16.9858 29.5889V38.4286C16.9958 38.4586 17.0051 38.489 17.0136 38.5197C17.0891 38.7882 17.3775 39.2839 18.2306 39.9053C19.0621 40.511 20.2678 41.1143 21.8307 41.6463C24.9504 42.708 29.1997 43.3864 33.9429 43.3864C38.686 43.3864 42.9353 42.708 46.055 41.6463C47.6179 41.1143 48.8236 40.511 49.6551 39.9053C50.5082 39.2839 50.7966 38.7882 50.8721 38.5197C50.8806 38.489 50.8899 38.4586 50.8999 38.4286V28.1605Z" fill="#DCDDE0"/>
</svg>
