<svg width="48" height="68" viewBox="0 0 48 68" fill="none" xmlns="http://www.w3.org/2000/svg">
<path fill-rule="evenodd" clip-rule="evenodd" d="M34.777 0.229577C34.2897 -0.0765255 33.6694 -0.0765255 33.1821 0.229577L21.1656 7.78446C20.7286 8.05834 20.4647 8.53763 20.4647 9.05317V15.8408L14.8079 12.2874C14.3205 11.9813 13.7003 11.9813 13.2129 12.2874L1.19642 19.8423C0.759417 20.1161 0.495605 20.5954 0.495605 21.111V35.0839C0.495605 35.5995 0.759417 36.0788 1.19642 36.3527L7.04458 40.0289L1.19642 43.7052C0.759417 43.979 0.495605 44.4583 0.495605 44.9739V58.9468C0.495605 59.4624 0.759417 59.9417 1.19642 60.2155L13.2129 67.7704C13.7003 68.0765 14.3205 68.0765 14.8079 67.7704L26.8345 60.2155C27.2715 59.9417 27.5353 59.4624 27.5353 58.9468V52.1622L33.1821 55.7126C33.6694 56.0187 34.2897 56.0187 34.777 55.7126L46.8036 48.1577C47.2406 47.8839 47.5044 47.4046 47.5044 46.889V32.9161C47.5044 32.4005 47.2406 31.9212 46.8036 31.6473L40.9514 27.9711L46.8036 24.2948C47.2406 24.021 47.5044 23.5417 47.5044 23.0261V9.05317C47.5044 8.53763 47.2406 8.05834 46.8036 7.78446L34.777 0.229577ZM9.85992 41.7991L4.80923 44.9739L14.0124 50.7586L23.2197 44.9739L18.165 41.7981L14.8079 43.9075C14.3205 44.2136 13.7003 44.2136 13.2129 43.9075L9.85992 41.7991ZM23.4613 38.4712V41.5866L26.8345 43.7052C27.2715 43.979 27.5353 44.4583 27.5353 44.9739V48.6229L32.4813 51.7323V41.2986L25.7249 37.0504L23.4613 38.4712ZM27.5353 34.649L33.9816 38.7008L43.1888 32.9161L38.1341 29.7402L34.777 31.8497C34.2897 32.1558 33.6694 32.1558 33.1821 31.8497L29.8291 29.7413L27.5353 31.1832V34.649ZM27.5353 24.76L32.4813 27.8694V17.4357L23.4613 11.7648V17.7237L26.8345 19.8423C27.2715 20.1161 27.5353 20.5954 27.5353 21.111V24.76ZM24.7784 9.05317L33.9816 3.26744L43.1888 9.05317L33.9816 14.8379L24.7784 9.05317ZM35.4779 17.4357L44.5079 11.7638V22.1985L35.4779 27.8704V17.4357ZM44.5079 35.6267L35.4779 41.2986V51.7333L44.5079 46.0613V35.6267ZM15.5087 53.3564L24.5387 47.6845V58.1191L15.5087 63.7911V53.3564ZM12.5121 53.3564V63.7901L3.49218 58.1191V47.6855L12.5121 53.3564ZM4.80923 21.111L14.0124 15.3252L23.2197 21.111L14.0124 26.8957L4.80923 21.111ZM15.5087 29.4936L24.5387 23.8216V34.2563L15.5087 39.9282V29.4936ZM12.5121 29.4936V39.9272L3.49218 34.2563V23.8226L12.5121 29.4936Z" fill="#DCDDE0"/>
</svg>
