<svg width="120" height="100" viewBox="0 0 120 100" fill="none" xmlns="http://www.w3.org/2000/svg">
<path opacity="0.15" d="M96.4472 45.7764C96.1657 45.9172 95.8343 45.9172 95.5528 45.7764L84 40V37L82 33.5L84 31.5V16.809C84 16.4373 83.6088 16.1956 83.2764 16.3618L60.4472 27.7764C60.1657 27.9172 59.8343 27.9172 59.5528 27.7764L36.7236 16.3618C36.3912 16.1956 36 16.4373 36 16.809V30L38 34L36 37V40L24.4472 45.7764C24.1657 45.9172 23.8343 45.9172 23.5528 45.7764L0.723607 34.3618C0.391157 34.1956 0 34.4373 0 34.809V63.382C0 63.7607 0.214002 64.107 0.552786 64.2764L23.5528 75.7764C23.8343 75.9172 24.1657 75.9172 24.4472 75.7764L36 70H84L95.5528 75.7764C95.8343 75.9172 96.1657 75.9172 96.4472 75.7764L119.447 64.2764C119.786 64.107 120 63.7607 120 63.382V34.809C120 34.4373 119.609 34.1956 119.276 34.3618L96.4472 45.7764Z" fill="var(--gray-3, #727274)"/>
<path d="M59.5528 9.82361C59.8343 9.68284 60.1657 9.68284 60.4472 9.82361L71.9056 15.5528C72.2741 15.737 72.2741 16.263 71.9056 16.4472L60.4472 22.1764C60.1657 22.3172 59.8343 22.3172 59.5528 22.1764L48.0944 16.4472C47.7259 16.263 47.7259 15.737 48.0944 15.5528L59.5528 9.82361ZM60.4472 4.22361C60.1657 4.08284 59.8343 4.08284 59.5528 4.22361L36.8944 15.5528C36.5259 15.737 36.5259 16.263 36.8944 16.4472L59.5528 27.7764C59.8343 27.9172 60.1657 27.9172 60.4472 27.7764L83.1056 16.4472C83.4741 16.263 83.4741 15.737 83.1056 15.5528L60.4472 4.22361Z" fill="var(--gray-2, #343536)"/>
<path d="M23.5528 27.8236C23.8343 27.6828 24.1657 27.6828 24.4472 27.8236L35.9056 33.5528C36.2741 33.737 36.2741 34.263 35.9056 34.4472L24.4472 40.1764C24.1657 40.3172 23.8343 40.3172 23.5528 40.1764L12.0944 34.4472C11.7259 34.263 11.7259 33.737 12.0944 33.5528L23.5528 27.8236ZM24.4472 22.2236C24.1657 22.0828 23.8343 22.0828 23.5528 22.2236L0.894427 33.5528C0.525903 33.737 0.525903 34.263 0.894427 34.4472L23.5528 45.7764C23.8343 45.9172 24.1657 45.9172 24.4472 45.7764L47.1056 34.4472C47.4741 34.263 47.4741 33.737 47.1056 33.5528L24.4472 22.2236Z" fill="var(--gray-2, #343536)"/>
<path d="M95.5528 27.8236C95.8343 27.6828 96.1657 27.6828 96.4472 27.8236L107.906 33.5528C108.274 33.737 108.274 34.263 107.906 34.4472L96.4472 40.1764C96.1657 40.3172 95.8343 40.3172 95.5528 40.1764L84.0944 34.4472C83.7259 34.263 83.7259 33.737 84.0944 33.5528L95.5528 27.8236ZM96.4472 22.2236C96.1657 22.0828 95.8343 22.0828 95.5528 22.2236L72.8944 33.5528C72.5259 33.737 72.5259 34.263 72.8944 34.4472L95.5528 45.7764C95.8343 45.9172 96.1657 45.9172 96.4472 45.7764L119.106 34.4472C119.474 34.263 119.474 33.737 119.106 33.5528L96.4472 22.2236Z" fill="var(--gray-2, #343536)"/>
<path d="M60.4472 40.2236C60.1657 40.0828 59.8343 40.0828 59.5528 40.2236L37.7889 51.1056C37.0518 51.4741 37.0518 52.5259 37.7889 52.8944L59.5528 63.7764C59.8343 63.9172 60.1657 63.9172 60.4472 63.7764L82.2111 52.8944C82.9482 52.5259 82.9482 51.4741 82.2111 51.1056L60.4472 40.2236Z" fill="white"/>
<path d="M59.5528 45.8236C59.8343 45.6828 60.1657 45.6828 60.4472 45.8236L71.9056 51.5528C72.2741 51.7371 72.2741 52.263 71.9056 52.4472L60.4472 58.1764C60.1657 58.3172 59.8343 58.3172 59.5528 58.1764L48.0944 52.4472C47.7259 52.263 47.7259 51.7371 48.0944 51.5528L59.5528 45.8236ZM60.4472 40.2236C60.1657 40.0828 59.8343 40.0828 59.5528 40.2236L36.8944 51.5528C36.5259 51.7371 36.5259 52.263 36.8944 52.4472L59.5528 63.7764C59.8343 63.9172 60.1657 63.9172 60.4472 63.7764L83.1056 52.4472C83.4741 52.263 83.4741 51.7371 83.1056 51.5528L60.4472 40.2236Z" fill="var(--nomad, #60dea9)"/>
<path d="M36.7236 58.3618C36.3912 58.1956 36 58.4373 36 58.809V83.382C36 83.7607 36.214 84.107 36.5528 84.2764L59.5528 95.7764C59.8343 95.9172 60.1657 95.9172 60.4472 95.7764L83.4472 84.2764C83.786 84.107 84 83.7607 84 83.382V58.809C84 58.4373 83.6088 58.1956 83.2764 58.3618L60.4472 69.7764C60.1657 69.9172 59.8343 69.9172 59.5528 69.7764L36.7236 58.3618Z" fill="var(--nomad, #60dea9)"/>
</svg>
