<svg xmlns="http://www.w3.org/2000/svg" viewBox="0 0 207 60" class="logo" height="120"><g fill="none"><path class="top" fill="#25BA81" d="M26.03.01L0 15.05l17.56 10.32 3.56-2.17 8.63 4.82v-10l8.27-4.97v10.02l14.48-8.02v-.04"/><path class="left" fill="#25BA81" d="M22.75 32.03v9.99l-7.88 5v-20l2.99-1.83L.15 15.05H0v29.96l26.25 15V34.03"/><path class="right" fill="#1F9967" d="M38.02 23.07v9.95l-6.93 4.01-4.84-3v25.98h.14l26.11-15V15.05l-.49-.01"/><path class="text" fill="#000" d="M78.49 21.83v24.24h-5.9v-32h8.06l12.14 24.32V14.1h5.9v32h-8.06m22.46.45c-8 0-10.18-4.42-10.18-9.22v-5.9c0-4.8 2.16-9.22 10.18-9.22s10.18 4.42 10.18 9.22v5.91c0 4.79-2.16 9.21-10.18 9.21zm0-19.35c-3.12 0-4.32 1.39-4.32 4v6.29c0 2.64 1.2 4 4.32 4s4.32-1.39 4.32-4v-6.25c0-2.64-1.2-4.04-4.32-4.04zm27.99 18.87V29.75c0-1.25-.53-1.87-1.87-1.87a16.16 16.16 0 00-6.1 2v16.19h-5.86V22.69h4.46l.58 2a23.424 23.424 0 019.36-2.45 4.438 4.438 0 014.42 2.5 22.996 22.996 0 019.41-2.5c3.89 0 5.28 2.74 5.28 6.91v16.92h-5.86V29.75c0-1.25-.53-1.87-1.87-1.87-2.15.234-4.23.915-6.1 2v16.19h-5.85zm41.81 0h-4.8l-.43-1.58a12.785 12.785 0 01-7 2.06c-4.27 0-6.1-2.93-6.1-7 0-4.75 2.06-6.58 6.82-6.58H177v-2.41c0-2.59-.72-3.5-4.46-3.5-2.18.024-4.35.265-6.48.72l-.72-4.46a30.462 30.462 0 018-1.1c7.34 0 9.5 2.59 9.5 8.45l.05 15.4zM177 37.24h-4.32c-1.92 0-2.45.53-2.45 2.3 0 1.77.53 2.35 2.35 2.35a9.198 9.198 0 004.42-1.2v-3.45zm9.48-6.77c0-5.18 2.3-8.26 7.73-8.26 2.097.02 4.187.244 6.24.67v-9.74l5.86-.82v33.75h-4.66l-.58-2a12.308 12.308 0 01-7.39 2.45c-4.7 0-7.2-2.79-7.2-8.11v-7.94zm14-2.64a25.956 25.956 0 00-5.18-.62c-2.11 0-2.93 1-2.93 3.12v8.26c0 1.92.72 3 2.88 3a8.28 8.28 0 005.23-2.11V27.83zM77 7.86V4.63h-3v3.23h-1.42V.11h1.51v3.25h3V.11h1.51v7.75H77zm7 0h-1.2l-.11-.38A3.275 3.275 0 0181 8c-1.06 0-1.52-.7-1.52-1.66 0-1.14.51-1.57 1.7-1.57h1.4v-.62c0-.62-.18-.84-1.11-.84-.54.005-1.08.062-1.61.17l-.18-1.07a7.852 7.852 0 012-.26c1.83 0 2.37.62 2.37 2L84 7.86zm-1.39-2.11h-1.07c-.48 0-.61.13-.61.55 0 .42.13.56.59.56a2.366 2.366 0 001.1-.29l-.01-.82zM87.13 8a7.134 7.134 0 01-2-.32l.2-1.07a6.786 6.786 0 001.73.24c.65 0 .74-.14.74-.56 0-.42-.07-.52-1-.73-1.42-.33-1.59-.68-1.59-1.76s.51-1.62 2.18-1.62c.59.002 1.176.07 1.75.2L89 3.46a10.617 10.617 0 00-1.6-.16c-.63 0-.74.14-.74.48 0 .34 0 .48.82.68 1.63.41 1.78.62 1.78 1.77S88.88 8 87.13 8zm6.68-.11V4c0-.3-.13-.45-.47-.45-.53.05-1.047.203-1.52.45v3.86h-1.46V0l1.46.22v2.47a5.312 5.312 0 012.13-.54c1 0 1.32.65 1.32 1.65v4.06l-1.46.03zm2.68-6.38V.11h1.46v1.37l-1.46.03zm0 6.38V2.27h1.46v5.59l-1.46.03zm2.62-5.54c0-1.4.85-2.22 2.83-2.22.727 0 1.452.083 2.16.25l-.17 1.25a12.05 12.05 0 00-1.95-.2c-1 0-1.37.34-1.37 1.16V5.5c0 .81.33 1.16 1.37 1.16a12.05 12.05 0 001.95-.2l.17 1.25a9.408 9.408 0 01-2.16.25c-2 0-2.83-.81-2.83-2.22V2.35zM107.33 8c-2 0-2.53-1.06-2.53-2.2V4.36c0-1.15.54-2.2 2.53-2.2 1.99 0 2.53 1.06 2.53 2.2v1.41c0 1.15-.54 2.23-2.53 2.23zm0-4.63c-.78 0-1.08.33-1.08 1v1.5c0 .63.3 1 1.08 1s1.08-.33 1.08-1V4.31c-.01-.63-.3-.96-1.08-.96v.02zm6.64.09a11.47 11.47 0 00-1.54.81v3.6H111v-5.6h1.23l.1.62c.477-.308.99-.553 1.53-.73l.11 1.3zM119.8 6a1.72 1.72 0 01-.46 1.48 1.724 1.724 0 01-1.46.52 8.49 8.49 0 01-1.55-.16v2.26l-1.46.22v-8H116l.14.47a3.159 3.159 0 011.86-.64c1.17 0 1.79.67 1.79 1.94L119.8 6zm-3.48.63c.424.092.856.142 1.29.15.53 0 .73-.24.73-.75v-2c0-.46-.18-.71-.72-.71-.48.018-.937.197-1.3.51v2.8z"/></g></svg>