<svg xmlns="http://www.w3.org/2000/svg" viewBox="0 0 1557 543"><g fill="none" fill-rule="evenodd"><g fill="#FFF" fill-rule="nonzero"><path fill-opacity=".8" d="M1196.328 125.82v16.31l-11.36 6.575-7.935-4.918v42.59h.23l42.803-24.59v-49.115l-.804-.016"/><path d="M1176.672 88.016L1134 112.672l28.787 16.918 5.836-3.557 14.147 7.9V117.54l13.558-8.146v16.427l23.738-13.14v-.065"/><path d="M1171.295 140.508v16.377l-12.918 8.197v-32.787l4.902-3-29.04-16.623h-.24v49.115l43.03 24.59v-42.59"/><path fill-opacity=".8" d="M1308.328 125.82v16.31l-11.36 6.575-7.935-4.918v42.59h.23l42.803-24.59v-49.115l-.804-.016"/><path d="M1288.672 88.016L1246 112.672l28.787 16.918 5.836-3.557 14.147 7.9V117.54l13.558-8.146v16.427l23.738-13.14v-.065"/><path d="M1283.295 140.508v16.377l-12.918 8.197v-32.787l4.902-3-29.04-16.623h-.24v49.115l43.03 24.59v-42.59"/><path fill-opacity=".8" d="M1420.328 125.82v16.31l-11.36 6.575-7.935-4.918v42.59h.23l42.803-24.59v-49.115l-.804-.016"/><path d="M1400.672 88.016L1358 112.672l28.787 16.918 5.836-3.557 14.147 7.9V117.54l13.558-8.146v16.427l23.738-13.14v-.065"/><path d="M1395.295 140.508v16.377l-12.918 8.197v-32.787l4.902-3-29.04-16.623h-.24v49.115l43.03 24.59v-42.59"/><path fill-opacity=".8" d="M1532.328 125.82v16.31l-11.36 6.575-7.935-4.918v42.59h.23l42.803-24.59v-49.115l-.804-.016"/><path d="M1512.672 88.016L1470 112.672l28.787 16.918 5.836-3.557 14.147 7.9V117.54l13.558-8.146v16.427l23.738-13.14v-.065"/><path d="M1507.295 140.508v16.377l-12.918 8.197v-32.787l4.902-3-29.04-16.623h-.24v49.115l43.03 24.59v-42.59"/><path fill-opacity=".8" d="M1140.328 214.82v16.31l-11.36 6.575-7.935-4.918v42.59h.23l42.803-24.59v-49.115l-.804-.016"/><path d="M1120.672 177.016L1078 201.672l28.787 16.918 5.836-3.557 14.147 7.9V206.54l13.558-8.146v16.427l23.738-13.14v-.065"/><path d="M1115.295 229.508v16.377l-12.918 8.197v-32.787l4.902-3-29.04-16.623h-.24v49.115l43.03 24.59v-42.59"/><path fill-opacity=".8" d="M1252.328 214.82v16.31l-11.36 6.575-7.935-4.918v42.59h.23l42.803-24.59v-49.115l-.804-.016"/><path d="M1232.672 177.016L1190 201.672l28.787 16.918 5.836-3.557 14.147 7.9V206.54l13.558-8.146v16.427l23.738-13.14v-.065"/><path d="M1227.295 229.508v16.377l-12.918 8.197v-32.787l4.902-3-29.04-16.623h-.24v49.115l43.03 24.59v-42.59"/><path fill-opacity=".8" d="M1364.328 214.82v16.31l-11.36 6.575-7.935-4.918v42.59h.23l42.803-24.59v-49.115l-.804-.016"/><path d="M1344.672 177.016L1302 201.672l28.787 16.918 5.836-3.557 14.147 7.9V206.54l13.558-8.146v16.427l23.738-13.14v-.065"/><path d="M1339.295 229.508v16.377l-12.918 8.197v-32.787l4.902-3-29.04-16.623h-.24v49.115l43.03 24.59v-42.59"/><path fill-opacity=".8" d="M1476.328 214.82v16.31l-11.36 6.575-7.935-4.918v42.59h.23l42.803-24.59v-49.115l-.804-.016"/><path d="M1456.672 177.016L1414 201.672l28.787 16.918 5.836-3.557 14.147 7.9V206.54l13.558-8.146v16.427l23.738-13.14v-.065"/><path d="M1451.295 229.508v16.377l-12.918 8.197v-32.787l4.902-3-29.04-16.623h-.24v49.115l43.03 24.59v-42.59"/><path fill-opacity=".8" d="M1084.328 303.82v16.31l-11.36 6.575-7.935-4.918v42.59h.23l42.803-24.59v-49.115l-.804-.016"/><path d="M1064.672 266.016L1022 290.672l28.787 16.918 5.836-3.557 14.147 7.9V295.54l13.558-8.146v16.427l23.738-13.14v-.065"/><path d="M1059.295 318.508v16.377l-12.918 8.197v-32.787l4.902-3-29.04-16.623h-.24v49.115l43.03 24.59v-42.59"/><path fill-opacity=".8" d="M1196.328 303.82v16.31l-11.36 6.575-7.935-4.918v42.59h.23l42.803-24.59v-49.115l-.804-.016"/><path d="M1176.672 266.016L1134 290.672l28.787 16.918 5.836-3.557 14.147 7.9V295.54l13.558-8.146v16.427l23.738-13.14v-.065"/><path d="M1171.295 318.508v16.377l-12.918 8.197v-32.787l4.902-3-29.04-16.623h-.24v49.115l43.03 24.59v-42.59"/><path fill-opacity=".8" d="M1308.328 303.82v16.31l-11.36 6.575-7.935-4.918v42.59h.23l42.803-24.59v-49.115l-.804-.016"/><path d="M1288.672 266.016L1246 290.672l28.787 16.918 5.836-3.557 14.147 7.9V295.54l13.558-8.146v16.427l23.738-13.14v-.065"/><path d="M1283.295 318.508v16.377l-12.918 8.197v-32.787l4.902-3-29.04-16.623h-.24v49.115l43.03 24.59v-42.59"/><path fill-opacity=".8" d="M1420.328 303.82v16.31l-11.36 6.575-7.935-4.918v42.59h.23l42.803-24.59v-49.115l-.804-.016"/><path d="M1400.672 266.016L1358 290.672l28.787 16.918 5.836-3.557 14.147 7.9V295.54l13.558-8.146v16.427l23.738-13.14v-.065"/><path d="M1395.295 318.508v16.377l-12.918 8.197v-32.787l4.902-3-29.04-16.623h-.24v49.115l43.03 24.59v-42.59"/><path fill-opacity=".8" d="M1028.328 392.82v16.31l-11.36 6.575-7.935-4.918v42.59h.23l42.803-24.59v-49.115l-.804-.016"/><path d="M1008.672 355.016L966 379.672l28.787 16.918 5.836-3.557 14.147 7.9V384.54l13.558-8.146v16.427l23.738-13.14v-.065"/><path d="M1003.295 407.508v16.377l-12.918 8.197v-32.787l4.902-3-29.04-16.623H966v49.115l43.033 24.59v-42.59"/><path fill-opacity=".8" d="M1140.328 392.82v16.31l-11.36 6.575-7.935-4.918v42.59h.23l42.803-24.59v-49.115l-.804-.016"/><path d="M1120.672 355.016L1078 379.672l28.787 16.918 5.836-3.557 14.147 7.9V384.54l13.558-8.146v16.427l23.738-13.14v-.065"/><path d="M1115.295 407.508v16.377l-12.918 8.197v-32.787l4.902-3-29.04-16.623h-.24v49.115l43.03 24.59v-42.59"/><path fill-opacity=".8" d="M1252.328 392.82v16.31l-11.36 6.575-7.935-4.918v42.59h.23l42.803-24.59v-49.115l-.804-.016"/><path d="M1232.672 355.016L1190 379.672l28.787 16.918 5.836-3.557 14.147 7.9V384.54l13.558-8.146v16.427l23.738-13.14v-.065"/><path d="M1227.295 407.508v16.377l-12.918 8.197v-32.787l4.902-3-29.04-16.623h-.24v49.115l43.03 24.59v-42.59"/><path fill-opacity=".8" d="M1364.328 392.82v16.31l-11.36 6.575-7.935-4.918v42.59h.23l42.803-24.59v-49.115l-.804-.016"/><path d="M1344.672 355.016L1302 379.672l28.787 16.918 5.836-3.557 14.147 7.9V384.54l13.558-8.146v16.427l23.738-13.14v-.065"/><path d="M1339.295 407.508v16.377l-12.918 8.197v-32.787l4.902-3-29.04-16.623h-.24v49.115l43.03 24.59v-42.59"/></g><g fill="#FFF" fill-rule="nonzero"><path d="M611 204a5.004 5.004 0 003.536-1.464 5.004 5.004 0 000-7.072 5.004 5.004 0 00-7.072 0 5.004 5.004 0 000 7.072A5.004 5.004 0 00611 204zm-453 86a5.004 5.004 0 003.536-1.464 5.004 5.004 0 000-7.072 5.004 5.004 0 00-7.072 0 5.004 5.004 0 000 7.072A5.004 5.004 0 00158 290zM57 250a5.004 5.004 0 003.536-1.464 5.004 5.004 0 000-7.072 5.004 5.004 0 00-7.072 0 5.004 5.004 0 000 7.072A5.004 5.004 0 0057 250zm-45 82a5.004 5.004 0 003.536-1.464 5.004 5.004 0 000-7.072 5.004 5.004 0 00-7.072 0 5.004 5.004 0 000 7.072A5.004 5.004 0 0012 332zm245 12a5.004 5.004 0 003.536-1.464 5.004 5.004 0 000-7.072 5.004 5.004 0 00-7.072 0 5.004 5.004 0 000 7.072A5.004 5.004 0 00257 344zm439 110a5.004 5.004 0 003.536-1.464 5.004 5.004 0 000-7.072 5.004 5.004 0 00-7.072 0 5.004 5.004 0 000 7.072A5.004 5.004 0 00696 454zM378 121a5.004 5.004 0 003.536-1.464 5.004 5.004 0 000-7.072 5.004 5.004 0 00-7.072 0 5.004 5.004 0 000 7.072A5.004 5.004 0 00378 121zm305 252a5.004 5.004 0 003.536-1.464 5.004 5.004 0 000-7.072 5.004 5.004 0 00-7.072 0 5.004 5.004 0 000 7.072A5.004 5.004 0 00683 373zm-262 44a5.004 5.004 0 003.536-1.464 5.004 5.004 0 000-7.072 5.004 5.004 0 00-7.072 0 5.004 5.004 0 000 7.072A5.004 5.004 0 00421 417zM253 171a5.004 5.004 0 003.536-1.464 5.004 5.004 0 000-7.072 5.004 5.004 0 00-7.072 0 5.004 5.004 0 000 7.072A5.004 5.004 0 00253 171zm209 78a5.004 5.004 0 003.536-1.464 5.004 5.004 0 000-7.072 5.004 5.004 0 00-7.072 0 5.004 5.004 0 000 7.072A5.004 5.004 0 00462 249zM124 539a5.004 5.004 0 003.536-1.464 5.004 5.004 0 000-7.072 5.004 5.004 0 00-7.072 0 5.004 5.004 0 000 7.072A5.004 5.004 0 00124 539zm187-370a5.004 5.004 0 003.536-1.464 5.004 5.004 0 000-7.072 5.004 5.004 0 00-7.072 0 5.004 5.004 0 000 7.072A5.004 5.004 0 00311 169zm-178 89a5.004 5.004 0 003.536-1.464 5.004 5.004 0 000-7.072 5.004 5.004 0 00-7.072 0 5.004 5.004 0 000 7.072A5.004 5.004 0 00133 258zm441 257a5.004 5.004 0 003.536-1.464 5.004 5.004 0 000-7.072 5.004 5.004 0 00-7.072 0 5.004 5.004 0 000 7.072A5.004 5.004 0 00574 515zM5 407a5.004 5.004 0 003.536-1.464 5.004 5.004 0 000-7.072 5.004 5.004 0 00-7.072 0 5.004 5.004 0 000 7.072A5.004 5.004 0 005 407zM361 59a5.004 5.004 0 003.536-1.464 5.004 5.004 0 000-7.072 5.004 5.004 0 00-7.072 0 5.004 5.004 0 000 7.072A5.004 5.004 0 00361 59zm25 157a5.004 5.004 0 003.536-1.464 5.004 5.004 0 000-7.072 5.004 5.004 0 00-7.072 0 5.004 5.004 0 000 7.072A5.004 5.004 0 00386 216zm-97 244a5.004 5.004 0 003.536-1.464 5.004 5.004 0 000-7.072 5.004 5.004 0 00-7.072 0 5.004 5.004 0 000 7.072A5.004 5.004 0 00289 460zm-31-161a5.004 5.004 0 003.536-1.464 5.004 5.004 0 000-7.072 5.004 5.004 0 00-7.072 0 5.004 5.004 0 000 7.072A5.004 5.004 0 00258 299zm217-56a5.004 5.004 0 003.536-1.464 5.004 5.004 0 000-7.072 5.004 5.004 0 00-7.072 0 5.004 5.004 0 000 7.072A5.004 5.004 0 00475 243zM79 411a5.004 5.004 0 003.536-1.464 5.004 5.004 0 000-7.072 5.004 5.004 0 00-7.072 0 5.004 5.004 0 000 7.072A5.004 5.004 0 0079 411zM647 75a5.004 5.004 0 003.536-1.464 5.004 5.004 0 000-7.072 5.004 5.004 0 00-7.072 0 5.004 5.004 0 000 7.072A5.004 5.004 0 00647 75zm-33 80a5.004 5.004 0 003.536-1.464 5.004 5.004 0 000-7.072 5.004 5.004 0 00-7.072 0 5.004 5.004 0 000 7.072A5.004 5.004 0 00614 155zm39 324a5.004 5.004 0 003.536-1.464 5.004 5.004 0 000-7.072 5.004 5.004 0 00-7.072 0 5.004 5.004 0 000 7.072A5.004 5.004 0 00653 479zM484 125a5.004 5.004 0 003.536-1.464 5.004 5.004 0 000-7.072 5.004 5.004 0 00-7.072 0 5.004 5.004 0 000 7.072A5.004 5.004 0 00484 125zm-96 231a5.004 5.004 0 003.536-1.464 5.004 5.004 0 000-7.072 5.004 5.004 0 00-7.072 0 5.004 5.004 0 000 7.072A5.004 5.004 0 00388 356zm-89-96a5.004 5.004 0 003.536-1.464 5.004 5.004 0 000-7.072 5.004 5.004 0 00-7.072 0 5.004 5.004 0 000 7.072A5.004 5.004 0 00299 260zm21 0a5.004 5.004 0 003.536-1.464 5.004 5.004 0 000-7.072 5.004 5.004 0 00-7.072 0 5.004 5.004 0 000 7.072A5.004 5.004 0 00320 260zm80-98a5.004 5.004 0 003.536-1.464 5.004 5.004 0 000-7.072 5.004 5.004 0 00-7.072 0 5.004 5.004 0 000 7.072A5.004 5.004 0 00400 162zM183 373a5.004 5.004 0 003.536-1.464 5.004 5.004 0 000-7.072 5.004 5.004 0 00-7.072 0 5.004 5.004 0 000 7.072A5.004 5.004 0 00183 373zM630 67a5.004 5.004 0 003.536-1.464 5.004 5.004 0 000-7.072 5.004 5.004 0 00-7.072 0 5.004 5.004 0 000 7.072A5.004 5.004 0 00630 67zM194 392a5.004 5.004 0 003.536-1.464 5.004 5.004 0 000-7.072 5.004 5.004 0 00-7.072 0 5.004 5.004 0 000 7.072A5.004 5.004 0 00194 392zm-72 126a5.004 5.004 0 003.536-1.464 5.004 5.004 0 000-7.072 5.004 5.004 0 00-7.072 0 5.004 5.004 0 000 7.072A5.004 5.004 0 00122 518zm235-314a5.004 5.004 0 003.536-1.464 5.004 5.004 0 000-7.072 5.004 5.004 0 00-7.072 0 5.004 5.004 0 000 7.072A5.004 5.004 0 00357 204zM99 329a5.004 5.004 0 003.536-1.464 5.004 5.004 0 000-7.072 5.004 5.004 0 00-7.072 0 5.004 5.004 0 000 7.072A5.004 5.004 0 0099 329zm449 128a5.004 5.004 0 003.536-1.464 5.004 5.004 0 000-7.072 5.004 5.004 0 00-7.072 0 5.004 5.004 0 000 7.072A5.004 5.004 0 00548 457zm110-299a5.004 5.004 0 003.536-1.464 5.004 5.004 0 000-7.072 5.004 5.004 0 00-7.072 0 5.004 5.004 0 000 7.072A5.004 5.004 0 00658 158zm-278-4a5.004 5.004 0 003.536-1.464 5.004 5.004 0 000-7.072 5.004 5.004 0 00-7.072 0 5.004 5.004 0 000 7.072A5.004 5.004 0 00380 154zm-205 62a5.004 5.004 0 003.536-1.464 5.004 5.004 0 000-7.072 5.004 5.004 0 00-7.072 0 5.004 5.004 0 000 7.072A5.004 5.004 0 00175 216zm157-31a5.004 5.004 0 003.536-1.464 5.004 5.004 0 000-7.072 5.004 5.004 0 00-7.072 0 5.004 5.004 0 000 7.072A5.004 5.004 0 00332 185zM98 490a5.004 5.004 0 003.536-1.464 5.004 5.004 0 000-7.072 5.004 5.004 0 00-7.072 0 5.004 5.004 0 000 7.072A5.004 5.004 0 0098 490zm563-103a5.004 5.004 0 003.536-1.464 5.004 5.004 0 000-7.072 5.004 5.004 0 00-7.072 0 5.004 5.004 0 000 7.072A5.004 5.004 0 00661 387zM475 532a5.004 5.004 0 003.536-1.464 5.004 5.004 0 000-7.072 5.004 5.004 0 00-7.072 0 5.004 5.004 0 000 7.072A5.004 5.004 0 00475 532zM335 402a5.004 5.004 0 003.536-1.464 5.004 5.004 0 000-7.072 5.004 5.004 0 00-7.072 0 5.004 5.004 0 000 7.072A5.004 5.004 0 00335 402zm55-3a5.004 5.004 0 003.536-1.464 5.004 5.004 0 000-7.072 5.004 5.004 0 00-7.072 0 5.004 5.004 0 000 7.072A5.004 5.004 0 00390 399z"/><path d="M649 481a5.004 5.004 0 003.536-1.464 5.004 5.004 0 000-7.072 5.004 5.004 0 00-7.072 0 5.004 5.004 0 000 7.072A5.004 5.004 0 00649 481zm22-105a5.004 5.004 0 003.536-1.464 5.004 5.004 0 000-7.072 5.004 5.004 0 00-7.072 0 5.004 5.004 0 000 7.072A5.004 5.004 0 00671 376zM42 38a5.004 5.004 0 003.536-1.464 5.004 5.004 0 000-7.072 5.004 5.004 0 00-7.072 0 5.004 5.004 0 000 7.072A5.004 5.004 0 0042 38zm268 495a5.004 5.004 0 003.536-1.464 5.004 5.004 0 000-7.072 5.004 5.004 0 00-7.072 0 5.004 5.004 0 000 7.072A5.004 5.004 0 00310 533zM154 92a5.004 5.004 0 003.536-1.464 5.004 5.004 0 000-7.072 5.004 5.004 0 00-7.072 0 5.004 5.004 0 000 7.072A5.004 5.004 0 00154 92zm224 139a5.004 5.004 0 003.536-1.464 5.004 5.004 0 000-7.072 5.004 5.004 0 00-7.072 0 5.004 5.004 0 000 7.072A5.004 5.004 0 00378 231zm250 80a5.004 5.004 0 003.536-1.464 5.004 5.004 0 000-7.072 5.004 5.004 0 00-7.072 0 5.004 5.004 0 000 7.072A5.004 5.004 0 00628 311zm-112-59a5.004 5.004 0 003.536-1.464 5.004 5.004 0 000-7.072 5.004 5.004 0 00-7.072 0 5.004 5.004 0 000 7.072A5.004 5.004 0 00516 252zM387 542a5.004 5.004 0 003.536-1.464 5.004 5.004 0 000-7.072 5.004 5.004 0 00-7.072 0 5.004 5.004 0 000 7.072A5.004 5.004 0 00387 542zm-84-265a5.004 5.004 0 003.536-1.464 5.004 5.004 0 000-7.072 5.004 5.004 0 00-7.072 0 5.004 5.004 0 000 7.072A5.004 5.004 0 00303 277zm-176-94a5.004 5.004 0 003.536-1.464 5.004 5.004 0 000-7.072 5.004 5.004 0 00-7.072 0 5.004 5.004 0 000 7.072A5.004 5.004 0 00127 183zm447 180a5.004 5.004 0 003.536-1.464 5.004 5.004 0 000-7.072 5.004 5.004 0 00-7.072 0 5.004 5.004 0 000 7.072A5.004 5.004 0 00574 363zm-1 180a5.004 5.004 0 003.536-1.464 5.004 5.004 0 000-7.072 5.004 5.004 0 00-7.072 0 5.004 5.004 0 000 7.072A5.004 5.004 0 00573 543zm-24-190a5.004 5.004 0 003.536-1.464 5.004 5.004 0 000-7.072 5.004 5.004 0 00-7.072 0 5.004 5.004 0 000 7.072A5.004 5.004 0 00549 353zM62 119a5.004 5.004 0 003.536-1.464 5.004 5.004 0 000-7.072 5.004 5.004 0 00-7.072 0 5.004 5.004 0 000 7.072A5.004 5.004 0 0062 119zm535-39a5.004 5.004 0 003.536-1.464 5.004 5.004 0 000-7.072 5.004 5.004 0 00-7.072 0 5.004 5.004 0 000 7.072A5.004 5.004 0 00597 80zm-103 0a5.004 5.004 0 003.536-1.464 5.004 5.004 0 000-7.072 5.004 5.004 0 00-7.072 0 5.004 5.004 0 000 7.072A5.004 5.004 0 00494 80zM25 217a5.004 5.004 0 003.536-1.464 5.004 5.004 0 000-7.072 5.004 5.004 0 00-7.072 0 5.004 5.004 0 000 7.072A5.004 5.004 0 0025 217zM338 48a5.004 5.004 0 003.536-1.464 5.004 5.004 0 000-7.072 5.004 5.004 0 00-7.072 0 5.004 5.004 0 000 7.072A5.004 5.004 0 00338 48zM82 51a5.004 5.004 0 003.536-1.464 5.004 5.004 0 000-7.072 5.004 5.004 0 00-7.072 0 5.004 5.004 0 000 7.072A5.004 5.004 0 0082 51zm441 375a5.004 5.004 0 003.536-1.464 5.004 5.004 0 000-7.072 5.004 5.004 0 00-7.072 0 5.004 5.004 0 000 7.072A5.004 5.004 0 00523 426zm-243-89a5.004 5.004 0 003.536-1.464 5.004 5.004 0 000-7.072 5.004 5.004 0 00-7.072 0 5.004 5.004 0 000 7.072A5.004 5.004 0 00280 337zm99-226a5.004 5.004 0 003.536-1.464 5.004 5.004 0 000-7.072 5.004 5.004 0 00-7.072 0 5.004 5.004 0 000 7.072A5.004 5.004 0 00379 111zm36 413a5.004 5.004 0 003.536-1.464 5.004 5.004 0 000-7.072 5.004 5.004 0 00-7.072 0 5.004 5.004 0 000 7.072A5.004 5.004 0 00415 524zM311 129a5.004 5.004 0 003.536-1.464 5.004 5.004 0 000-7.072 5.004 5.004 0 00-7.072 0 5.004 5.004 0 000 7.072A5.004 5.004 0 00311 129zm66 364a5.004 5.004 0 003.536-1.464 5.004 5.004 0 000-7.072 5.004 5.004 0 00-7.072 0 5.004 5.004 0 000 7.072A5.004 5.004 0 00377 493zm162-236a5.004 5.004 0 003.536-1.464 5.004 5.004 0 000-7.072 5.004 5.004 0 00-7.072 0 5.004 5.004 0 000 7.072A5.004 5.004 0 00539 257zM90 398a5.004 5.004 0 003.536-1.464 5.004 5.004 0 000-7.072 5.004 5.004 0 00-7.072 0 5.004 5.004 0 000 7.072A5.004 5.004 0 0090 398zM608 83a5.004 5.004 0 003.536-1.464 5.004 5.004 0 000-7.072 5.004 5.004 0 00-7.072 0 5.004 5.004 0 000 7.072A5.004 5.004 0 00608 83zM70 184a5.004 5.004 0 003.536-1.464 5.004 5.004 0 000-7.072 5.004 5.004 0 00-7.072 0 5.004 5.004 0 000 7.072A5.004 5.004 0 0070 184zm355 139a5.004 5.004 0 003.536-1.464 5.004 5.004 0 000-7.072 5.004 5.004 0 00-7.072 0 5.004 5.004 0 000 7.072A5.004 5.004 0 00425 323zM144 476a5.004 5.004 0 003.536-1.464 5.004 5.004 0 000-7.072 5.004 5.004 0 00-7.072 0 5.004 5.004 0 000 7.072A5.004 5.004 0 00144 476zm451-140a5.004 5.004 0 003.536-1.464 5.004 5.004 0 000-7.072 5.004 5.004 0 00-7.072 0 5.004 5.004 0 000 7.072A5.004 5.004 0 00595 336zm-180 47a5.004 5.004 0 003.536-1.464 5.004 5.004 0 000-7.072 5.004 5.004 0 00-7.072 0 5.004 5.004 0 000 7.072A5.004 5.004 0 00415 383zm283-157a5.004 5.004 0 003.536-1.464 5.004 5.004 0 000-7.072 5.004 5.004 0 00-7.072 0 5.004 5.004 0 000 7.072A5.004 5.004 0 00698 226zM590 96a5.004 5.004 0 003.536-1.464 5.004 5.004 0 000-7.072 5.004 5.004 0 00-7.072 0 5.004 5.004 0 000 7.072A5.004 5.004 0 00590 96zm49-35a5.004 5.004 0 003.536-1.464 5.004 5.004 0 000-7.072 5.004 5.004 0 00-7.072 0 5.004 5.004 0 000 7.072A5.004 5.004 0 00639 61zm0 85a5.004 5.004 0 003.536-1.464 5.004 5.004 0 000-7.072 5.004 5.004 0 00-7.072 0 5.004 5.004 0 000 7.072A5.004 5.004 0 00639 146zm-252-10a5.004 5.004 0 003.536-1.464 5.004 5.004 0 000-7.072 5.004 5.004 0 00-7.072 0 5.004 5.004 0 000 7.072A5.004 5.004 0 00387 136zm236 363a5.004 5.004 0 003.536-1.464 5.004 5.004 0 000-7.072 5.004 5.004 0 00-7.072 0 5.004 5.004 0 000 7.072A5.004 5.004 0 00623 499zM87 509a5.004 5.004 0 003.536-1.464 5.004 5.004 0 000-7.072 5.004 5.004 0 00-7.072 0 5.004 5.004 0 000 7.072A5.004 5.004 0 0087 509zm163-342a5.004 5.004 0 003.536-1.464 5.004 5.004 0 000-7.072 5.004 5.004 0 00-7.072 0 5.004 5.004 0 000 7.072A5.004 5.004 0 00250 167zM85 10a5.004 5.004 0 003.536-1.464 5.004 5.004 0 000-7.072 5.004 5.004 0 00-7.072 0 5.004 5.004 0 000 7.072A5.004 5.004 0 0085 10zm482 451a5.004 5.004 0 003.536-1.464 5.004 5.004 0 000-7.072 5.004 5.004 0 00-7.072 0 5.004 5.004 0 000 7.072A5.004 5.004 0 00567 461zm98 25a5.004 5.004 0 003.536-1.464 5.004 5.004 0 000-7.072 5.004 5.004 0 00-7.072 0 5.004 5.004 0 000 7.072A5.004 5.004 0 00665 486zM160 338a5.004 5.004 0 003.536-1.464 5.004 5.004 0 000-7.072 5.004 5.004 0 00-7.072 0 5.004 5.004 0 000 7.072A5.004 5.004 0 00160 338zM69 535a5.004 5.004 0 003.536-1.464 5.004 5.004 0 000-7.072 5.004 5.004 0 00-7.072 0 5.004 5.004 0 000 7.072A5.004 5.004 0 0069 535zm25-332a5.004 5.004 0 003.536-1.464 5.004 5.004 0 000-7.072 5.004 5.004 0 00-7.072 0 5.004 5.004 0 000 7.072A5.004 5.004 0 0094 203zm381-20a5.004 5.004 0 003.536-1.464 5.004 5.004 0 000-7.072 5.004 5.004 0 00-7.072 0 5.004 5.004 0 000 7.072A5.004 5.004 0 00475 183zm-43-89a5.004 5.004 0 003.536-1.464 5.004 5.004 0 000-7.072 5.004 5.004 0 00-7.072 0 5.004 5.004 0 000 7.072A5.004 5.004 0 00432 94zm-70 232a5.004 5.004 0 003.536-1.464 5.004 5.004 0 000-7.072 5.004 5.004 0 00-7.072 0 5.004 5.004 0 000 7.072A5.004 5.004 0 00362 326zm127-25a5.004 5.004 0 003.536-1.464 5.004 5.004 0 000-7.072 5.004 5.004 0 00-7.072 0 5.004 5.004 0 000 7.072A5.004 5.004 0 00489 301zm-287 12a5.004 5.004 0 003.536-1.464 5.004 5.004 0 000-7.072 5.004 5.004 0 00-7.072 0 5.004 5.004 0 000 7.072A5.004 5.004 0 00202 313zm454-84a5.004 5.004 0 003.536-1.464 5.004 5.004 0 000-7.072 5.004 5.004 0 00-7.072 0 5.004 5.004 0 000 7.072A5.004 5.004 0 00656 229z"/></g><path stroke="#FFF" stroke-width="3" d="M767.5 271.5h208" stroke-linecap="square"/><path fill="#FFF" d="M989 271.5L964 284v-25"/></g></svg>