<svg width="186" height="186" viewBox="0 0 186 186" xmlns="http://www.w3.org/2000/svg"><path d="M100.983 63.69l3.303 8.605 20.736-7.96c19.4-7.447 41.024 1.226 50.112 19.447a20.071 20.071 0 0 1 2 3.89l7.168 18.671c3.958 10.312-1.193 21.88-11.505 25.84l-89.623 34.403a20.091 20.091 0 0 1-3.889 1.061l-20.061 7.701a8 8 0 0 1-10.336-4.602L.867 45.646a8 8 0 0 1 4.602-10.335L71.753 9.867a8 8 0 0 1 10.335 4.602L92.14 40.652a2.488 2.488 0 0 0-1.117.82c-3.145 4.07-11.17 7.7-23.989 10.59a2.5 2.5 0 0 0 1.1 4.878c12.89-2.906 21.506-6.598 25.914-11.318l5.014 13.06c-.397.161-.759.426-1.04.79-3.144 4.07-11.168 7.7-23.988 10.59a2.5 2.5 0 0 0 1.1 4.878c12.828-2.892 21.423-6.562 25.85-11.25z" fill="#000" fill-rule="nonzero"/></svg>