<svg width="18" height="18" viewBox="0 0 18 18" xmlns="http://www.w3.org/2000/svg"><g fill-rule="nonzero" fill="none"><path d="M2.242 7.138l6.963.774a1 1 0 0 1 .883.883l.774 6.963a1 1 0 0 1-1.104 1.104l-6.963-.774a1 1 0 0 1-.883-.883l-.774-6.963a1 1 0 0 1 1.104-1.104z" stroke="#BAC1CC" fill="#FAFBFC"/><path d="M5.242 4.138l6.963.774a1 1 0 0 1 .883.883l.774 6.963a1 1 0 0 1-1.104 1.104l-6.963-.774a1 1 0 0 1-.883-.883l-.774-6.963a1 1 0 0 1 1.104-1.104z" stroke="#8E96A3" fill="#8E96A3"/><path d="M8.242 1.138l6.963.774a1 1 0 0 1 .883.883l.774 6.963a1 1 0 0 1-1.104 1.104l-6.963-.774a1 1 0 0 1-.883-.883l-.774-6.963a1 1 0 0 1 1.104-1.104z" stroke="#BAC1CC" fill="#FAFBFC"/></g></svg>