<svg xmlns="http://www.w3.org/2000/svg" viewBox="0 0 1557 543">
  <g fill="none" fill-rule="evenodd">
    <g fill="#FFF" fill-rule="nonzero">
      <path fill-opacity=".8" d="M1196.328 125.82v16.31l-11.36 6.575-7.935-4.918v42.59h.23l42.803-24.59v-49.115l-.804-.016"/>
      <path d="M1176.672 88.016L1134 112.672l28.787 16.918 5.836-3.557 14.147 7.9V117.54l13.558-8.146v16.427l23.738-13.14v-.065"/>
      <path d="M1171.295 140.508v16.377l-12.918 8.197v-32.787l4.902-3-29.04-16.623h-.24v49.115l43.03 24.59v-42.59"/>
      <path fill-opacity=".8" d="M1308.328 125.82v16.31l-11.36 6.575-7.935-4.918v42.59h.23l42.803-24.59v-49.115l-.804-.016"/>
      <path d="M1288.672 88.016L1246 112.672l28.787 16.918 5.836-3.557 14.147 7.9V117.54l13.558-8.146v16.427l23.738-13.14v-.065"/>
      <path d="M1283.295 140.508v16.377l-12.918 8.197v-32.787l4.902-3-29.04-16.623h-.24v49.115l43.03 24.59v-42.59"/>
      <path fill-opacity=".8" d="M1420.328 125.82v16.31l-11.36 6.575-7.935-4.918v42.59h.23l42.803-24.59v-49.115l-.804-.016"/>
      <path d="M1400.672 88.016L1358 112.672l28.787 16.918 5.836-3.557 14.147 7.9V117.54l13.558-8.146v16.427l23.738-13.14v-.065"/>
      <path d="M1395.295 140.508v16.377l-12.918 8.197v-32.787l4.902-3-29.04-16.623h-.24v49.115l43.03 24.59v-42.59"/>
      <path fill-opacity=".8" d="M1532.328 125.82v16.31l-11.36 6.575-7.935-4.918v42.59h.23l42.803-24.59v-49.115l-.804-.016"/>
      <path d="M1512.672 88.016L1470 112.672l28.787 16.918 5.836-3.557 14.147 7.9V117.54l13.558-8.146v16.427l23.738-13.14v-.065"/>
      <path d="M1507.295 140.508v16.377l-12.918 8.197v-32.787l4.902-3-29.04-16.623h-.24v49.115l43.03 24.59v-42.59"/>
      <path fill-opacity=".8" d="M1140.328 214.82v16.31l-11.36 6.575-7.935-4.918v42.59h.23l42.803-24.59v-49.115l-.804-.016"/>
      <path d="M1120.672 177.016L1078 201.672l28.787 16.918 5.836-3.557 14.147 7.9V206.54l13.558-8.146v16.427l23.738-13.14v-.065"/>
      <path d="M1115.295 229.508v16.377l-12.918 8.197v-32.787l4.902-3-29.04-16.623h-.24v49.115l43.03 24.59v-42.59"/>
      <path fill-opacity=".8" d="M1252.328 214.82v16.31l-11.36 6.575-7.935-4.918v42.59h.23l42.803-24.59v-49.115l-.804-.016"/>
      <path d="M1232.672 177.016L1190 201.672l28.787 16.918 5.836-3.557 14.147 7.9V206.54l13.558-8.146v16.427l23.738-13.14v-.065"/>
      <path d="M1227.295 229.508v16.377l-12.918 8.197v-32.787l4.902-3-29.04-16.623h-.24v49.115l43.03 24.59v-42.59"/>
      <path fill-opacity=".8" d="M1364.328 214.82v16.31l-11.36 6.575-7.935-4.918v42.59h.23l42.803-24.59v-49.115l-.804-.016"/>
      <path d="M1344.672 177.016L1302 201.672l28.787 16.918 5.836-3.557 14.147 7.9V206.54l13.558-8.146v16.427l23.738-13.14v-.065"/>
      <path d="M1339.295 229.508v16.377l-12.918 8.197v-32.787l4.902-3-29.04-16.623h-.24v49.115l43.03 24.59v-42.59"/>
      <path fill-opacity=".8" d="M1476.328 214.82v16.31l-11.36 6.575-7.935-4.918v42.59h.23l42.803-24.59v-49.115l-.804-.016"/>
      <path d="M1456.672 177.016L1414 201.672l28.787 16.918 5.836-3.557 14.147 7.9V206.54l13.558-8.146v16.427l23.738-13.14v-.065"/>
      <path d="M1451.295 229.508v16.377l-12.918 8.197v-32.787l4.902-3-29.04-16.623h-.24v49.115l43.03 24.59v-42.59"/>
      <path fill-opacity=".8" d="M1084.328 303.82v16.31l-11.36 6.575-7.935-4.918v42.59h.23l42.803-24.59v-49.115l-.804-.016"/>
      <path d="M1064.672 266.016L1022 290.672l28.787 16.918 5.836-3.557 14.147 7.9V295.54l13.558-8.146v16.427l23.738-13.14v-.065"/>
      <path d="M1059.295 318.508v16.377l-12.918 8.197v-32.787l4.902-3-29.04-16.623h-.24v49.115l43.03 24.59v-42.59"/>
      <path fill-opacity=".8" d="M1196.328 303.82v16.31l-11.36 6.575-7.935-4.918v42.59h.23l42.803-24.59v-49.115l-.804-.016"/>
      <path d="M1176.672 266.016L1134 290.672l28.787 16.918 5.836-3.557 14.147 7.9V295.54l13.558-8.146v16.427l23.738-13.14v-.065"/>
      <path d="M1171.295 318.508v16.377l-12.918 8.197v-32.787l4.902-3-29.04-16.623h-.24v49.115l43.03 24.59v-42.59"/>
      <path fill-opacity=".8" d="M1308.328 303.82v16.31l-11.36 6.575-7.935-4.918v42.59h.23l42.803-24.59v-49.115l-.804-.016"/>
      <path d="M1288.672 266.016L1246 290.672l28.787 16.918 5.836-3.557 14.147 7.9V295.54l13.558-8.146v16.427l23.738-13.14v-.065"/>
      <path d="M1283.295 318.508v16.377l-12.918 8.197v-32.787l4.902-3-29.04-16.623h-.24v49.115l43.03 24.59v-42.59"/>
      <path fill-opacity=".8" d="M1420.328 303.82v16.31l-11.36 6.575-7.935-4.918v42.59h.23l42.803-24.59v-49.115l-.804-.016"/>
      <path d="M1400.672 266.016L1358 290.672l28.787 16.918 5.836-3.557 14.147 7.9V295.54l13.558-8.146v16.427l23.738-13.14v-.065"/>
      <path d="M1395.295 318.508v16.377l-12.918 8.197v-32.787l4.902-3-29.04-16.623h-.24v49.115l43.03 24.59v-42.59"/>
      <path fill-opacity=".8" d="M1028.328 392.82v16.31l-11.36 6.575-7.935-4.918v42.59h.23l42.803-24.59v-49.115l-.804-.016"/>
      <path d="M1008.672 355.016L966 379.672l28.787 16.918 5.836-3.557 14.147 7.9V384.54l13.558-8.146v16.427l23.738-13.14v-.065"/>
      <path d="M1003.295 407.508v16.377l-12.918 8.197v-32.787l4.902-3-29.04-16.623H966v49.115l43.033 24.59v-42.59"/>
      <path fill-opacity=".8" d="M1140.328 392.82v16.31l-11.36 6.575-7.935-4.918v42.59h.23l42.803-24.59v-49.115l-.804-.016"/>
      <path d="M1120.672 355.016L1078 379.672l28.787 16.918 5.836-3.557 14.147 7.9V384.54l13.558-8.146v16.427l23.738-13.14v-.065"/>
      <path d="M1115.295 407.508v16.377l-12.918 8.197v-32.787l4.902-3-29.04-16.623h-.24v49.115l43.03 24.59v-42.59"/>
      <path fill-opacity=".8" d="M1252.328 392.82v16.31l-11.36 6.575-7.935-4.918v42.59h.23l42.803-24.59v-49.115l-.804-.016"/>
      <path d="M1232.672 355.016L1190 379.672l28.787 16.918 5.836-3.557 14.147 7.9V384.54l13.558-8.146v16.427l23.738-13.14v-.065"/>
      <path d="M1227.295 407.508v16.377l-12.918 8.197v-32.787l4.902-3-29.04-16.623h-.24v49.115l43.03 24.59v-42.59"/>
      <path fill-opacity=".8" d="M1364.328 392.82v16.31l-11.36 6.575-7.935-4.918v42.59h.23l42.803-24.59v-49.115l-.804-.016"/>
      <path d="M1344.672 355.016L1302 379.672l28.787 16.918 5.836-3.557 14.147 7.9V384.54l13.558-8.146v16.427l23.738-13.14v-.065"/>
      <path d="M1339.295 407.508v16.377l-12.918 8.197v-32.787l4.902-3-29.04-16.623h-.24v49.115l43.03 24.59v-42.59"/>
    </g>
    <g fill="#FFF" fill-rule="nonzero">
      <path d="M611 204c1.326 0 2.598-.527 3.536-1.464.937-.938 1.464-2.21 1.464-3.536s-.527-2.598-1.464-3.536c-.938-.937-2.21-1.464-3.536-1.464s-2.598.527-3.536 1.464c-.937.938-1.464 2.21-1.464 3.536s.527 2.598 1.464 3.536c.938.937 2.21 1.464 3.536 1.464zm-453 86c1.326 0 2.598-.527 3.536-1.464.937-.938 1.464-2.21 1.464-3.536s-.527-2.598-1.464-3.536c-.938-.937-2.21-1.464-3.536-1.464s-2.598.527-3.536 1.464c-.937.938-1.464 2.21-1.464 3.536s.527 2.598 1.464 3.536c.938.937 2.21 1.464 3.536 1.464zM57 250c1.326 0 2.598-.527 3.536-1.464.937-.938 1.464-2.21 1.464-3.536s-.527-2.598-1.464-3.536C59.598 240.527 58.326 240 57 240s-2.598.527-3.536 1.464c-.937.938-1.464 2.21-1.464 3.536s.527 2.598 1.464 3.536c.938.937 2.21 1.464 3.536 1.464zm-45 82c1.326 0 2.598-.527 3.536-1.464.937-.938 1.464-2.21 1.464-3.536s-.527-2.598-1.464-3.536C14.598 322.527 13.326 322 12 322s-2.598.527-3.536 1.464C7.527 324.402 7 325.674 7 327s.527 2.598 1.464 3.536c.938.937 2.21 1.464 3.536 1.464zm245 12c1.326 0 2.598-.527 3.536-1.464.937-.938 1.464-2.21 1.464-3.536s-.527-2.598-1.464-3.536c-.938-.937-2.21-1.464-3.536-1.464s-2.598.527-3.536 1.464c-.937.938-1.464 2.21-1.464 3.536s.527 2.598 1.464 3.536c.938.937 2.21 1.464 3.536 1.464zm439 110c1.326 0 2.598-.527 3.536-1.464.937-.938 1.464-2.21 1.464-3.536s-.527-2.598-1.464-3.536c-.938-.937-2.21-1.464-3.536-1.464s-2.598.527-3.536 1.464c-.937.938-1.464 2.21-1.464 3.536s.527 2.598 1.464 3.536c.938.937 2.21 1.464 3.536 1.464zM378 121c1.326 0 2.598-.527 3.536-1.464.937-.938 1.464-2.21 1.464-3.536s-.527-2.598-1.464-3.536c-.938-.937-2.21-1.464-3.536-1.464s-2.598.527-3.536 1.464c-.937.938-1.464 2.21-1.464 3.536s.527 2.598 1.464 3.536c.938.937 2.21 1.464 3.536 1.464zm305 252c1.326 0 2.598-.527 3.536-1.464.937-.938 1.464-2.21 1.464-3.536s-.527-2.598-1.464-3.536c-.938-.937-2.21-1.464-3.536-1.464s-2.598.527-3.536 1.464c-.937.938-1.464 2.21-1.464 3.536s.527 2.598 1.464 3.536c.938.937 2.21 1.464 3.536 1.464zm-262 44c1.326 0 2.598-.527 3.536-1.464.937-.938 1.464-2.21 1.464-3.536s-.527-2.598-1.464-3.536c-.938-.937-2.21-1.464-3.536-1.464s-2.598.527-3.536 1.464c-.937.938-1.464 2.21-1.464 3.536s.527 2.598 1.464 3.536c.938.937 2.21 1.464 3.536 1.464zM253 171c1.326 0 2.598-.527 3.536-1.464.937-.938 1.464-2.21 1.464-3.536s-.527-2.598-1.464-3.536c-.938-.937-2.21-1.464-3.536-1.464s-2.598.527-3.536 1.464c-.937.938-1.464 2.21-1.464 3.536s.527 2.598 1.464 3.536c.938.937 2.21 1.464 3.536 1.464zm209 78c1.326 0 2.598-.527 3.536-1.464.937-.938 1.464-2.21 1.464-3.536s-.527-2.598-1.464-3.536c-.938-.937-2.21-1.464-3.536-1.464s-2.598.527-3.536 1.464c-.937.938-1.464 2.21-1.464 3.536s.527 2.598 1.464 3.536c.938.937 2.21 1.464 3.536 1.464zM124 539c1.326 0 2.598-.527 3.536-1.464.937-.938 1.464-2.21 1.464-3.536s-.527-2.598-1.464-3.536c-.938-.937-2.21-1.464-3.536-1.464s-2.598.527-3.536 1.464c-.937.938-1.464 2.21-1.464 3.536s.527 2.598 1.464 3.536c.938.937 2.21 1.464 3.536 1.464zm187-370c1.326 0 2.598-.527 3.536-1.464.937-.938 1.464-2.21 1.464-3.536s-.527-2.598-1.464-3.536c-.938-.937-2.21-1.464-3.536-1.464s-2.598.527-3.536 1.464c-.937.938-1.464 2.21-1.464 3.536s.527 2.598 1.464 3.536c.938.937 2.21 1.464 3.536 1.464zm-178 89c1.326 0 2.598-.527 3.536-1.464.937-.938 1.464-2.21 1.464-3.536s-.527-2.598-1.464-3.536c-.938-.937-2.21-1.464-3.536-1.464s-2.598.527-3.536 1.464c-.937.938-1.464 2.21-1.464 3.536s.527 2.598 1.464 3.536c.938.937 2.21 1.464 3.536 1.464zm441 257c1.326 0 2.598-.527 3.536-1.464.937-.938 1.464-2.21 1.464-3.536s-.527-2.598-1.464-3.536c-.938-.937-2.21-1.464-3.536-1.464s-2.598.527-3.536 1.464c-.937.938-1.464 2.21-1.464 3.536s.527 2.598 1.464 3.536c.938.937 2.21 1.464 3.536 1.464zM5 407c1.326 0 2.598-.527 3.536-1.464.937-.938 1.464-2.21 1.464-3.536s-.527-2.598-1.464-3.536C7.598 397.527 6.326 397 5 397s-2.598.527-3.536 1.464C.527 399.402 0 400.674 0 402s.527 2.598 1.464 3.536C2.402 406.473 3.674 407 5 407zM361 59c1.326 0 2.598-.527 3.536-1.464.937-.938 1.464-2.21 1.464-3.536s-.527-2.598-1.464-3.536C363.598 49.527 362.326 49 361 49s-2.598.527-3.536 1.464c-.937.938-1.464 2.21-1.464 3.536s.527 2.598 1.464 3.536c.938.937 2.21 1.464 3.536 1.464zm25 157c1.326 0 2.598-.527 3.536-1.464.937-.938 1.464-2.21 1.464-3.536s-.527-2.598-1.464-3.536c-.938-.937-2.21-1.464-3.536-1.464s-2.598.527-3.536 1.464c-.937.938-1.464 2.21-1.464 3.536s.527 2.598 1.464 3.536c.938.937 2.21 1.464 3.536 1.464zm-97 244c1.326 0 2.598-.527 3.536-1.464.937-.938 1.464-2.21 1.464-3.536s-.527-2.598-1.464-3.536c-.938-.937-2.21-1.464-3.536-1.464s-2.598.527-3.536 1.464c-.937.938-1.464 2.21-1.464 3.536s.527 2.598 1.464 3.536c.938.937 2.21 1.464 3.536 1.464zm-31-161c1.326 0 2.598-.527 3.536-1.464.937-.938 1.464-2.21 1.464-3.536s-.527-2.598-1.464-3.536c-.938-.937-2.21-1.464-3.536-1.464s-2.598.527-3.536 1.464c-.937.938-1.464 2.21-1.464 3.536s.527 2.598 1.464 3.536c.938.937 2.21 1.464 3.536 1.464zm217-56c1.326 0 2.598-.527 3.536-1.464.937-.938 1.464-2.21 1.464-3.536s-.527-2.598-1.464-3.536c-.938-.937-2.21-1.464-3.536-1.464s-2.598.527-3.536 1.464c-.937.938-1.464 2.21-1.464 3.536s.527 2.598 1.464 3.536c.938.937 2.21 1.464 3.536 1.464zM79 411c1.326 0 2.598-.527 3.536-1.464.937-.938 1.464-2.21 1.464-3.536s-.527-2.598-1.464-3.536C81.598 401.527 80.326 401 79 401s-2.598.527-3.536 1.464c-.937.938-1.464 2.21-1.464 3.536s.527 2.598 1.464 3.536c.938.937 2.21 1.464 3.536 1.464zM647 75c1.326 0 2.598-.527 3.536-1.464.937-.938 1.464-2.21 1.464-3.536s-.527-2.598-1.464-3.536C649.598 65.527 648.326 65 647 65s-2.598.527-3.536 1.464c-.937.938-1.464 2.21-1.464 3.536s.527 2.598 1.464 3.536c.938.937 2.21 1.464 3.536 1.464zm-33 80c1.326 0 2.598-.527 3.536-1.464.937-.938 1.464-2.21 1.464-3.536s-.527-2.598-1.464-3.536c-.938-.937-2.21-1.464-3.536-1.464s-2.598.527-3.536 1.464c-.937.938-1.464 2.21-1.464 3.536s.527 2.598 1.464 3.536c.938.937 2.21 1.464 3.536 1.464zm39 324c1.326 0 2.598-.527 3.536-1.464.937-.938 1.464-2.21 1.464-3.536s-.527-2.598-1.464-3.536c-.938-.937-2.21-1.464-3.536-1.464s-2.598.527-3.536 1.464c-.937.938-1.464 2.21-1.464 3.536s.527 2.598 1.464 3.536c.938.937 2.21 1.464 3.536 1.464zM484 125c1.326 0 2.598-.527 3.536-1.464.937-.938 1.464-2.21 1.464-3.536s-.527-2.598-1.464-3.536c-.938-.937-2.21-1.464-3.536-1.464s-2.598.527-3.536 1.464c-.937.938-1.464 2.21-1.464 3.536s.527 2.598 1.464 3.536c.938.937 2.21 1.464 3.536 1.464zm-96 231c1.326 0 2.598-.527 3.536-1.464.937-.938 1.464-2.21 1.464-3.536s-.527-2.598-1.464-3.536c-.938-.937-2.21-1.464-3.536-1.464s-2.598.527-3.536 1.464c-.937.938-1.464 2.21-1.464 3.536s.527 2.598 1.464 3.536c.938.937 2.21 1.464 3.536 1.464zm-89-96c1.326 0 2.598-.527 3.536-1.464.937-.938 1.464-2.21 1.464-3.536s-.527-2.598-1.464-3.536c-.938-.937-2.21-1.464-3.536-1.464s-2.598.527-3.536 1.464c-.937.938-1.464 2.21-1.464 3.536s.527 2.598 1.464 3.536c.938.937 2.21 1.464 3.536 1.464zm21 0c1.326 0 2.598-.527 3.536-1.464.937-.938 1.464-2.21 1.464-3.536s-.527-2.598-1.464-3.536c-.938-.937-2.21-1.464-3.536-1.464s-2.598.527-3.536 1.464c-.937.938-1.464 2.21-1.464 3.536s.527 2.598 1.464 3.536c.938.937 2.21 1.464 3.536 1.464zm80-98c1.326 0 2.598-.527 3.536-1.464.937-.938 1.464-2.21 1.464-3.536s-.527-2.598-1.464-3.536c-.938-.937-2.21-1.464-3.536-1.464s-2.598.527-3.536 1.464c-.937.938-1.464 2.21-1.464 3.536s.527 2.598 1.464 3.536c.938.937 2.21 1.464 3.536 1.464zM183 373c1.326 0 2.598-.527 3.536-1.464.937-.938 1.464-2.21 1.464-3.536s-.527-2.598-1.464-3.536c-.938-.937-2.21-1.464-3.536-1.464s-2.598.527-3.536 1.464c-.937.938-1.464 2.21-1.464 3.536s.527 2.598 1.464 3.536c.938.937 2.21 1.464 3.536 1.464zM630 67c1.326 0 2.598-.527 3.536-1.464.937-.938 1.464-2.21 1.464-3.536s-.527-2.598-1.464-3.536C632.598 57.527 631.326 57 630 57s-2.598.527-3.536 1.464c-.937.938-1.464 2.21-1.464 3.536s.527 2.598 1.464 3.536c.938.937 2.21 1.464 3.536 1.464zM194 392c1.326 0 2.598-.527 3.536-1.464.937-.938 1.464-2.21 1.464-3.536s-.527-2.598-1.464-3.536c-.938-.937-2.21-1.464-3.536-1.464s-2.598.527-3.536 1.464c-.937.938-1.464 2.21-1.464 3.536s.527 2.598 1.464 3.536c.938.937 2.21 1.464 3.536 1.464zm-72 126c1.326 0 2.598-.527 3.536-1.464.937-.938 1.464-2.21 1.464-3.536s-.527-2.598-1.464-3.536c-.938-.937-2.21-1.464-3.536-1.464s-2.598.527-3.536 1.464c-.937.938-1.464 2.21-1.464 3.536s.527 2.598 1.464 3.536c.938.937 2.21 1.464 3.536 1.464zm235-314c1.326 0 2.598-.527 3.536-1.464.937-.938 1.464-2.21 1.464-3.536s-.527-2.598-1.464-3.536c-.938-.937-2.21-1.464-3.536-1.464s-2.598.527-3.536 1.464c-.937.938-1.464 2.21-1.464 3.536s.527 2.598 1.464 3.536c.938.937 2.21 1.464 3.536 1.464zM99 329c1.326 0 2.598-.527 3.536-1.464.937-.938 1.464-2.21 1.464-3.536s-.527-2.598-1.464-3.536c-.938-.937-2.21-1.464-3.536-1.464s-2.598.527-3.536 1.464c-.937.938-1.464 2.21-1.464 3.536s.527 2.598 1.464 3.536c.938.937 2.21 1.464 3.536 1.464zm449 128c1.326 0 2.598-.527 3.536-1.464.937-.938 1.464-2.21 1.464-3.536s-.527-2.598-1.464-3.536c-.938-.937-2.21-1.464-3.536-1.464s-2.598.527-3.536 1.464c-.937.938-1.464 2.21-1.464 3.536s.527 2.598 1.464 3.536c.938.937 2.21 1.464 3.536 1.464zm110-299c1.326 0 2.598-.527 3.536-1.464.937-.938 1.464-2.21 1.464-3.536s-.527-2.598-1.464-3.536c-.938-.937-2.21-1.464-3.536-1.464s-2.598.527-3.536 1.464c-.937.938-1.464 2.21-1.464 3.536s.527 2.598 1.464 3.536c.938.937 2.21 1.464 3.536 1.464zm-278-4c1.326 0 2.598-.527 3.536-1.464.937-.938 1.464-2.21 1.464-3.536s-.527-2.598-1.464-3.536c-.938-.937-2.21-1.464-3.536-1.464s-2.598.527-3.536 1.464c-.937.938-1.464 2.21-1.464 3.536s.527 2.598 1.464 3.536c.938.937 2.21 1.464 3.536 1.464zm-205 62c1.326 0 2.598-.527 3.536-1.464.937-.938 1.464-2.21 1.464-3.536s-.527-2.598-1.464-3.536c-.938-.937-2.21-1.464-3.536-1.464s-2.598.527-3.536 1.464c-.937.938-1.464 2.21-1.464 3.536s.527 2.598 1.464 3.536c.938.937 2.21 1.464 3.536 1.464zm157-31c1.326 0 2.598-.527 3.536-1.464.937-.938 1.464-2.21 1.464-3.536s-.527-2.598-1.464-3.536c-.938-.937-2.21-1.464-3.536-1.464s-2.598.527-3.536 1.464c-.937.938-1.464 2.21-1.464 3.536s.527 2.598 1.464 3.536c.938.937 2.21 1.464 3.536 1.464zM98 490c1.326 0 2.598-.527 3.536-1.464.937-.938 1.464-2.21 1.464-3.536s-.527-2.598-1.464-3.536c-.938-.937-2.21-1.464-3.536-1.464s-2.598.527-3.536 1.464c-.937.938-1.464 2.21-1.464 3.536s.527 2.598 1.464 3.536c.938.937 2.21 1.464 3.536 1.464zm563-103c1.326 0 2.598-.527 3.536-1.464.937-.938 1.464-2.21 1.464-3.536s-.527-2.598-1.464-3.536c-.938-.937-2.21-1.464-3.536-1.464s-2.598.527-3.536 1.464c-.937.938-1.464 2.21-1.464 3.536s.527 2.598 1.464 3.536c.938.937 2.21 1.464 3.536 1.464zM475 532c1.326 0 2.598-.527 3.536-1.464.937-.938 1.464-2.21 1.464-3.536s-.527-2.598-1.464-3.536c-.938-.937-2.21-1.464-3.536-1.464s-2.598.527-3.536 1.464c-.937.938-1.464 2.21-1.464 3.536s.527 2.598 1.464 3.536c.938.937 2.21 1.464 3.536 1.464zM335 402c1.326 0 2.598-.527 3.536-1.464.937-.938 1.464-2.21 1.464-3.536s-.527-2.598-1.464-3.536c-.938-.937-2.21-1.464-3.536-1.464s-2.598.527-3.536 1.464c-.937.938-1.464 2.21-1.464 3.536s.527 2.598 1.464 3.536c.938.937 2.21 1.464 3.536 1.464zm55-3c1.326 0 2.598-.527 3.536-1.464.937-.938 1.464-2.21 1.464-3.536s-.527-2.598-1.464-3.536c-.938-.937-2.21-1.464-3.536-1.464s-2.598.527-3.536 1.464c-.937.938-1.464 2.21-1.464 3.536s.527 2.598 1.464 3.536c.938.937 2.21 1.464 3.536 1.464z"/>
      <path d="M649 481c1.326 0 2.598-.527 3.536-1.464.937-.938 1.464-2.21 1.464-3.536s-.527-2.598-1.464-3.536c-.938-.937-2.21-1.464-3.536-1.464s-2.598.527-3.536 1.464c-.937.938-1.464 2.21-1.464 3.536s.527 2.598 1.464 3.536c.938.937 2.21 1.464 3.536 1.464zm22-105c1.326 0 2.598-.527 3.536-1.464.937-.938 1.464-2.21 1.464-3.536s-.527-2.598-1.464-3.536c-.938-.937-2.21-1.464-3.536-1.464s-2.598.527-3.536 1.464c-.937.938-1.464 2.21-1.464 3.536s.527 2.598 1.464 3.536c.938.937 2.21 1.464 3.536 1.464zM42 38c1.326 0 2.598-.527 3.536-1.464C46.473 35.598 47 34.326 47 33s-.527-2.598-1.464-3.536C44.598 28.527 43.326 28 42 28s-2.598.527-3.536 1.464C37.527 30.402 37 31.674 37 33s.527 2.598 1.464 3.536C39.402 37.473 40.674 38 42 38zm268 495c1.326 0 2.598-.527 3.536-1.464.937-.938 1.464-2.21 1.464-3.536s-.527-2.598-1.464-3.536c-.938-.937-2.21-1.464-3.536-1.464s-2.598.527-3.536 1.464c-.937.938-1.464 2.21-1.464 3.536s.527 2.598 1.464 3.536c.938.937 2.21 1.464 3.536 1.464zM154 92c1.326 0 2.598-.527 3.536-1.464.937-.938 1.464-2.21 1.464-3.536s-.527-2.598-1.464-3.536C156.598 82.527 155.326 82 154 82s-2.598.527-3.536 1.464c-.937.938-1.464 2.21-1.464 3.536s.527 2.598 1.464 3.536c.938.937 2.21 1.464 3.536 1.464zm224 139c1.326 0 2.598-.527 3.536-1.464.937-.938 1.464-2.21 1.464-3.536s-.527-2.598-1.464-3.536c-.938-.937-2.21-1.464-3.536-1.464s-2.598.527-3.536 1.464c-.937.938-1.464 2.21-1.464 3.536s.527 2.598 1.464 3.536c.938.937 2.21 1.464 3.536 1.464zm250 80c1.326 0 2.598-.527 3.536-1.464.937-.938 1.464-2.21 1.464-3.536s-.527-2.598-1.464-3.536c-.938-.937-2.21-1.464-3.536-1.464s-2.598.527-3.536 1.464c-.937.938-1.464 2.21-1.464 3.536s.527 2.598 1.464 3.536c.938.937 2.21 1.464 3.536 1.464zm-112-59c1.326 0 2.598-.527 3.536-1.464.937-.938 1.464-2.21 1.464-3.536s-.527-2.598-1.464-3.536c-.938-.937-2.21-1.464-3.536-1.464s-2.598.527-3.536 1.464c-.937.938-1.464 2.21-1.464 3.536s.527 2.598 1.464 3.536c.938.937 2.21 1.464 3.536 1.464zM387 542c1.326 0 2.598-.527 3.536-1.464.937-.938 1.464-2.21 1.464-3.536s-.527-2.598-1.464-3.536c-.938-.937-2.21-1.464-3.536-1.464s-2.598.527-3.536 1.464c-.937.938-1.464 2.21-1.464 3.536s.527 2.598 1.464 3.536c.938.937 2.21 1.464 3.536 1.464zm-84-265c1.326 0 2.598-.527 3.536-1.464.937-.938 1.464-2.21 1.464-3.536s-.527-2.598-1.464-3.536c-.938-.937-2.21-1.464-3.536-1.464s-2.598.527-3.536 1.464c-.937.938-1.464 2.21-1.464 3.536s.527 2.598 1.464 3.536c.938.937 2.21 1.464 3.536 1.464zm-176-94c1.326 0 2.598-.527 3.536-1.464.937-.938 1.464-2.21 1.464-3.536s-.527-2.598-1.464-3.536c-.938-.937-2.21-1.464-3.536-1.464s-2.598.527-3.536 1.464c-.937.938-1.464 2.21-1.464 3.536s.527 2.598 1.464 3.536c.938.937 2.21 1.464 3.536 1.464zm447 180c1.326 0 2.598-.527 3.536-1.464.937-.938 1.464-2.21 1.464-3.536s-.527-2.598-1.464-3.536c-.938-.937-2.21-1.464-3.536-1.464s-2.598.527-3.536 1.464c-.937.938-1.464 2.21-1.464 3.536s.527 2.598 1.464 3.536c.938.937 2.21 1.464 3.536 1.464zm-1 180c1.326 0 2.598-.527 3.536-1.464.937-.938 1.464-2.21 1.464-3.536s-.527-2.598-1.464-3.536c-.938-.937-2.21-1.464-3.536-1.464s-2.598.527-3.536 1.464c-.937.938-1.464 2.21-1.464 3.536s.527 2.598 1.464 3.536c.938.937 2.21 1.464 3.536 1.464zm-24-190c1.326 0 2.598-.527 3.536-1.464.937-.938 1.464-2.21 1.464-3.536s-.527-2.598-1.464-3.536c-.938-.937-2.21-1.464-3.536-1.464s-2.598.527-3.536 1.464c-.937.938-1.464 2.21-1.464 3.536s.527 2.598 1.464 3.536c.938.937 2.21 1.464 3.536 1.464zM62 119c1.326 0 2.598-.527 3.536-1.464.937-.938 1.464-2.21 1.464-3.536s-.527-2.598-1.464-3.536C64.598 109.527 63.326 109 62 109s-2.598.527-3.536 1.464c-.937.938-1.464 2.21-1.464 3.536s.527 2.598 1.464 3.536c.938.937 2.21 1.464 3.536 1.464zm535-39c1.326 0 2.598-.527 3.536-1.464.937-.938 1.464-2.21 1.464-3.536s-.527-2.598-1.464-3.536C599.598 70.527 598.326 70 597 70s-2.598.527-3.536 1.464c-.937.938-1.464 2.21-1.464 3.536s.527 2.598 1.464 3.536c.938.937 2.21 1.464 3.536 1.464zm-103 0c1.326 0 2.598-.527 3.536-1.464.937-.938 1.464-2.21 1.464-3.536s-.527-2.598-1.464-3.536C496.598 70.527 495.326 70 494 70s-2.598.527-3.536 1.464c-.937.938-1.464 2.21-1.464 3.536s.527 2.598 1.464 3.536c.938.937 2.21 1.464 3.536 1.464zM25 217c1.326 0 2.598-.527 3.536-1.464.937-.938 1.464-2.21 1.464-3.536s-.527-2.598-1.464-3.536C27.598 207.527 26.326 207 25 207s-2.598.527-3.536 1.464c-.937.938-1.464 2.21-1.464 3.536s.527 2.598 1.464 3.536c.938.937 2.21 1.464 3.536 1.464zM338 48c1.326 0 2.598-.527 3.536-1.464.937-.938 1.464-2.21 1.464-3.536s-.527-2.598-1.464-3.536C340.598 38.527 339.326 38 338 38s-2.598.527-3.536 1.464c-.937.938-1.464 2.21-1.464 3.536s.527 2.598 1.464 3.536c.938.937 2.21 1.464 3.536 1.464zM82 51c1.326 0 2.598-.527 3.536-1.464C86.473 48.598 87 47.326 87 46s-.527-2.598-1.464-3.536C84.598 41.527 83.326 41 82 41s-2.598.527-3.536 1.464C77.527 43.402 77 44.674 77 46s.527 2.598 1.464 3.536C79.402 50.473 80.674 51 82 51zm441 375c1.326 0 2.598-.527 3.536-1.464.937-.938 1.464-2.21 1.464-3.536s-.527-2.598-1.464-3.536c-.938-.937-2.21-1.464-3.536-1.464s-2.598.527-3.536 1.464c-.937.938-1.464 2.21-1.464 3.536s.527 2.598 1.464 3.536c.938.937 2.21 1.464 3.536 1.464zm-243-89c1.326 0 2.598-.527 3.536-1.464.937-.938 1.464-2.21 1.464-3.536s-.527-2.598-1.464-3.536c-.938-.937-2.21-1.464-3.536-1.464s-2.598.527-3.536 1.464c-.937.938-1.464 2.21-1.464 3.536s.527 2.598 1.464 3.536c.938.937 2.21 1.464 3.536 1.464zm99-226c1.326 0 2.598-.527 3.536-1.464.937-.938 1.464-2.21 1.464-3.536s-.527-2.598-1.464-3.536c-.938-.937-2.21-1.464-3.536-1.464s-2.598.527-3.536 1.464c-.937.938-1.464 2.21-1.464 3.536s.527 2.598 1.464 3.536c.938.937 2.21 1.464 3.536 1.464zm36 413c1.326 0 2.598-.527 3.536-1.464.937-.938 1.464-2.21 1.464-3.536s-.527-2.598-1.464-3.536c-.938-.937-2.21-1.464-3.536-1.464s-2.598.527-3.536 1.464c-.937.938-1.464 2.21-1.464 3.536s.527 2.598 1.464 3.536c.938.937 2.21 1.464 3.536 1.464zM311 129c1.326 0 2.598-.527 3.536-1.464.937-.938 1.464-2.21 1.464-3.536s-.527-2.598-1.464-3.536c-.938-.937-2.21-1.464-3.536-1.464s-2.598.527-3.536 1.464c-.937.938-1.464 2.21-1.464 3.536s.527 2.598 1.464 3.536c.938.937 2.21 1.464 3.536 1.464zm66 364c1.326 0 2.598-.527 3.536-1.464.937-.938 1.464-2.21 1.464-3.536s-.527-2.598-1.464-3.536c-.938-.937-2.21-1.464-3.536-1.464s-2.598.527-3.536 1.464c-.937.938-1.464 2.21-1.464 3.536s.527 2.598 1.464 3.536c.938.937 2.21 1.464 3.536 1.464zm162-236c1.326 0 2.598-.527 3.536-1.464.937-.938 1.464-2.21 1.464-3.536s-.527-2.598-1.464-3.536c-.938-.937-2.21-1.464-3.536-1.464s-2.598.527-3.536 1.464c-.937.938-1.464 2.21-1.464 3.536s.527 2.598 1.464 3.536c.938.937 2.21 1.464 3.536 1.464zM90 398c1.326 0 2.598-.527 3.536-1.464.937-.938 1.464-2.21 1.464-3.536s-.527-2.598-1.464-3.536C92.598 388.527 91.326 388 90 388s-2.598.527-3.536 1.464c-.937.938-1.464 2.21-1.464 3.536s.527 2.598 1.464 3.536c.938.937 2.21 1.464 3.536 1.464zM608 83c1.326 0 2.598-.527 3.536-1.464.937-.938 1.464-2.21 1.464-3.536s-.527-2.598-1.464-3.536C610.598 73.527 609.326 73 608 73s-2.598.527-3.536 1.464c-.937.938-1.464 2.21-1.464 3.536s.527 2.598 1.464 3.536c.938.937 2.21 1.464 3.536 1.464zM70 184c1.326 0 2.598-.527 3.536-1.464.937-.938 1.464-2.21 1.464-3.536s-.527-2.598-1.464-3.536C72.598 174.527 71.326 174 70 174s-2.598.527-3.536 1.464c-.937.938-1.464 2.21-1.464 3.536s.527 2.598 1.464 3.536c.938.937 2.21 1.464 3.536 1.464zm355 139c1.326 0 2.598-.527 3.536-1.464.937-.938 1.464-2.21 1.464-3.536s-.527-2.598-1.464-3.536c-.938-.937-2.21-1.464-3.536-1.464s-2.598.527-3.536 1.464c-.937.938-1.464 2.21-1.464 3.536s.527 2.598 1.464 3.536c.938.937 2.21 1.464 3.536 1.464zM144 476c1.326 0 2.598-.527 3.536-1.464.937-.938 1.464-2.21 1.464-3.536s-.527-2.598-1.464-3.536c-.938-.937-2.21-1.464-3.536-1.464s-2.598.527-3.536 1.464c-.937.938-1.464 2.21-1.464 3.536s.527 2.598 1.464 3.536c.938.937 2.21 1.464 3.536 1.464zm451-140c1.326 0 2.598-.527 3.536-1.464.937-.938 1.464-2.21 1.464-3.536s-.527-2.598-1.464-3.536c-.938-.937-2.21-1.464-3.536-1.464s-2.598.527-3.536 1.464c-.937.938-1.464 2.21-1.464 3.536s.527 2.598 1.464 3.536c.938.937 2.21 1.464 3.536 1.464zm-180 47c1.326 0 2.598-.527 3.536-1.464.937-.938 1.464-2.21 1.464-3.536s-.527-2.598-1.464-3.536c-.938-.937-2.21-1.464-3.536-1.464s-2.598.527-3.536 1.464c-.937.938-1.464 2.21-1.464 3.536s.527 2.598 1.464 3.536c.938.937 2.21 1.464 3.536 1.464zm283-157c1.326 0 2.598-.527 3.536-1.464.937-.938 1.464-2.21 1.464-3.536s-.527-2.598-1.464-3.536c-.938-.937-2.21-1.464-3.536-1.464s-2.598.527-3.536 1.464c-.937.938-1.464 2.21-1.464 3.536s.527 2.598 1.464 3.536c.938.937 2.21 1.464 3.536 1.464zM590 96c1.326 0 2.598-.527 3.536-1.464.937-.938 1.464-2.21 1.464-3.536s-.527-2.598-1.464-3.536C592.598 86.527 591.326 86 590 86s-2.598.527-3.536 1.464c-.937.938-1.464 2.21-1.464 3.536s.527 2.598 1.464 3.536c.938.937 2.21 1.464 3.536 1.464zm49-35c1.326 0 2.598-.527 3.536-1.464.937-.938 1.464-2.21 1.464-3.536s-.527-2.598-1.464-3.536C641.598 51.527 640.326 51 639 51s-2.598.527-3.536 1.464c-.937.938-1.464 2.21-1.464 3.536s.527 2.598 1.464 3.536c.938.937 2.21 1.464 3.536 1.464zm0 85c1.326 0 2.598-.527 3.536-1.464.937-.938 1.464-2.21 1.464-3.536s-.527-2.598-1.464-3.536c-.938-.937-2.21-1.464-3.536-1.464s-2.598.527-3.536 1.464c-.937.938-1.464 2.21-1.464 3.536s.527 2.598 1.464 3.536c.938.937 2.21 1.464 3.536 1.464zm-252-10c1.326 0 2.598-.527 3.536-1.464.937-.938 1.464-2.21 1.464-3.536s-.527-2.598-1.464-3.536c-.938-.937-2.21-1.464-3.536-1.464s-2.598.527-3.536 1.464c-.937.938-1.464 2.21-1.464 3.536s.527 2.598 1.464 3.536c.938.937 2.21 1.464 3.536 1.464zm236 363c1.326 0 2.598-.527 3.536-1.464.937-.938 1.464-2.21 1.464-3.536s-.527-2.598-1.464-3.536c-.938-.937-2.21-1.464-3.536-1.464s-2.598.527-3.536 1.464c-.937.938-1.464 2.21-1.464 3.536s.527 2.598 1.464 3.536c.938.937 2.21 1.464 3.536 1.464zM87 509c1.326 0 2.598-.527 3.536-1.464.937-.938 1.464-2.21 1.464-3.536s-.527-2.598-1.464-3.536C89.598 499.527 88.326 499 87 499s-2.598.527-3.536 1.464c-.937.938-1.464 2.21-1.464 3.536s.527 2.598 1.464 3.536c.938.937 2.21 1.464 3.536 1.464zm163-342c1.326 0 2.598-.527 3.536-1.464.937-.938 1.464-2.21 1.464-3.536s-.527-2.598-1.464-3.536c-.938-.937-2.21-1.464-3.536-1.464s-2.598.527-3.536 1.464c-.937.938-1.464 2.21-1.464 3.536s.527 2.598 1.464 3.536c.938.937 2.21 1.464 3.536 1.464zM85 10c1.326 0 2.598-.527 3.536-1.464C89.473 7.598 90 6.326 90 5s-.527-2.598-1.464-3.536C87.598.527 86.326 0 85 0s-2.598.527-3.536 1.464C80.527 2.402 80 3.674 80 5s.527 2.598 1.464 3.536C82.402 9.473 83.674 10 85 10zm482 451c1.326 0 2.598-.527 3.536-1.464.937-.938 1.464-2.21 1.464-3.536s-.527-2.598-1.464-3.536c-.938-.937-2.21-1.464-3.536-1.464s-2.598.527-3.536 1.464c-.937.938-1.464 2.21-1.464 3.536s.527 2.598 1.464 3.536c.938.937 2.21 1.464 3.536 1.464zm98 25c1.326 0 2.598-.527 3.536-1.464.937-.938 1.464-2.21 1.464-3.536s-.527-2.598-1.464-3.536c-.938-.937-2.21-1.464-3.536-1.464s-2.598.527-3.536 1.464c-.937.938-1.464 2.21-1.464 3.536s.527 2.598 1.464 3.536c.938.937 2.21 1.464 3.536 1.464zM160 338c1.326 0 2.598-.527 3.536-1.464.937-.938 1.464-2.21 1.464-3.536s-.527-2.598-1.464-3.536c-.938-.937-2.21-1.464-3.536-1.464s-2.598.527-3.536 1.464c-.937.938-1.464 2.21-1.464 3.536s.527 2.598 1.464 3.536c.938.937 2.21 1.464 3.536 1.464zM69 535c1.326 0 2.598-.527 3.536-1.464.937-.938 1.464-2.21 1.464-3.536s-.527-2.598-1.464-3.536C71.598 525.527 70.326 525 69 525s-2.598.527-3.536 1.464c-.937.938-1.464 2.21-1.464 3.536s.527 2.598 1.464 3.536c.938.937 2.21 1.464 3.536 1.464zm25-332c1.326 0 2.598-.527 3.536-1.464.937-.938 1.464-2.21 1.464-3.536s-.527-2.598-1.464-3.536C96.598 193.527 95.326 193 94 193s-2.598.527-3.536 1.464c-.937.938-1.464 2.21-1.464 3.536s.527 2.598 1.464 3.536c.938.937 2.21 1.464 3.536 1.464zm381-20c1.326 0 2.598-.527 3.536-1.464.937-.938 1.464-2.21 1.464-3.536s-.527-2.598-1.464-3.536c-.938-.937-2.21-1.464-3.536-1.464s-2.598.527-3.536 1.464c-.937.938-1.464 2.21-1.464 3.536s.527 2.598 1.464 3.536c.938.937 2.21 1.464 3.536 1.464zm-43-89c1.326 0 2.598-.527 3.536-1.464.937-.938 1.464-2.21 1.464-3.536s-.527-2.598-1.464-3.536C434.598 84.527 433.326 84 432 84s-2.598.527-3.536 1.464c-.937.938-1.464 2.21-1.464 3.536s.527 2.598 1.464 3.536c.938.937 2.21 1.464 3.536 1.464zm-70 232c1.326 0 2.598-.527 3.536-1.464.937-.938 1.464-2.21 1.464-3.536s-.527-2.598-1.464-3.536c-.938-.937-2.21-1.464-3.536-1.464s-2.598.527-3.536 1.464c-.937.938-1.464 2.21-1.464 3.536s.527 2.598 1.464 3.536c.938.937 2.21 1.464 3.536 1.464zm127-25c1.326 0 2.598-.527 3.536-1.464.937-.938 1.464-2.21 1.464-3.536s-.527-2.598-1.464-3.536c-.938-.937-2.21-1.464-3.536-1.464s-2.598.527-3.536 1.464c-.937.938-1.464 2.21-1.464 3.536s.527 2.598 1.464 3.536c.938.937 2.21 1.464 3.536 1.464zm-287 12c1.326 0 2.598-.527 3.536-1.464.937-.938 1.464-2.21 1.464-3.536s-.527-2.598-1.464-3.536c-.938-.937-2.21-1.464-3.536-1.464s-2.598.527-3.536 1.464c-.937.938-1.464 2.21-1.464 3.536s.527 2.598 1.464 3.536c.938.937 2.21 1.464 3.536 1.464zm454-84c1.326 0 2.598-.527 3.536-1.464.937-.938 1.464-2.21 1.464-3.536s-.527-2.598-1.464-3.536c-.938-.937-2.21-1.464-3.536-1.464s-2.598.527-3.536 1.464c-.937.938-1.464 2.21-1.464 3.536s.527 2.598 1.464 3.536c.938.937 2.21 1.464 3.536 1.464z"/>
    </g>
    <path stroke="#FFF" stroke-width="3" d="M767.5 271.5h208" stroke-linecap="square"/>
    <path fill="#FFF" d="M989 271.5L964 284v-25"/>
  </g>
</svg>
