<svg xmlns="http://www.w3.org/2000/svg" viewBox="0 0 694 456">
  <g fill="none" fill-rule="evenodd">
    <path stroke="#FFF" stroke-width="2" d="M341 63.5v26m0 1v30" stroke-linecap="square"/>
    <path fill="#FFF" fill-rule="nonzero" d="M111 345h232v111H111z"/>
    <path fill="#1F9967" d="M178.26 385.96c-.387.133-.823.223-1.31.27-.487.047-1.07.07-1.75.07.64.293 1.12.66 1.44 1.1.32.44.48.973.48 1.6 0 .693-.17 1.307-.51 1.84-.34.533-.823.953-1.45 1.26-.627.307-1.367.46-2.22.46-.6 0-1.08-.06-1.44-.18-.147.107-.26.237-.34.39-.08.153-.12.317-.12.49 0 .533.433.8 1.3.8h1.84c.747 0 1.413.127 2 .38s1.043.603 1.37 1.05c.327.447.49.95.49 1.51 0 1.053-.453 1.87-1.36 2.45-.907.58-2.213.87-3.92.87-1.187 0-2.123-.123-2.81-.37-.687-.247-1.173-.607-1.46-1.08-.287-.473-.43-1.083-.43-1.83h2c0 .4.077.717.23.95.153.233.423.407.81.52.387.113.947.17 1.68.17 1.067 0 1.833-.13 2.3-.39.467-.26.7-.643.7-1.15 0-.427-.183-.757-.55-.99-.367-.233-.863-.35-1.49-.35h-1.82c-.947 0-1.663-.193-2.15-.58-.487-.387-.73-.873-.73-1.46 0-.36.1-.707.3-1.04.2-.333.487-.62.86-.86-.627-.333-1.083-.737-1.37-1.21-.287-.473-.43-1.057-.43-1.75 0-.733.187-1.383.56-1.95.373-.567.893-1.007 1.56-1.32.667-.313 1.427-.47 2.28-.47 1.147.013 2.057-.067 2.73-.24s1.39-.447 2.15-.82l.58 1.86zm-7.04 1.35c-.36.393-.54.923-.54 1.59 0 .68.183 1.217.55 1.61.367.393.903.59 1.61.59.667 0 1.173-.193 1.52-.58.347-.387.52-.94.52-1.66 0-1.427-.687-2.14-2.06-2.14-.707 0-1.24.197-1.6.59zm18.64-1.87l-.38 3.9h-1.6v-2.16c-.733.013-1.37.307-1.91.88-.54.573-.97 1.38-1.29 2.42v3.92h2.12v1.6h-5.92v-1.6h1.56v-7.36h-1.56v-1.6h3.26l.4 2.44c.413-.907.917-1.583 1.51-2.03.593-.447 1.33-.67 2.21-.67.547 0 1.08.087 1.6.26zm10.68 1.21c.827.993 1.24 2.343 1.24 4.05 0 1.707-.42 3.06-1.26 4.06-.84 1-2.013 1.5-3.52 1.5-1.52 0-2.697-.49-3.53-1.47-.833-.98-1.25-2.337-1.25-4.07 0-1.68.423-3.027 1.27-4.04s2.023-1.52 3.53-1.52c1.52 0 2.693.497 3.52 1.49zm-5.35 1.19c-.407.627-.61 1.587-.61 2.88 0 1.307.2 2.27.6 2.89.4.62 1.007.93 1.82.93.813 0 1.42-.313 1.82-.94.4-.627.6-1.593.6-2.9 0-1.293-.2-2.25-.6-2.87-.4-.62-1-.93-1.8-.93-.813 0-1.423.313-1.83.94zm11.83 4.98c0 .613.123 1.057.37 1.33.247.273.623.41 1.13.41.48 0 .943-.14 1.39-.42.447-.28.803-.633 1.07-1.06v-7.64h2.24V396h-1.94l-.14-1.36c-.373.52-.86.92-1.46 1.2-.6.28-1.22.42-1.86.42-1.013 0-1.773-.273-2.28-.82-.507-.547-.76-1.327-.76-2.34v-7.66h2.24v7.38zm18.76-2.12c0 1.667-.353 3.01-1.06 4.03-.707 1.02-1.713 1.53-3.02 1.53-1.107 0-2-.387-2.68-1.16v4.96l-2.24.26v-14.88h1.94l.14 1.36c.4-.533.863-.94 1.39-1.22.527-.28 1.09-.42 1.69-.42 2.56 0 3.84 1.847 3.84 5.54zm-5.74-3.4c-.387.28-.727.647-1.02 1.1v4.94c.52.787 1.213 1.18 2.08 1.18.773 0 1.353-.307 1.74-.92s.58-1.573.58-2.88c0-1.347-.173-2.323-.52-2.93-.347-.607-.873-.91-1.58-.91-.467 0-.893.14-1.28.42zm11.58 5.66c.373-.373.827-.56 1.36-.56.547 0 1.007.187 1.38.56.373.373.56.827.56 1.36 0 .547-.187 1.007-.56 1.38-.373.373-.833.56-1.38.56-.533 0-.987-.187-1.36-.56-.373-.373-.56-.833-.56-1.38 0-.533.187-.987.56-1.36zm12.69-7.4c.5-.267 1.037-.4 1.61-.4 1.347 0 2.34.487 2.98 1.46.64.973.96 2.333.96 4.08 0 1.653-.37 2.993-1.11 4.02-.74 1.027-1.777 1.54-3.11 1.54-1.173 0-2.093-.433-2.76-1.3l-.12 1.04h-1.98v-14.8l2.24-.26v5.76c.36-.493.79-.873 1.29-1.14zm2.56 8.05c.407-.633.61-1.597.61-2.89 0-1.333-.183-2.307-.55-2.92-.367-.613-.91-.92-1.63-.92-.453 0-.877.14-1.27.42-.393.28-.73.647-1.01 1.1v4.94c.533.813 1.227 1.22 2.08 1.22.773 0 1.363-.317 1.77-.95zm10.55-.49c0 .893.533 1.34 1.6 1.34.533 0 1.093-.12 1.68-.36l.56 1.56c-.733.4-1.64.6-2.72.6-1.053 0-1.877-.297-2.47-.89-.593-.593-.89-1.41-.89-2.45v-10.08H252v-1.64h5.42v11.92zm9.6-.3c0 .613.123 1.057.37 1.33.247.273.623.41 1.13.41.48 0 .943-.14 1.39-.42.447-.28.803-.633 1.07-1.06v-7.64h2.24V396h-1.94l-.14-1.36c-.373.52-.86.92-1.46 1.2-.6.28-1.22.42-1.86.42-1.013 0-1.773-.273-2.28-.82-.507-.547-.76-1.327-.76-2.34v-7.66h2.24v7.38zm12.51.93c.527.513 1.19.77 1.99.77.493 0 .963-.077 1.41-.23.447-.153.903-.383 1.37-.69l.96 1.36c-.493.413-1.073.733-1.74.96-.667.227-1.367.34-2.1.34-1.613 0-2.867-.503-3.76-1.51-.893-1.007-1.34-2.35-1.34-4.03 0-1.053.193-2.003.58-2.85.387-.847.947-1.51 1.68-1.99s1.587-.72 2.56-.72c1.4 0 2.51.47 3.33 1.41.82.94 1.23 2.23 1.23 3.87 0 .4-.02.733-.06 1h-7c.067 1.027.363 1.797.89 2.31zm-.13-6.15c-.453.52-.713 1.293-.78 2.32h4.9c-.027-1-.24-1.767-.64-2.3-.4-.533-.973-.8-1.72-.8-.72 0-1.307.26-1.76.78zm-91.464 30.664l.714 1.008c-.327.28-.72.502-1.176.665-.457.163-.93.245-1.414.245-1.13 0-2.01-.348-2.646-1.043-.635-.7-.952-1.63-.952-2.8 0-.758.145-1.43.434-2.025.29-.593.707-1.06 1.253-1.4.54-.34 1.19-.51 1.93-.51.98 0 1.834.3 2.562.895l-.73.98c-.596-.41-1.2-.615-1.805-.615-.616 0-1.1.222-1.456.665-.355.444-.532 1.114-.532 2.01 0 .877.177 1.52.532 1.93.354.413.84.618 1.455.618.59 0 1.194-.21 1.82-.63zm8.442-4.81c.58.696.868 1.64.868 2.836 0 1.195-.294 2.142-.882 2.842-.588.7-1.41 1.05-2.464 1.05-1.064 0-1.888-.343-2.47-1.03-.584-.685-.876-1.635-.876-2.848 0-1.176.296-2.12.89-2.828.592-.71 1.415-1.064 2.47-1.064 1.064 0 1.885.348 2.464 1.043zm-3.745.834c-.285.44-.427 1.11-.427 2.016 0 .915.14 1.59.42 2.023.28.434.705.65 1.274.65.57 0 .994-.218 1.274-.657.28-.44.42-1.115.42-2.03 0-.905-.14-1.575-.42-2.01-.28-.433-.7-.65-1.26-.65-.57 0-.996.22-1.28.658zm8.28 3.486c0 .43.087.74.26.93.173.192.436.288.79.288.337 0 .66-.098.974-.294.313-.196.562-.443.75-.742v-5.348h1.567V420h-1.358l-.098-.952c-.26.364-.602.644-1.022.84-.42.196-.854.294-1.302.294-.71 0-1.24-.19-1.596-.574-.355-.383-.532-.93-.532-1.638v-5.362h1.568v5.166zm6.833-5.166h1.358l.112.966c.308-.373.67-.66 1.085-.86.42-.202.86-.302 1.31-.302.68 0 1.2.19 1.54.574.35.383.52.924.52 1.624V420h-1.57v-4.606c0-.457-.02-.81-.07-1.057-.05-.247-.152-.43-.3-.546-.15-.11-.374-.17-.673-.17-.335 0-.655.107-.96.31-.3.207-.56.46-.775.77v5.3h-1.57v-7.39zm13.594 7.42c-.373.103-.765.154-1.176.154-.84 0-1.49-.217-1.946-.65-.457-.435-.686-1.025-.686-1.772v-4.004h-1.638v-1.148h1.638v-1.652l1.568-.182v1.834h2.506l-.182 1.148H219.1v3.99c0 .4.103.698.308.89.205.19.532.286.98.286.495 0 .952-.117 1.372-.35l.56 1.036c-.28.177-.607.317-.98.42zm17.458-5.124h-5.796v-1.288h5.796v1.288zm0 2.758h-5.796v-1.274h5.796v1.274zm11.816-8.022h1.708l-.238 3.738h-1.246l-.224-3.738zm2.464 0h1.708l-.224 3.738h-1.246l-.238-3.738zm9.275.868c.462.243.814.57 1.057.98.243.41.364.873.364 1.386 0 .57-.13 1.122-.392 1.66-.26.536-.686 1.128-1.274 1.777-.588.65-1.42 1.46-2.492 2.43h4.382l-.168 1.26h-6.006v-1.19c1.213-1.16 2.12-2.08 2.716-2.73.597-.66 1.017-1.22 1.26-1.686.243-.467.364-.94.364-1.414 0-.486-.14-.87-.42-1.15-.28-.28-.663-.42-1.148-.42-.42 0-.777.078-1.07.23-.295.156-.59.415-.89.78l-1.008-.785c.383-.494.82-.865 1.316-1.112.495-.247 1.083-.37 1.764-.37.635 0 1.183.12 1.645.363zm5.06-.868h1.71l-.24 3.738h-1.245l-.224-3.738zm2.465 0h1.708l-.224 3.738h-1.246l-.238-3.738z"/>
    <path fill="#FFF" fill-rule="nonzero" d="M461 345h232v111H461zM17 174h202v102H17z"/>
    <path fill="#1F9967" d="M89.24 232l-1.2-7.5-1.28 7.5h-2.74l-1.78-10.56h2.16l1.1 9.16 1.48-7.82h2.24l1.36 7.82 1.1-9.16h2.08L92.04 232h-2.8zm9.29-2.25c.527.513 1.19.77 1.99.77.493 0 .963-.077 1.41-.23.447-.153.903-.383 1.37-.69l.96 1.36c-.493.413-1.073.733-1.74.96-.667.227-1.367.34-2.1.34-1.613 0-2.867-.503-3.76-1.51-.893-1.007-1.34-2.35-1.34-4.03 0-1.053.193-2.003.58-2.85.387-.847.947-1.51 1.68-1.99s1.587-.72 2.56-.72c1.4 0 2.51.47 3.33 1.41.82.94 1.23 2.23 1.23 3.87 0 .4-.02.733-.06 1h-7c.067 1.027.363 1.797.89 2.31zm-.13-6.15c-.453.52-.713 1.293-.78 2.32h4.9c-.027-1-.24-1.767-.64-2.3-.4-.533-.973-.8-1.72-.8-.72 0-1.307.26-1.76.78zm12.91-2.04c.5-.267 1.037-.4 1.61-.4 1.347 0 2.34.487 2.98 1.46.64.973.96 2.333.96 4.08 0 1.653-.37 2.993-1.11 4.02-.74 1.027-1.777 1.54-3.11 1.54-1.173 0-2.093-.433-2.76-1.3l-.12 1.04h-1.98v-14.8l2.24-.26v5.76c.36-.493.79-.873 1.29-1.14zm2.56 8.05c.407-.633.61-1.597.61-2.89 0-1.333-.183-2.307-.55-2.92-.367-.613-.91-.92-1.63-.92-.453 0-.877.14-1.27.42-.393.28-.73.647-1.01 1.1v4.94c.533.813 1.227 1.22 2.08 1.22.773 0 1.363-.317 1.77-.95zm8.75-.65c.373-.373.827-.56 1.36-.56.547 0 1.007.187 1.38.56.373.373.56.827.56 1.36 0 .547-.187 1.007-.56 1.38-.373.373-.833.56-1.38.56-.533 0-.987-.187-1.36-.56-.373-.373-.56-.833-.56-1.38 0-.533.187-.987.56-1.36zM137.3 232h-2.6l-3.74-10.56h2.42l2.66 8.7 2.7-8.7h2.3L137.3 232zm15.3-1.76V232h-8.34v-1.76h3.36v-9.74l-3.04 1.86-.96-1.56 4.24-2.6h1.98v12.04h2.76z"/>
    <path fill="#FFF" fill-rule="nonzero" d="M237 174h202v102H237z"/>
    <path fill="#1F9967" d="M309.24 232l-1.2-7.5-1.28 7.5h-2.74l-1.78-10.56h2.16l1.1 9.16 1.48-7.82h2.24l1.36 7.82 1.1-9.16h2.08L312.04 232h-2.8zm9.29-2.25c.527.513 1.19.77 1.99.77.493 0 .963-.077 1.41-.23.447-.153.903-.383 1.37-.69l.96 1.36c-.493.413-1.073.733-1.74.96-.667.227-1.367.34-2.1.34-1.613 0-2.867-.503-3.76-1.51-.893-1.007-1.34-2.35-1.34-4.03 0-1.053.193-2.003.58-2.85.387-.847.947-1.51 1.68-1.99s1.587-.72 2.56-.72c1.4 0 2.51.47 3.33 1.41.82.94 1.23 2.23 1.23 3.87 0 .4-.02.733-.06 1h-7c.067 1.027.363 1.797.89 2.31zm-.13-6.15c-.453.52-.713 1.293-.78 2.32h4.9c-.027-1-.24-1.767-.64-2.3-.4-.533-.973-.8-1.72-.8-.72 0-1.307.26-1.76.78zm12.91-2.04c.5-.267 1.037-.4 1.61-.4 1.347 0 2.34.487 2.98 1.46.64.973.96 2.333.96 4.08 0 1.653-.37 2.993-1.11 4.02-.74 1.027-1.777 1.54-3.11 1.54-1.173 0-2.093-.433-2.76-1.3l-.12 1.04h-1.98v-14.8l2.24-.26v5.76c.36-.493.79-.873 1.29-1.14zm2.56 8.05c.407-.633.61-1.597.61-2.89 0-1.333-.183-2.307-.55-2.92-.367-.613-.91-.92-1.63-.92-.453 0-.877.14-1.27.42-.393.28-.73.647-1.01 1.1v4.94c.533.813 1.227 1.22 2.08 1.22.773 0 1.363-.317 1.77-.95zm8.75-.65c.373-.373.827-.56 1.36-.56.547 0 1.007.187 1.38.56.373.373.56.827.56 1.36 0 .547-.187 1.007-.56 1.38-.373.373-.833.56-1.38.56-.533 0-.987-.187-1.36-.56-.373-.373-.56-.833-.56-1.38 0-.533.187-.987.56-1.36zM357.3 232h-2.6l-3.74-10.56h2.42l2.66 8.7 2.7-8.7h2.3L357.3 232zm15.3-1.76V232h-8.34v-1.76h3.36v-9.74l-3.04 1.86-.96-1.56 4.24-2.6h1.98v12.04h2.76z"/>
    <path fill="#FFF" fill-rule="nonzero" d="M476 174h202v102H476z"/>
    <path fill="#1F9967" d="M548.24 232l-1.2-7.5-1.28 7.5h-2.74l-1.78-10.56h2.16l1.1 9.16 1.48-7.82h2.24l1.36 7.82 1.1-9.16h2.08L551.04 232h-2.8zm9.29-2.25c.527.513 1.19.77 1.99.77.493 0 .963-.077 1.41-.23.447-.153.903-.383 1.37-.69l.96 1.36c-.493.413-1.073.733-1.74.96-.667.227-1.367.34-2.1.34-1.613 0-2.867-.503-3.76-1.51-.893-1.007-1.34-2.35-1.34-4.03 0-1.053.193-2.003.58-2.85.387-.847.947-1.51 1.68-1.99s1.587-.72 2.56-.72c1.4 0 2.51.47 3.33 1.41.82.94 1.23 2.23 1.23 3.87 0 .4-.02.733-.06 1h-7c.067 1.027.363 1.797.89 2.31zm-.13-6.15c-.453.52-.713 1.293-.78 2.32h4.9c-.027-1-.24-1.767-.64-2.3-.4-.533-.973-.8-1.72-.8-.72 0-1.307.26-1.76.78zm12.91-2.04c.5-.267 1.037-.4 1.61-.4 1.347 0 2.34.487 2.98 1.46.64.973.96 2.333.96 4.08 0 1.653-.37 2.993-1.11 4.02-.74 1.027-1.777 1.54-3.11 1.54-1.173 0-2.093-.433-2.76-1.3l-.12 1.04h-1.98v-14.8l2.24-.26v5.76c.36-.493.79-.873 1.29-1.14zm2.56 8.05c.407-.633.61-1.597.61-2.89 0-1.333-.183-2.307-.55-2.92-.367-.613-.91-.92-1.63-.92-.453 0-.877.14-1.27.42-.393.28-.73.647-1.01 1.1v4.94c.533.813 1.227 1.22 2.08 1.22.773 0 1.363-.317 1.77-.95zm8.75-.65c.373-.373.827-.56 1.36-.56.547 0 1.007.187 1.38.56.373.373.56.827.56 1.36 0 .547-.187 1.007-.56 1.38-.373.373-.833.56-1.38.56-.533 0-.987-.187-1.36-.56-.373-.373-.56-.833-.56-1.38 0-.533.187-.987.56-1.36zM596.3 232h-2.6l-3.74-10.56h2.42l2.66 8.7 2.7-8.7h2.3L596.3 232zm12.49-13.56c.66.347 1.163.813 1.51 1.4s.52 1.247.52 1.98c0 .813-.187 1.603-.56 2.37-.373.767-.98 1.613-1.82 2.54-.84.927-2.027 2.083-3.56 3.47h6.26l-.24 1.8h-8.58v-1.7c1.733-1.667 3.027-2.97 3.88-3.91.853-.94 1.453-1.743 1.8-2.41s.52-1.34.52-2.02c0-.693-.2-1.24-.6-1.64-.4-.4-.947-.6-1.64-.6-.6 0-1.11.11-1.53.33-.42.22-.843.59-1.27 1.11l-1.44-1.12c.547-.707 1.173-1.237 1.88-1.59.707-.353 1.547-.53 2.52-.53.907 0 1.69.173 2.35.52z"/>
    <path stroke="#FFF" stroke-width="2" d="M227 294.5v52" stroke-linecap="square"/>
    <path fill="#1F9967" d="M528.26 385.96c-.387.133-.823.223-1.31.27-.487.047-1.07.07-1.75.07.64.293 1.12.66 1.44 1.1.32.44.48.973.48 1.6 0 .693-.17 1.307-.51 1.84-.34.533-.823.953-1.45 1.26-.627.307-1.367.46-2.22.46-.6 0-1.08-.06-1.44-.18-.147.107-.26.237-.34.39-.08.153-.12.317-.12.49 0 .533.433.8 1.3.8h1.84c.747 0 1.413.127 2 .38s1.043.603 1.37 1.05c.327.447.49.95.49 1.51 0 1.053-.453 1.87-1.36 2.45-.907.58-2.213.87-3.92.87-1.187 0-2.123-.123-2.81-.37-.687-.247-1.173-.607-1.46-1.08-.287-.473-.43-1.083-.43-1.83h2c0 .4.077.717.23.95.153.233.423.407.81.52.387.113.947.17 1.68.17 1.067 0 1.833-.13 2.3-.39.467-.26.7-.643.7-1.15 0-.427-.183-.757-.55-.99-.367-.233-.863-.35-1.49-.35h-1.82c-.947 0-1.663-.193-2.15-.58-.487-.387-.73-.873-.73-1.46 0-.36.1-.707.3-1.04.2-.333.487-.62.86-.86-.627-.333-1.083-.737-1.37-1.21-.287-.473-.43-1.057-.43-1.75 0-.733.187-1.383.56-1.95.373-.567.893-1.007 1.56-1.32.667-.313 1.427-.47 2.28-.47 1.147.013 2.057-.067 2.73-.24s1.39-.447 2.15-.82l.58 1.86zm-7.04 1.35c-.36.393-.54.923-.54 1.59 0 .68.183 1.217.55 1.61.367.393.903.59 1.61.59.667 0 1.173-.193 1.52-.58.347-.387.52-.94.52-1.66 0-1.427-.687-2.14-2.06-2.14-.707 0-1.24.197-1.6.59zm18.64-1.87l-.38 3.9h-1.6v-2.16c-.733.013-1.37.307-1.91.88-.54.573-.97 1.38-1.29 2.42v3.92h2.12v1.6h-5.92v-1.6h1.56v-7.36h-1.56v-1.6h3.26l.4 2.44c.413-.907.917-1.583 1.51-2.03.593-.447 1.33-.67 2.21-.67.547 0 1.08.087 1.6.26zm10.68 1.21c.827.993 1.24 2.343 1.24 4.05 0 1.707-.42 3.06-1.26 4.06-.84 1-2.013 1.5-3.52 1.5-1.52 0-2.697-.49-3.53-1.47-.833-.98-1.25-2.337-1.25-4.07 0-1.68.423-3.027 1.27-4.04s2.023-1.52 3.53-1.52c1.52 0 2.693.497 3.52 1.49zm-5.35 1.19c-.407.627-.61 1.587-.61 2.88 0 1.307.2 2.27.6 2.89.4.62 1.007.93 1.82.93.813 0 1.42-.313 1.82-.94.4-.627.6-1.593.6-2.9 0-1.293-.2-2.25-.6-2.87-.4-.62-1-.93-1.8-.93-.813 0-1.423.313-1.83.94zm11.83 4.98c0 .613.123 1.057.37 1.33.247.273.623.41 1.13.41.48 0 .943-.14 1.39-.42.447-.28.803-.633 1.07-1.06v-7.64h2.24V396h-1.94l-.14-1.36c-.373.52-.86.92-1.46 1.2-.6.28-1.22.42-1.86.42-1.013 0-1.773-.273-2.28-.82-.507-.547-.76-1.327-.76-2.34v-7.66h2.24v7.38zm18.76-2.12c0 1.667-.353 3.01-1.06 4.03-.707 1.02-1.713 1.53-3.02 1.53-1.107 0-2-.387-2.68-1.16v4.96l-2.24.26v-14.88h1.94l.14 1.36c.4-.533.863-.94 1.39-1.22.527-.28 1.09-.42 1.69-.42 2.56 0 3.84 1.847 3.84 5.54zm-5.74-3.4c-.387.28-.727.647-1.02 1.1v4.94c.52.787 1.213 1.18 2.08 1.18.773 0 1.353-.307 1.74-.92s.58-1.573.58-2.88c0-1.347-.173-2.323-.52-2.93-.347-.607-.873-.91-1.58-.91-.467 0-.893.14-1.28.42zm11.58 5.66c.373-.373.827-.56 1.36-.56.547 0 1.007.187 1.38.56.373.373.56.827.56 1.36 0 .547-.187 1.007-.56 1.38-.373.373-.833.56-1.38.56-.533 0-.987-.187-1.36-.56-.373-.373-.56-.833-.56-1.38 0-.533.187-.987.56-1.36zm12.69-7.4c.5-.267 1.037-.4 1.61-.4 1.347 0 2.34.487 2.98 1.46.64.973.96 2.333.96 4.08 0 1.653-.37 2.993-1.11 4.02-.74 1.027-1.777 1.54-3.11 1.54-1.173 0-2.093-.433-2.76-1.3l-.12 1.04h-1.98v-14.8l2.24-.26v5.76c.36-.493.79-.873 1.29-1.14zm2.56 8.05c.407-.633.61-1.597.61-2.89 0-1.333-.183-2.307-.55-2.92-.367-.613-.91-.92-1.63-.92-.453 0-.877.14-1.27.42-.393.28-.73.647-1.01 1.1v4.94c.533.813 1.227 1.22 2.08 1.22.773 0 1.363-.317 1.77-.95zm10.55-.49c0 .893.533 1.34 1.6 1.34.533 0 1.093-.12 1.68-.36l.56 1.56c-.733.4-1.64.6-2.72.6-1.053 0-1.877-.297-2.47-.89-.593-.593-.89-1.41-.89-2.45v-10.08H602v-1.64h5.42v11.92zm9.6-.3c0 .613.123 1.057.37 1.33.247.273.623.41 1.13.41.48 0 .943-.14 1.39-.42.447-.28.803-.633 1.07-1.06v-7.64h2.24V396h-1.94l-.14-1.36c-.373.52-.86.92-1.46 1.2-.6.28-1.22.42-1.86.42-1.013 0-1.773-.273-2.28-.82-.507-.547-.76-1.327-.76-2.34v-7.66h2.24v7.38zm12.51.93c.527.513 1.19.77 1.99.77.493 0 .963-.077 1.41-.23.447-.153.903-.383 1.37-.69l.96 1.36c-.493.413-1.073.733-1.74.96-.667.227-1.367.34-2.1.34-1.613 0-2.867-.503-3.76-1.51-.893-1.007-1.34-2.35-1.34-4.03 0-1.053.193-2.003.58-2.85.387-.847.947-1.51 1.68-1.99s1.587-.72 2.56-.72c1.4 0 2.51.47 3.33 1.41.82.94 1.23 2.23 1.23 3.87 0 .4-.02.733-.06 1h-7c.067 1.027.363 1.797.89 2.31zm-.13-6.15c-.453.52-.713 1.293-.78 2.32h4.9c-.027-1-.24-1.767-.64-2.3-.4-.533-.973-.8-1.72-.8-.72 0-1.307.26-1.76.78zm-91.464 30.664l.714 1.008c-.327.28-.72.502-1.176.665-.457.163-.93.245-1.414.245-1.13 0-2.01-.348-2.646-1.043-.635-.7-.952-1.63-.952-2.8 0-.758.145-1.43.434-2.025.29-.593.707-1.06 1.253-1.4.54-.34 1.19-.51 1.93-.51.98 0 1.834.3 2.562.895l-.73.98c-.596-.41-1.2-.615-1.805-.615-.616 0-1.1.222-1.456.665-.355.444-.532 1.114-.532 2.01 0 .877.177 1.52.532 1.93.354.413.84.618 1.455.618.59 0 1.194-.21 1.82-.63zm8.442-4.81c.58.696.868 1.64.868 2.836 0 1.195-.294 2.142-.882 2.842-.588.7-1.41 1.05-2.464 1.05-1.064 0-1.888-.343-2.47-1.03-.584-.685-.876-1.635-.876-2.848 0-1.176.296-2.12.89-2.828.592-.71 1.415-1.064 2.47-1.064 1.064 0 1.885.348 2.464 1.043zm-3.745.834c-.285.44-.427 1.11-.427 2.016 0 .915.14 1.59.42 2.023.28.434.705.65 1.274.65.57 0 .994-.218 1.274-.657.28-.44.42-1.115.42-2.03 0-.905-.14-1.575-.42-2.01-.28-.433-.7-.65-1.26-.65-.57 0-.996.22-1.28.658zm8.28 3.486c0 .43.087.74.26.93.173.192.436.288.79.288.337 0 .66-.098.974-.294.313-.196.562-.443.75-.742v-5.348h1.567V420h-1.358l-.098-.952c-.26.364-.602.644-1.022.84-.42.196-.854.294-1.302.294-.71 0-1.24-.19-1.596-.574-.355-.383-.532-.93-.532-1.638v-5.362h1.568v5.166zm6.833-5.166h1.358l.112.966c.308-.373.67-.66 1.085-.86.42-.202.86-.302 1.31-.302.68 0 1.2.19 1.54.574.35.383.52.924.52 1.624V420h-1.57v-4.606c0-.457-.02-.81-.07-1.057-.05-.247-.152-.43-.3-.546-.15-.11-.374-.17-.673-.17-.335 0-.655.107-.96.31-.3.207-.56.46-.775.77v5.3h-1.57v-7.39zm13.594 7.42c-.373.103-.765.154-1.176.154-.84 0-1.49-.217-1.946-.65-.457-.435-.686-1.025-.686-1.772v-4.004h-1.638v-1.148h1.638v-1.652l1.568-.182v1.834h2.506l-.182 1.148H569.1v3.99c0 .4.103.698.308.89.205.19.532.286.98.286.495 0 .952-.117 1.372-.35l.56 1.036c-.28.177-.607.317-.98.42zm17.458-5.124h-5.796v-1.288h5.796v1.288zm0 2.758h-5.796v-1.274h5.796v1.274zm11.816-8.022h1.708l-.238 3.738h-1.246l-.224-3.738zm2.464 0h1.708l-.224 3.738h-1.246l-.238-3.738zm11.242 9.128V420h-5.838v-1.232h2.352v-6.818l-2.128 1.302-.672-1.092 2.968-1.82h1.386v8.428h1.932zm3.094-9.128h1.708l-.238 3.738h-1.246l-.224-3.738zm2.464 0h1.708l-.224 3.738h-1.246l-.238-3.738z"/>
    <path stroke="#FFF" stroke-width="2" d="M1 156h455v137H1z"/>
    <path stroke="#FFF" stroke-width="2" d="M579 294.5v52" stroke-linecap="square"/>
    <path stroke="#FFF" stroke-width="2" d="M461 156h232v137H461z"/>
    <path fill="#FFF" fill-rule="nonzero" d="M341.5 133l6.5-13h-13"/>
    <path stroke="#FFF" stroke-width="2" d="M282.5 90h119m0 .5l25.633 25.633" stroke-linecap="square"/>
    <path fill="#FFF" fill-rule="nonzero" d="M435.096 124.096l-4.596-13.788-9.192 9.192"/>
    <path stroke="#FFF" stroke-width="2" d="M281.5 90.5l-26.34 26.34" stroke-linecap="square"/>
    <path fill="#FFF" fill-rule="nonzero" d="M246.904 125.096l4.596-13.788 9.192 9.192M374.9 27.6c.1-.8.1-1.4.1-2.2C375 11.6 363.8.5 350 .5c-11.5 0-21.5 7.9-24.3 19-2.4-.6-4.8-.9-7.2-.9-14.9 0-27.2 12.1-27.5 27l1-.2V45l1 .5V45h64.8l.1-.6c.1-.9.2-1.5.2-2.2 0-9.5-7.8-17.2-17.3-17.2-6.9 0-13.2 4.2-15.9 10.5l2.1.9c2.4-5.5 7.8-9.1 13.8-9.1 8.3 0 15 6.5 15 14.8 0 .4 0-.1-.1.9h-62.6c1.3-12 12.2-22.7 25.4-22.7 2.6 0 5.2.5 7.7 1.3l1.1.4.2-1.1c2.1-10.7 11.6-18.4 22.5-18.4 12.7 0 23 10.3 23 23 0 .9-.1 1.9-.2 2.9l-.1.8h.8c6.2 2.1 10.6 7.8 11.4 13.8H372v2h15c0-7-4.8-14.6-12.1-17.4z"/>
  </g>
</svg>
