<svg fill="none" height="543" viewBox="0 0 1800 543" width="1800" xmlns="http://www.w3.org/2000/svg" xmlns:xlink="http://www.w3.org/1999/xlink"><clipPath id="a"><path d="m0 362h209v181h-209z"/></clipPath><clipPath id="b"><path d="m1382 362h209v181h-209z"/></clipPath><clipPath id="c"><path d="m1591 362h209v181h-209z"/></clipPath><g fill="#60dea9"><path d="m62.5037 181-62.5037-36.085v1.684l59.5835 34.401zm-34.835 0-27.6687-15.974v1.684l24.7537 14.29zm-17.415 0-10.2537-5.921v1.684l7.33887 4.237zm69.4397-.13-79.6934-46.008v1.684l76.9983 44.454h2.9199zm-34.6102.13-45.0832-26.027v1.684l42.1636 24.343zm52.0355-.13-97.1187-56.071v1.684l94.429 54.517h2.9146z"/><path d="m104.833 156.566 104.167-60.1484v-1.6781l-.075.0432-104.425 60.2843-104.5-60.3331v1.6838l104.127 60.1183c.105.063.224.099.346.104s.243-.02.353-.074zm.032-20.13 104.135-60.1244v-1.6786l-.075.0433-104.425 60.2797-104.5-60.3388v1.6843l104.127 60.1225c.049.03.102.053.157.069.043.015.089.023.135.025.153.023.31-.006.446-.082zm-.032 10.072 104.167-60.1431v-1.6786l-.075.0432-104.42 60.2845-104.505-60.3382v1.6838l104.127 60.1184c.105.063.224.099.346.104s.243-.02.353-.074zm.035 30.149 104.132-60.128v-1.679l-.075.044-104.42 60.29-104.505-60.339v1.684l104.18 60.148c.101.049.211.074.323.074s.222-.025.323-.074h.002zm.001-50.281 104.131-60.1225v-1.6785l-.075.0432-104.425 60.2798-104.5-60.3335v1.6838l104.127 60.1177c.112.067.24.103.37.105.13.001.258-.031.372-.095zm-.036 40.243 104.167-60.143v-1.678l-.075.043-104.425 60.284-104.5-60.338v1.689l104.18 60.143c.1.048.211.074.323.074s.222-.026.323-.074z"/><path d="m393.351 0h-2.952l-181.399 104.731v1.704l184.126-106.30463zm17.191.13037-201.542 116.36063v-1.704l198.816-114.787h2.951zm-52.25 0-149.292 86.19473v-1.7041l146.566-84.621h2.951zm17.417 0-166.709 96.25043v-1.7041l163.983-94.6767h2.951zm-34.833 0-131.876 76.13903v-1.7041l129.149-74.5653h2.952zm-17.417 0-114.459 66.08443v-1.7041l111.733-64.5107h2.951z"/><path d="m233.649 181h2.952l181.399-104.7315v-1.704l-184.126 106.3045zm-17.191-.131 201.542-116.3602v1.7041l-198.816 114.7871h-2.951zm52.25 0 149.292-86.1942v1.7041l-146.566 84.6211h-2.951zm-17.417 0 166.709-96.2499v1.7041l-163.983 94.6768h-2.951zm34.833 0 131.876-76.139v1.705l-129.149 74.565h-2.952zm17.417 0 114.459-66.084v1.704l-111.733 64.511h-2.951z"/><path d="m1406.65 0h2.95l181.4 104.731v1.704l-184.13-106.30463zm-17.19.13037 201.54 116.36063v-1.704l-198.82-114.787h-2.95zm52.25 0 149.29 86.19473v-1.7041l-146.57-84.621h-2.95zm-17.42 0 166.71 96.25043v-1.7041l-163.98-94.6767h-2.95zm34.83 0 131.88 76.13903v-1.7041l-129.15-74.5653h-2.95zm17.42 0 114.46 66.08443v-1.7041l-111.73-64.5107h-2.95z"/><path d="m1566.35 181h-2.95l-181.4-104.7315v-1.704l184.13 106.3045zm17.19-.131-201.54-116.3602v1.7041l198.82 114.7871h2.95zm-52.25 0-149.29-86.1942v1.7041l146.57 84.6211h2.95zm17.42 0-166.71-96.2499v1.7041l163.98 94.6768h2.95zm-34.83 0-131.88-76.139v1.705l129.15 74.565h2.95zm-17.42 0-114.46-66.084v1.704l111.73 64.511h2.95z"/><path d="m1653.5 181-62.5-36.085v1.684l59.58 34.401zm-34.83 0-27.67-15.974v1.684l24.75 14.29zm-17.42 0-10.25-5.921v1.684l7.34 4.237zm69.44-.13-79.69-46.008v1.684l77 44.454h2.92zm-34.61.13-45.08-26.027v1.684l42.16 24.343zm52.04-.13-97.12-56.071v1.684l94.43 54.517h2.91z"/><path d="m1695.83 156.566 104.17-60.1484v-1.6781l-.07.0432-104.43 60.2843-104.5-60.3331v1.6838l104.13 60.1183c.1.063.22.099.34.104s.25-.02.36-.074zm.03-20.13 104.14-60.1244v-1.6786l-.07.0433-104.43 60.2797-104.5-60.3388v1.6843l104.13 60.1225c.05.03.1.053.15.069.05.015.09.023.14.025.15.023.31-.006.44-.082zm-.03 10.072 104.17-60.1431v-1.6786l-.07.0432-104.42 60.2845-104.51-60.3382v1.6838l104.13 60.1184c.1.063.22.099.34.104s.25-.02.36-.074zm.04 30.149 104.13-60.128v-1.679l-.07.044-104.42 60.29-104.51-60.339v1.684l104.18 60.148c.1.049.21.074.32.074s.23-.025.33-.074zm0-50.281 104.13-60.1225v-1.6785l-.07.0432-104.43 60.2798-104.5-60.3335v1.6838l104.13 60.1177c.11.067.24.103.37.105.13.001.26-.031.37-.095zm-.04 40.243 104.17-60.143v-1.678l-.07.043-104.43 60.284-104.5-60.338v1.689l104.18 60.143c.1.048.21.074.32.074s.23-.026.33-.074z"/><path d="m10.2535 181-10.2535 5.921v-1.684l7.33887-4.237zm17.4155 0-27.669 15.974v-1.684l24.7539-14.29zm69.6744 0-97.26796 56.158-.07544.043v-1.684l94.4288-54.517zm-17.4249 0-79.84306 46.094-.07544.044v-1.684l76.9982-44.454zm-34.8345 0-45.084 26.026v-1.683l42.1632-24.343zm17.4199 0-62.5039 36.085v-1.684l59.5836-34.401z"/><path d="m.07544 307.351-.07544.043v-1.679l104.136-60.13c.112-.059.237-.09.363-.091.127-.002.253.03.363.093l104.138 60.129v1.684l-104.506-60.339zm0 10.053-.07544.043v-1.678l104.11-60.11.021-.013c.112-.065.239-.099.368-.099.128 0 .253.034.363.099l104.138 60.123v1.689l-104.501-60.339zm0 10.058-.07544.043v-1.678l104.137-60.132c.112-.058.236-.089.362-.09.128 0 .253.034.363.099l104.138 60.123v1.684l-104.506-60.339zm0 10.053-.07544.043v-1.679l104.137-60.126c.112-.058.236-.089.362-.09.127-.002.253.03.363.093l104.138 60.129v1.684l-104.506-60.339zm0 20.111-.07544.044v-1.679l104.132-60.123.1-.05.007.006c.083-.033.171-.05.26-.049.128-.001.253.033.363.098l104.138 60.123v1.684l-104.501-60.334zm0-10.059-.07544.044v-1.678l104.136-60.126c.112-.059.237-.09.363-.091.128 0 .253.034.363.099l104.138 60.123v1.69l-104.501-60.34z"/><path d="m1695.83 337.566 104.17-60.148v-1.678l-.07.043-104.43 60.284-104.5-60.333v1.684l104.13 60.118c.1.063.22.099.34.104s.25-.02.36-.074zm.03-20.13 104.14-60.124v-1.679l-.07.043-104.43 60.28-104.5-60.339v1.685l104.13 60.122c.05.03.1.053.15.069.05.015.09.023.14.025.15.023.31-.006.44-.082zm-.03 10.072 104.17-60.143v-1.679l-.07.043-104.42 60.285-104.51-60.338v1.684l104.13 60.118c.1.063.22.099.34.104s.25-.02.36-.074zm.04 30.149 104.13-60.128v-1.679l-.07.044-104.42 60.29-104.51-60.339v1.684l104.18 60.148c.1.049.21.074.32.074s.23-.025.33-.074zm0-50.281 104.13-60.122v-1.679l-.07.043-104.43 60.28-104.5-60.334v1.684l104.13 60.118c.11.067.24.103.37.105s.26-.031.37-.095zm-.04 40.243 104.17-60.143v-1.678l-.07.043-104.43 60.284-104.5-60.338v1.689l104.18 60.143c.1.048.21.074.32.074s.23-.026.33-.074z"/><path d="m1653.5 181-62.5 36.085v-1.684l59.58-34.401zm-34.83 0-27.67 15.974v-1.684l24.75-14.29zm-17.42 0-10.25 5.921v-1.684l7.34-4.237zm69.44.13-79.69 46.008v-1.684l77-44.454h2.92zm-34.61-.13-45.08 26.027v-1.684l42.16-24.343zm52.04.13-97.12 56.071v-1.684l94.43-54.517h2.91z"/><g clip-path="url(#a)"><path d="m111.732 543h2.952l94.316-54.454v-1.704l-97.043 56.028zm87.084 0 10.184-5.881v1.704l-7.233 4.177zm-69.442-.13 79.626-45.973v1.705l-76.9 44.398h-2.951zm17.416 0 62.21-35.918v1.704l-59.483 34.344h-2.952zm34.834 0 27.376-15.807v1.705l-24.65 14.232h-2.951zm-17.417 0 44.793-25.862v1.704l-42.067 24.288h-2.951z"/><path d="m208.925 406.441-208.92491896 120.624v1.703l.07530996-.043 208.924609-120.622v-1.706zm.075-10.098v1.704l-208.924609 120.623-.07531996.044v-1.704l208.92492896-120.624zm0 20.11v1.705l-208.924599 120.623-.07531996.043v-1.703l208.92491896-120.624zm0-30.166v1.704l-208.924609 120.624-.07531996.043v-1.704l208.92492896-120.623zm0-10.056v1.705l-208.924619 120.623-.07530996.043v-1.704l208.92492896-120.623zm0-10.055v1.704l-208.924619 120.623-.07531996.044v-1.704l208.92493896-120.624z"/></g><path d="m209.075 406.441 208.925 120.624v1.704l-.075-.044-208.925-120.622v-1.706zm-.075-10.098v1.704l208.925 120.623.075.044v-1.704l-208.925-120.624zm0 20.11v1.705l208.925 120.623.075.043v-1.703l-208.925-120.624zm0-30.166v1.704l208.925 120.624.075.043v-1.704l-208.925-120.623zm0-10.056v1.705l208.925 120.623.075.044v-1.705l-208.925-120.623zm0-10.055v1.704l208.925 120.623.075.044v-1.704l-208.925-120.624z"/><g clip-path="url(#b)"><path d="m1493.73 543h2.95l94.32-54.454v-1.704l-97.04 56.028zm87.09 0 10.18-5.881v1.704l-7.23 4.177zm-69.45-.13 79.63-45.973v1.705l-76.9 44.398h-2.95zm17.42 0 62.21-35.918v1.704l-59.48 34.344h-2.95zm34.83 0 27.38-15.807v1.705l-24.65 14.232h-2.95zm-17.41 0 44.79-25.862v1.704l-42.07 24.288h-2.95z"/><path d="m1590.92 406.441-208.92 120.624v1.703l.08-.043 208.92-120.622v-1.706zm.08-10.098v1.704l-208.92 120.623-.08.044v-1.704l208.92-120.624zm0 20.11v1.705l-208.92 120.623-.08.043v-1.703l208.92-120.624zm0-30.166v1.704l-208.92 120.624-.08.043v-1.704l208.92-120.623zm0-10.056v1.705l-208.92 120.623-.08.043v-1.704l208.92-120.623zm0-10.055v1.704l-208.92 120.623-.08.044v-1.704l208.92-120.624z"/></g><g clip-path="url(#c)"><path d="m1702.73 543h2.95l94.32-54.454v-1.704l-97.04 56.028zm87.09 0 10.18-5.881v1.704l-7.23 4.177zm-69.45-.13 79.63-45.973v1.705l-76.9 44.398h-2.95zm17.42 0 62.21-35.918v1.704l-59.48 34.344h-2.95zm34.83 0 27.38-15.807v1.705l-24.65 14.232h-2.95zm-17.41 0 44.79-25.862v1.704l-42.07 24.288h-2.95z"/><path d="m1799.92 406.441-208.92 120.624v1.703l.08-.043 208.92-120.622v-1.706zm.08-10.098v1.704l-208.92 120.623-.08.044v-1.704l208.92-120.624zm0 20.11v1.705l-208.92 120.623-.08.043v-1.703l208.92-120.624zm0-30.166v1.704l-208.92 120.624-.08.043v-1.704l208.92-120.623zm0-10.056v1.705l-208.92 120.623-.08.043v-1.704l208.92-120.623zm0-10.055v1.704l-208.92 120.623-.08.044v-1.704l208.92-120.624z"/></g></g></svg>