<svg width="456" height="589" viewBox="0 0 456 589" fill="none" xmlns="http://www.w3.org/2000/svg"><g opacity=".75"><g clip-path="url(#clip0_5_271)"><path d="M113.645 158.649a.802.802 0 0 0 .762-.032L228 93.517v-1.824l-114.006 65.339L.082 91.752 0 91.704v1.817l113.637 65.127h.008Zm.762-21.81L228 71.739v-1.824L114 135.25.082 69.973 0 69.927v1.817l113.597 65.105a.803.803 0 0 0 .81-.01Zm-.318 10.992a.46.46 0 0 0 .147-.027.633.633 0 0 0 .171-.074L228 82.625v-1.823L114 146.14.082 80.865 0 80.818v1.818l113.603 65.108a.775.775 0 0 0 .486.087Zm-.444 21.71a.801.801 0 0 0 .762-.033L228 104.409v-1.824l-114 65.333L.082 102.638 0 102.591v1.817l113.637 65.133h.008Zm-.002 21.778h.002a.81.81 0 0 0 .704 0L228 126.187v-1.824l-114.006 65.339L.082 124.415 0 124.368v1.818l113.599 65.111.044.022Zm.002-10.892a.81.81 0 0 0 .704 0L228 115.3v-1.829L114 178.81.082 113.529 0 113.483v1.817l113.637 65.127h.008Z" fill="#60DEA9"/></g><g clip-path="url(#clip1_5_271)" fill="#60DEA9"><path d="M68.186 393.001 0 353.926v1.823l65 37.252h3.186Zm-38.002 0L0 375.703v1.824l27.004 15.474h3.18Zm-18.998 0L0 386.59v1.823l8.006 4.588h3.18Zm75.752-.141L0 343.039v1.824l83.998 48.138h3.185l-.245-.141Zm-37.756.141L0 364.817v1.824l45.997 26.36h3.185Zm56.766-.141L0 332.142v1.824l103.013 59.035h3.18l-.245-.141ZM114.363 366.542 228 301.409v-1.817l-.082.047L114 364.919 0 299.586v1.823l113.594 65.1a.8.8 0 0 0 .761.033h.008Zm.035-21.798L228 279.637v-1.818l-.082.047L114 343.141 0 277.802v1.824l113.594 65.105c.053.032.11.057.17.074a.466.466 0 0 0 .147.027.77.77 0 0 0 .487-.088Zm-.035 10.906L228 290.523v-1.817l-.082.046-113.912 65.281L0 288.694v1.824l113.594 65.1a.805.805 0 0 0 .761.032h.008Zm.038 32.648L228 323.187v-1.818l-.082.047-113.912 65.287L0 321.364v1.823l113.651 65.133a.81.81 0 0 0 .704 0h.003l.043-.022Zm.001-54.448L228 268.745v-1.817l-.082.046L114 332.25 0 266.916v1.824l113.594 65.1a.813.813 0 0 0 .808.01Zm-.039 43.578L228 312.301v-1.817l-.082.046L114 375.811 0 310.472v1.829l113.651 65.127a.806.806 0 0 0 .705 0h.007Z"/></g><g clip-path="url(#clip2_5_271)"><path d="M26.89 393.001h3.22L228 506.412v1.845L27.136 393.142l-.246-.141Zm-18.754.141L228 519.146v-1.845l-216.89-124.3H7.89l.246.141Zm57 0L228 486.48v-1.845L68.11 393.001h-3.22l.246.141Zm-19 0L228 497.369v-1.845L49.11 393.001h-3.22l.246.141Zm38 0L228 475.591v-1.845L87.11 393.001h-3.22l.245.141Zm18.999 0L228 464.703v-1.845l-121.891-69.857h-3.219l.245.141Z" fill="#60DEA9"/></g><g clip-path="url(#clip3_5_271)" fill="#60DEA9"><path d="M342.363 26.459 456 91.592v1.817l-.082-.047L342 28.082 228 93.415v-1.823l113.594-65.1a.796.796 0 0 1 .761-.033h.008Zm.035 21.798L456 113.364v1.818l-.082-.047L342 49.86l-114 65.339v-1.824L341.594 48.27a.688.688 0 0 1 .17-.074.508.508 0 0 1 .147-.027.768.768 0 0 1 .487.088Zm-.035-10.907L456 102.478v1.817l-.082-.046-113.912-65.281L228 104.307v-1.824l113.594-65.1a.797.797 0 0 1 .761-.033h.008Zm.038-32.647L456 69.813v1.819l-.082-.047L342.006 6.298 228 71.638v-1.824L341.651 4.68a.814.814 0 0 1 .704 0h.003l.043.022Zm.001 54.448L456 124.256v1.817l-.082-.046L342 60.751l-114 65.334v-1.824l113.594-65.1a.805.805 0 0 1 .808-.01Zm-.039-43.578L456 80.7v1.817l-.082-.046L342 17.19 228 82.53V80.7l113.651-65.127a.81.81 0 0 1 .705 0h.007ZM296.186 196 228 156.925v1.823L293 196h3.186Zm-38.002 0L228 178.702v1.824L255.004 196h3.18Zm-18.998 0L228 189.589v1.823l8.006 4.588h3.18Zm75.752-.141L228 146.038v1.824L311.998 196h3.185l-.245-.141Zm-37.756.141L228 167.816v1.824L273.997 196h3.185Zm56.766-.141L228 135.142v1.823L331.013 196h3.18l-.245-.141Z"/></g><g clip-path="url(#clip4_5_271)" fill="#60DEA9"><path d="m374.675 196.071.054-.07h-2.148L228 382.444v2.768l146.675-189.141Zm-63.276-.07h-2.147L228 300.775v2.769l83.344-107.473.055-.07Zm37.997 0h-2.148L228 349.775v2.769l121.341-156.473.055-.07Zm12.67 0h-2.148L228 366.107v2.768l134.011-172.804.055-.07Zm-25.333 0h-2.148L228 333.439v2.768l108.678-140.136.055-.07Zm-12.67 0h-2.148L228 317.107v2.768l96.008-123.804.055-.07ZM418.805 334.487a.86.86 0 0 0-.339-.251 1.207 1.207 0 0 0-.936.001.884.884 0 0 0-.348.266l-44.581 57.498h2.148l43.254-55.78L456 385.216v-2.772l-37.169-47.919-.026-.038Zm-.802-79.934L456 303.548v-2.772l-37.169-47.919-.026-.038a.857.857 0 0 0-.34-.251 1.203 1.203 0 0 0-.935.001.882.882 0 0 0-.348.265L309.319 391.93l-.054.071h2.147l106.591-137.448Zm.802 14.602a.857.857 0 0 0-.34-.251 1.22 1.22 0 0 0-.935.001.891.891 0 0 0-.348.265l-95.249 122.831h2.148l93.922-121.112L456 319.884v-2.772l-37.169-47.918-.026-.039Zm-.802 15.984a1.198 1.198 0 0 0-.468.091.778.778 0 0 0-.31.231L334.659 391.93l-.055.071h2.148l81.251-104.78L456 336.216v-2.767l-37.195-47.967a.867.867 0 0 0-.34-.251 1.18 1.18 0 0 0-.462-.092Zm0 16.336c-.164 0-.326.032-.469.092a.77.77 0 0 0-.307.229l-69.898 90.134-.055.071h2.148l68.581-88.448L456 352.548v-2.767l-37.195-47.962a.857.857 0 0 0-.34-.251 1.162 1.162 0 0 0-.462-.093Zm.773 16.651a.414.414 0 0 0-.113-.102 1.045 1.045 0 0 0-.197-.116.413.413 0 0 0-.112-.039.727.727 0 0 0-.224-.047 1.104 1.104 0 0 0-.587.078l-.089.04-.002.004a.403.403 0 0 0-.1.069.581.581 0 0 0-.051.042.17.17 0 0 0-.066.061.478.478 0 0 0-.06.069l-57.237 73.816h2.147l55.918-72.116 37.997 49v-2.772l-37.206-47.969-.018-.018Zm-.454-.113h-.001l.002-.004-.001.004Zm.073.03-.001-.001.002-.002-.001.003Z"/></g></g><defs><clipPath id="clip0_5_271"><path fill="#fff" transform="rotate(-180 114 98)" d="M0 0h228v196H0z"/></clipPath><clipPath id="clip1_5_271"><path fill="#fff" transform="rotate(-180 114 196.5)" d="M0 0h228v196H0z"/></clipPath><clipPath id="clip2_5_271"><path fill="#fff" transform="translate(0 393.001)" d="M0 0h228v196H0z"/></clipPath><clipPath id="clip3_5_271"><path fill="#fff" transform="rotate(-180 228 98)" d="M0 0h228v196H0z"/></clipPath><clipPath id="clip4_5_271"><path fill="#fff" transform="rotate(-180 228 196)" d="M0 0h228v196H0z"/></clipPath></defs></svg>