<svg width="175" height="350" viewBox="0 0 175 350" fill="none" xmlns="http://www.w3.org/2000/svg"><mask id="mask0_3_224" style="mask-type:alpha" maskUnits="userSpaceOnUse" x="0" y="0" width="175" height="350"><path fill="#C4C4C4" d="M0 0h175v350H0z"/></mask><g mask="url(#mask0_3_224)"><g clip-path="url(#clip0_3_224)" fill="#000"><path d="M93.76 358.081 175 294.277v-1.78l-.058.046L93.5 356.492 12 292.491v1.786l81.21 63.772a.47.47 0 0 0 .269.111.45.45 0 0 0 .275-.079h.006Zm.025-21.353L175 272.95v-1.781l-.058.046L93.5 335.158 12 271.152v1.787l81.21 63.776a.444.444 0 0 0 .227.099.426.426 0 0 0 .348-.086Zm-.025 10.684L175 283.614v-1.781l-.058.046-81.438 63.948L12 281.822v1.786l81.21 63.772a.443.443 0 0 0 .545.032h.005Zm.027 31.981L175 315.611v-1.781l-.058.046-81.438 63.954L12 313.825v1.786l81.25 63.804a.461.461 0 0 0 .252.078.461.461 0 0 0 .252-.078h.002l.03-.022Zm0-53.337L175 262.28v-1.78l-.058.045L93.5 324.489 12 260.488v1.787l81.21 63.771a.47.47 0 0 0 .288.111.46.46 0 0 0 .29-.101Zm-.027 42.689L175 304.947v-1.78l-.058.046L93.5 367.161 12 303.155v1.792l81.25 63.798a.462.462 0 0 0 .252.078.462.462 0 0 0 .252-.078h.006ZM60.747 192 12 230.278v-1.786L58.47 192h2.277Zm-27.168 0L12 208.945v-1.787L31.305 192h2.274Zm-13.582 0L12 198.28v-1.785L17.724 192h2.273Zm54.156.138L12 240.942v-1.787L72.051 192h2.278l-.176.138ZM47.161 192 12 219.608v-1.786L44.884 192h2.277Zm40.582.138L12 251.616v-1.786L85.646 192h2.273l-.176.138Z"/></g><g clip-path="url(#clip1_3_224)"><path d="M126.253 0 175 38.278v-1.786L128.531 0h-2.278Zm-13.582 0 62.271 48.896.058.046v-1.787L114.949 0h-2.278Zm-13.59 0 75.861 59.57.058.046v-1.785L101.354 0h-2.273Zm40.758 0L175 27.608v-1.786L142.117 0h-2.278Zm27.164 0L175 6.28V4.495L169.276 0h-2.273Zm-13.582 0L175 16.945v-1.787L155.694 0h-2.273ZM93.707 68.544l-.007.01a.445.445 0 0 0-.2-.048.258.258 0 0 0-.055.008l-.037.007a.296.296 0 0 0-.055.013.489.489 0 0 0-.132.077L12 132.39v1.786L93.504 70.17l81.437 63.954.059.046v-1.78L93.786 68.607l-.08-.063Zm-.203 53.3a.227.227 0 0 0-.045.007.51.51 0 0 0-.254.107L12 185.725v1.787l81.499-64.001 81.442 63.943.059.047v-1.781l-81.213-63.777a.445.445 0 0 0-.283-.099Zm.144-42.645a.402.402 0 0 0-.222-.023.455.455 0 0 0-.209.1L12 143.053v1.792l81.499-64.006 81.442 63.949.059.046v-1.78L93.79 79.279a.435.435 0 0 0-.142-.08Zm.063 10.682-.007.008a.333.333 0 0 0-.24-.041.507.507 0 0 0-.258.107L12 153.722v1.786l81.499-64 81.442 63.948.059.046v-1.78L93.786 89.94l-.075-.06Zm-.252 21.301a.494.494 0 0 0-.254.106L12 175.061v1.786l81.499-64.005 81.442 63.943.059.046v-1.78l-81.213-63.777a.346.346 0 0 0-.328-.092Zm.252-10.632-.007.008a.345.345 0 0 0-.24-.041.517.517 0 0 0-.258.107L12 164.392v1.786l81.499-64 81.442 63.943.059.046v-1.78L93.786 100.61l-.075-.06Z" fill="#000"/><path d="m51.845 90.8 1.139-.894L12 57.72v1.792l39.787 31.242.058.047Zm6.794-5.332 1.134-.894L12 47.056v1.786l46.58 36.58.059.046Zm27.167-21.334 1.135-.893L12.058 4.435 12 4.39v1.786l73.748 57.913.058.046ZM72.22 74.798l1.139-.894-61.3-48.135-.059-.046v1.786l60.162 47.243.058.046Zm6.793-5.332 1.139-.893-68.094-53.474-.058-.046v1.791L78.955 69.42l.058.046Zm-13.586 10.67 1.139-.894L12 36.386v1.792l53.369 41.911.058.046ZM85.628 0 175 70.182v-1.793L87.902 0h-2.274ZM31.297 0l34.752 27.291.084.057 108.808 85.454.059.046v-1.786L33.57 0h-2.273Zm13.578 0 27.963 21.96.084.056 102.019 80.116.059.046v-1.786L47.156 0h-2.281ZM17.71 0l157.23 123.466.059.046v-1.786L19.992 0h-2.281Zm40.754 0L174.94 91.468l.059.046v-1.786L60.738 0h-2.273Zm13.582 0L174.94 80.799l.059.046V79.06L74.324 0h-2.277Z" fill="#60DEA9"/></g></g><defs><clipPath id="clip0_3_224"><path fill="#fff" transform="translate(12 192)" d="M0 0h163v192H0z"/></clipPath><clipPath id="clip1_3_224"><path fill="#fff" transform="translate(12)" d="M0 0h163v192H0z"/></clipPath></defs></svg>