<svg width="420" height="500" viewBox="0 0 420 500" fill="none" xmlns="http://www.w3.org/2000/svg"><mask id="mask0_2_177" style="mask-type:alpha" maskUnits="userSpaceOnUse" x="0" y="0" width="420" height="500"><path d="M0 0h420v494a6 6 0 0 1-6 6H6a6 6 0 0 1-6-6V0Z" fill="#F2F2F3"/></mask><g mask="url(#mask0_2_177)"><g clip-path="url(#clip0_2_177)"><path d="M48.87 26.57-65.311 91.974v1.824l.082-.047L49.234 28.2 163.78 93.805v-1.83L49.643 26.602a.803.803 0 0 0-.766-.033h-.008Zm-.036 21.889L-65.31 113.838v1.825l.082-.047L49.234 50.068 163.78 115.68v-1.831L49.643 48.471a.709.709 0 0 0-.32-.101.773.773 0 0 0-.489.089Zm.035-10.952-114.18 65.399v1.825l.082-.047L49.23 39.131l114.551 65.612v-1.831L49.643 37.539a.803.803 0 0 0-.766-.032h-.008Zm-.038-32.785L-65.31 70.106v1.825l.082-.047L49.23 6.324 163.78 71.937v-1.83L49.585 4.7a.818.818 0 0 0-.708 0h-.002l-.044.022Zm0 54.676-114.142 65.377v1.825l.082-.047L49.234 61.005l114.546 65.607v-1.831L49.643 59.408a.816.816 0 0 0-.813-.01Zm.038-43.76-114.18 65.4v1.824l.082-.047L49.234 17.262 163.78 82.874v-1.837L49.586 15.638a.819.819 0 0 0-.709 0h-.008Z" fill="#000"/><path d="m95.268 196.819 68.512-39.238v1.83l-65.311 37.408h-3.201Zm38.184 0 30.328-17.37v1.831l-27.133 15.539h-3.195Zm19.089 0 11.239-6.438v1.831l-8.044 4.607h-3.195Zm-76.115-.141 87.354-50.029v1.831l-84.4 48.339h-3.2l.246-.141Zm37.937.141 49.417-28.301v1.831l-46.217 26.47h-3.2Zm-57.038-.141 106.455-60.972v1.831L60.274 196.819h-3.195l.246-.141Z" fill="#60DEA9"/></g><g clip-path="url(#clip1_2_177)"><path d="M3.2 196.818-65.31 235.66v-1.812L0 196.818h3.2Zm19.09 0-87.519 49.617-.082.047v-1.813l84.4-47.851h3.2Zm19.1 0-106.619 60.449-.082.046v-1.812l103.506-58.683h3.195Zm-57.284 0-49.417 28.016v-1.813l46.216-26.203h3.201Zm-38.178 0-11.239 6.373v-1.812l8.044-4.561h3.195Zm19.089 0-30.328 17.195V212.2l27.133-15.382h3.195ZM48.944 266.373l.01.01a.895.895 0 0 1 .28-.049.525.525 0 0 1 .078.008l.051.007a.668.668 0 0 1 .078.013.826.826 0 0 1 .186.079l114.153 64.718v1.813L49.228 268.023-65.228 332.92l-.083.047v-1.807l114.143-64.724.112-.063Zm.285 54.086c.021 0 .042.003.063.007a.842.842 0 0 1 .357.108l114.131 64.708v1.813L49.236 322.15l-114.464 64.886-.083.047v-1.806l114.142-64.718a.791.791 0 0 1 .398-.1Zm-.202-43.274a.777.777 0 0 1 .605.078l114.148 64.718v1.817L49.236 278.849l-114.464 64.892-.083.047v-1.807l114.138-64.715a.686.686 0 0 1 .2-.081Zm-.089 10.839.01.009a.628.628 0 0 1 .337-.043.831.831 0 0 1 .363.109l114.132 64.708v1.813L49.236 289.676l-114.464 64.891-.083.047v-1.806l114.143-64.723.106-.061Zm.354 21.615a.842.842 0 0 1 .357.108l114.131 64.714v1.812L49.236 311.324-65.228 376.21l-.083.047v-1.807l114.142-64.717a.626.626 0 0 1 .461-.094Zm-.354-10.788.01.008a.647.647 0 0 1 .337-.042.874.874 0 0 1 .363.108l114.132 64.709v1.812L49.236 300.502l-114.464 64.886-.083.047v-1.806l114.143-64.718.106-.06Z" fill="#000"/><path d="m107.779 288.957-1.6-.907 57.601-32.661v1.818l-55.919 31.703-.082.047Zm-9.548-5.411-1.594-.907 67.143-38.071v1.812l-65.466 37.119-.083.047Zm-38.184-21.648-1.593-.907 105.244-59.672.082-.047v1.812L60.13 261.851l-.083.047Zm19.095 10.821-1.6-.907 86.156-48.845.082-.047v1.812l-84.556 47.94-.082.047Zm-9.547-5.411-1.6-.906 95.703-54.262.082-.047v1.818l-94.103 53.351-.082.046Zm19.095 10.827-1.6-.907 76.69-43.487v1.818l-75.008 42.529-.082.047ZM60.298 196.818l-125.609 71.216v-1.818l122.413-69.398h3.196Zm76.361 0-48.844 27.693-.117.058-152.926 86.714-.083.047v-1.813l198.775-112.699h3.195Zm-19.084 0-39.301 22.283-.118.058-143.384 81.297-.083.047v-1.812l179.68-101.873h3.206Zm38.178 0L-65.228 322.104l-.083.047v-1.812l217.858-123.521h3.206Zm-57.278 0-163.703 92.817-.083.047v-1.813L95.28 196.818h3.195Zm-19.089 0-144.614 81.99-.083.047v-1.812l141.496-80.225h3.201Z" fill="#60DEA9"/></g><g clip-path="url(#clip2_2_177)"><path d="m232.292 391.649-68.512-38.842v1.812l65.311 37.03h3.201Zm-38.184 0-30.328-17.194v1.813l27.133 15.381h3.195Zm-19.089 0-11.239-6.373v1.812l8.044 4.561h3.195Zm76.115-.14-87.354-49.523v1.812l84.4 47.851h3.201l-.247-.14Zm-37.937.14-49.417-28.015v1.812l46.217 26.203h3.2Zm57.038-.14L163.78 331.154v1.812l103.506 58.683h3.195l-.246-.14Z" fill="#000"/></g><g clip-path="url(#clip3_2_177)" fill="#000"><path d="m-65.228 407.19-.083-.048v1.825l114.148 65.381c.122.064.259.098.398.098a.8.8 0 0 0 .397-.106l114.148-65.378v-1.837L49.235 472.737-65.228 407.19Zm0 21.863-.083-.048v1.825l114.148 65.387c.123.064.26.097.398.098a.79.79 0 0 0 .397-.107l114.148-65.377V429L49.229 494.611l-114.457-65.558Zm0-10.932-.083-.047v1.825L48.837 485.28c.123.064.26.097.398.098a.787.787 0 0 0 .397-.101l114.148-65.384v-1.831L49.229 483.674l-114.457-65.553Zm0 21.869-.083-.047v1.825l114.109 65.356.032.021c.123.07.263.107.405.107a.79.79 0 0 0 .397-.107l114.148-65.377v-1.837L49.235 505.543-65.228 439.99Zm0 10.931-.083-.047v1.825l114.148 65.386c.122.064.259.098.398.099a.778.778 0 0 0 .397-.102L163.78 452.7v-1.832L49.229 516.481l-114.457-65.56Zm0-54.669-.083-.047v1.825l114.142 65.378.11.054.007-.007a.78.78 0 0 0 .684-.053l114.148-65.377v-1.832L49.235 461.8l-114.463-65.548ZM117.741 588.468l-182.97-104.792-.082-.047v1.831l179.852 103.008h3.2Zm19.09 0-202.06-115.723-.082-.048v1.831l198.94 113.94h3.202Zm19.1 0-221.16-126.666-.082-.048v1.831L152.73 588.468h3.201Zm-57.285 0-163.874-93.855-.083-.047v1.831l160.762 92.071h3.195Zm-38.171 0-125.703-71.991-.083-.047v1.83l122.584 70.208h3.202Zm19.083 0-144.786-82.923-.083-.047v1.83l141.673 81.14h3.196Z"/></g><g clip-path="url(#clip4_2_177)"><path d="M270.398 391.649h-3.235L163.78 450.862v1.853l106.371-60.924.247-.142Zm-95.455 0-11.163 6.395v-1.853l7.928-4.542h3.235Zm76.118.142-87.281 49.99v-1.853l84.292-48.279h3.235l-.246.142Zm-19.091 0-68.19 39.056v-1.853l65.201-37.345h3.236l-.247.142Zm-38.182 0-30.008 17.187v-1.854l27.019-15.475h3.236l-.247.142Zm19.091 0-49.099 28.122v-1.853l46.11-26.411h3.235l-.246.142Z" fill="#60DEA9"/></g></g><defs><clipPath id="clip0_2_177"><path fill="#fff" transform="matrix(-1 0 0 1 163.78 0)" d="M0 0h229.091v196.819H0z"/></clipPath><clipPath id="clip1_2_177"><path fill="#fff" transform="matrix(-1 0 0 1 163.78 196.818)" d="M0 0h229.091v194.831H0z"/></clipPath><clipPath id="clip2_2_177"><path fill="#fff" transform="matrix(-1 0 0 1 392.871 196.818)" d="M0 0h229.091v194.831H0z"/></clipPath><clipPath id="clip3_2_177"><path fill="#fff" transform="matrix(-1 0 0 1 163.78 391.649)" d="M0 0h229.091v196.819H0z"/></clipPath><clipPath id="clip4_2_177"><path fill="#fff" transform="matrix(-1 0 0 1 392.871 391.649)" d="M0 0h229.091v196.819H0z"/></clipPath></defs></svg>