<svg width="36" height="24" fill="none" xmlns="http://www.w3.org/2000/svg"><path opacity=".75" d="M11.703 16.143c1.56 0 2.6-.923 2.795-2.197h-1.3c-.299.858-1.079 1.001-1.495 1.001-1.027 0-1.703-.65-1.703-1.716v-.013h4.602c.156-2.145-.936-3.796-2.938-3.796-1.846 0-3.094 1.365-3.094 3.38 0 2.093 1.235 3.341 3.133 3.341zm-1.664-4.134c.052-.819.715-1.391 1.586-1.391.871 0 1.482.572 1.521 1.391H10.04zm8.091 4.134c1.21 0 2.535-.754 2.535-2.106 0-1.001-.598-1.729-2.626-1.976-.806-.104-1.105-.429-1.105-.78 0-.481.546-.689 1.053-.689.364 0 1.105.117 1.248 1.001h1.287c-.13-1.612-1.378-2.21-2.56-2.21-1.496 0-2.432.897-2.432 1.885 0 .65.234 1.612 2.496 1.937.988.143 1.196.481 1.196.832 0 .533-.455.936-1.144.936-.689 0-1.274-.377-1.417-1.053h-1.326c.078 1.482 1.326 2.223 2.795 2.223zm6.37-.052c1.52 0 2.73-.975 2.912-2.366h-1.456c-.117.585-.598 1.144-1.43 1.144-.936 0-1.677-.819-1.677-2.21 0-1.326.74-2.106 1.65-2.106.82 0 1.314.559 1.457 1.144h1.456c-.17-1.365-1.352-2.327-2.86-2.327-1.86 0-3.172 1.404-3.172 3.38 0 1.963 1.287 3.341 3.12 3.341z" fill="#76767D"/><rect opacity=".5" x=".5" y=".5" width="35" height="23" rx=".5" stroke="#BDBEC2"/></svg>