<svg width="61" height="24" fill="none" xmlns="http://www.w3.org/2000/svg"><g opacity=".75"><rect x=".5" y=".5" width="60" height="23" rx=".5" stroke="#DCDDE0"/><path d="M11.252 16.132c1.44 0 2.4-.852 2.58-2.028h-1.2c-.276.792-.996.924-1.38.924-.948 0-1.572-.6-1.572-1.584v-.012h4.248c.144-1.98-.864-3.504-2.712-3.504-1.704 0-2.856 1.26-2.856 3.12 0 1.932 1.14 3.084 2.892 3.084zm-1.536-3.816c.048-.756.66-1.284 1.464-1.284.804 0 1.368.528 1.404 1.284H9.716zM15.085 16h1.272v-3.024c0-1.236.708-1.992 1.5-1.992.672 0 1.188.42 1.188 1.476V16h1.38v-3.684c0-2.028-1.44-2.472-2.268-2.472-.972 0-1.572.588-1.8.912V10h-1.272v6zm8.523 0h1.14l.012-1.128h-.816c-.576 0-.732-.192-.732-.792v-3h1.536V10h-1.536V8.08h-1.248V10h-.936v1.08h.936v3.324c0 .936.684 1.596 1.644 1.596zm4.402.132c1.44 0 2.4-.852 2.58-2.028h-1.2c-.276.792-.996.924-1.38.924-.948 0-1.572-.6-1.572-1.584v-.012h4.248c.144-1.98-.864-3.504-2.712-3.504-1.704 0-2.856 1.26-2.856 3.12 0 1.932 1.14 3.084 2.892 3.084zm-1.536-3.816c.048-.756.66-1.284 1.464-1.284.804 0 1.368.528 1.404 1.284h-2.868zM31.843 16h1.236v-3.036c0-1.476.935-1.74 1.751-1.728h.205V9.904h-.276c-1.14 0-1.56.6-1.68.828V10h-1.237v6z" fill="#76767D"/><path d="M54 7v5a1 1 0 01-1 1h-8.5" stroke="#76767D" stroke-linecap="round"/><path d="M47 10l-3 3 3 3" stroke="#76767D" stroke-linecap="round" stroke-linejoin="round"/></g></svg>