<svg width="30" height="30" viewBox="0 0 30 30" fill="none" xmlns="http://www.w3.org/2000/svg"><path fill="#fff" d="M0 0h30v30H0z"/><mask id="prefix__a" fill="#fff"><rect width="12" height="12" rx="1"/></mask><rect width="12" height="12" rx="1" stroke="#76767D" stroke-width="4" mask="url(#prefix__a)"/><mask id="prefix__b" fill="#fff"><rect x="18" y="18" width="12" height="12" rx="1"/></mask><rect x="18" y="18" width="12" height="12" rx="1" stroke="#00BC7F" stroke-width="4" mask="url(#prefix__b)"/><path d="M16 3h4a4 4 0 014 4v7" stroke="#76767D" stroke-width="2" stroke-linecap="round"/><path d="M2.293 18.293a1 1 0 101.414 1.414l-1.414-1.414zM6 16l.707-.707a1 1 0 00-1.414 0L6 16zm2.293 3.707a1 1 0 001.414-1.414l-1.414 1.414zm-4.586 0l3-3-1.414-1.414-3 3 1.414 1.414zm1.586-3l3 3 1.414-1.414-3-3-1.414 1.414z" fill="#00BC7F"/><path d="M21.707 10.293a1 1 0 10-1.414 1.414l1.414-1.414zM24 14l-.707.707a1 1 0 001.414 0L24 14zm3.707-2.293a1 1 0 00-1.414-1.414l1.414 1.414zm-7.414 0l3 3 1.414-1.414-3-3-1.414 1.414zm4.414 3l3-3-1.414-1.414-3 3 1.414 1.414z" fill="#76767D"/><path d="M6 16v7a4 4 0 004 4h4" stroke="#00BC7F" stroke-width="2" stroke-linecap="round"/></svg>
