<svg width="8" height="8" viewBox="0 0 8 8" fill="none" xmlns="http://www.w3.org/2000/svg">
<path fill-rule="evenodd" clip-rule="evenodd" d="M2.86488 0.661047C2.81944 0.611606 2.76447 0.571862 2.70328 0.544206C2.64209 0.51655 2.57593 0.501553 2.5088 0.500114C2.44166 0.498676 2.37493 0.510827 2.31261 0.535837C2.25029 0.560847 2.19367 0.598199 2.14615 0.645649C2.09863 0.693099 2.0612 0.749667 2.0361 0.811952C2.011 0.874238 1.99876 0.940955 2.0001 1.00809C2.00144 1.07523 2.01635 1.14141 2.04392 1.20264C2.07149 1.26387 2.11115 1.31889 2.16053 1.3644L4.79663 4.0015L2.16053 6.63859C2.11295 6.68454 2.075 6.73951 2.0489 6.80028C2.02279 6.86106 2.00905 6.92642 2.00847 6.99256C2.0079 7.0587 2.0205 7.1243 2.04555 7.18552C2.0706 7.24673 2.10758 7.30235 2.15435 7.34912C2.20112 7.39589 2.25674 7.43288 2.31796 7.45793C2.37918 7.48297 2.44477 7.49558 2.51091 7.495C2.57705 7.49443 2.64242 7.48069 2.70319 7.45458C2.76397 7.42847 2.81893 7.39052 2.86488 7.34295L5.85366 4.35417C5.90004 4.3079 5.93685 4.25293 5.96196 4.19242C5.98707 4.1319 6 4.06702 6 4.0015C6 3.93598 5.98707 3.8711 5.96196 3.81058C5.93685 3.75007 5.90004 3.6951 5.85366 3.64882L2.86488 0.660051V0.661047Z" fill="black"/>
</svg>
