<svg xmlns="http://www.w3.org/2000/svg" viewBox="0 0 2854 402">
  <g fill="none" fill-rule="evenodd">
    <path stroke="#979797" stroke-width="2" d="M1667.498 1v400" stroke-linecap="square"/>
    <path fill="#F6D2A2" stroke="#000" stroke-width="3" d="M1313.214 211.355c.36 7.415 7.768 3.984 11.123 1.666 3.185-2.2 4.116-.37 4.396-4.71.184-2.85.512-5.71.35-8.57-4.816-.43-10.05.71-14 3.59-2.035 1.48-5.85 6.2-1.866 8.05" stroke-linecap="round"/>
    <path fill="#C6B198" stroke="#000" stroke-width="3" d="M1313.214 211.355c1.078-.402 2.22-.686 2.952-1.66" stroke-linecap="round"/>
    <path fill="#6AD7E5" stroke="#000" stroke-width="3" d="M1330.334 123.012c-28.39-7.983-7.28-44.098 15.518-29.244l-15.518 29.244zm126.13-31.954c22.47-15.783 42.775 19.826 16.66 28.785l-16.66-28.785z" stroke-linecap="round"/>
    <path fill="#F6D2A2" stroke="#000" stroke-width="3" d="M1461.296 302.62c5.708 3.532 16.14 14.21 7.578 19.39-8.227 7.532-12.83-8.268-20.05-10.458 3.108-4.223 7.05-8.074 12.472-8.93z" stroke-linecap="round"/>
    <path stroke="#000" stroke-width="3" d="M1468.874 322.008c-1.27-2.523-1.695-5.47-3.814-7.504" stroke-linecap="round"/>
    <path fill="#F6D2A2" stroke="#000" stroke-width="3" d="M1359.328 314.69c-6.7 1.036-10.47 7.08-16.055 10.15-5.263 3.136-7.276-1.006-7.75-1.847-.825-.377-.756.35-2.03-.932-4.877-7.69 5.084-13.32 10.272-17.15 7.225-1.46 11.753 4.8 15.562 9.78z" stroke-linecap="round"/>
    <path stroke="#000" stroke-width="3" d="M1335.524 322.992c.254-2.934 2.58-4.9 3.69-7.38" stroke-linecap="round"/>
    <path fill="#000" fill-rule="nonzero" d="M1331.518 113.037c-3.745-1.98-6.492-4.672-4.202-9.004 2.12-4.01 6.062-3.574 9.807-1.593l-5.605 10.598zm135.69-3.766c3.745-1.98 6.492-4.67 4.2-9-2.117-4.01-6.058-3.57-9.806-1.59l5.608 10.6h-.003z"/>
    <path fill="#F6D2A2" stroke="#000" stroke-width="3" d="M1492.988 210.413c-.36 7.415-7.768 3.984-11.123 1.667-3.187-2.202-4.12-.372-4.397-4.716-.184-2.855-.514-5.71-.353-8.576 4.816-.433 10.053.71 14 3.583 2.035 1.48 5.85 6.2 1.867 8.05" stroke-linecap="round"/>
    <path fill="#C6B198" stroke="#000" stroke-width="3" d="M1492.988 210.413c-1.078-.4-2.22-.686-2.952-1.66" stroke-linecap="round"/>
    <path fill="#6AD7E5" stroke="#000" stroke-width="3" d="M1400.256 76.058c28.42 0 55.063 4.065 68.95 31.37 12.467 30.605 8.034 63.608 9.935 95.954 1.64 27.773 5.26 59.86-7.63 85.598-13.55 27.076-47.42 33.89-75.33 32.89-21.92-.786-48.39-7.937-60.76-27.96-14.51-23.494-7.64-58.428-6.59-84.568 1.25-30.965-8.39-62.03 1.79-92.326 10.56-31.43 39.02-38.535 69.65-40.96" stroke-linecap="round"/>
    <path fill="#FFF" stroke="#000" stroke-width="2.908" d="M1405.274 114.21c5.102 29.663 53.588 21.82 46.624-8.096-6.245-26.826-48.32-19.4-46.624 8.097" stroke-linecap="round"/>
    <path fill="#FFF" stroke="#000" stroke-width="2.821" d="M1347.333 119.008c6.613 25.824 47.96 19.213 46.4-6.69-1.867-31.025-52.723-25.04-46.4 6.69" stroke-linecap="round"/>
    <path fill="#FFF" stroke="#000" stroke-width="3" d="M1411.123 149.805c.022 3.856.876 8.186.147 12.288-.984 1.86-2.915 2.058-4.58 2.81-2.303-.36-4.238-1.873-5.162-4.026-.59-4.683.22-9.217.37-13.9l9.223 2.828h.01z" stroke-linecap="round"/>
    <g fill-rule="nonzero" transform="translate(1351.522 107.073)">
      <ellipse cx="7.215" cy="7.723" fill="#000" rx="6.982" ry="7.562"/>
      <ellipse cx="10.39" cy="9.43" fill="#FFF" rx="1.646" ry="1.922"/>
    </g>
    <g fill-rule="nonzero" transform="translate(1409.902 105.19)">
      <ellipse cx="7.331" cy="7.723" fill="#000" rx="6.865" ry="7.562"/>
      <ellipse cx="10.454" cy="9.43" fill="#FFF" rx="1.619" ry="1.922"/>
    </g>
    <path fill="#FFF" stroke="#000" stroke-width="3" d="M1391.172 149.385c-3.046 7.382 1.7 22.145 9.964 11.256-.59-4.68.22-9.21.37-13.9l-10.334 2.65z" stroke-linecap="round"/>
    <g fill-rule="nonzero">
      <path fill="#F6D2A2" stroke="#231F20" stroke-width="3" d="M1392.214 135.168c-5.677.484-10.318 7.235-7.366 12.575 3.91 7.073 12.635-.626 18.07.096 6.254.12 11.38 6.61 16.403 1.17 5.59-6.05-2.4-11.95-8.65-14.58l-18.45.73z" stroke-linecap="round"/>
      <path fill="#000" d="M1391.5 134.872c-.42-9.835 18.332-11.065 20.547-2.832 2.21 8.21-19.624 10.118-20.547 2.83-.737-5.824 0 0 0 0v.002z"/>
    </g>
    <g fill-rule="nonzero">
      <path fill="#5382A1" d="M1014.063 268.63s-9.504 5.528 6.765 7.398c19.71 2.246 29.785 1.924 51.506-2.185 0 0 5.71 3.58 13.686 6.677-48.693 20.87-110.202-1.213-71.957-11.9v.01zm-5.95-27.243s-10.66 7.89 5.622 9.574c21.055 2.18 37.683 2.35 66.456-3.19 0 0 3.98 4.04 10.24 6.24-58.87 17.22-124.44 1.36-82.31-12.62v.01z"/>
      <path fill="#F8981D" d="M1058.275 195.202c11.998 13.813-3.153 26.243-3.153 26.243s30.465-15.727 16.474-35.42c-13.067-18.363-23.088-27.488 31.162-58.95 0 0-85.154 21.265-44.483 68.128"/>
      <path fill="#5382A1" d="M1122.675 288.774s7.034 5.795-7.746 10.28c-28.12 8.513-116.99 11.084-141.68.338-8.88-3.862 7.76-9.218 13-10.343 5.45-1.19 8.58-.97 8.58-.97-9.88-6.95-63.8 13.65-27.4 19.55 99.27 16.09 180.97-7.26 155.22-18.87m-104.03-75.6s-45.21 10.74-16.01 14.63c12.33 1.65 36.9 1.28 59.8-.64 18.71-1.58 37.49-4.94 37.49-4.94s-6.6 2.82-11.37 6.08c-45.91 12.07-134.59 6.46-109.06-5.89 21.59-10.44 39.15-9.26 39.15-9.26m81.09 45.32c46.66-24.25 25.09-47.56 10.03-44.42-3.7.76-5.34 1.43-5.34 1.43s1.36-2.15 3.98-3.08c29.79-10.48 52.7 30.89-9.62 47.28 0 0 .72-.65.94-1.23"/>
      <path fill="#F8981D" d="M1071.596 76.268s25.845 25.853-24.513 65.608c-40.382 31.893-9.208 50.075-.017 70.85-23.572-21.267-40.87-39.99-29.264-57.413 17.033-25.577 64.223-37.978 53.794-79.045"/>
      <path fill="#5382A1" d="M1023.22 324.223c44.795 2.868 113.583-1.59 115.212-22.786 0 0-3.13 8.035-37.02 14.416-38.234 7.2-85.39 6.356-113.357 1.75 0 0 5.725 4.74 35.166 6.63v-.01z"/>
    </g>
    <g fill-rule="nonzero" transform="translate(532.228 76)">
      <path fill="#54A3DA" d="M165.176 249.21s5.898-28.492 30.558-62.69c17.14-9.902 34.328-22.037 48.887-36.593 13.47-66.75-6.97-138.367-6.97-138.367S166.03-8.87 99.29 4.59c-14.568 14.565-26.692 31.754-36.6 48.887C28.485 78.132 0 84.03 0 84.03s22.783 15.644 33.776 33.394c-4.68 13.506-6.882 22.205-6.882 22.205 1.777 8.33 7.05 18.05 14.326 27.86-5.027 3.98-10.915 8.12-17.315 11.59-.765.42-1.55.82-2.33 1.22 5.493 18.11 29.75 40.93 47.417 47.07.36-.71.733-1.41 1.113-2.1 3.565-6.57 7.842-12.61 11.92-17.73 9.9 7.18 19.575 12.53 27.548 14.75 0 0 8.708-2.2 22.207-6.88 17.744 10.99 33.39 33.78 33.39 33.78l.006-.01zm-50.345-60.333c-10.16-4.402-23.65-15.24-32.85-24.445-12.44-12.438-19.18-23.032-21.76-29.626 4.37-14.883 21.15-66.328 53.38-100.91 38.87-6.59 79.59.5 97.32 4.406 3.9 17.715 11.01 58.447 4.4 97.314-34.37 32.06-85.06 48.736-100.48 53.268l.01-.007z"/>
      <circle cx="148.901" cy="100.636" r="26.621" fill="#F1616E"/>
    </g>
    <path fill="#1869A5" fill-rule="nonzero" d="M203.382 190.986h37.13v-33.75h-37.13v33.75zm-43.88 0h37.123v-33.75h-37.12v33.75h-.003zm-43.89 0h37.12v-33.75h-37.12v33.75zm-43.893 0h37.14v-33.75H71.74v33.75h-.026zm-43.89 0h37.14v-33.75H27.85v33.75h-.017zm43.91-40.506h37.12v-33.75H71.74v33.75zm43.88 0h37.13v-33.75h-37.13v33.75zm43.88 0h37.12v-33.75H159.5v33.75h-.002zm0-40.5h37.12V76.227H159.5v33.755h-.002zm192.57 61.33c-8.12-5.424-26.75-7.43-41.09-4.716-1.85-13.51-9.38-25.212-23.07-35.8l-7.87-5.254-5.25 7.877c-6.73 10.14-10.09 24.188-8.99 37.66.49 4.74 2.05 13.227 6.92 20.68-4.88 2.617-14.51 6.226-27.2 5.98H1.39l-.484 2.83c-2.295 13.538-2.245 55.78 25.184 88.255C46.942 313.486 78.2 326 118.998 326c88.443 0 153.877-40.712 184.52-114.717 12.053.236 37.996.07 51.322-25.394.346-.59 1.146-2.12 3.474-6.94l1.273-2.65-7.495-5h-.02z"/>
    <path fill="#000" fill-rule="nonzero" d="M2044.71 269.98c-3.736 8.627-8.157 16.57-13.28 23.87-6.98 9.955-12.697 16.845-17.102 20.67-6.83 6.282-14.147 9.498-21.982 9.68-5.625 0-12.41-1.6-20.305-4.846-7.92-3.232-15.2-4.833-21.86-4.833-6.98 0-14.46 1.61-22.47 4.84-8.02 3.25-14.48 4.94-19.42 5.11-7.51.32-15-2.98-22.48-9.94-4.77-4.16-10.74-11.29-17.88-21.4-7.67-10.79-13.98-23.31-18.92-37.57-5.29-15.41-7.94-30.33-7.94-44.78 0-16.55 3.58-30.82 10.74-42.78 5.63-9.61 13.12-17.19 22.5-22.75 9.37-5.56 19.5-8.39 30.41-8.58 5.97 0 13.8 1.85 23.52 5.48 9.7 3.64 15.93 5.49 18.66 5.49 2.04 0 8.96-2.15 20.69-6.46 11.09-3.99 20.45-5.64 28.12-4.99 20.78 1.68 36.39 9.87 46.77 24.63-18.58 11.26-27.77 27.03-27.59 47.26.17 15.76 5.89 28.87 17.12 39.28 5.09 4.84 10.78 8.57 17.11 11.22-1.37 3.98-2.82 7.79-4.36 11.45zm-47.654-187.517c0 12.35-4.512 23.883-13.506 34.557-10.853 12.69-23.98 20.02-38.218 18.864-.18-1.482-.286-3.04-.286-4.68 0-11.856 5.16-24.545 14.327-34.92 4.577-5.254 10.397-9.62 17.455-13.106 7.042-3.432 13.704-5.33 19.97-5.655.182 1.65.258 3.302.258 4.94zm327.084 55.622c0 .822-.82.822-.82.822h-.824c-.822 0-.822-.822-1.645-1.644 0 0-.82-.823-.82-1.645 0-.823 0-.823.82-.823l1.65.823c.83.822 1.65 1.645 1.65 2.467m-14.8-8.224c0-4.11-1.64-6.57-4.11-6.57 0 0 0 .83-.82.83v1.65h2.47c0 1.65.83 2.47.83 4.11h1.65m28.79-4.11c1.65 0 2.47 1.65 3.29 4.11h1.65c-.82-.82-.82-1.64-.82-2.46s0-1.64-.82-2.46c-.82-.82-1.64-1.64-2.46-1.64 0 0-.82.83-1.64.83 0 .82.82.82.82 1.64m-24.67 13.16c-.82 0-.82 0-.82-.82s0-1.64.82-2.46c1.65 0 2.47-.82 2.47-.82.83 0 .83.83.83.83 0 .82-.82 1.64-2.47 3.29h-.82m-9.05-.83c-3.29-1.64-4.11-4.11-4.11-8.22 0-2.47 0-4.11 1.65-5.76.82-1.64 2.47-2.47 4.11-2.47 1.64 0 2.47.82 4.11 2.47.82 2.47 1.64 4.94 1.64 7.4v1.65h.82v-.82c.83 0 .83-1.64.83-4.93 0-2.47 0-4.93-1.64-7.4-1.64-2.47-3.29-4.11-6.58-4.11-2.46 0-4.93 1.65-5.75 4.12-1.64 3.29-1.97 5.76-1.97 9.87 0 3.29 1.15 6.58 4.44 9.87.82-.82 1.65-.82 2.47-1.64m102.79 115.95c.83 0 .83-.33.83-1.07 0-1.81-.82-3.95-3.29-6.33-2.47-2.47-6.58-4.03-11.51-4.69-.82-.08-1.65-.08-1.65-.08-.82-.16-.82-.16-1.64-.16-.82-.08-2.47-.243-3.29-.41 2.47-7.65 3.29-14.39 3.29-20.31 0-8.225-1.643-13.98-4.933-18.916s-6.58-7.4-10.69-8.23c-.82.82-.82.82-.82 1.646 4.11 1.65 8.22 4.935 10.69 9.87 2.465 5.76 3.29 10.69 3.29 16.45 0 4.603-.825 11.43-4.115 20.15-3.28 1.312-6.57 4.36-9.04 9.124 0 .74 0 1.15.823 1.15 0 0 .82-.74 1.646-2.14 1.64-1.39 2.468-2.79 4.11-4.19 2.47-1.4 4.11-2.14 6.58-2.14 4.11 0 8.22.58 10.69 1.73 3.29 1.07 4.936 2.22 5.76 3.54.82 1.23 1.644 2.385 2.47 3.45 0 1.07.82 1.567.82 1.567m-75.66-119.25c-.82-.82-.82-2.47-.82-4.11 0-3.29 0-4.932 1.645-7.4 1.643-1.64 3.29-2.46 4.933-2.46 2.47 0 4.11 1.65 5.76 3.29.82 2.47 1.64 4.117 1.64 6.58 0 4.11-1.64 6.58-4.93 7.4 0 0 .82.827 1.64.827 1.65 0 2.47.82 4.12 1.64.82-4.93 1.64-8.22 1.64-12.34 0-4.94-.82-8.23-2.47-10.69-2.47-2.47-4.93-3.29-8.22-3.29-2.47 0-4.938.82-7.4 2.46-1.65 2.47-2.47 4.11-2.47 6.58 0 4.11.82 7.4 2.47 10.69.822 0 1.65.82 2.47.82m9.87 13.16c-10.69 7.4-18.917 10.69-25.49 10.69-5.76 0-11.51-2.462-16.45-6.58.82 1.65 1.644 3.29 2.47 4.118l4.93 4.93c3.29 3.29 7.4 4.93 11.51 4.93 5.754 0 12.333-3.29 20.56-9.046l7.4-4.94c1.643-1.65 3.29-3.29 3.29-5.76 0-.83 0-1.65-.825-1.65-.82-1.64-4.93-4.11-13.15-6.58-7.4-3.29-13.16-4.93-16.45-4.93-2.47 0-6.58 1.65-12.34 4.94-4.932 3.29-8.22 6.58-8.22 9.86 0 0 .82.83 1.644 2.47 4.934 4.12 9.87 6.58 14.803 6.58 6.58 0 14.8-3.29 25.49-11.51v1.65c.827 0 .827.82.827.82m18.92 166.12c3.29 6.18 9.046 9.29 15.625 9.29 1.643 0 3.29-.25 4.93-.74 1.64-.33 3.29-.91 4.11-1.567.82-.57 1.646-1.15 2.47-1.81 1.64-.57 1.64-.98 2.465-1.392l13.98-12.09c3.29-2.62 6.58-4.91 10.69-6.9 3.29-1.98 6.58-3.29 8.22-4.03 2.46-.66 4.11-1.65 5.75-2.96.82-1.24 1.64-2.8 1.64-4.77 0-2.39-1.645-4.2-3.29-5.51-1.645-1.32-3.29-2.22-4.93-2.8-1.65-.58-3.29-1.89-5.76-4.11-1.65-2.14-3.29-5.1-4.11-8.97l-.825-4.77c-.82-2.22-.82-3.87-1.65-4.77 0-.25 0-.33-.82-.33s-2.47.74-3.29 2.14c-1.65 1.39-3.29 2.96-4.94 4.6-.82 1.64-3.29 3.12-4.936 4.52-2.46 1.39-4.93 2.13-6.58 2.13-6.57 0-9.86-1.81-12.33-5.34-1.64-2.63-2.47-5.67-3.29-9.126-1.64-1.4-2.46-2.14-4.11-2.14-4.11 0-5.75 4.277-5.75 12.91v25.58c0 .74-.827 2.388-.827 4.937-.82 2.55-.82 5.44-.82 8.71l-1.64 9.13v.14m-92.847 2.815c9.95 3.62 16.036 5.51 18.256 5.51 5.76 0 10.53-2.55 14.48-7.472.82-1.6.82-3.47.82-5.63 0-7.77-4.69-17.6-14.068-29.523l-5.59-7.48c-1.15-1.565-2.55-3.95-4.36-7.157-1.724-3.21-3.29-5.67-4.52-7.4-1.07-1.89-2.8-3.78-5.02-5.675-2.14-1.89-4.6-3.126-7.32-3.78-3.45.66-5.84 1.81-6.99 3.37-1.15 1.564-1.81 3.29-1.97 5.1-.25 1.73-.74 2.88-1.56 3.454-.82.49-2.22.9-4.11 1.31-.41 0-1.15 0-2.22.08h-2.22c-4.36 0-7.32.49-8.88 1.31-2.06 2.382-3.13 5.1-3.13 7.98 0 1.31.33 3.53.98 6.66.66 3.04.99 5.51.99 7.24 0 3.37-.99 6.74-3.05 10.11-2.052 3.54-3.12 6.17-3.12 8.04.83 3.19 6.25 5.433 16.2 6.75 7.65 1.14 16.45 3.535 26.4 7.19zm5.51-101.27c2.96-7.4 5.92-12.33 8.8-15.62-.166-.82-.58-.82-1.235-.82l-.82-.83c-2.39 2.465-5.26 8.22-8.72 16.445-3.45 7.404-5.26 14.23-5.26 19.246 0 3.7.9 6.907 2.55 9.7 1.81 2.71 6.163 6.66 13.07 11.68l8.71 5.67c9.29 8.06 14.23 13.65 14.23 16.94 0 1.73-.83 3.456-3.29 5.347-1.65 1.975-3.87 2.96-5.76 2.96-.17 0-.25.166-.25.58 0 .08.82 1.724 2.55 4.93 3.45 4.686 10.85 6.99 20.72 6.99 18.09 0 32.07-7.4 42.76-22.205 0-4.11 0-6.66-.82-7.73v-3.04c0-5.345.82-9.374 2.466-12.006 1.65-2.63 3.29-3.868 5.76-3.868 1.645 0 3.29.574 4.935 1.81.82-6.33.82-11.84.82-16.78 0-7.486 0-13.65-1.64-19.41-.82-4.935-2.47-9.047-4.11-12.336l-4.934-7.4c-1.65-2.466-2.47-4.93-4.11-7.4-.83-3.29-1.65-5.76-1.65-9.87-2.47-4.11-4.12-8.22-6.58-12.33-1.65-4.11-3.29-8.23-4.94-11.517l-7.4 5.757c-8.22 5.75-14.8 8.22-20.56 8.22-4.93 0-9.04-.82-11.51-4.11l-4.93-4.11c0 2.46-.83 5.75-2.47 9.04l-5.18 9.87c-2.31 5.752-3.54 9.04-3.79 11.51-.33 1.64-.58 3.29-.74 3.29l-6.17 12.33c-6.66 12.337-10.03 23.77-10.03 33.225 0 1.89.16 3.86.49 5.84-3.7-2.55-5.51-6.09-5.51-10.69 0-5.68 1.48-11.93 4.52-19.33zm29.687 101.44c-4.11 4.69-8.71 7.24-15.13 7.24-4.03 0-10.36-1.56-18.91-4.682-8.63-2.96-16.28-5.23-22.94-6.73-.66-.19-2.14-.47-4.52-.85-2.303-.37-4.44-.75-6.33-1.13-1.72-.37-3.7-.92-5.84-1.68-2.05-.65-3.7-1.5-4.93-2.53-1.136-1.04-1.69-2.203-1.69-3.51 0-1.32.28-2.723.84-4.22.53-.91 1.1-1.81 1.68-2.63.573-.91 1.07-1.73 1.4-2.55.49-.74.82-1.48 1.15-2.303.33-.74.66-1.48.82-2.385.16-.83.33-1.65.33-2.47 0-.826-.33-3.29-.99-7.65-.66-4.28-.987-6.99-.987-8.14 0-3.62.82-6.497 2.63-8.55 1.81-2.06 3.53-3.13 5.34-3.13h9.46c.74 0 1.895-.41 3.62-1.4.577-1.316 1.07-2.385 1.4-3.37.41-.99.574-1.73.74-2.06.16-.495.33-.99.49-1.4.33-.58.74-1.235 1.317-1.89-.66-.82-.99-1.89-.99-3.21 0-.9 0-1.73.166-2.22 0-2.96 1.4-7.155 4.36-12.665l2.88-5.18c2.382-4.44 4.192-7.73 5.51-11.02 1.4-3.29 2.88-8.227 4.524-14.806 1.31-5.76 4.44-11.517 9.37-17.27l6.17-7.4c4.274-4.94 7.07-9.05 8.63-12.34 1.567-3.29 2.39-7.4 2.39-10.69 0-1.647-.41-6.58-1.32-14.8-.82-8.23-1.234-16.45-1.234-23.85 0-5.76.49-9.87 1.56-13.98 1.07-4.11 2.96-8.227 5.76-11.51 2.464-3.29 5.75-6.58 10.69-8.22 4.93-1.65 10.69-2.47 17.27-2.47 2.464 0 4.93 0 7.4.82 2.47 0 5.755.82 9.87 2.47 3.29 1.644 6.58 3.29 9.04 5.756 3.29 2.464 5.75 6.58 8.22 10.69 1.646 4.93 3.29 9.87 4.11 16.45.826 4.11.826 8.22 1.65 13.98 0 4.93.82 8.22.82 10.69.82 2.47.82 5.75 1.64 9.87.83 3.29 1.65 6.58 3.29 9.04 1.65 3.29 3.29 6.58 5.76 9.87 2.47 4.11 5.76 8.22 9.05 13.157 7.4 8.23 13.16 17.27 16.45 26.32 4.11 8.225 6.58 18.915 6.58 30.346 0 5.68-.826 11.19-2.47 16.53 1.64 0 2.463.66 3.29 1.81.82 1.15 1.64 3.62 2.462 7.48l.82 6.09c.82 1.81 1.64 3.53 4.11 5.01 1.64 1.48 3.29 2.71 5.76 3.7 1.64.82 4.11 1.97 5.75 3.45 1.64 1.64 2.466 3.37 2.466 5.18 0 2.79-.82 4.85-2.463 6.33-1.65 1.642-3.29 2.8-5.76 3.54-1.65.82-4.94 2.47-9.87 4.79-4.11 2.43-8.222 5.38-12.34 8.88l-8.222 7c-3.29 3.2-6.58 5.51-9.05 6.9-2.47 1.48-5.753 2.22-9.043 2.22l-5.754-.66c-6.58-1.725-10.69-5.01-13.16-10.03-13.16-1.59-23.85-2.38-30.43-2.38-10.69.02-18.92 1.47-24.67 4.34z"/>
    <path fill="#00ADEF" fill-rule="nonzero" d="M2605 111.233l101.384-13.807.044 97.792-101.335.577-.093-84.562zm101.335 95.253l.08 97.878-101.336-13.932-.01-84.603 101.26.65zm12.29-110.867L2853.05 76v117.974l-134.425 1.068V95.62zm134.458 111.78l-.032 117.44-134.42-18.98-.19-98.69 134.65.22z"/>
  </g>
</svg>
