<svg xmlns="http://www.w3.org/2000/svg" viewBox="0 0 400 175">
  <g fill="none" fill-rule="evenodd">
    <path fill="#FFF" d="M268 84h100v21.212H268V84zm5.116 4.714v11.784h72.093V88.714h-72.1zm83.49 11.784c3.21 0 5.813-2.638 5.813-5.892 0-3.254-2.61-5.892-5.82-5.892-3.21 0-5.82 2.638-5.82 5.892 0 3.254 2.603 5.892 5.814 5.892zM268 112.738h100v21.21H268v-21.212zm5.116 4.713v11.79h72.093v-11.79h-72.1zm83.49 11.79c3.21 0 5.813-2.64 5.813-5.89s-2.61-5.89-5.82-5.89c-3.21 0-5.82 2.64-5.82 5.895 0 3.255 2.603 5.893 5.814 5.893zM268 141.48h100v21.212H268V141.48zm5.116 4.714v11.78h72.093v-11.78h-72.1zm83.49 11.78c3.21 0 5.813-2.64 5.813-5.89 0-3.255-2.61-5.89-5.82-5.89-3.21 0-5.82 2.635-5.82 5.89 0 3.253 2.603 5.89 5.814 5.89z"/>
    <path stroke="#FFF" stroke-width="2" d="M185 123h27.538" stroke-linecap="square"/>
    <path fill="#FFF" d="M221.5 123.037l-10.5 6.038V117"/>
    <g fill="#FFF">
      <path fill-opacity=".6" d="M32 84h100v21.212H32V84zm5.116 4.714v11.784h72.093V88.714h-72.1zm83.49 11.784c3.21 0 5.813-2.638 5.813-5.892 0-3.254-2.61-5.892-5.82-5.892-3.21 0-5.82 2.638-5.82 5.892 0 3.254 2.603 5.892 5.814 5.892zM32 112.738h100v21.21H32v-21.212zm5.116 4.713v11.79h72.093v-11.79h-72.1zm83.49 11.79c3.21 0 5.813-2.64 5.813-5.89s-2.61-5.89-5.82-5.89c-3.21 0-5.82 2.64-5.82 5.895 0 3.255 2.603 5.893 5.814 5.893z"/>
      <path d="M32 141.475h100v21.212H32v-21.212zm5.116 4.714v11.78h72.093v-11.78h-72.1zm83.49 11.78c3.21 0 5.813-2.64 5.813-5.89 0-3.26-2.61-5.89-5.82-5.89-3.21 0-5.82 2.63-5.82 5.89 0 3.25 2.603 5.89 5.814 5.89z"/>
    </g>
    <path d="M318.498 14.238l-16.303 9.474 16.303 9.474 16.174-9.56"/>
    <path fill="#FFF" fill-rule="nonzero" d="M318.498 13.256L301 23.413v20.272l11.95 6.914v-.99l-11.096-6.4V24.52l16.217 9.39v19.42l.64.384L336 43.684v-20.27l-17.5-10.158zm0 19.93l-16.303-9.474 16.303-9.474 16.174 9.39-16.174 9.558zm16.644 10.03l-15.577 9.004-.64.384V33.912l16.217-9.56v18.863z"/>
    <g fill="#FFF">
      <path fill-opacity=".6" d="M81.498 14.238l-16.303 9.474 16.303 9.474 16.174-9.56"/>
      <path fill-rule="nonzero" d="M81.498 13.256L64 23.413v20.272L75.95 50.6v-.983l-11.096-6.402V24.523l16.217 9.39V53.33l.64.384L99 43.684v-20.27l-17.5-10.16zm0 19.93l-16.303-9.474 16.303-9.474 16.174 9.39-16.174 9.558zm16.644 10.03L82.565 52.22l-.64.384V33.912l16.217-9.56v18.863z"/>
    </g>
  </g>
</svg>
