<svg xmlns="http://www.w3.org/2000/svg" viewBox="0 0 3324 402">
  <g fill="none" fill-rule="evenodd">
    <path stroke="#979797" stroke-width="2" d="M2204.45 1v400" stroke-linecap="square"/>
    <path fill="#F6D2A2" stroke="#000" stroke-width="3" d="M1245.42 211.35c.36 7.42 7.76 4 11.12 1.67 3.18-2.2 4.12-.37 4.4-4.7.18-2.87.5-5.72.35-8.6-4.9-.42-10.1.72-14.1 3.6-2.1 1.47-5.9 6.2-1.9 8.04" stroke-linecap="round"/>
    <path fill="#C6B198" stroke="#000" stroke-width="3" d="M1245.42 211.35c1.07-.4 2.22-.68 2.95-1.66" stroke-linecap="round"/>
    <path fill="#6AD7E5" stroke="#000" stroke-width="3" d="M1262.54 123c-28.4-7.97-7.28-44.1 15.5-29.23l-15.5 29.24zm126.13-31.94c22.47-15.78 42.77 19.82 16.66 28.78l-16.66-28.78z" stroke-linecap="round"/>
    <path fill="#F6D2A2" stroke="#000" stroke-width="3" d="M1393.5 302.62c5.7 3.53 16.14 14.2 7.58 19.4-8.23 7.52-12.83-8.28-20.06-10.47 3.1-4.22 7.06-8.07 12.48-8.93z" stroke-linecap="round"/>
    <path stroke="#000" stroke-width="3" d="M1401.08 322c-1.27-2.52-1.7-5.46-3.82-7.5" stroke-linecap="round"/>
    <path fill="#F6D2A2" stroke="#000" stroke-width="3" d="M1291.53 314.7c-6.7 1.03-10.47 7.07-16.05 10.14-5.27 3.14-7.28-1-7.76-1.85-.82-.4-.75.3-2.02-1-4.88-7.7 5.08-13.4 10.27-17.2 7.22-1.5 11.75 4.8 15.56 9.8z" stroke-linecap="round"/>
    <path stroke="#000" stroke-width="3" d="M1267.73 323c.25-2.94 2.58-4.9 3.7-7.4" stroke-linecap="round"/>
    <path fill="#000" fill-rule="nonzero" d="M1263.72 113.04c-3.74-1.98-6.5-4.67-4.2-9 2.12-4.02 6.06-3.58 9.8-1.6l-5.6 10.6zm135.7-3.77c3.73-1.98 6.48-4.67 4.2-9-2.13-4-6.07-3.58-9.82-1.6l5.6 10.6z"/>
    <path fill="#F6D2A2" stroke="#000" stroke-width="3" d="M1425.2 210.4c-.37 7.43-7.78 4-11.13 1.68-3.2-2.2-4.12-.37-4.4-4.72-.18-2.85-.5-5.7-.35-8.57 4.8-.5 10.05.7 14 3.5 2.03 1.5 5.85 6.2 1.86 8" stroke-linecap="round"/>
    <path fill="#C6B198" stroke="#000" stroke-width="3" d="M1425.2 210.4c-1.1-.4-2.23-.67-2.96-1.65" stroke-linecap="round"/>
    <path fill="#6AD7E5" stroke="#000" stroke-width="3" d="M1332.46 76.06c28.42 0 55.06 4.06 68.95 31.37 12.5 30.6 8.1 63.6 10 95.95 1.7 27.77 5.3 59.86-7.6 85.6-13.5 27.08-47.4 33.9-75.3 32.9-21.9-.8-48.4-7.95-60.7-27.97-14.5-23.4-7.6-58.4-6.5-84.5 1.3-30.9-8.4-62 1.8-92.3 10.6-31.4 39.1-38.5 69.7-40.9" stroke-linecap="round"/>
    <path fill="#FFF" stroke="#000" stroke-width="2.91" d="M1337.48 114.2c5.1 29.67 53.58 21.83 46.62-8.1-6.24-26.8-48.32-19.4-46.62 8.1" stroke-linecap="round"/>
    <path fill="#FFF" stroke="#000" stroke-width="2.82" d="M1279.54 119c6.6 25.83 47.95 19.22 46.4-6.68-1.87-31.03-52.73-25.04-46.4 6.7" stroke-linecap="round"/>
    <path fill="#FFF" stroke="#000" stroke-width="3" d="M1343.33 149.8c.02 3.86.87 8.2.14 12.3-.98 1.85-2.9 2.05-4.58 2.8-2.3-.36-4.3-1.87-5.2-4.02-.6-4.7.2-9.22.3-13.9l9.2 2.83z" stroke-linecap="round"/>
    <g fill-rule="nonzero" transform="translate(1283.724 107.073)">
      <ellipse cx="7.21" cy="7.72" fill="#000" rx="6.98" ry="7.56"/>
      <ellipse cx="10.39" cy="9.43" fill="#FFF" rx="1.65" ry="1.92"/>
    </g>
    <g fill-rule="nonzero" transform="translate(1342.104 105.19)">
      <ellipse cx="7.33" cy="7.72" fill="#000" rx="6.87" ry="7.56"/>
      <ellipse cx="10.45" cy="9.43" fill="#FFF" rx="1.62" ry="1.92"/>
    </g>
    <path fill="#FFF" stroke="#000" stroke-width="3" d="M1323.37 149.4c-3.04 7.37 1.7 22.13 9.97 11.24-.6-4.68.22-9.22.37-13.9l-10.3 2.65z" stroke-linecap="round"/>
    <g fill-rule="nonzero">
      <path fill="#F6D2A2" stroke="#231F20" stroke-width="3" d="M1324.42 135.17c-5.68.48-10.32 7.23-7.37 12.57 3.9 7.08 12.63-.62 18.07.1 6.25.13 11.38 6.6 16.4 1.17 5.6-6-2.4-11.9-8.65-14.5l-18.45.8z" stroke-linecap="round"/>
      <path fill="#000" d="M1323.7 134.87c-.42-9.83 18.33-11.06 20.55-2.83 2.2 8.2-19.62 10.12-20.55 2.83-.73-5.82 0 0 0 0z"/>
    </g>
    <g fill-rule="nonzero">
      <path fill="#5382A1" d="M968.58 268.63s-9.5 5.53 6.77 7.4c19.7 2.24 29.78 1.92 51.5-2.2 0 0 5.7 3.6 13.7 6.7-48.7 20.86-110.2-1.22-71.97-11.9zm-5.95-27.24s-10.66 7.8 5.62 9.5c21.06 2.1 37.7 2.3 66.46-3.2 0 0 4 4 10.3 6.2-58.9 17.2-124.4 1.3-82.3-12.7z"/>
      <path fill="#F8981D" d="M1012.8 195.2c12 13.8-3.16 26.25-3.16 26.25s30.47-15.73 16.47-35.43c-13-18.36-23-27.48 31.2-58.95 0 0-85.1 21.27-44.5 68.13"/>
      <path fill="#5382A1" d="M1077.2 288.77s7.03 5.8-7.75 10.28c-28.1 8.52-117 11.1-141.68.34-8.87-3.9 7.77-9.3 13-10.4 5.46-1.2 8.58-1 8.58-1-9.87-7-63.8 13.6-27.4 19.5 99.3 16.1 180.98-7.3 155.23-18.9M973.15 213s-45.2 10.75-16 14.65c12.32 1.65 36.9 1.3 59.8-.64 18.7-1.5 37.5-4.9 37.5-4.9s-6.6 2.9-11.38 6.1c-45.9 12.1-134.6 6.5-109.06-5.9 21.6-10.4 39.2-9.2 39.2-9.2m81.1 45.3c46.7-24.2 25.1-47.5 10.1-44.4-3.7.8-5.3 1.4-5.3 1.4s1.4-2.1 4-3.1c29.8-10.4 52.7 30.9-9.6 47.3 0 0 .8-.6 1-1.2"/>
      <path fill="#F8981D" d="M1026.1 76.27s25.86 25.85-24.5 65.6c-40.38 31.9-9.2 50.08-.02 70.86-23.57-21.27-40.86-40-29.26-57.42 17.03-25.5 64.22-37.9 53.8-79"/>
      <path fill="#5382A1" d="M977.74 324.22c44.8 2.87 113.58-1.6 115.2-22.78 0 0-3.12 8.03-37 14.4-38.24 7.2-85.4 6.37-113.37 1.76 0 0 5.73 4.74 35.17 6.63z"/>
    </g>
    <g fill-rule="nonzero" transform="translate(509.063 76)">
      <path fill="#54A3DA" d="M165.18 249.2s5.9-28.48 30.55-62.68c17.14-9.9 34.33-22.04 48.9-36.6 13.45-66.74-6.98-138.36-6.98-138.36S166.03-8.87 99.3 4.6C84.7 19.15 72.6 36.33 62.7 53.47 28.47 78.13 0 84.03 0 84.03s22.78 15.64 33.78 33.4c-4.7 13.5-6.9 22.2-6.9 22.2 1.8 8.33 7.06 18.05 14.34 27.86-5.03 3.9-10.92 8.1-17.3 11.5l-2.34 1.2c5.5 18.1 29.74 40.9 47.4 47 .37-.7.74-1.4 1.13-2.1 3.6-6.6 7.9-12.6 12-17.8 9.9 7.2 19.6 12.5 27.6 14.7 0 0 8.7-2.2 22.2-6.9 17.8 11 33.4 33.8 33.4 33.8zm-50.35-60.32c-10.16-4.4-23.65-15.24-32.85-24.45C69.54 152 62.8 141.4 60.2 134.8c4.38-14.88 21.16-66.32 53.4-100.9 38.86-6.6 79.58.5 97.3 4.4 3.9 17.72 11 58.45 4.4 97.32-34.37 32.06-85.06 48.73-100.48 53.26z"/>
      <circle cx="148.9" cy="100.64" r="26.62" fill="#F1616E"/>
    </g>
    <path fill="#1869A5" fill-rule="nonzero" d="M203.38 191h37.13v-33.76h-37.1V191zm-43.88 0h37.13v-33.76H159.5V191zm-43.9 0h37.13v-33.76H115.6V191zm-43.88 0h37.15v-33.76H71.75V191h-.03zm-43.88 0h37.14v-33.76H27.85V191zm43.9-40.52h37.13v-33.75H71.75v33.75zm43.88 0h37.13v-33.75h-37.13v33.75zm43.88 0h37.13v-33.75H159.5v33.75zm0-40.5h37.13V76.22H159.5v33.76zm192.57 61.33c-8.1-5.4-26.74-7.4-41.08-4.7-1.9-13.5-9.4-25.2-23.1-35.8l-7.9-5.2-5.3 7.9c-6.8 10.2-10.1 24.2-9 37.7.5 4.8 2 13.3 6.9 20.7-4.9 2.7-14.5 6.3-27.2 6H1.4l-.5 2.8c-2.3 13.6-2.24 55.8 25.2 88.3 20.83 24.5 52.1 37 92.9 37 88.44 0 153.88-40.7 184.52-114.7 12.05.3 38 .1 51.32-25.4.35-.6 1.15-2.1 3.47-6.9l1.3-2.6-7.5-5z"/>
    <path fill="#000" fill-rule="nonzero" d="M2559.34 269.98c-3.73 8.63-8.15 16.57-13.28 23.87-6.98 9.95-12.7 16.85-17.1 20.67-6.83 6.28-14.15 9.5-21.98 9.68-5.63 0-12.4-1.6-20.3-4.85-7.93-3.23-15.2-4.83-21.87-4.83-6.9 0-14.4 1.6-22.4 4.83-8 3.25-14.5 4.94-19.4 5.1-7.5.33-15-2.98-22.4-9.93-4.7-4.16-10.7-11.3-17.9-21.4-7.6-10.8-13.9-23.3-18.9-37.58-5.3-15.4-7.9-30.33-7.9-44.78 0-16.55 3.6-30.83 10.8-42.8 5.6-9.6 13.1-17.17 22.5-22.74 9.4-5.56 19.5-8.4 30.4-8.58 6 0 13.8 1.85 23.5 5.47 9.7 3.7 15.9 5.5 18.7 5.5 2 0 9-2.1 20.7-6.4 11.1-4 20.5-5.6 28.2-5 20.8 1.7 36.4 9.9 46.8 24.7-18.6 11.3-27.7 27.1-27.6 47.3.2 15.8 5.9 28.9 17.2 39.3 5.1 4.9 10.8 8.6 17.1 11.3-1.4 4-2.8 7.8-4.4 11.5zM2511.7 82.46c0 12.35-4.52 23.9-13.52 34.56-10.85 12.7-23.98 20.02-38.22 18.86-.18-1.48-.28-3.04-.28-4.68 0-11.85 5.16-24.54 14.33-34.92 4.6-5.25 10.4-9.62 17.5-13.1 7.1-3.43 13.7-5.33 20-5.66.2 1.65.3 3.3.3 4.94zm304.76 55.62c0 .83-.83.83-.83.83h-.82c-.8 0-.8-.8-1.6-1.6 0 0-.8-.8-.8-1.6s0-.8.8-.8l1.7.9c.9.8 1.7 1.7 1.7 2.5m-14.8-8.2c0-4.1-1.6-6.5-4.1-6.5 0 0 0 .8-.8.8v1.6h2.5c0 1.7.8 2.5.8 4.1h1.7m28.8-4.1c1.6 0 2.5 1.7 3.3 4.1h1.7c-.8-.8-.8-1.6-.8-2.4 0-.8 0-1.7-.8-2.5s-1.6-1.6-2.5-1.6c0 0-.8.9-1.6.9 0 .8.9.8.9 1.6m-24.7 13.2c-.8 0-.8 0-.8-.8s0-1.6.9-2.5c1.7 0 2.5-.8 2.5-.8.9 0 .9.9.9.9 0 .8-.8 1.7-2.5 3.3h-.8m-9-.8c-3.3-1.6-4.1-4.1-4.1-8.2 0-2.5 0-4.1 1.6-5.7.9-1.6 2.5-2.4 4.1-2.4 1.7 0 2.5.9 4.1 2.5.9 2.5 1.7 5 1.7 7.4v1.7h.8v-.9c.9 0 .9-1.7.9-5 0-2.5 0-4.9-1.7-7.4-1.6-2.5-3.3-4.1-6.6-4.1-2.4 0-4.9 1.7-5.7 4.1-1.6 3.3-2 5.8-2 9.9 0 3.3 1.2 6.6 4.5 9.9.8-.8 1.6-.8 2.5-1.7M2900 254.5c.8 0 .8-.3.8-1.04 0-1.8-.8-3.93-3.3-6.3-2.4-2.5-6.5-4.04-11.5-4.7-.8-.1-1.6-.1-1.6-.1-.8-.14-.8-.14-1.6-.14-.85-.06-2.5-.2-3.3-.4 2.45-7.64 3.3-14.4 3.3-20.3 0-8.2-1.67-13.95-4.96-18.9-3.3-4.9-6.6-7.4-10.7-8.2-.8.8-.8.8-.8 1.64 4.1 1.6 8.2 4.9 10.7 9.85 2.5 5.8 3.3 10.7 3.3 16.5 0 4.6-.8 11.4-4.1 20.2-3.3 1.3-6.6 4.4-9.1 9.2 0 .7 0 1.2.8 1.2 0 0 .8-.7 1.66-2.1 1.62-1.4 2.45-2.8 4.1-4.2 2.46-1.4 4.1-2.1 6.6-2.1 4.1 0 8.2.6 10.7 1.8 3.3 1.1 4.9 2.2 5.74 3.5.8 1.2 1.6 2.4 2.4 3.5 0 1 .8 1.5.8 1.5m-76-119.6c-.8-.8-.8-2.5-.8-4.1 0-3.3 0-4.9 1.65-7.4 1.6-1.6 3.3-2.4 4.9-2.4 2.4 0 4.1 1.7 5.7 3.3.8 2.5 1.6 4.1 1.6 6.6 0 4.1-1.7 6.6-5 7.4 0 0 .8.9 1.6.9 1.6 0 2.4.8 4.1 1.7.8-4.9 1.6-8.2 1.6-12.3 0-4.9-.8-8.2-2.5-10.7-2.5-2.4-5-3.2-8.3-3.2-2.5 0-5 .8-7.4 2.5-1.7 2.5-2.5 4.1-2.5 6.6 0 4.1.8 7.4 2.4 10.7.8 0 1.7.8 2.5.8m9.9 13.2c-10.7 7.4-19 10.7-25.5 10.7-5.8 0-11.5-2.4-16.5-6.5.8 1.7 1.6 3.3 2.4 4.1l4.9 5c3.3 3.3 7.4 4.9 11.5 4.9 5.8 0 12.4-3.3 20.6-9l7.4-4.95c1.6-1.6 3.3-3.3 3.3-5.7 0-.8 0-1.62-.9-1.62-.8-1.6-4.9-4.1-13.2-6.5-7.4-3.23-13.2-4.9-16.5-4.9-2.5 0-6.6 1.68-12.3 4.96-5 3.3-8.3 6.6-8.3 9.9 0 0 .82.8 1.64 2.46 4.9 4.1 9.85 6.56 14.8 6.56 6.6 0 14.8-3.3 25.5-11.5v1.6c.8 0 .8.8.8.8m18.9 166.17c3.3 6.2 9.06 9.3 15.64 9.3 1.6 0 3.3-.3 4.9-.8 1.7-.36 3.3-.9 4.1-1.6.86-.55 1.7-1.1 2.5-1.8 1.66-.56 1.66-1 2.5-1.4l14-12.1c3.3-2.6 6.55-4.9 10.7-6.9 3.25-1.96 6.54-3.3 8.2-4 2.45-.66 4.1-1.65 5.74-2.96.8-1.24 1.6-2.8 1.6-4.77 0-2.4-1.6-4.2-3.3-5.5-1.6-1.3-3.2-2.2-4.9-2.8-1.6-.6-3.3-1.9-5.7-4.1-1.7-2.13-3.3-5.1-4.1-9l-.9-4.8c-.8-2.2-.8-3.8-1.68-4.7 0-.25 0-.33-.8-.33s-2.5.7-3.3 2.1c-1.63 1.4-3.3 3-4.9 4.6-.8 1.7-3.3 3.1-5 4.5-2.5 1.4-4.94 2.2-6.6 2.2-6.56 0-9.85-1.8-12.3-5.33-1.64-2.6-2.46-5.62-3.3-9.1-1.6-1.4-2.45-2.1-4.1-2.1-4.1 0-5.75 4.3-5.75 12.9V292c0 .8-.8 2.4-.8 4.97-.8 2.6-.8 5.5-.8 8.7l-1.67 9.1v.2m-92.8 2.8c9.94 3.66 16 5.5 18.24 5.5 5.8 0 10.6-2.5 14.5-7.5.8-1.6.8-3.5.8-5.6 0-7.8-4.7-17.6-14-29.52l-5.6-7.5c-1.2-1.52-2.6-3.9-4.4-7.1-1.7-3.2-3.3-5.7-4.5-7.4-1-1.9-2.8-3.8-5-5.7-2.1-1.9-4.6-3.1-7.3-3.77-3.5.7-5.85 1.8-7 3.4-1.15 1.57-1.8 3.3-2 5.1-.2 1.74-.7 2.9-1.54 3.46-.82.5-2.22.9-4.1 1.35h-4.5c-4.3 0-7.3.5-8.83 1.3-2 2.4-3.1 5.1-3.1 8 0 1.3.3 3.5 1 6.7.7 3 1 5.5 1 7.2 0 3.3-1 6.7-3.1 10.1-2.1 3.5-3.1 6.2-3.1 8 .8 3.2 6.2 5.4 16.2 6.7 7.6 1.2 16.4 3.6 26.4 7.2zm5.5-101.23c2.96-7.4 5.9-12.3 8.8-15.6-.17-.8-.6-.8-1.24-.8l-.86-.86c-2.4 2.5-5.27 8.26-8.7 16.5-3.48 7.4-5.3 14.2-5.3 19.2 0 3.7.9 6.9 2.6 9.7 1.8 2.7 6.2 6.6 13.1 11.6l8.7 5.63c9.3 8.1 14.22 13.7 14.22 17 0 1.7-.9 3.5-3.3 5.4-1.7 2-3.9 3-5.8 3-.1 0-.2.2-.2.6 0 .1.8 1.8 2.52 5 3.5 4.7 10.9 7 20.7 7 18.1 0 32.1-7.4 42.8-22.2 0-4.1 0-6.7-.8-7.7v-4c0-5.3.8-9.3 2.43-12 1.7-2.6 3.3-3.8 5.8-3.8 1.7 0 3.3.6 5 1.8.8-6.3.8-11.8.8-16.7 0-7.5 0-13.6-1.6-19.4-.8-4.9-2.5-9-4.1-12.3l-4.9-7.4c-1.64-2.4-2.5-4.9-4.1-7.4-.83-3.3-1.65-5.7-1.65-9.8-2.5-4.2-4.2-8.3-6.6-12.4-1.7-4.1-3.3-8.3-5-11.5l-7.4 5.7c-8.2 5.7-14.8 8.2-20.56 8.2-4.95 0-9.06-.8-11.5-4.1l-4.96-4.2c0 2.5-.8 5.8-2.5 9l-5.2 9.8c-2.3 5.7-3.5 9-3.73 11.5-.33 1.6-.6 3.3-.74 3.3l-6.2 12.3c-6.7 12.3-10 23.7-10 33.2 0 1.9.1 3.8.5 5.8-3.7-2.6-5.6-6.1-5.6-10.7 0-5.7 1.5-11.9 4.5-19.3zm29.7 101.4c-4.13 4.7-8.73 7.3-15.15 7.3-4 0-10.4-1.6-18.9-4.7-8.64-2.94-16.3-5.2-23-6.7-.6-.2-2.1-.5-4.5-.87-2.3-.4-4.4-.74-6.3-1.12-1.7-.3-3.7-.9-5.8-1.6-2.04-.64-3.7-1.5-4.9-2.52-1.1-1-1.7-2.2-1.7-3.5 0-1.3.3-2.7.9-4.2.53-.9 1.1-1.8 1.7-2.6.6-.9 1.1-1.7 1.4-2.5.5-.75.83-1.5 1.16-2.3.3-.75.63-1.5.8-2.4.16-.8.33-1.64.33-2.47 0-.8-.3-3.24-1-7.6-.66-4.3-1-7-1-8.13 0-3.6.8-6.5 2.7-8.56 1.8-2.03 3.53-3.1 5.34-3.1h9.5c.8 0 1.9-.4 3.67-1.4.6-1.3 1.1-2.4 1.4-3.4.4-1 .6-1.7.8-2.04.1-.47.3-.96.5-1.4.3-.55.7-1.2 1.3-1.87-.7-.8-1-1.9-1-3.2 0-.9 0-1.73.17-2.23 0-2.95 1.4-7.14 4.36-12.65l2.9-5.2c2.4-4.5 4.2-7.77 5.5-11.06 1.4-3.3 2.9-8.23 4.5-14.8 1.3-5.77 4.45-11.53 9.4-17.3l6.15-7.4c4.3-4.9 7.1-9 8.64-12.3 1.6-3.3 2.4-7.4 2.4-10.7 0-1.63-.4-6.56-1.3-14.8-.87-8.2-1.3-16.43-1.3-23.83 0-5.8.5-9.9 1.54-14s3-8.3 5.8-11.5c2.5-3.3 5.7-6.6 10.7-8.3 4.9-1.7 10.7-2.5 17.2-2.5 2.5 0 4.94 0 7.4.8 2.5 0 5.76.8 9.9 2.5 3.3 1.6 6.55 3.3 9 5.7 3.3 2.4 5.77 6.5 8.2 10.7 1.68 4.9 3.3 9.8 4.1 16.4.8 4.1.8 8.2 1.67 14 0 4.9.84 8.2.84 10.7.82 2.4.82 5.7 1.64 9.8.8 3.3 1.6 6.6 3.3 9.1 1.6 3.3 3.3 6.6 5.7 9.9 2.5 4.1 5.8 8.2 9.1 13.2 7.4 8.2 13.2 17.2 16.48 26.3 4.1 8.2 6.6 18.9 6.6 30.3 0 5.7-.8 11.2-2.5 16.5 1.64 0 2.5.7 3.3 1.8.8 1.2 1.6 3.6 2.46 7.5l.8 6.1c.8 1.8 1.64 3.5 4.1 5 1.65 1.5 3.3 2.7 5.8 3.7 1.6.8 4.1 2 5.7 3.4 1.64 1.7 2.46 3.4 2.46 5.2 0 2.8-.8 4.9-2.4 6.3-1.7 1.6-3.3 2.8-5.8 3.5-1.66.8-4.9 2.5-9.88 4.8-4.1 2.4-8.2 5.4-12.3 8.9l-8.3 7c-3.3 3.2-6.6 5.5-9.04 6.9-2.43 1.5-5.7 2.2-9 2.2l-5.77-.7c-6.5-1.7-10.7-5-13.1-10-13.2-1.6-23.9-2.3-30.45-2.3-10.7 0-18.9 1.4-24.7 4.3z"/>
    <path fill="#00ADEF" fill-rule="nonzero" d="M3075 111.23l101.38-13.8.05 97.8-101.34.57-.1-84.57zm101.34 95.26l.07 97.8-101.3-14v-84.6l101.3.6zm12.3-110.9l134.4-19.6v117.9l-134.4 1V95.6zm134.44 111.8l-.03 117.4-134.43-19-.18-98.7 134.64.2z"/>
    <path fill="#E25A1C" d="M2013.6 202.65l-.8-1.75c-6-11.4-11.98-22.78-18.02-34.14-.6-1.14-.53-1.82.3-2.8 9.53-11.12 19-22.3 28.5-33.45.32-.3.62-.8.75-1.5l-8.32 2.2c-11.5 3.1-23 6.1-34.5 9.2-1 .3-1.5 0-2.1-.9-6.5-10.9-13.1-21.8-19.6-32.7-.3-.5-.7-1.1-1.4-1.6l-1.5 8.8-5.5 30.8c-.2 1.1-.4 2.2-.5 3.4-.1 1.1-.6 1.5-1.6 1.8-13.5 4.3-27.1 8.6-40.6 12.9-.6.2-1.2.5-1.8 1 11.1 4.4 22.2 8.8 33.5 13.3-.4.3-.7.6-1 .8l-20.7 13.5c-.8.6-1.5.6-2.4.2l-24.9-11.1c-3.7-1.6-7-3.8-9.6-7-5.9-7.2-4.7-15.4 3.2-20.4 2.6-1.6 5.5-2.9 8.4-3.8 13.3-4.4 26.6-8.5 40-12.7 1.2-.4 1.7-.9 1.9-2.1 1.8-10.3 3.6-20.5 5.5-30.8 1-5.5 1.5-11.1 4.2-16.1 1-1.9 2.3-3.8 3.7-5.4 5.3-5.9 12.7-6.1 18.3-.5 1.9 1.9 3.5 4.1 4.9 6.4 6.2 10 12.3 20.2 18.3 30.3.7 1.2 1.4 1.4 2.7 1.1 14.9-4 29.7-7.9 44.6-11.8 3.1-.8 6.2-1.1 9.3-.5 6.9 1.3 9.9 6.5 7.5 13.1-1 3.1-2.9 5.6-4.9 8l-31.2 36.6c-.8 1-.8 1.7-.3 2.8 6.3 11.7 12.4 23.5 18.6 35.2 1.5 2.8 2.6 5.7 2.7 9 .1 7.4-5.3 13.4-12.6 14.4-4 .6-7.8-.2-11.7-1.4-9.3-2.9-18.6-5.7-28-8.5-.8-.3-1.2-.6-1.3-1.5-1-6.6-2.2-13.1-3.4-19.7 0-.2.1-.4.1-.8l32.2 8.9"/>
    <path fill="#3C3A3E" d="M1995.44 298.38c-8.4-.02-16.8-.06-25.2-.02-1.12 0-1.75-.32-2.37-1.27-9.95-15.2-19.94-30.3-29.93-45.5l-1.22-1.8-6.36 48.3h-22c.25-2.2.48-4.2.75-6.3l6.5-49.2c2.1-15.7 4.1-31.4 6.2-47.1.1-.5.4-1.1.8-1.3l22.8-14.7c.1-.1.3-.1.7-.2l-6.8 52.3.3.2 36.1-39.9 1 5.5c.9 5 1.7 10 2.6 14.9.2 1 0 1.6-.7 2.3-7.7 8-15.4 16.1-23.1 24.2l-1 1.1.7 1.1 39.8 55.8.9.9v.3m-261-48.3c-.3-1.7-.5-4.3-1.3-6.6-3.7-11.4-15.3-17.6-27.4-14.8-13.2 3.1-22.7 13.5-24 27-1 10 4.4 19.6 14.4 23.2 8.1 2.9 15.8 1.6 23.1-2.7 9.6-5.8 14.8-14.3 15.4-26.3zm-58.2 42.3c-.6 4.9-1.3 9.5-1.9 14.1l-2.4 18.4c0 .7-.3 1-1 1-6.1-.1-12.1 0-18.1-.1-.1 0-.2-.1-.6-.2l1.1-8.7 4.1-30.6c1.6-11.7 2.8-23.3 4.8-34.9 3.5-20.5 20.9-38.1 41.2-42.5 11.8-2.6 23.1-1.4 33.5 5.2 10.3 6.6 16.2 16.2 17.6 28.3 1.9 17.1-4.4 31.3-16.5 43-8 7.7-17.5 12.6-28.5 14.3-11.4 1.7-22-.2-31.6-6.9-.4-.3-.7-.5-1.3-.9zm-9.8-97.2l-19.9 14.8c-1.1-1.7-2-3.4-3.1-4.9-2.9-4-6.4-7-11.5-7.3-4.2-.3-7.9 1.1-10.8 4.2-2.6 2.9-2.9 6.9-.5 10.1 2.7 3.5 5.6 6.8 8.6 10 5 5.4 10.2 10.5 15.1 16 4.5 4.9 8.1 10.4 9.2 17.2 1.3 8-.2 15.6-4 22.7-7 13-18 20.5-32.6 22.9-6.4 1-12.8.8-19.1-1-8.3-2.5-14.1-7.9-17.8-15.6-1.3-2.8-2.3-5.6-3.5-8.6 7.3-3.9 14.3-7.7 21.5-11.5.3.6.5 1.1.7 1.6 1.2 2.4 2.2 5 3.8 7.3 4.5 6.7 11.8 8.7 19.2 5.4 1.88-.9 3.7-2.1 5.2-3.4 4.7-4.3 5.6-10.1 2.1-15.4-2-3.1-4.52-5.8-7-8.6-5.9-6.5-12-12.8-17.72-19.5-4-4.6-6.66-9.9-7.5-16.1-.94-6.7.4-13 3.9-18.7 8.66-14 21.26-21.3 37.9-20.7 9.5.3 17.07 4.8 22.94 12.1 1.73 2.2 3.4 4.5 5.14 6.8m161 75.2c-1.1 8.5-2.2 16.5-3.25 24.5-.1.4-.4 1-.7 1.1-16.4 7.6-38 6.6-51.5-8.7-7.3-8.3-10.3-18-9.8-28.9 1-25.2 21.8-47.1 46.8-50.1 14.5-1.8 27.3 2.1 37.1 13.4 6.7 7.7 9.8 16.9 9.35 27-.3 6.7-1.3 13.4-2.2 20-1.15 9.5-2.44 18.9-3.7 28.33 0 .3-.1.63-.2 1.1h-20l.77-6.4c1.4-10.9 3-21.8 4.2-32.8.76-6.8.27-13.5-2.84-19.8-3.32-6.7-8.87-10.3-16.17-11.05-15.1-1.6-29.5 8.9-32.7 23.73-2.16 9.8 1.2 19.2 9 24.4 7.6 5.1 15.8 5.1 24.1 1.8 4.2-1.67 7.8-4.3 11.2-7.86m82.6-60.2l-2.66 20.4h-12.3c-3.3 0-6.3 2.12-7.3 5.2-.4 1.2-.5 2.5-.7 3.73l-6.1 46.8-1.5 11.9H1859l1.1-8.8 4-30.4c1.2-8.7 2.2-17.5 3.6-26.2 1.84-11.7 13.5-22.1 25.3-22.6 5.62-.2 11.3 0 17.1 0"/>
    <path fill="#3C3A3E" fill-rule="nonzero" d="M2019.52 298.25v-8.62h-.05l-3.38 8.62h-1.1l-3.4-8.62h-.1v8.62h-1.7v-10.33h2.6l3.1 7.85 3-7.85h2.6v10.33h-1.7zm-15-8.95v8.95h-1.7v-8.95h-3.23v-1.38h8.1v1.38h-3.3zM1693.9 180.54h5.08l-1.2-7.67-3.87 7.67zm5.87 4.95h-8.43l-2.67 5.2h-5.97l13.16-24.6h5.76l4.48 24.6h-5.53l-.8-5.3zm30.15-14.4h-3l-1.02 5.6h3c1.8 0 3.26-1.2 3.26-3.5 0-1.5-.9-2.3-2.24-2.3zm-7.27-5h7.88c4.13 0 7.02 2.4 7.02 6.7 0 5.3-3.76 8.9-9.12 8.9h-3.4l-1.6 9h-5.12l4.4-24.6zm32.35 14.4h5.05l-1.2-7.7-3.86 7.6zm5.85 4.9h-8.43l-2.67 5.2h-5.97l13.16-24.6h5.75l4.4 24.6h-5.6l-.8-5.3zm33.3 4.3c-1.73.8-3.64 1.2-5.56 1.2-6.6 0-10.6-4.9-10.6-11 0-7.8 6.5-14.4 14.4-14.4 1.9 0 3.7.4 5.1 1.2l-.7 5.9c-1.1-1.2-2.9-2-5-2-4.5 0-8.5 4-8.5 8.7 0 3.6 2.2 6.4 5.8 6.4 2.1 0 4.2-.9 5.6-2l-.7 5.8m31.4-9.1h-10.7l-1.8 9.9h-5.2l4.3-24.6h5.1l-1.8 9.7h10.7l1.7-9.7h5.1l-4.4 24.6h-5.2l1.7-9.9m18.8 9.9l4.3-24.6h13.7l-.9 4.9h-8.5l-.9 4.7h7.8l-.8 4.9h-7.8l-.9 4.9h8.5l-.9 4.9H1844"/>
  </g>
</svg>
