<svg xmlns="http://www.w3.org/2000/svg" viewBox="0 0 207 64">
  <g fill="none" fill-rule="evenodd">
    <path class="top" d="M0 16L28 0l28 16-28 16"/>
    <path class="left" d="M0 16l28 16v32L0 48"/>
    <path class="right" d="M28 32l28-16v32L28 64"/>
    <path fill="#FFF" class="n" d="M16 49.997V29l7-4 9 5V19l8-5v21l-7 4-9.005-5L24 45"/>
    <path fill="#000" class="text" d="M90.048 48h8.064V16.032h-5.904V40.32L80.064 16.032H72V48h5.904V23.76L90.048 48zm32.82-8.736c0 4.8-2.16 9.216-10.176 9.216s-10.176-4.416-10.176-9.216V33.36c0-4.8 2.16-9.216 10.176-9.216s10.176 4.416 10.176 9.216v5.904zm-5.856-6.096c0-2.64-1.2-4.032-4.32-4.032s-4.32 1.392-4.32 4.032v6.288c0 2.64 1.2 4.032 4.32 4.032s4.32-1.392 4.32-4.032v-6.288zM146.712 48V31.776c1.824-1.056 4.656-1.968 6.096-1.968 1.344 0 1.872.624 1.872 1.872V48h5.856V31.056c0-4.176-1.392-6.912-5.28-6.912-2.832 0-6.576 1.056-9.408 2.496-.768-1.584-2.16-2.496-4.416-2.496-2.736 0-6.432 1.008-9.36 2.448l-.576-1.968h-4.464V48h5.856V31.776c2.112-1.104 4.656-1.968 6.096-1.968 1.344 0 1.872.624 1.872 1.872V48h5.856zm36.132-15.408V48h-4.8l-.432-1.584c-2.112 1.392-4.608 2.064-6.96 2.064-4.272 0-6.096-2.928-6.096-6.96 0-4.752 2.064-6.576 6.816-6.576h5.616v-2.448c0-2.592-.72-3.504-4.464-3.504-2.112 0-4.416.288-6.48.72l-.72-4.464c2.208-.672 5.424-1.104 8.016-1.104 7.344 0 9.504 2.592 9.504 8.448zm-5.856 10.032v-3.456h-4.32c-1.92 0-2.448.528-2.448 2.304 0 1.632.528 2.352 2.352 2.352 1.728 0 3.312-.576 4.416-1.2zm9.636-2.256V32.4c0-5.184 2.304-8.256 7.728-8.256 2.064 0 4.416.288 6.24.672v-9.744l5.856-.816V48h-4.656l-.576-1.968c-2.064 1.488-4.464 2.448-7.392 2.448-4.704 0-7.2-2.784-7.2-8.112zm13.968 1.008V29.76c-1.536-.336-3.504-.624-5.184-.624-2.112 0-2.928 1.008-2.928 3.12v8.256c0 1.92.72 2.976 2.88 2.976 1.92 0 3.984-.96 5.232-2.112z"/>
  </g>
</svg>
