<svg fill="none" height="334" viewBox="0 0 592 334" width="592" xmlns="http://www.w3.org/2000/svg" xmlns:xlink="http://www.w3.org/1999/xlink"><clipPath id="a"><path d="m142 199h19.5v22.3h-19.5z"/></clipPath><clipPath id="b"><path d="m286 199h19.5v22.3h-19.5z"/></clipPath><clipPath id="c"><path d="m430 199h19.5v22.3h-19.5z"/></clipPath><path d="m0 0h592v334h-592z" fill="#fff"/><rect fill="#fff" height="46" rx="2" transform="matrix(-1 0 0 1 463 230)" width="46"/><rect height="47.5" rx="2.75" stroke="#000" stroke-opacity=".16" stroke-width="1.5" transform="matrix(-1 0 0 1 464.5 230)" width="47.5" x=".75" y="-.75"/><path d="m424 237h8v8h-8z" fill="#60dea9"/><path d="m424 249h8v8h-8z" fill="#00ca8e"/><path d="m424 261h8v8h-8z" fill="#60dea9"/><path d="m436 237h8v8h-8z" fill="#00ca8e"/><path d="m436 249h8v8h-8z" fill="#60dea9"/><path d="m448 237h8v8h-8z" fill="#60dea9"/><path d="m448 249h8v8h-8z" fill="#60dea9"/><rect fill="#fff" height="46" rx="2" transform="matrix(-1 0 0 1 319 230)" width="46"/><rect height="47.5" rx="2.75" stroke="#000" stroke-opacity=".16" stroke-width="1.5" transform="matrix(-1 0 0 1 320.5 230)" width="47.5" x=".75" y="-.75"/><path d="m280 237h8v8h-8z" fill="#00ca8e"/><path d="m280 249h8v8h-8z" fill="#60dea9"/><path d="m292 237h8v8h-8z" fill="#60dea9"/><path d="m292 249h8v8h-8z" fill="#00ca8e"/><path d="m304 237h8v8h-8z" fill="#60dea9"/><rect fill="#fff" height="46" rx="2" transform="matrix(-1 0 0 1 175 230)" width="46"/><rect height="47.5" rx="2.75" stroke="#000" stroke-opacity=".16" stroke-width="1.5" transform="matrix(-1 0 0 1 176.5 230)" width="47.5" x=".75" y="-.75"/><path d="m136 237h8v8h-8z" fill="#60dea9"/><path d="m136 249h8v8h-8z" fill="#60dea9"/><path d="m136 261h8v8h-8z" fill="#00ca8e"/><path d="m148 237h8v8h-8z" fill="#00ca8e"/><path d="m148 249h8v8h-8z" fill="#60dea9"/><path d="m148 261h8v8h-8z" fill="#60dea9"/><path d="m160 237h8v8h-8z" fill="#60dea9"/><path d="m160 249h8v8h-8z" fill="#00ca8e"/><g stroke="#343536" stroke-linejoin="round" stroke-width="2"><path d="m440 188v-16c0-4.418-3.582-8-8-8h-136" stroke-dasharray="4 2"/><path d="m152 188v-16c0-4.418 3.582-8 8-8h136" stroke-dasharray="4 2"/><path d="m152 188c-1.657 0-3-1.343-3-3s1.343-3 3-3 3 1.343 3 3-1.343 3-3 3z" fill="#fff" stroke-linecap="round"/><path d="m440 188c-1.657 0-3-1.343-3-3s1.343-3 3-3 3 1.343 3 3-1.343 3-3 3z" fill="#fff" stroke-linecap="round"/><path d="m296 136-2 52" stroke-dasharray="4 2"/><path d="m296 136c1.657 0 3 1.343 3 3s-1.343 3-3 3-3-1.343-3-3 1.343-3 3-3z" fill="#fff" stroke-linecap="round"/><path d="m296 188c-1.657 0-3-1.343-3-3s1.343-3 3-3 3 1.343 3 3-1.343 3-3 3z" fill="#fff" stroke-linecap="round"/></g><path d="m254.706 97 2.175.015v-10.515h-1.575v8.28l-4.875-8.28h-2.025v10.5h1.575v-8.025zm7.565.075c2.025 0 3.615-1.59 3.615-3.825 0-2.265-1.59-3.855-3.615-3.855-2.04 0-3.63 1.59-3.63 3.855 0 2.235 1.59 3.825 3.63 3.825zm-.015-1.485c-1.29 0-2.01-1.02-2.01-2.34 0-1.35.735-2.355 2.025-2.355 1.305 0 2.04 1.02 2.04 2.37 0 1.32-.735 2.325-2.055 2.325zm5.242 1.41h1.59v-3.78c0-1.545.735-2.49 1.725-2.49.84 0 1.485.525 1.485 1.845v4.425h1.725v-3.78c0-1.545.735-2.49 1.725-2.49.84 0 1.485.525 1.485 1.845v4.425h1.725v-4.605c0-2.535-1.845-3.09-2.88-3.09-1.14 0-1.98.585-2.475 1.425-.87-1.515-2.25-1.425-2.415-1.425-1.215 0-1.815.735-2.1 1.14v-.945h-1.59zm15.528.15c.795 0 1.68-.345 2.22-1.035v.885h1.665v-5.07c0-1.485-1.065-2.61-2.97-2.61-1.83 0-3.045 1.185-3.18 2.685l1.68-.015c.075-.555.525-1.215 1.575-1.215.765 0 1.23.42 1.23.9 0 .78-1.065.84-2.025.93-.855.075-1.575.285-2.07.675-.465.375-.66.96-.66 1.605 0 1.44 1.2 2.265 2.535 2.265zm.27-1.38c-.69-.045-1.08-.465-1.08-.99 0-.585.48-.9 1.305-.975.735-.06 1.41-.165 1.74-.345l-.015.675c-.03 1.185-1.125 1.68-1.95 1.635zm8.507 1.395c1.32 0 2.175-.795 2.385-1.2v1.035h1.515v-10.5h-1.515v4.065c-.405-.555-1.17-1.14-2.43-1.14-1.665 0-3.39 1.32-3.39 3.87 0 2.595 1.86 3.87 3.435 3.87zm.3-1.485c-1.2 0-2.04-1.035-2.04-2.49 0-1.35.84-2.31 2.04-2.31 1.215 0 2.07 1.02 2.07 2.46 0 1.365-.855 2.34-2.07 2.34zm13.984 1.425c2.25 0 3.885-1.2 3.885-3.12 0-1.515-.885-2.745-3.9-3.09-1.29-.15-2.13-.645-2.13-1.47 0-.66.63-1.395 1.86-1.395 1.14 0 2.1.615 2.175 1.71h1.77c-.09-2.07-1.56-3.33-3.93-3.33-2.175 0-3.75 1.38-3.75 3.075 0 1.41 1.035 2.685 4.11 3.015 1.425.15 1.92.675 1.92 1.47 0 .75-.705 1.575-2.01 1.575-1.365 0-2.19-.675-2.445-1.785h-1.86c.165 2.25 2.22 3.345 4.305 3.345zm8.666.06c1.8 0 3-1.065 3.225-2.535h-1.5c-.345.99-1.245 1.155-1.725 1.155-1.185 0-1.965-.75-1.965-1.98v-.015h5.31c.18-2.475-1.08-4.38-3.39-4.38-2.13 0-3.57 1.575-3.57 3.9 0 2.415 1.425 3.855 3.615 3.855zm-1.92-4.77c.06-.945.825-1.605 1.83-1.605s1.71.66 1.755 1.605zm6.898 4.605h1.545v-3.795c0-1.845 1.17-2.175 2.19-2.16h.255v-1.665h-.345c-1.425 0-1.95.75-2.1 1.035v-.915h-1.545zm7.547 0h1.275l3.09-7.5h-1.74l-1.98 5.28-2.01-5.28h-1.71zm8.472.165c1.8 0 3-1.065 3.225-2.535h-1.5c-.345.99-1.245 1.155-1.725 1.155-1.185 0-1.965-.75-1.965-1.98v-.015h5.31c.18-2.475-1.08-4.38-3.39-4.38-2.13 0-3.57 1.575-3.57 3.9 0 2.415 1.425 3.855 3.615 3.855zm-1.92-4.77c.06-.945.825-1.605 1.83-1.605s1.71.66 1.755 1.605zm6.898 4.605h1.545v-3.795c0-1.845 1.17-2.175 2.19-2.16h.255v-1.665h-.345c-1.425 0-1.95.75-2.1 1.035v-.915h-1.545z" fill="#000"/><path d="m196.803 114.602v2.543c.43-.012.766-.131 1.008-.358.242-.226.363-.535.363-.926 0-.363-.109-.644-.328-.843-.219-.204-.566-.342-1.043-.416zm-.586-1.114v-2.42c-.406.016-.724.133-.955.352-.226.219-.34.512-.34.879 0 .336.106.601.317.797.215.195.541.326.978.392zm.586 6.276h-.586l-.006-1.764c-.398-.02-.795-.074-1.189-.164-.391-.09-.777-.215-1.16-.375v-1.055c.39.242.783.428 1.177.557.399.129.791.197 1.178.205v-2.684c-.781-.121-1.369-.359-1.763-.714-.395-.356-.592-.827-.592-1.413 0-.613.205-1.101.615-1.464.414-.368.994-.579 1.74-.633v-1.377h.586l.006 1.377c.309.019.621.058.937.117.317.059.639.139.967.24v1.014c-.332-.168-.656-.297-.972-.387-.313-.094-.625-.148-.938-.164v2.525c.805.122 1.418.372 1.84.75.422.379.633.87.633 1.471 0 .602-.229 1.104-.686 1.506-.453.402-1.047.621-1.781.656zm12.986-4.131h2.062v2.367h-2.062zm10.31-6.381h1.113l-4.605 9.861h-1.12zm8.33 4.682v4.066h-1.084v-4.066c0-.59-.104-1.024-.311-1.301-.207-.278-.531-.416-.973-.416-.504 0-.892.179-1.166.539-.269.355-.404.867-.404 1.535v3.709h-1.078v-6.562h1.078v.984c.191-.375.451-.658.779-.85.328-.195.717-.293 1.166-.293.668 0 1.166.221 1.494.662.332.438.499 1.102.499 1.993zm4.831-1.741c-.547 0-.961.213-1.242.639s-.422 1.057-.422 1.893c0 .832.141 1.463.422 1.892.281.426.695.639 1.242.639.551 0 .967-.213 1.248-.639.281-.429.422-1.06.422-1.892 0-.836-.141-1.467-.422-1.893s-.697-.639-1.248-.639zm0-.914c.91 0 1.606.295 2.086.885.484.59.727 1.443.727 2.561 0 1.121-.241 1.976-.721 2.566-.481.586-1.178.879-2.092.879-.91 0-1.605-.293-2.086-.879-.48-.59-.72-1.445-.72-2.566 0-1.118.24-1.971.72-2.561.481-.59 1.176-.885 2.086-.885zm7.732.826c.133-.281.301-.488.504-.621.207-.136.455-.205.744-.205.528 0 .899.205 1.114.616.218.406.328 1.173.328 2.302v3.803h-.985v-3.756c0-.926-.052-1.5-.158-1.723-.101-.226-.289-.339-.562-.339-.313 0-.528.121-.645.363-.113.238-.17.805-.17 1.699v3.756h-.984v-3.756c0-.937-.057-1.515-.17-1.734-.11-.219-.309-.328-.598-.328-.285 0-.484.121-.598.363-.109.238-.164.805-.164 1.699v3.756h-.978v-6.562h.978v.562c.129-.234.29-.412.481-.533.195-.125.416-.188.662-.188.297 0 .543.069.738.205.2.137.354.344.463.621zm7.533 2.596h-.357c-.629 0-1.104.111-1.424.334-.317.219-.475.547-.475.985 0 .394.119.701.358.919.238.219.568.329.99.329.594 0 1.06-.206 1.4-.616.34-.414.512-.984.516-1.711v-.24zm2.092-.445v3.744h-1.084v-.973c-.231.391-.522.68-.873.868-.348.183-.772.275-1.272.275-.668 0-1.201-.188-1.599-.563-.399-.378-.598-.884-.598-1.517 0-.731.244-1.285.732-1.664.493-.379 1.213-.569 2.163-.569h1.447v-.169c-.004-.524-.137-.903-.399-1.137-.261-.239-.679-.358-1.254-.358-.367 0-.738.053-1.113.159-.375.105-.74.259-1.096.462v-1.078c.399-.152.78-.265 1.143-.34.367-.078.723-.117 1.066-.117.543 0 1.006.08 1.389.241.387.16.699.4.938.72.148.196.254.438.316.727.063.285.094.715.094 1.289zm6.203-1.981v-3.392h1.078v9.117h-1.078v-.826c-.18.324-.42.572-.721.744-.297.168-.641.252-1.031.252-.793 0-1.418-.307-1.875-.92-.454-.617-.68-1.467-.68-2.549 0-1.066.228-1.902.685-2.508.457-.609 1.081-.914 1.87-.914.394 0 .742.086 1.043.258.3.168.537.414.709.738zm-3.17 2.45c0 .836.132 1.466.398 1.892s.658.639 1.178.639c.519 0 .914-.215 1.183-.645.274-.429.411-1.058.411-1.886 0-.832-.137-1.461-.411-1.887-.269-.43-.664-.645-1.183-.645-.52 0-.912.213-1.178.639s-.398 1.057-.398 1.893zm12.903-.961h7.225v1.002h-7.225zm13.597 3.902c-.289.168-.588.293-.896.375-.305.086-.617.129-.938.129-1.015 0-1.81-.305-2.384-.914-.571-.61-.856-1.453-.856-2.531 0-1.079.285-1.922.856-2.532.574-.609 1.369-.914 2.384-.914.317 0 .625.041.926.123s.604.209.908.381v1.131c-.285-.254-.572-.437-.861-.551-.285-.113-.609-.17-.973-.17-.675 0-1.195.219-1.558.657-.363.437-.545 1.062-.545 1.875 0 .808.182 1.433.545 1.875.367.437.887.656 1.558.656.375 0 .711-.057 1.008-.17.297-.117.572-.297.826-.539zm4.773-5.473c-.546 0-.96.213-1.242.639-.281.426-.422 1.057-.422 1.893 0 .832.141 1.463.422 1.892.282.426.696.639 1.242.639.551 0 .967-.213 1.248-.639.282-.429.422-1.06.422-1.892 0-.836-.14-1.467-.422-1.893-.281-.426-.697-.639-1.248-.639zm0-.914c.911 0 1.606.295 2.086.885.485.59.727 1.443.727 2.561 0 1.121-.24 1.976-.721 2.566-.48.586-1.177.879-2.092.879-.91 0-1.605-.293-2.085-.879-.481-.59-.721-1.445-.721-2.566 0-1.118.24-1.971.721-2.561.48-.59 1.175-.885 2.085-.885zm9.93 2.655v4.066h-1.084v-4.066c0-.59-.104-1.024-.311-1.301-.207-.278-.531-.416-.972-.416-.504 0-.893.179-1.166.539-.27.355-.405.867-.405 1.535v3.709h-1.078v-6.562h1.078v.984c.192-.375.451-.658.78-.85.328-.195.716-.293 1.166-.293.668 0 1.166.221 1.494.662.332.438.498 1.102.498 1.993zm7.451-5.051v.896h-1.225c-.387 0-.656.08-.809.241-.148.156-.222.435-.222.837v.581h2.256v.837h-2.256v5.725h-1.078v-5.725h-1.752v-.837h1.752v-.458c0-.718.164-1.248.492-1.587.332-.34.847-.51 1.547-.51zm3.003 2.578h2.76v5.701h2.138v.838h-5.355v-.838h2.139v-4.863h-1.682zm1.682-2.549h1.078v1.359h-1.078zm8.874 5.754c0-.809-.133-1.422-.398-1.84-.262-.422-.645-.633-1.149-.633-.527 0-.929.211-1.207.633-.277.418-.416 1.031-.416 1.84s.139 1.426.416 1.852c.282.421.688.632 1.219.632.496 0 .875-.212 1.137-.638.265-.426.398-1.041.398-1.846zm1.078 2.912c0 .984-.232 1.731-.697 2.238-.465.508-1.148.762-2.051.762-.297 0-.607-.027-.931-.082s-.649-.135-.973-.24v-1.067c.383.18.731.313 1.043.399.313.086.6.129.861.129.582 0 1.006-.158 1.272-.475.265-.316.398-.818.398-1.506v-.047-.732c-.172.367-.406.641-.703.82-.297.18-.658.27-1.084.27-.765 0-1.377-.307-1.834-.92s-.685-1.434-.685-2.461c0-1.031.228-1.854.685-2.467s1.069-.92 1.834-.92c.422 0 .779.084 1.072.252s.532.428.715.78v-.85h1.078zm1.791-2.508h6.193v.991h-6.193zm0-2.759h6.193v.99h-6.193zm12.566-.645v1.055c-.309-.18-.619-.315-.932-.405-.312-.089-.63-.134-.955-.134-.488 0-.853.08-1.095.24-.239.156-.358.396-.358.721 0 .293.09.511.27.656.179.144.627.285 1.342.422l.433.082c.535.101.94.304 1.213.609.277.305.416.701.416 1.19 0 .648-.23 1.156-.691 1.523-.461.363-1.102.545-1.922.545-.324 0-.664-.035-1.02-.106-.355-.066-.74-.168-1.154-.304v-1.114c.402.208.787.364 1.154.469.367.102.715.153 1.043.153.477 0 .846-.096 1.108-.288.261-.195.392-.466.392-.814 0-.5-.478-.846-1.435-1.037l-.047-.012-.405-.082c-.621-.121-1.074-.324-1.359-.609-.285-.289-.428-.682-.428-1.178 0-.629.213-1.113.639-1.453.426-.344 1.033-.516 1.822-.516.352 0 .69.033 1.014.1.324.062.643.158.955.287zm8.242 2.514v.527h-4.67v.035c-.031.895.139 1.537.51 1.928.375.391.902.586 1.582.586.343 0 .703-.055 1.078-.164.375-.11.775-.276 1.201-.498v1.072c-.41.168-.807.293-1.189.375-.379.086-.747.129-1.102.129-1.02 0-1.816-.305-2.391-.914-.574-.613-.861-1.457-.861-2.531 0-1.047.281-1.883.844-2.508.562-.625 1.312-.938 2.25-.938.836 0 1.494.283 1.974.85.485.566.743 1.25.774 2.051zm-1.078-.317c-.047-.453-.213-.843-.498-1.172-.282-.332-.688-.498-1.219-.498-.52 0-.947.172-1.283.516s-.52.73-.551 1.16zm8.663-1.072c-.23-.18-.464-.311-.703-.393-.238-.082-.5-.123-.785-.123-.672 0-1.185.211-1.541.633-.355.422-.533 1.031-.533 1.828v3.264h-1.084v-6.562h1.084v1.283c.18-.465.455-.821.826-1.067.375-.25.818-.375 1.33-.375.266 0 .514.033.744.1.231.066.451.17.662.31zm1.199-1.353h1.119l1.905 5.507 1.91-5.507h1.119l-2.332 6.562h-1.389zm13.357 2.742v.527h-4.67v.035c-.031.895.139 1.537.51 1.928.375.391.902.586 1.582.586.344 0 .703-.055 1.078-.164.375-.11.776-.276 1.201-.498v1.072c-.41.168-.806.293-1.189.375-.379.086-.746.129-1.102.129-1.019 0-1.816-.305-2.39-.914-.574-.613-.862-1.457-.862-2.531 0-1.047.282-1.883.844-2.508.563-.625 1.313-.938 2.25-.938.836 0 1.494.283 1.975.85.484.566.742 1.25.773 2.051zm-1.078-.317c-.047-.453-.213-.843-.498-1.172-.281-.332-.687-.498-1.219-.498-.519 0-.947.172-1.283.516s-.519.73-.551 1.16zm8.664-1.072c-.231-.18-.465-.311-.703-.393-.239-.082-.5-.123-.785-.123-.672 0-1.186.211-1.542.633-.355.422-.533 1.031-.533 1.828v3.264h-1.084v-6.562h1.084v1.283c.18-.465.455-.821.826-1.067.375-.25.819-.375 1.331-.375.265 0 .513.033.744.1.23.066.451.17.662.31zm2.892 2.842h2.062v2.367h-2.062zm11.259-1.699v4.066h-1.084v-4.066c0-.59-.103-1.024-.31-1.301-.207-.278-.531-.416-.973-.416-.504 0-.892.179-1.166.539-.269.355-.404.867-.404 1.535v3.709h-1.078v-9.117h1.078v3.539c.191-.375.451-.658.779-.85.328-.195.717-.293 1.166-.293.668 0 1.166.221 1.494.662.332.438.498 1.102.498 1.993zm7.439 3.732c-.289.168-.587.293-.896.375-.305.086-.617.129-.938.129-1.015 0-1.81-.305-2.384-.914-.571-.61-.856-1.453-.856-2.531 0-1.079.285-1.922.856-2.532.574-.609 1.369-.914 2.384-.914.317 0 .625.041.926.123s.604.209.908.381v1.131c-.285-.254-.572-.437-.861-.551-.285-.113-.609-.17-.973-.17-.675 0-1.195.219-1.558.657-.363.437-.545 1.062-.545 1.875 0 .808.182 1.433.545 1.875.367.437.887.656 1.558.656.375 0 .711-.057 1.008-.17.297-.117.573-.297.826-.539zm5.377-2.039c0 .484.088.85.264 1.096.179.246.443.369.791.369h1.259v.908h-1.365c-.644 0-1.144-.205-1.5-.615-.351-.414-.527-1-.527-1.758v-5.936h-1.729v-.843h2.807z" fill="#343536"/><circle cx="174" cy="275" fill="#60dea9" r="6"/><circle cx="318" cy="275" fill="#60dea9" r="6"/><circle cx="462" cy="275" fill="#60dea9" r="6"/><rect fill="#60dea9" height="72" rx="2" width="72" x="260" y="1"/><path d="m295.639 17.564-17.147 9.9052 11.571 6.795 2.338-1.4275 5.687 3.1741v-6.5919l5.449-3.2727v6.6035l9.534-5.2863v-.0232z" fill="#000"/><path d="m303.538 32.7496v6.5571l-4.561 2.6344-3.192-1.9787v17.1122l.087.0058 17.199-9.882v-19.735h-.319z" fill="#000"/><path d="m293.481 38.651v6.5803l-5.188 3.2901v-13.1663l1.967-1.2128-11.663-6.6789-.105.0058v19.7292l17.292 9.8762v-17.1122z" fill="#000"/><g clip-path="url(#a)" stroke="#000" stroke-miterlimit="10" stroke-width="1.5"><path d="m151.8 207.8c4.97 0 9-1.791 9-4s-4.03-4-9-4c-4.971 0-9 1.791-9 4s4.029 4 9 4z"/><g stroke-linecap="round"><path d="m142.8 203.8v12.8c0 2.2 4 4 9 4s9-1.8 9-4v-12.8"/><path d="m160.8 210.1c0 2.2-4 4-9 4s-9-1.8-9-4"/></g></g><g clip-path="url(#b)" stroke="#000" stroke-miterlimit="10" stroke-width="1.5"><path d="m295.8 207.8c4.97 0 9-1.791 9-4s-4.03-4-9-4c-4.971 0-9 1.791-9 4s4.029 4 9 4z"/><g stroke-linecap="round"><path d="m286.8 203.8v12.8c0 2.2 4 4 9 4s9-1.8 9-4v-12.8"/><path d="m304.8 210.1c0 2.2-4 4-9 4s-9-1.8-9-4"/></g></g><g clip-path="url(#c)" stroke="#000" stroke-miterlimit="10" stroke-width="1.5"><path d="m439.8 207.8c4.97 0 9-1.791 9-4s-4.03-4-9-4c-4.971 0-9 1.791-9 4s4.029 4 9 4z"/><g stroke-linecap="round"><path d="m430.8 203.8v12.8c0 2.2 4 4 9 4s9-1.8 9-4v-12.8"/><path d="m448.8 210.1c0 2.2-4 4-9 4s-9-1.8-9-4"/></g></g><path d="m129 303h334" opacity=".15" stroke="#000" stroke-width="1.5"/><path d="m255 293h82v18h-82z" fill="#fff"/><path d="m267.899 307.168c2.532 0 4.404-1.896 4.404-4.38 0-2.472-1.872-4.356-4.404-4.356-2.544 0-4.416 1.884-4.416 4.356 0 2.484 1.872 4.38 4.416 4.38zm0-1.524c-1.668 0-2.748-1.248-2.748-2.856 0-1.572 1.08-2.832 2.748-2.832 1.656 0 2.748 1.26 2.748 2.832 0 1.608-1.092 2.856-2.748 2.856zm11.911-7.044v5.448l-4.224-5.448h-1.356v8.4h1.644v-5.46l4.224 5.46h1.356v-8.4zm5.549 5.376h4.38v-1.308h-4.38zm12.221-5.376h-3.936v8.4h1.632v-2.568h2.232c1.932 0 2.988-1.5 2.988-2.916 0-1.392-1.068-2.916-2.916-2.916zm-.12 4.368h-2.184v-2.88h2.256c.804 0 1.368.696 1.368 1.44 0 .732-.552 1.44-1.44 1.44zm10.107 4.032h1.896l-2.088-3.108c1.188-.408 1.836-1.452 1.836-2.556 0-1.332-1.056-2.736-2.88-2.736h-4.092v8.4h1.632v-2.94h1.788zm-3.696-6.924h2.412c.78 0 1.332.588 1.332 1.26 0 .696-.54 1.284-1.392 1.284h-2.352zm13.623.012v-1.488h-6.192v8.4h6.18v-1.488h-4.572v-2.064h3.972v-1.44h-3.972v-1.92zm9.108-1.488-2.748 3.972-2.748-3.972h-1.572v8.4h1.644v-5.532l2.676 3.708 2.676-3.708v5.532h1.644v-8.4z" fill="#000"/><path d="m196.803 326.602v2.543c.43-.012.766-.131 1.008-.358.242-.226.363-.535.363-.926 0-.363-.109-.644-.328-.843-.219-.204-.566-.342-1.043-.416zm-.586-1.114v-2.42c-.406.016-.724.133-.955.352-.226.219-.34.512-.34.879 0 .336.106.601.317.797.215.195.541.326.978.392zm.586 6.276h-.586l-.006-1.764c-.398-.02-.795-.074-1.189-.164-.391-.09-.777-.215-1.16-.375v-1.055c.39.242.783.428 1.177.557.399.129.791.197 1.178.205v-2.684c-.781-.121-1.369-.359-1.763-.714-.395-.356-.592-.827-.592-1.413 0-.613.205-1.101.615-1.464.414-.368.994-.579 1.74-.633v-1.377h.586l.006 1.377c.309.019.621.058.937.117.317.059.639.139.967.24v1.014c-.332-.168-.656-.297-.972-.387-.313-.094-.625-.148-.938-.164v2.525c.805.122 1.418.372 1.84.75.422.379.633.87.633 1.471 0 .602-.229 1.104-.686 1.506-.453.402-1.047.621-1.781.656zm12.986-4.131h2.062v2.367h-2.062zm10.31-6.381h1.113l-4.605 9.861h-1.12zm8.33 4.682v4.066h-1.084v-4.066c0-.59-.104-1.024-.311-1.301-.207-.278-.531-.416-.973-.416-.504 0-.892.179-1.166.539-.269.355-.404.867-.404 1.535v3.709h-1.078v-6.562h1.078v.984c.191-.375.451-.658.779-.85.328-.195.717-.293 1.166-.293.668 0 1.166.221 1.494.662.332.438.499 1.102.499 1.993zm4.831-1.741c-.547 0-.961.213-1.242.639s-.422 1.057-.422 1.893c0 .832.141 1.463.422 1.892.281.426.695.639 1.242.639.551 0 .967-.213 1.248-.639.281-.429.422-1.06.422-1.892 0-.836-.141-1.467-.422-1.893s-.697-.639-1.248-.639zm0-.914c.91 0 1.606.295 2.086.885.484.59.727 1.443.727 2.561 0 1.121-.241 1.976-.721 2.566-.481.586-1.178.879-2.092.879-.91 0-1.605-.293-2.086-.879-.48-.59-.72-1.445-.72-2.566 0-1.118.24-1.971.72-2.561.481-.59 1.176-.885 2.086-.885zm7.732.826c.133-.281.301-.488.504-.621.207-.136.455-.205.744-.205.528 0 .899.205 1.114.616.218.406.328 1.173.328 2.302v3.803h-.985v-3.756c0-.926-.052-1.5-.158-1.723-.101-.226-.289-.339-.562-.339-.313 0-.528.121-.645.363-.113.238-.17.805-.17 1.699v3.756h-.984v-3.756c0-.937-.057-1.515-.17-1.734-.11-.219-.309-.328-.598-.328-.285 0-.484.121-.598.363-.109.238-.164.805-.164 1.699v3.756h-.978v-6.562h.978v.562c.129-.234.29-.412.481-.533.195-.125.416-.188.662-.188.297 0 .543.069.738.205.2.137.354.344.463.621zm7.533 2.596h-.357c-.629 0-1.104.111-1.424.334-.317.219-.475.547-.475.985 0 .394.119.701.358.919.238.219.568.329.99.329.594 0 1.06-.206 1.4-.616.34-.414.512-.984.516-1.711v-.24zm2.092-.445v3.744h-1.084v-.973c-.231.391-.522.68-.873.868-.348.183-.772.275-1.272.275-.668 0-1.201-.188-1.599-.563-.399-.378-.598-.884-.598-1.517 0-.731.244-1.285.732-1.664.493-.379 1.213-.569 2.163-.569h1.447v-.169c-.004-.524-.137-.903-.399-1.137-.261-.239-.679-.358-1.254-.358-.367 0-.738.053-1.113.159-.375.105-.74.259-1.096.462v-1.078c.399-.152.78-.265 1.143-.34.367-.078.723-.117 1.066-.117.543 0 1.006.08 1.389.241.387.16.699.4.938.72.148.196.254.438.316.727.063.285.094.715.094 1.289zm6.203-1.981v-3.392h1.078v9.117h-1.078v-.826c-.18.324-.42.572-.721.744-.297.168-.641.252-1.031.252-.793 0-1.418-.307-1.875-.92-.454-.617-.68-1.467-.68-2.549 0-1.066.228-1.902.685-2.508.457-.609 1.081-.914 1.87-.914.394 0 .742.086 1.043.258.3.168.537.414.709.738zm-3.17 2.45c0 .836.132 1.466.398 1.892s.658.639 1.178.639c.519 0 .914-.215 1.183-.645.274-.429.411-1.058.411-1.886 0-.832-.137-1.461-.411-1.887-.269-.43-.664-.645-1.183-.645-.52 0-.912.213-1.178.639s-.398 1.057-.398 1.893zm12.903-.961h7.225v1.002h-7.225zm13.597 3.902c-.289.168-.588.293-.896.375-.305.086-.617.129-.938.129-1.015 0-1.81-.305-2.384-.914-.571-.61-.856-1.453-.856-2.531 0-1.079.285-1.922.856-2.532.574-.609 1.369-.914 2.384-.914.317 0 .625.041.926.123s.604.209.908.381v1.131c-.285-.254-.572-.437-.861-.551-.285-.113-.609-.17-.973-.17-.675 0-1.195.219-1.558.657-.363.437-.545 1.062-.545 1.875 0 .808.182 1.433.545 1.875.367.437.887.656 1.558.656.375 0 .711-.057 1.008-.17.297-.117.572-.297.826-.539zm4.773-5.473c-.546 0-.96.213-1.242.639-.281.426-.422 1.057-.422 1.893 0 .832.141 1.463.422 1.892.282.426.696.639 1.242.639.551 0 .967-.213 1.248-.639.282-.429.422-1.06.422-1.892 0-.836-.14-1.467-.422-1.893-.281-.426-.697-.639-1.248-.639zm0-.914c.911 0 1.606.295 2.086.885.485.59.727 1.443.727 2.561 0 1.121-.24 1.976-.721 2.566-.48.586-1.177.879-2.092.879-.91 0-1.605-.293-2.085-.879-.481-.59-.721-1.445-.721-2.566 0-1.118.24-1.971.721-2.561.48-.59 1.175-.885 2.085-.885zm9.93 2.655v4.066h-1.084v-4.066c0-.59-.104-1.024-.311-1.301-.207-.278-.531-.416-.972-.416-.504 0-.893.179-1.166.539-.27.355-.405.867-.405 1.535v3.709h-1.078v-6.562h1.078v.984c.192-.375.451-.658.78-.85.328-.195.716-.293 1.166-.293.668 0 1.166.221 1.494.662.332.438.498 1.102.498 1.993zm7.451-5.051v.896h-1.225c-.387 0-.656.08-.809.241-.148.156-.222.435-.222.837v.581h2.256v.837h-2.256v5.725h-1.078v-5.725h-1.752v-.837h1.752v-.458c0-.718.164-1.248.492-1.587.332-.34.847-.51 1.547-.51zm3.003 2.578h2.76v5.701h2.138v.838h-5.355v-.838h2.139v-4.863h-1.682zm1.682-2.549h1.078v1.359h-1.078zm8.874 5.754c0-.809-.133-1.422-.398-1.84-.262-.422-.645-.633-1.149-.633-.527 0-.929.211-1.207.633-.277.418-.416 1.031-.416 1.84s.139 1.426.416 1.852c.282.421.688.632 1.219.632.496 0 .875-.212 1.137-.638.265-.426.398-1.041.398-1.846zm1.078 2.912c0 .984-.232 1.731-.697 2.238-.465.508-1.148.762-2.051.762-.297 0-.607-.027-.931-.082s-.649-.135-.973-.24v-1.067c.383.18.731.313 1.043.399.313.086.6.129.861.129.582 0 1.006-.158 1.272-.475.265-.316.398-.818.398-1.506v-.047-.732c-.172.367-.406.641-.703.82-.297.18-.658.27-1.084.27-.765 0-1.377-.307-1.834-.92s-.685-1.434-.685-2.461c0-1.031.228-1.854.685-2.467s1.069-.92 1.834-.92c.422 0 .779.084 1.072.252s.532.428.715.78v-.85h1.078zm1.791-2.508h6.193v.991h-6.193zm0-2.759h6.193v.99h-6.193zm13.082 5.355c-.289.168-.588.293-.897.375-.305.086-.617.129-.937.129-1.016 0-1.811-.305-2.385-.914-.57-.61-.856-1.453-.856-2.531 0-1.079.286-1.922.856-2.532.574-.609 1.369-.914 2.385-.914.316 0 .625.041.925.123.301.082.604.209.909.381v1.131c-.285-.254-.573-.437-.862-.551-.285-.113-.609-.17-.972-.17-.676 0-1.196.219-1.559.657-.363.437-.545 1.062-.545 1.875 0 .808.182 1.433.545 1.875.367.437.887.656 1.559.656.375 0 .711-.057 1.007-.17.297-.117.573-.297.827-.539zm5.376-2.039c0 .484.088.85.264 1.096.18.246.443.369.791.369h1.26v.908h-1.366c-.644 0-1.144-.205-1.5-.615-.351-.414-.527-1-.527-1.758v-5.936h-1.728v-.843h2.806zm5.019-4.166h2.76v5.701h2.139v.838h-5.356v-.838h2.139v-4.863h-1.682zm1.682-2.549h1.078v1.359h-1.078zm10.41 5.268v.527h-4.67v.035c-.031.895.139 1.537.51 1.928.375.391.902.586 1.582.586.343 0 .703-.055 1.078-.164.375-.11.775-.276 1.201-.498v1.072c-.41.168-.807.293-1.19.375-.378.086-.746.129-1.101.129-1.02 0-1.816-.305-2.391-.914-.574-.613-.861-1.457-.861-2.531 0-1.047.281-1.883.844-2.508.562-.625 1.312-.938 2.25-.938.836 0 1.494.283 1.974.85.485.566.743 1.25.774 2.051zm-1.078-.317c-.047-.453-.213-.843-.498-1.172-.282-.332-.688-.498-1.219-.498-.52 0-.947.172-1.283.516s-.52.73-.551 1.16zm8.054.071v4.066h-1.084v-4.066c0-.59-.104-1.024-.311-1.301-.207-.278-.531-.416-.972-.416-.504 0-.893.179-1.166.539-.27.355-.405.867-.405 1.535v3.709h-1.078v-6.562h1.078v.984c.192-.375.452-.658.78-.85.328-.195.717-.293 1.166-.293.668 0 1.166.221 1.494.662.332.438.498 1.102.498 1.993zm4.82-4.36v1.864h2.449v.837h-2.449v3.563c0 .484.092.822.275 1.014.184.191.504.287.961.287h1.213v.861h-1.318c-.809 0-1.379-.162-1.711-.486-.332-.325-.498-.883-.498-1.676v-3.563h-1.752v-.837h1.752v-1.864zm6.062 6.059h2.062v2.367h-2.062zm11.259-1.699v4.066h-1.084v-4.066c0-.59-.103-1.024-.31-1.301-.207-.278-.531-.416-.973-.416-.504 0-.892.179-1.166.539-.269.355-.404.867-.404 1.535v3.709h-1.078v-9.117h1.078v3.539c.191-.375.451-.658.779-.85.328-.195.717-.293 1.166-.293.668 0 1.166.221 1.494.662.332.438.498 1.102.498 1.993zm7.439 3.732c-.289.168-.587.293-.896.375-.305.086-.617.129-.938.129-1.015 0-1.81-.305-2.384-.914-.571-.61-.856-1.453-.856-2.531 0-1.079.285-1.922.856-2.532.574-.609 1.369-.914 2.384-.914.317 0 .625.041.926.123s.604.209.908.381v1.131c-.285-.254-.572-.437-.861-.551-.285-.113-.609-.17-.973-.17-.675 0-1.195.219-1.558.657-.363.437-.545 1.062-.545 1.875 0 .808.182 1.433.545 1.875.367.437.887.656 1.558.656.375 0 .711-.057 1.008-.17.297-.117.573-.297.826-.539zm5.377-2.039c0 .484.088.85.264 1.096.179.246.443.369.791.369h1.259v.908h-1.365c-.644 0-1.144-.205-1.5-.615-.351-.414-.527-1-.527-1.758v-5.936h-1.729v-.843h2.807z" fill="#343536"/></svg>