<svg id="Layer_1" xmlns="http://www.w3.org/2000/svg" width="86.2" height="20"><style>.st0{fill:#fff}</style><path class="st0" d="M30.1 15.6v-4.8H26v4.8h-2V4.7h2v4.5h4.2V4.7h1.9v10.9h-2zm9.7 0h-1.7L38 15c-.7.5-1.6.7-2.4.7-1.5 0-2.1-1-2.1-2.3 0-1.6.7-2.2 2.3-2.2h2v-.9c0-.9-.3-1.2-1.6-1.2-.7 0-1.5.1-2.2.2l-.3-1.5c.8-.2 1.9-.4 2.7-.4 2.5 0 3.2.9 3.2 2.9v5.3zm-2-3.2h-1.6c-.7 0-.8.2-.8.8 0 .6.2.8.9.8.6 0 1.2-.2 1.6-.4v-1.2zm5.8 3.2c-.9 0-2-.2-2.8-.5l.3-1.5c.7.2 1.6.3 2.4.3.9 0 1-.2 1-.8 0-.5-.1-.7-1.4-1-1.9-.5-2.2-1-2.2-2.5 0-1.6.7-2.3 3-2.3.7 0 1.7.1 2.4.3l-.2 1.6c-.6-.1-1.6-.2-2.2-.2-.9 0-1 .2-1 .7 0 .6 0 .7 1.1 1 2.2.6 2.4.9 2.4 2.5.1 1.5-.4 2.4-2.8 2.4zm8.7 0V9.9c0-.4-.1-.6-.6-.6s-1.4.3-2 .7v5.7h-2.2V4.2l2.2-.2v4.1c.6-.5 1.9-.8 2.8-.8 1.3 0 1.7.9 1.7 2.4v5.9h-1.9zm3.5-9.3V4.1h1.9v2.2h-1.9zm0 9.3v-8h1.9v8h-1.9zm3.5-8c0-2 1.2-3.2 3.9-3.2 1 0 2.1.1 3 .4L66 6.5c-.9-.2-1.8-.3-2.6-.3-1.4 0-1.8.5-1.8 1.7v4.2c0 1.2.4 1.7 1.8 1.7.8 0 1.7-.1 2.6-.3l.2 1.8c-.9.2-2 .4-3 .4-2.7 0-3.9-1.2-3.9-3.2V7.6zm10.9 8c-2.7 0-3.5-1.5-3.5-3.1v-2c0-1.6.8-3.1 3.5-3.1s3.5 1.5 3.5 3.1v2c0 1.6-.7 3.1-3.5 3.1zm0-6.6c-1.1 0-1.6.5-1.6 1.4v2.1c0 .9.5 1.4 1.6 1.4s1.6-.5 1.6-1.4v-2.1c0-.9-.5-1.4-1.6-1.4zm8.8.2c-.8.3-1.4.7-2.1 1.2v5.3H75v-8h1.5l.1.8c.4-.3 1.4-.9 2.1-1.1l.3 1.8zm7.2 3.6c0 1.8-.6 2.8-2.5 2.8-.7 0-1.3-.1-2-.2v3.3l-2.2.3V7.6h1.7l.2.6c.7-.5 1.4-.9 2.4-.9 1.6 0 2.4.9 2.4 2.7v2.8zm-4.4.9c.3.1 1.1.2 1.7.2.7 0 .9-.3.9-1.1V10c0-.7-.1-1-.9-1-.7 0-1.4.3-1.7.7v4zM2.9 6.5l4.8-2.8V0L0 4.5v11.1l2.9 1.6V7.1zm13.5-3.7v10.7l-4.9 2.8V20l7.7-4.4V4.5z"/><path class="st0" d="M14.4 1.7L11.5 0v8.9H7.7v-3L4.8 7.6v10.7L7.7 20v-8.6h3.8v2.7l2.9-1.7z"/></svg>