<svg xmlns="http://www.w3.org/2000/svg" width="64" height="66"><path d="M30.9 39.3c-3.6 0-6.4-2.8-6.4-6.4 0-3.6 2.8-6.4 6.4-6.4s6.4 2.8 6.4 6.4c0 3.6-2.8 6.4-6.4 6.4" fill-rule="evenodd" clip-rule="evenodd" fill="#961d59"/><path d="M43.4 35.9c-1.6 0-3-1.3-3-3 0-1.6 1.3-3 3-3 1.6 0 3 1.3 3 3s-1.4 3-3 3m10.8 2.8c-.4 1.6-2 2.5-3.6 2.1-1.6-.4-2.5-2-2.1-3.6.4-1.6 2-2.5 3.6-2.1 1.5.4 2.5 1.8 2.2 3.4 0 0 0 .1-.1.2m-2.1-7.6c-1.6.4-3.2-.6-3.6-2.2-.4-1.6.6-3.2 2.2-3.6 1.6-.4 3.2.6 3.6 2.2.1.4.1.8 0 1.2-.1 1.1-.9 2.1-2.2 2.4m10.6 7.2c-.3 1.6-1.8 2.7-3.4 2.4-1.6-.3-2.7-1.8-2.4-3.4.3-1.6 1.8-2.7 3.4-2.4 1.5.3 2.6 1.7 2.5 3.2-.1.1-.1.1-.1.2m-2.4-7.4c-1.6.3-3.1-.8-3.4-2.4-.3-1.6.8-3.1 2.4-3.4 1.6-.3 3.1.8 3.4 2.4 0 .3.1.5 0 .8-.1 1.3-1.1 2.4-2.4 2.6m-2.1 17.7c-.8 1.4-2.6 1.9-4 1.1-1.4-.8-1.9-2.6-1.1-4 .8-1.4 2.6-1.9 4-1.1 1 .6 1.6 1.7 1.5 2.8-.1.4-.2.8-.4 1.2m-1.1-27.2c-1.4.8-3.2.3-4-1.1-.8-1.4-.3-3.2 1.1-4 1.4-.8 3.2-.3 4 1.1.3.6.4 1.1.4 1.7-.1.9-.6 1.8-1.5 2.3" fill="#d62783" fill-rule="evenodd" clip-rule="evenodd"/><path d="M31 62.8c-8 0-15.4-3.1-21.1-8.7C4.4 48.4 1.3 40.9 1.3 33c0-8 3.1-15.4 8.7-21.1 5.6-5.6 13.1-8.7 21-8.7 6.6 0 12.9 2.1 18.1 6.1l-3.7 4.8c-4.2-3.2-9.2-4.9-14.4-4.9-6.3 0-12.3 2.5-16.8 7S7.3 26.6 7.3 33c0 6.3 2.5 12.3 7 16.8s10.4 6.9 16.8 6.9c5.3 0 10.3-1.7 14.4-4.9l3.6 4.8c-5.2 4-11.5 6.2-18.1 6.2z" fill="#d62783"/></svg>