<svg id="Layer_1" xmlns="http://www.w3.org/2000/svg" width="64" height="66"><style>.st0{fill:#104eb2}.st1{fill:#1563ff}</style><path class="st0" d="M62.9 11.8V5.9l-14.1 8.2v5L37.7 44.4 32 47.2V65l12-7z"/><path class="st1" d="M9.4 32.5L20 58.1 32 65V47.2l-5.7-2.8-11.2-25.3v-5L1 5.9V12l5.6 13.5M40.4 9.2v5.7l-3 6.5-2.9 7.1-2.5 6.1v7l5.7 2.8 11.1-25.3v-5z"/><path class="st0" d="M32 34.6l-8.5-19.7V9.3l-8.4 4.8v5l11.2 25.3 5.7-2.8z"/><path class="st1" d="M32 41.1l-6 3.3 5.6 3.3 6.1-3.3z"/><path class="st0" d="M9.1 1L1 5.9l14.1 8.2 8.4-4.9z"/><path class="st1" d="M54.1 1l8.8 4.9-14.1 8.2-8.4-4.9z"/></svg>