<svg width="105" height="25" fill="none" xmlns="http://www.w3.org/2000/svg"><path d="M35.716 19.035v-5.637h-4.954v5.637h-2.528V5.637h2.528v5.51h4.954V5.663h2.528V19.06h-2.528v-.025zm11.779 0h-1.997l-.177-.657a5.356 5.356 0 01-2.906.859c-1.795 0-2.553-1.213-2.553-2.907 0-1.997.859-2.755 2.856-2.755h2.35v-1.037c0-1.087-.303-1.466-1.87-1.466-.91 0-1.82.101-2.705.278l-.303-1.87a12.538 12.538 0 013.362-.456c3.084 0 3.968 1.087 3.968 3.54l-.025 6.47zm-2.452-3.69H43.25c-.81 0-1.037.227-1.037.96 0 .682.228.986.986.986.657 0 1.29-.177 1.845-.506v-1.44zm7.204 3.892a12.022 12.022 0 01-3.387-.556l.354-1.87c.96.277 1.921.404 2.907.429 1.087 0 1.238-.253 1.238-.986 0-.607-.126-.91-1.718-1.29-2.402-.58-2.68-1.187-2.68-3.083 0-1.972.86-2.831 3.665-2.831.986 0 1.972.126 2.933.328l-.253 1.947a19.261 19.261 0 00-2.68-.278c-1.061 0-1.238.252-1.238.834 0 .784.05.834 1.39 1.188 2.73.733 3.008 1.087 3.008 3.084 0 1.921-.581 3.084-3.539 3.084zm10.844-.202V12.21c0-.531-.227-.784-.784-.784-.606 0-1.668.354-2.553.834v6.775h-2.451V5.258l2.452-.354v5.081a8.397 8.397 0 013.563-.935c1.618 0 2.2 1.137 2.2 2.907v7.103H63.09v-.025zm4.247-11.173V5.03h2.451v2.832h-2.451zm0 11.173V9.252h2.451v9.783h-2.451zm4.17-9.707c0-2.452 1.416-3.868 4.752-3.868 1.213 0 2.452.152 3.64.455l-.278 2.174a20.415 20.415 0 00-3.286-.354c-1.744 0-2.3.607-2.3 2.023v5.156c0 1.416.556 2.023 2.3 2.023a20.394 20.394 0 003.286-.329l.278 2.2a14.652 14.652 0 01-3.64.454c-3.336 0-4.752-1.415-4.752-3.867V9.328zm13.422 9.909c-3.362 0-4.272-1.845-4.272-3.868v-2.477c0-2.022.91-3.868 4.272-3.868s4.272 1.846 4.272 3.868v2.477c-.025 2.023-.935 3.868-4.272 3.868zm0-8.09c-1.314 0-1.795.582-1.795 1.694v2.63c0 1.112.506 1.693 1.795 1.693 1.29 0 1.795-.581 1.795-1.694v-2.629c0-1.112-.506-1.693-1.795-1.693zm10.768.153c-.91.404-1.77.884-2.603 1.415v6.32h-2.452V9.252h2.073l.151 1.087c.809-.53 1.668-.96 2.578-1.29l.253 2.25zM105 15.8c0 2.173-.961 3.462-3.235 3.462-.885 0-1.745-.1-2.604-.278v4.045l-2.452.328V9.252h1.947l.252.834c.885-.657 1.972-1.036 3.084-1.011 1.972 0 3.008 1.163 3.008 3.387V15.8zm-5.864 1.086c.708.152 1.441.253 2.174.253.884 0 1.238-.43 1.238-1.315v-3.438c0-.808-.303-1.238-1.213-1.238a3.542 3.542 0 00-2.2.885v4.853zM9.656 0L0 5.561V18.96l3.64 2.098V7.659l6.016-3.463V0z" fill="#fff"/><path d="M13.523 0v10.668H9.656V6.674L6.04 8.772v13.675l3.615 2.099V13.902h3.867v3.944l3.615-2.073V2.098L13.523 0z" fill="#fff"/><path d="M13.523 24.546l9.656-5.587V5.587l-3.64-2.099v13.373l-6.016 3.488v4.197z" fill="#fff"/></svg>