<svg id="Layer_1" data-name="Layer 1" xmlns="http://www.w3.org/2000/svg" xmlns:xlink="http://www.w3.org/1999/xlink" viewBox="0 0 70.16 70.16"><defs><linearGradient id="linear-gradient" y1="35.08" x2="70.16" y2="35.08" gradientUnits="userSpaceOnUse"><stop offset="0" stop-color="var(--nomad-secondary, #d3fdeb)"/><stop offset="1" stop-color="var(--nomad-secondary, #d3fdeb)"/></linearGradient></defs><title>13</title><rect width="70.16" height="70.16" rx="2" style="fill:url(#linear-gradient)"/><polygon points="32.06 18.06 18.78 25.73 18.78 25.73 18.78 44.13 23.77 47.01 23.77 28.61 32.06 23.82 32.06 18.06" style="fill:#000"/><polygon points="37.37 18.06 37.37 32.72 32.06 32.72 32.06 27.25 27.07 30.13 27.07 48.91 32.06 51.8 32.06 37.18 37.37 37.18 37.37 42.62 42.36 39.73 42.36 20.94 37.37 18.06" style="fill:#000"/><polygon points="37.37 51.8 50.65 44.14 50.65 44.13 50.65 25.74 45.66 22.86 45.66 41.26 37.37 46.05 37.37 51.8" style="fill:#000"/></svg>