<svg width="52" height="56" viewBox="0 0 52 56" fill="none" xmlns="http://www.w3.org/2000/svg"><path d="M41.25 11.286l-.226-.12L25.834.075.324 19.243l4.88 3.563h-.011l20.926 15.273 25.546-19.193-10.416-7.6zM7.27 15.608L21.025 5.276l3.836 2.791-13.753 10.332-3.836-2.79zm22.554 10.844l-3.788 2.85-13.86-10.119 13.74-10.32 8.967 6.544-9.952 7.482 4.893 3.563zm6.128-10.262l3.825 2.791-8.896 6.675-3.824-2.791 8.895-6.675zm5.63 3.064l.261-.225.083-.06-4.905-3.574 3.789-2.85 8.729 6.365-13.753 10.333-3.8-2.768 9.596-7.22zm-5.63-4.655L22.081 4.48l3.765-2.826 13.86 10.118-3.754 2.827zM6.214 16.404l3.836 2.791-3.765 2.827L2.45 19.23l3.765-2.827zm4.905 3.575l13.895 10.142-3.765 2.827L7.354 22.806l3.765-2.827zm19.81 7.28l3.8 2.767-8.61 6.473-3.8-2.767 8.61-6.473z" fill="#00B0AD"/><path d="M25.988 56a.741.741 0 01-.404-.13L.478 37.864c-.25-.178-.404-.51-.404-.867 0-.356.154-.689.404-.867l12.553-9.002.808 1.722-11.354 8.147L25.988 53.85l23.504-16.852-11.342-8.135.807-1.723 12.553 9.003c.25.178.404.51.404.867 0 .356-.154.689-.404.867L26.393 55.869a.711.711 0 01-.404.131z" fill="url(#prefix__paint0_linear)"/><path d="M25.988 37.995a.741.741 0 01-.404-.13L.478 19.86c-.25-.178-.404-.51-.404-.867 0-.356.154-.689.404-.867L25.596.134a.677.677 0 01.808 0l25.118 18.004c.25.178.404.51.404.867 0 .356-.154.689-.404.867l-25.13 17.993a.633.633 0 01-.404.13zM2.485 19.005l23.503 16.853 23.515-16.853L25.988 2.153 2.485 19.005z" fill="url(#prefix__paint1_linear)"/><path d="M.074 19.005h1.603V37.01H.074V19.005z" fill="url(#prefix__paint2_linear)"/><defs><linearGradient id="prefix__paint0_linear" x1="25.993" y1="71.318" x2="25.993" y2="16.476" gradientUnits="userSpaceOnUse"><stop stop-color="#D1E1D7"/><stop offset="1" stop-color="#00B0AD"/></linearGradient><linearGradient id="prefix__paint1_linear" x1="25.993" y1="71.318" x2="25.993" y2="16.476" gradientUnits="userSpaceOnUse"><stop stop-color="#D1E1D7"/><stop offset="1" stop-color="#00B0AD"/></linearGradient><linearGradient id="prefix__paint2_linear" x1=".877" y1="71.318" x2=".877" y2="16.476" gradientUnits="userSpaceOnUse"><stop stop-color="#D1E1D7"/><stop offset="1" stop-color="#00B0AD"/></linearGradient></defs></svg>
