<svg width="46" height="44" viewBox="0 0 46 44" fill="none" xmlns="http://www.w3.org/2000/svg"><path d="M42.345 32.88a6.543 6.543 0 01-3.056-.752 8.65 8.65 0 01-6.912 5.184 7.333 7.333 0 01-1.024.064c-4.368 0-8.032-3.264-8.56-7.616-.016-.112-.032-.24-.064-.368a11.458 11.458 0 00-4-6.768 11.57 11.57 0 002.128.192c2.32 0 4.72-.672 7.152-1.968 0 0 .016 0 .016-.016l.032-.016a.498.498 0 00.096-.064s.752-.464 1.92-.736c.064-.016.112-.016.176-.016.32-.032.656-.064.992-.064 2.208 0 4.256.88 5.84 2.304 1.216-1.6 3.12-2.64 5.28-2.64.112 0 .24.016.352.016a15 15 0 00-2.88-2.72c-2.368-1.904-5.072-2.88-8.016-2.88-2.336 0-4.8.656-6.608 1.76-1.072.576-2.688 1.248-4.336 1.248-1.536 0-2.8-.576-3.824-1.76-.864-1.008-1.344-2.224-1.36-3.52.08-1.36.64-2.64 1.584-3.568a5.448 5.448 0 013.856-1.584c1.472 0 2.864.576 3.888 1.616.384.4.72.848.976 1.328.512.992 1.52 1.6 2.64 1.6a2.966 2.966 0 002.64-4.336 11.093 11.093 0 00-2.016-2.752c-2.16-2.176-5.024-3.36-8.096-3.36-2.688 0-5.312.944-7.36 2.672a.709.709 0 00-.144.112c-.096.08-.176.16-.256.24-.032.032-.08.064-.112.112l-.048.048c-.048.032-.08.08-.128.112l-.08.08c-.208.208-.4.416-.592.656l-.064.048c-.032.048-.08.08-.112.128a10.758 10.758 0 00-2.384 6.24c-.128 2.88.864 5.696 2.8 7.936.4.448.816.864 1.248 1.232-1.2-.256-2.496-.32-3.76-.176C3.913 20.864-.567 26.56.185 32.816.873 38.56 5.737 42.88 11.513 42.88c.448 0 .912-.032 1.36-.08a11.588 11.588 0 003.296-.912c1.488-.672 2.176-2.416 1.504-3.92a2.963 2.963 0 00-2.704-1.76c-.416 0-.816.08-1.2.256a5.412 5.412 0 01-1.584.432c-.224.032-.432.032-.656.032-2.768 0-5.12-2.08-5.44-4.832a5.458 5.458 0 011.136-4.032c.912-1.152 2.208-1.888 3.664-2.048.224-.032.432-.032.656-.032 2.768 0 5.12 2.08 5.44 4.816l.048.336c.56 3.392 2.32 6.48 4.96 8.72a14.568 14.568 0 009.392 3.456c.576 0 1.152-.032 1.728-.096 6.24-.752 11.104-5.36 12.464-11.152a6.73 6.73 0 01-3.232.816z" fill="url(#prefix__paint0_radial)"/><path opacity=".6" d="M42.345 32.88a6.543 6.543 0 01-3.056-.752 8.65 8.65 0 01-6.912 5.184 7.333 7.333 0 01-1.024.064c-4.368 0-8.032-3.264-8.56-7.616-.016-.112-.032-.24-.064-.368a11.458 11.458 0 00-4-6.768 11.57 11.57 0 002.128.192c2.32 0 4.72-.672 7.152-1.968 0 0 .016 0 .016-.016l.032-.016a.498.498 0 00.096-.064s.752-.464 1.92-.736c.064-.016.112-.016.176-.016.32-.032.656-.064.992-.064 2.208 0 4.256.88 5.84 2.304 1.216-1.6 3.12-2.64 5.28-2.64.112 0 .24.016.352.016a15 15 0 00-2.88-2.72c-2.368-1.904-5.072-2.88-8.016-2.88-2.336 0-4.8.656-6.608 1.76-1.072.576-2.688 1.248-4.336 1.248-1.536 0-2.8-.576-3.824-1.76-.864-1.008-1.344-2.224-1.36-3.52.08-1.36.64-2.64 1.584-3.568a5.448 5.448 0 013.856-1.584c1.472 0 2.864.576 3.888 1.616.384.4.72.848.976 1.328.512.992 1.52 1.6 2.64 1.6a2.966 2.966 0 002.64-4.336 11.093 11.093 0 00-2.016-2.752c-2.16-2.176-5.024-3.36-8.096-3.36-2.688 0-5.312.944-7.36 2.672a.709.709 0 00-.144.112c-.096.08-.176.16-.256.24-.032.032-.08.064-.112.112l-.048.048c-.048.032-.08.08-.128.112l-.08.08c-.208.208-.4.416-.592.656l-.064.048c-.032.048-.08.08-.112.128a10.758 10.758 0 00-2.384 6.24c-.128 2.88.864 5.696 2.8 7.936.4.448.816.864 1.248 1.232-1.2-.256-2.496-.32-3.76-.176C3.913 20.864-.567 26.56.185 32.816.873 38.56 5.737 42.88 11.513 42.88c.448 0 .912-.032 1.36-.08a11.588 11.588 0 003.296-.912c1.488-.672 2.176-2.416 1.504-3.92a2.963 2.963 0 00-2.704-1.76c-.416 0-.816.08-1.2.256a5.412 5.412 0 01-1.584.432c-.224.032-.432.032-.656.032-2.768 0-5.12-2.08-5.44-4.832a5.458 5.458 0 011.136-4.032c.912-1.152 2.208-1.888 3.664-2.048.224-.032.432-.032.656-.032 2.768 0 5.12 2.08 5.44 4.816l.048.336c.56 3.392 2.32 6.48 4.96 8.72a14.568 14.568 0 009.392 3.456c.576 0 1.152-.032 1.728-.096 6.24-.752 11.104-5.36 12.464-11.152a6.73 6.73 0 01-3.232.816z" fill="#F6921E"/><path d="M42.345 29.808a3.552 3.552 0 100-7.104 3.552 3.552 0 000 7.104z" fill="url(#prefix__paint1_radial)"/><path opacity=".6" d="M42.345 29.808a3.552 3.552 0 100-7.104 3.552 3.552 0 000 7.104z" fill="#F6921E"/><defs><radialGradient id="prefix__paint0_radial" cx="0" cy="0" r="1" gradientUnits="userSpaceOnUse" gradientTransform="translate(37.922 8.595) scale(42.3362)"><stop stop-color="#FFF000"/><stop offset="1" stop-color="#F5911E"/></radialGradient><radialGradient id="prefix__paint1_radial" cx="0" cy="0" r="1" gradientUnits="userSpaceOnUse" gradientTransform="translate(38.242 8.595) scale(42.3539)"><stop stop-color="#FFF000"/><stop offset="1" stop-color="#F5911E"/></radialGradient></defs></svg>
