<svg width="56" height="56" viewBox="0 0 56 56" fill="none" xmlns="http://www.w3.org/2000/svg"><path fill-rule="evenodd" clip-rule="evenodd" d="M12.21 41.308l3.058-.52c1.493 1.646.909 2.295 2.19 3.231 2.13 1.559 4.798.861 5.706-.407 1.074-1.503 1-2.932.666-4.285l3.47-.59.423 3.55 19.746-3.57-1.175-14.274-.674.123-2.104-22.904L7.864 5.395l4.346 35.913z" fill="#fff"/><path fill-rule="evenodd" clip-rule="evenodd" d="M42.397 32.733l-3.775-2.497-3.149 5.276-3.662-1.074-3.226 4.937.165 1.553 17.535-3.24-1.019-10.989-2.87 6.034zm-16.352-4.737l2.814-.388c.455.205.772.282 1.317.422.85.222 1.834.435 3.291-.301.34-.169 1.046-.817 1.331-1.186l11.526-2.098L47.5 38.72l-19.746 3.569-1.709-14.293zm21.41-5.144l-1.137.217L44.133.416 6.889 4.748l4.589 37.349 4.36-.635c-.348-.5-.89-1.103-1.816-1.874-1.284-1.07-.83-2.887-.072-4.035 1-1.939 6.164-4.403 5.871-7.502-.105-1.127-.283-2.594-1.326-3.6-.039.418.032.82.032.82s-.428-.548-.642-1.295c-.211-.287-.378-.379-.604-.761-.16.442-.139.956-.139.956s-.35-.83-.407-1.531c-.208.313-.26.91-.26.91s-.455-1.31-.351-2.014c-.208-.613-.824-1.83-.65-4.597 1.137.798 3.64.61 4.614-.832.324-.478.546-1.781-.162-4.35-.453-1.646-1.578-4.098-2.017-5.028l-.052.038c.231.75.707 2.32.89 3.082.553 2.31.702 3.115.442 4.18-.22.926-.75 1.532-2.094 2.209-1.343.68-3.126-.974-3.238-1.066-1.306-1.043-2.315-2.744-2.428-3.57-.117-.905.52-1.448.84-2.188-.459.131-.97.365-.97.365s.61-.635 1.365-1.183c.312-.208.495-.34.824-.614-.476-.008-.864.006-.864.006s.795-.43 1.618-.744c-.602-.026-1.18-.005-1.18-.005s1.773-.795 3.173-1.379c.963-.396 1.904-.279 2.432.488.693 1.004 1.422 1.55 2.966 1.887.949-.422 1.237-.638 2.428-.964 1.049-1.157 1.872-1.306 1.872-1.306s-.408.376-.518.966c.595-.47 1.246-.862 1.246-.862s-.252.312-.487.809l.054.081c.694-.416 1.51-.746 1.51-.746s-.233.296-.507.678c.524-.004 1.584.023 1.996.07 2.43.053 2.935-2.605 3.867-2.938 1.168-.419 1.69-.672 3.68 1.289 1.708 1.684 3.042 4.696 2.38 5.372-.556.56-1.651-.22-2.866-1.737a6.59 6.59 0 01-1.354-2.963 2.905 2.905 0 00-.938-1.61s.433.968.433 1.82c0 .467.058 2.21.803 3.188-.073.142-.108.707-.19.815-.866-1.051-2.728-1.802-3.032-2.024 1.028.844 3.39 2.784 4.296 4.643.858 1.758.353 3.37.787 3.788.123.12 1.844 2.271 2.176 3.352.578 1.884.035 3.864-.721 5.092l-2.112.33c-.309-.085-.517-.128-.795-.29.153-.27.457-.946.46-1.086l-.12-.21c-.657.934-1.758 1.84-2.673 2.362-1.197.68-2.576.576-3.474.297-2.55-.79-4.96-2.517-5.541-2.97 0 0-.018.361.091.443.642.727 2.115 2.043 3.539 2.96l-3.035.334 1.435 11.203c-.636.092-.735.137-1.431.236-.614-2.174-1.787-3.594-3.07-4.42-1.131-.73-2.692-.895-4.186-.597l-.096.111c1.038-.108 2.265.043 3.523.843 1.237.784 2.232 2.81 2.6 4.028.47 1.558.794 3.225-.47 4.992-.899 1.256-3.524 1.95-5.645.448.567.914 1.332 1.66 2.363 1.801 1.53.209 2.983-.058 3.982-1.088.854-.88 1.306-2.72 1.187-4.66l1.351-.196.488 3.48 22.36-2.702-1.823-17.845zm-13.603-9.449c-.063.143-.16.237-.014.702l.01.026.022.06.062.14c.265.544.556 1.057 1.044 1.32.126-.021.257-.037.392-.043.458-.02.746.052.93.151.016-.091.02-.225.01-.422-.036-.69.136-1.862-1.185-2.48-.499-.23-1.198-.16-1.431.13.042.006.08.014.11.025.352.123.113.245.05.391zm3.702 6.432c-.173-.096-.983-.057-1.552.01-1.084.13-2.254.506-2.51.707-.467.362-.256.992.089 1.25.966.725 1.813 1.21 2.707 1.092.549-.072 1.032-.944 1.375-1.735.235-.545.235-1.133-.109-1.324zm-9.597-5.579c.305-.29-1.523-.673-2.942.297-1.046.716-1.08 2.251-.078 3.12.1.087.183.149.26.198a9.05 9.05 0 012.64-.78c.211-.238.458-.657.396-1.414-.084-1.027-.86-.864-.276-1.42zM3.631 55.897H0v-8.358h3.631c2.616 0 3.925 1.317 3.925 3.95 0 2.938-1.309 4.408-3.925 4.408zM1.553 54.55h1.844c1.738 0 2.606-1.02 2.606-3.063 0-1.739-.869-2.608-2.606-2.608H1.553v5.671zm7.63 1.346H7.59l3.555-8.358h1.67l3.633 8.359h-1.67l-1.055-2.28h-2.683l.533-1.343h1.74l-1.37-3.14-2.759 6.762zm6.385-8.358h6.356v1.343h-2.402v7.015h-1.551v-7.015h-2.403V47.54zm7.154 8.358h-1.594l3.557-8.36h1.669l3.632 8.36h-1.67l-1.054-2.28h-2.683l.532-1.343h1.74l-1.37-3.14-2.759 6.763zm11.925 0h-3.63v-8.358h3.63c2.617 0 3.926 1.317 3.926 3.95 0 2.938-1.308 4.408-3.926 4.408zm-2.079-1.346h1.846c1.736 0 2.607-1.02 2.607-3.063 0-1.739-.87-2.608-2.607-2.608h-1.846v5.671zm7.056-2.822c0-2.834 1.403-4.251 4.206-4.251 2.762 0 4.141 1.416 4.141 4.251 0 2.819-1.38 4.228-4.14 4.228-2.68 0-4.08-1.41-4.207-4.228zm4.206 2.881c1.687 0 2.53-.972 2.53-2.916 0-1.914-.843-2.873-2.53-2.873-1.73 0-2.594.959-2.594 2.873 0 1.944.864 2.916 2.594 2.916zm10.619-2.096v1.957c-.359.094-.68.14-.96.14-1.9 0-2.848-1.003-2.848-3.01 0-1.853 1.006-2.779 3.016-2.779.84 0 1.621.157 2.343.47v-1.404c-.722-.272-1.542-.41-2.46-.41-3.006 0-4.511 1.374-4.511 4.124 0 2.902 1.478 4.356 4.434 4.356 1.018 0 1.862-.148 2.537-.445V51.14h-2.507l-.524 1.376h1.48v-.002z" fill="#7749A3"/></svg>
