<svg width="41" height="38" viewBox="0 0 41 38" fill="none" xmlns="http://www.w3.org/2000/svg"><path fill-rule="evenodd" clip-rule="evenodd" d="M20.783.8C9.856.8.983 9.333.983 19.868c0 8.428 5.676 15.568 13.54 18.096.985.176 1.35-.41 1.35-.925 0-.456-.013-1.65-.025-3.242-5.506 1.147-6.673-2.552-6.673-2.552-.9-2.2-2.2-2.785-2.2-2.785-1.799-1.183.134-1.16.134-1.16 1.98.141 3.038 1.967 3.038 1.967 1.763 2.915 4.631 2.072 5.762 1.58.182-1.229.693-2.071 1.252-2.551-4.4-.48-9.02-2.119-9.02-9.423 0-2.084.767-3.78 2.043-5.115-.207-.48-.887-2.423.194-5.045 0 0 1.665-.515 5.446 1.955 1.58-.422 3.27-.632 4.959-.644a19.98 19.98 0 014.959.644c3.78-2.47 5.445-1.955 5.445-1.955 1.082 2.622.401 4.565.195 5.045 1.264 1.334 2.03 3.031 2.03 5.115 0 7.328-4.631 8.931-9.044 9.411.705.585 1.35 1.756 1.35 3.535 0 2.552-.025 4.6-.025 5.232 0 .515.353 1.1 1.361.913 7.865-2.528 13.529-9.668 13.529-18.084C40.583 9.333 31.71.8 20.783.8z" fill="#181616"/></svg>
