<svg width="56" height="56" viewBox="0 0 56 56" fill="none" xmlns="http://www.w3.org/2000/svg"><path d="M24.877 36.452l-2.939.84c.28.756.476 2.099.476 3.89v8.844h3.302V40.65c.616-.755 1.288-1.12 2.015-1.12.364 0 .644.085.952.253l.895-3.05c-.503-.225-.727-.28-1.231-.28-.364 0-.812.083-1.091.195-.616.308-1.4 1.008-1.876 1.68-.027-.728-.223-1.316-.503-1.876zM13.43 32.087h-.363v17.91h3.442V42.05h4.338V39.11h-4.338v-4.114h5.43l.223-1.567a54.232 54.232 0 01-8.732-1.343zm-8.06 20.29l1.596 1.874c1.539-.615 3.498-2.014 3.974-4.225.168-.728.252-1.204.252-3.527V32.115h-3.47V46.89c0 1.931-.085 2.659-.337 3.303-.335.727-1.119 1.623-2.015 2.182zm31.345-9.068c0 3.134-.616 4.478-2.043 4.478-.644 0-1.371-.364-1.68-1.092-.28-.671-.42-1.819-.42-3.33 0-1.315.113-2.239.337-2.939.28-.84.895-1.343 1.707-1.343.587 0 1.091.252 1.427.7.448.587.672 1.735.672 3.526zm2.015 5.15c1.091-1.288 1.567-2.855 1.567-5.122 0-2.155-.448-3.582-1.455-4.842-1.092-1.343-2.491-1.987-4.282-1.987-3.386 0-5.653 2.771-5.653 6.94 0 4.17 2.239 6.858 5.653 6.858 1.959-.028 3.218-.728 4.17-1.848zm9.431-7.417c0 1.203-.7 1.875-2.015 1.875-1.147 0-1.931-.532-1.931-1.875 0-1.231.7-1.959 1.96-1.959 1.258 0 1.986.7 1.986 1.96zm5.821-2.827l-1.371-2.182c-.756.727-1.707 1.147-2.603 1.147-.42 0-.644-.056-1.54-.28-.895-.252-1.538-.336-2.266-.336-3.218 0-5.317 1.764-5.317 4.478 0 1.96.895 3.19 2.714 3.666-.727.168-1.539.56-1.903 1.008-.28.308-.392.727-.392 1.203 0 .42.084.784.252 1.092.168.28.42.503.7.643.588.224 1.54.392 3.023.42.755 0 1.23.028 1.399.028.895.056 1.371.196 1.707.392.336.196.588.672.588 1.175 0 .504-.308 1.036-.784 1.344-.448.308-1.147.447-2.099.447-1.511 0-2.35-.56-2.35-1.623 0-.476.055-.56.14-.867h-3.051c-.112.252-.308.615-.308 1.343 0 .896.336 1.68 1.035 2.35 1.12 1.12 2.967 1.428 4.758 1.428 1.959 0 3.862-.476 4.953-1.707.7-.784 1.008-1.623 1.008-2.743 0-1.203-.336-2.099-1.091-2.826-.896-.868-1.903-1.176-3.806-1.204l-1.764-.028c-.335 0-.531-.14-.531-.307 0-.364.475-.672 1.315-1.092.252.028.336.028.504.028 2.686 0 4.645-1.651 4.645-3.946 0-.867-.252-1.54-.727-2.183.42.056.532.084.867.084.896.028 1.568-.252 2.295-.952zm-41.42-21.689C8.45 17.534 5.65 19.493 5.65 21.76c0 1.4 1.064 2.686 2.855 3.694-.532-.868-.84-1.763-.84-2.715.028-2.323 1.847-4.477 4.898-6.213zm43.435 8.844c0-1.483-.923-2.855-2.463-4.002.14.448.224.924.224 1.4 0 4.253-5.933 7.891-14.385 9.403.952.111 1.931.168 2.967.168 7.528 0 13.657-3.107 13.657-6.969zm-4.841-2.295c0-1.567-1.344-2.994-3.61-4.198.531.644.811 1.344.811 2.043 0 3.778-8.032 6.829-17.967 6.829-9.907 0-17.967-3.05-17.967-6.829 0-.476.14-.951.364-1.4-1.596 1.064-2.491 2.268-2.491 3.555 0 4.086 9.151 7.388 20.402 7.388 11.25 0 20.458-3.302 20.458-7.388zm-8.928-.196c-4.17 2.687-16.96 3.694-22.5.252-4.339-2.715-2.855-6.996-15.225-16.428-1.623-1.231.308-2.546 1.511-1.707 1.204.84.112 1.064 2.547 3.498 4.925 4.926 4.897.504 5.653 2.183 1.651 3.527 5.261 7.08 5.261 7.08 3.61 2.352 6.521 2.883 11.866-.755 3.387-2.295 2.015 3.638 10.3-.643 3.022-1.568 2.91-.532 5.988-4.814 1.288-1.791 3.723 1.371.952 1.819-1.12.168-2.967 1.4-3.778 3.302-1.12 2.855-.616 4.954-2.575 6.213zM19.14 15.631c-1.036-.448-2.1-2.211-2.52-2.91 1.148-1.12.672-2.995.029-4.03-.644-1.036-1.428-.728-2.295-1.68-.868-.951.336-3.414 1.427-1.511 4.142 7.08 6.857 4.114 10.243 3.694 3.246-.42 6.13 1.371 6.997-3.638.14-.812.951-1.008 1.035.336.084 1.343.588 4.645 2.379 5.093 1.791.42 3.19-.42 3.61-.895.42-.476.644-.392.812.755.196 1.176.643 2.77 3.134.98 5.122-3.666 3.666-5.066 5.653-6.017 1.148-.532 2.939 1.203.336 2.518-3.694 1.875-4.086 4.198-6.437 5.654-3.918 2.49-2.714.112-9.04-.812-2.434-.336-3.218 2.379-5.12 1.595-4.366-1.79-7.417-1.455-10.243.868zM32.825 2.42c.14 1.064.336 1.036.7 1.148.391.084.867-.504.895-1.092.028-.587-.252-.951-.84-.923-.56 0-.755.28-.755.867zm19.058 1.931c.448.448 1.68.14 1.987-.167.728-.812.756-1.316.392-1.876-.392-.56-1.175-.447-1.987.112-.812.588-.672 1.68-.392 1.931zm-.336 5.458c-.391.531-.42.895-.112 1.175.308.308.924.588 1.372.224.447-.364.447-.867.056-1.315-.392-.476-.924-.476-1.316-.084zM12.48 3.373c.616.196.868.756 1.371.112.252-.308.28-.728-.056-1.204-.224-.28-1.175-.503-1.595-.083-.42.42-.028 1.063.28 1.175zM.417 3.009c1.091.672 1.791 1.651 2.603.756.28-.308.615-.868.028-1.931C2.628 1.05 1.2.714.697 1.022.193 1.33-.423 2.477.417 3.01zm9.963 5.122c.336.363.923.335 1.287.14.336-.196.28-.728-.056-1.204-.196-.28-.84-.42-1.259 0-.42.392-.196.812.028 1.064z" fill="#40BE46"/></svg>
