<svg width="66" height="48" viewBox="0 0 66 48" fill="none" xmlns="http://www.w3.org/2000/svg"><g clip-path="url(#prefix__clip0)"><path d="M65.14 46.481c0 .7-.514 1.17-1.122 1.17v-.005c-.625.004-1.13-.465-1.13-1.165 0-.699.505-1.167 1.13-1.167.608 0 1.122.468 1.122 1.167zm.455 0c0-.96-.746-1.517-1.577-1.517-.837 0-1.582.557-1.582 1.517 0 .96.746 1.519 1.582 1.519.831 0 1.577-.56 1.577-1.519zm-1.838.129h.169l.39.687h.43l-.433-.716c.224-.016.408-.123.408-.424 0-.375-.258-.495-.696-.495h-.632v1.635h.364v-.687zm0-.277v-.394h.253c.137 0 .325.011.325.18 0 .182-.097.214-.26.214h-.318zM54.977 38.12l1.966 5.377h-3.992l2.026-5.378zm-2.105-2.094l-4.53 11.477h3.199l.717-2.028h5.36l.679 2.028h3.472l-4.564-11.479-4.333.002zm-9.095 11.481h3.246V36.022h-3.246v11.485zm-22.53-11.486l-2.707 9.103-2.594-9.102h-3.502l3.705 11.485h4.675l3.734-11.486h-3.31zm13.119 2.501h1.395c2.023 0 3.332.909 3.332 3.266 0 2.359-1.309 3.267-3.333 3.267h-1.394v-6.533zm-3.218-2.5v11.485h5.261c2.803 0 3.718-.466 4.708-1.51.7-.735 1.152-2.346 1.152-4.106 0-1.615-.383-3.055-1.05-3.952-1.202-1.604-2.934-1.918-5.518-1.918h-4.553zM.405 36.004v11.502h3.273v-8.733h2.536c.84 0 1.438.21 1.843.642.512.546.722 1.428.722 3.04v5.051h3.171v-6.355c0-4.535-2.89-5.147-5.72-5.147H.406zm25.52.016v11.486h3.245V36.021h-3.246z" fill="#000"/><path d="M9.127 13.151s4.174-6.159 12.508-6.796V4.121c-9.23.741-17.225 8.56-17.225 8.56s4.528 13.088 17.226 14.287v-2.375C12.316 23.42 9.127 13.15 9.127 13.15zm12.508 6.719v2.175c-7.042-1.256-8.997-8.576-8.997-8.576s3.382-3.746 8.998-4.354v2.387l-.011-.001c-2.948-.354-5.25 2.4-5.25 2.4s1.29 4.635 5.26 5.969zm0-19.87v4.121c.271-.02.542-.038.815-.048 10.495-.353 17.333 8.608 17.333 8.608s-7.854 9.55-16.036 9.55c-.75 0-1.452-.07-2.111-.186v2.548c.563.072 1.148.114 1.758.114 7.614 0 13.12-3.889 18.453-8.491.884.708 4.503 2.43 5.247 3.184-5.07 4.244-16.885 7.666-23.583 7.666-.646 0-1.266-.04-1.875-.098v3.58h28.94V0h-28.94zm0 9.115v-2.76c.269-.018.539-.033.815-.041 7.547-.237 12.498 6.485 12.498 6.485s-5.348 7.427-11.082 7.427a6.945 6.945 0 01-2.23-.356v-8.368c2.937.355 3.529 1.653 5.295 4.597l3.928-3.312s-2.867-3.761-7.701-3.761c-.526 0-1.029.036-1.523.09z" fill="#77B900"/></g><defs><clipPath id="prefix__clip0"><path fill="#fff" transform="translate(.405)" d="M0 0h65.19v48H0z"/></clipPath></defs></svg>
