<svg width="38" height="39" viewBox="0 0 38 39" fill="none" xmlns="http://www.w3.org/2000/svg"><path d="M.186.983l18.685 37.509L37.695.983H.186zm20.89 7.543h2.176v2.16h-2.176v-2.16zm-4.329 8.704h-2.153v-2.193h2.17l-.017 2.193zm0-3.26h-2.153v-2.194h2.17l-.017 2.193zm0-3.262h-2.153V8.515h2.17l-.017 2.193zm3.261 9.79h-2.153v-2.2h2.17l-.017 2.2zm0-3.268h-2.153v-2.193h2.17l-.017 2.193zm0-3.26h-2.153v-2.194h2.17l-.017 2.193zm0-3.262h-2.153V8.515h2.17l-.017 2.193zm1.068 1.068h2.176v2.17h-2.176v-2.17zm0 5.431v-2.17h2.17v2.17h-2.17z" fill="#000"/></svg>
