<svg width="488" height="356" viewBox="0 0 488 356" fill="none" xmlns="http://www.w3.org/2000/svg"><g clip-path="url(#clip0)"><path fill="#fff" d="M0 0h488v356H0z"/><path d="M408.833 401.152l-.55-1.032-.645-2.522-1.959-3.602-3.202-1.681-6.403-4.803-6.618-4.395-10.25-2.401-9.867 1.057.215-.865.43-1.057-1.649 1.513-1.409 2.402.621-2.618.955-2.401-.931.168-.789.144.836-1.921-1.003-2.017-.98.384-.788.96-2.915-2.233-2.724-1.825-1.457-.6-2.031-.721-3.01 1.609v2.522h-1.147v.84l-2.82.937-1.696 3.29-.143-3.843-2.867.721-1.816-.745-.669-2.665 4.085 2.978 4.564-2.618 1.027-3.962-3.703-.865-4.157.697-.741 1.56-.98.577 1.267 1.08-1.099.361-.765-.961-3.584 2.594-3.966.6 1.888-1.345 2.389-1.417 3.655-4.418 3.13-4.803-1.696-5.475-2.509-7.997h-.573l-1.147-2.114-.143.817.334.792-.645-.84-.86 1.369v-1.633l-.335-1.705-.143.648-.382.552-2.939-4.058-6.69.168V340.9l-3.345-.288.478.336.55.216-2.557-.408-1.792 1.273-2.389-1.297-3.034 1.129-.717-2.402-1.959-1.801-2.557-.528-1.147 1.705.813-2.402-.359-2.521-3.201-3.554-.383.384-2.222-1.969.526 1.224-3.464-1.344h-4.253l1.481-1.393.908-.745-.884-3.05-2.389.265-.335-1.153-1.075-.504.359.72-.478 1.009-.383-1.297-1.385-1.465-.598.961-1.075-.385.813.169.74-.385-.43-.912h-.956l.598-.505-.693-.168 2.389-.384 2.222-.864-5.113.48h-5.137l1.243.456 1.266.288-6.284 1.177-6.212-1.873-2.986.48-3.059.192-.955-1.609-.789-1.825-3.321-2.401-2.867-2.113-.908 1.849 1.792 1.561h-.836l-.765-.409-2.604 1.825-3.297 2.402 1.792 4.563-1.983 2.833-.908-6.243-.358-5.836-1.816-1.537-9.557 5.163.502-.312.501-.24-3.918 1.537-1.529 4.298-2.724 3.675-1.983 4.514-2.891-3.602-4.277-3.05-2.676-.528-2.747.528-2.82 1.369-2.867 1.297-1.815-.648-1.482-.625-.119.24-1.625-1.465-2.389-2.161-2.103-2.569-1.218-4.803v-5.836l.31 1.297.884-6.004 1.219-6.34-1.075-.936-1.219-.721.621.313-.191.552-.549-.72-.884.312-.717-.625-.55-.816 1.052.216.908.576-10.824-2.929-11.086 3.842 2.867-1.849-1.624-1.489-.359.744-1.577-.576-.358-4.395-.478-4.802 2.509-1.826 2.389-2.881.191 1.537.717 1.392.358-4.61 1.219-3.771 1.792-3.17 1.027-3.314-2.389-1.176-1.123.288-6.714.312-4.778 2.21-1.935 5.667-2.915 4.635.979.36-1.266 1.345-1.649-.409-2.389-.528-3.727 1.393-4.205.889-3.034-2.162-3.226-.336-.334-.696.836.216-5.018-7.012-3.249-8.622 1.266 1.705.168 2.018-.622-6.052-.812-6.58 1.673-5.715 1.003-4.803-1.362-3.314-1.386-3.506 1.745-.289-.669-1.729 1.624-.576-.43-.504 1.673-1.345 1.744-.601.286-.96.526.816 3.011-2.401 1.983-3.626.86-.168.358-.313.645 1.153-.788.961 1.218-.721 2.987-2.401 1.051 1.273.884-1.729 6.738 2.041 6.283 2.906.669-1.153-.477-1.153 2.007.937 1.266 2.185.526-.504.692.216-.86-2.786-.382-2.209-.86.288-.765-.192.287-.504.43-.361-1.911.313-1.028-.937 5.113-.408 4.779-1.921.597 1.176-.358 1.201h1.409l.86-1.057.12.577-.526.288 1.362-.6.812-.865.407.793-.98.264 2.079-.433 2.078.241-.693.144h-.716l1.505.744 1.601.36-.383-.528h1.147v.937l.526.84h1.792l2.389.168 2.772.384 3.201 2.93 1.099 4.251.215 3.026.55-.169-.263-1.128.454.768.549-.264v3.29l1.888 1.465v1.489l1.218-.216 1.028 4.25 1.744 2.402h1.696l2.605-3.002-.646-6.964-2.556-6.7 1.123 2.545.549 1.657-2.389-9.437-1.768-7.997 1.744-2.114.956-3.53.526.601.788.288v-.504l-.239-.505 7.622-4.803 5.638-6.339h2.199l2.389-1.585-1.673.24-1.433-.721h1.505l-1.505-2.089 1.481.793.669-.889 2.031.336 1.003-2.401-.716.624-.43.841-1.53-1.681-1.075-1.585.669 1.32.383-.72 1.553-.24 1.027.624-.311-1.32-.573-1.225h.334v-.384l.956 2.113.645 1.897-2.389-4.923-4.492-2.738 1.936.601 1.529 1.368.358-1.032-.932-.817h.765l.549-.48-1.29-1.537-1.457-1.705 1.003 1.441 1.625.12-.836-1.633-1.745-.912-.382-1.705-.287-1.778-.238 1.321-.311 1.225 1.696.576 1.816 1.177-.526-1.633-.788-1.489.573.504-.215-3.578 1.338-.672 1.315-.985-.192.529.693-.553-.597.625.573.432-1.409.84.143.433-.406.672-.478.625.597.456.789 1.2-.741.937 1.362.264v1.489l.908.552-1.242 1.922-.168 2.281 3.441-6.94V175.2l-.43 2.666 1.29 2.401 2.389-3.098 1.171-1.633 1.027-4.658 5.065-2.93 2.939-.552 2.246-2.114h.812v1.489l3.608-1.681.526-1.489.836.865-.406 1.008-2.389-4.082 2.628-7.853v.481l.573.384v-1.057l.287-.912.215 1.008.836.24 2.103-2.401 2.078.336.645-1.369 1.338.817 3.082-2.738.287-1.873 2.389-.288 2.963-1.249 2.987.336 2.508-3.458.645 1.369 1.076-.288-1.291 1.153-1.29 1.2 3.273.192h3.178l-2.198.457-.908 1.537-3.154-.937-3.488 2.618-.311.288-1.983 1.369.693.288v3.53l.908.216 1.434.985 2.891-3.434 3.846-3.194.335.888.932.192 5.352-2.137 5.447-2.401-6.809-2.162-4.779-2.257-3.584-2.906-3.01-2.401 1.601-1.705 1.218-1.97h-4.372l-4.779-1.416 5.591-.337 4.97-2.089-.167-1.825.764-.288-7.311-2.233-8.912 2.713-6.785 5.716-6.905 5.355 4.014-4.011 1.887-4.034 3.441-2.401 2.604-3.314 4.468-1.97 4.563-3.89h10.824l8.458.793 6.522-1.249 5.161-2.666 2.079-1.873 2.891-1.561 6.45-2.401.478-3.819 1.458.313-2.891-1.225h1.648l1.338-.505-.86-.576-.717-1.465.598-2.401-2.389-1.801-1.625.696-1.601.889-.287-.6h-.358l-.55-3.507-.979.553-5.233 2.81-5.351 2.088.669-.696.788-.384-1.768-.865-1.649-1.344 5.4.576 5.041-2.858-2.508.937h-2.39l4.588-.72 4.276-1.73h-.621l1.099-.72-5.375-1.873-2.27-1.801-1.601 1.368-1.577 1.25 1.171-1.105.597-1.561-.836.552-1.004-.24 1.267-1.129-2.772 1.97V89.06l-1.625 1.49 1.219-1.418.573-1.585-.884-.192.311-1.56-.621.312-.382.576-2.246-1.945-3.68-1.993h1.434-.454l.382-.169-.86-.408-.86-.36.908-.168.764-.528h-1.744l-1.648-1.49h2.389l-1.625.481 1.147.384 1.195.192v-.624l-.359.384.621-1.609.622-1.296-1.625-1.01-1.983-.912 1.481-1.296-2.389-1.561 1.266-.625-.502-.696-1.624.576-1.792.48 1.625-1.392 1.075-1.657-1.983.528-1.697.312.574-.384-.478-.336 2.27-1.249-1.577-1.08.31-.481.478-.817-2.031.265-1.553-.313 1.482-.144.86-1.152h-.956l-1.529-.817h.765l.453-.576-1.6-1.345-.263-1.657-1.219-.144-1.553.144.956-1.225.239-.672-2.222 1.2.311 2.234-1.386-.36-.789 1.008.932.937 1.028.768h-2.055l-.86.673.597.984 1.099.36-2.389 1.346-.574 2.761V68.36l-1.409-1.273-2.843 2.402-2.676 3.146.143-1.657-.502-1.61-.358 1.201-.932.84.454-1.68-.406-.817-2.174 2.402-3.178 2.161 3.297-1.801 1.051-3.218-2.986-1.85-3.536 1.634v-.889h-1.458l1.338-.192v-1.297l.717.6.406.841.454-1.825 1.099-.864-2.389-3.53-5.185-1.681 3.465-.169 2.389-1.488.621-2.186v-2.209l-6.403-.745-2.126-2.737-1.267-.672-1.314.456-.334-1.201-2.39-.288-4.778-2.57-8.076.505-6.785-1.801-.263 5.763-1.433 2.161-1.195 2.546h2.126l-.74 1.249 1.218.408.311 3.482-1.482 1.777-.955 3.386-1.529 3.602 5.208 4.971 2.724 7.685-6.738 6.676-6.833 4.563 1.195 2.401 1.553 1.705.454 3.194.454 3.746.382 2.402v2.401l-.358 2.402.262 2.113-.788-1.273-1.075-1.441-1.529 2.185 1.242 3.05-3.273-2.833-3.775 1.104.74-5.043-4.515-1.681-.12-3.554-1.099-4.394-.478-5.38-1.409-4.202-5.639-.769-6.284 1.85-3.273-4.66-6.57-2.4-9.318-4.468h-10.417l.43-.384-2.174.552.645-6.051-4.779-5.307-2.556-.937-2.39-.84 1.625-5.067.98-5.524 2.389-4.298.812-3.338 2.175-.985V45.33l2.389-.168 2.891-1.56-1.099-.481-1.052-.6 5.95-2.258-6.595-2.762.813-.408.669-.576-3.943-.96-2.914-1.01.884-.36-.813-.984 5.973 2.665 7.049.961 1.887-1.177 1.625-1.104v-1.873l1.624 1.633.622-1.13 6.188-1.32 1.863-6.148-4.037-1.08-4.779-.889-4.157-1.128-3.919-1.153h4.038l1.673-.288 3.369.984 3.321 1.129.549.936 4.779.457 2.867-2.162 2.389-2.641-1.911-1.369-1.601-1.297 5.041 1.417 5.017 1.057-.716-.697.31-.744 1.267.888 1.433.337-.979-2.186-2.39-2.041.167-.216v-.312l-1.337-.144-1.267.408 1.386-.793.382-.168h1.338-.502l1.458 1.393 1.338-.672 3.918 3.026 5.519-3.819V8.396l-3.464-4.13 2.604-.721 2.724-.937-.621-1.873-2.581.216 2.055-.6.884-1.633-3.99-.816-3.847-1.657 1.936-.36 1.72-.289-6.738-1.56h-6.952l.669 1.872-.335 1.753 1.72 1.201 1.96.96h-1.219l.526.505-.956 1.033.669-.144-2.389 2.017-1.84 3.002-1.648 2.713-1.649 2.57-6.045-1.49-.502-5.378 1.028.264V2.32l-2.389-2.617-3.106-1.129-1.912 1.85-1.051 2.4-.502 1.562-2.007-.193-.836-2.69-2.389-3.481 2.102-.649 1.936-.48-2.39-.624h-2.532l-1.195-.649-4.253-.336.956-.312h-1.147l1.673-1.225 1.863-.936-1.003-.6-1.028.311 1.816-.936 2.389.144-6.713-7.445-6.738-6.003h1.434l1.218-.505 1.696-2.905-2.556-2.282 4.277-.312 4.229.577 1.792-1.441 1.481-1.657 2.055-3.17 3.273-2.762L163.434-38l-9.939 1.417 1.41.696 1.075 1.177h-2.007l-1.72 3.122.501 5.307 2.891 3.242-.979.192-.837.577.383 1.536 1.911-.168-2.771 1.033-2.7 1.249 1.505 1.537h-2.867l-1.028 3.674 2.533 1.08-.645.72 1.003.457-2.078 2.402 3.99 3.794 5.877 1.225.884 2.401.12-1.057.836-.576-2.748 2.113-1.314 2.402h1.745l1.337-.985-.86.408.239-1.056.956.936 1.338 1.585-5.328 3.194-3.608 3.819.478 3.674-2.676 1.609 1.458.792-.574 1.249-.884-1.777-1.625-1.177h2.103l1.983.432-.812-1.464.478-.913-1.338-.144-1.076.744-.692-3.386 1.863-3.914-1.816.6-1.529 1.105.478-.937.55-.912-2.39-.264-1.815-1.105-2.39.288-2.962.48 1.027 1.585-.334-.216 2.389 1.874 3.607 1.512-3.774-.48-2.868-1.465-.884 1.825-4.229-.816-3.99.408h-3.99l-5.399-.912-5.089-1.321-2.748-1.633-2.174-1.61-7.168-2.088-6.88 3.866 2.388.48 2.39.36 2.891-1.465 5.375-1.849-4.061 2.882-5.113 1.681.382 2.906 2.389 4.803-.884-.505-.263.72-.908-.431.478-.769-.621 1.945 2.031 2.402-3.393-2.402-2.532-2.954 1.529.769 1.433-.624-1.338-1.657-1.41-1.297-.955.336-.215 1.009-4.42-3.17-5.615.144-9.007-.288-9.008-.385 3.44-1.969 3.107-1.44-4.325-3.41-5.734-.745-1.075.864-3.727-.672-5.4-1.369-5.424-1.417-5.113-2.257-5.447-.96-3.775 2.257-4.396.96.334-1.393 1.243-.744-1.625-.912v-1.802h-1.911l-1.29.793 1.099-.456h1.218l-2.102 1.056 1.122 1.009h-1.935l.43 1.153-1.41.552 1.816.408-7.167-3.602-5.71-4.082 1.098 1.2 1.41.553-3.273 2.401-3.345 1.225.31-.913.574-.744-4.253 2.881L2.662-1.09l.168-1.104v-1.081l-.168.144.741-1.273L7.059-5.94l2.389-2.257-.765-.168-.215-.697-11.946 5.02-7.168 6.555-2.843-1.657-2.556.24.931.457.646.84-9.82-2.257-9.557-4.227-8.41-2.257-8.339-1.681-19.4-1.417-18.54-1.729-1.41-1.729-7.837-.624.263-.96-1.625-.65-1.983 1.153-2.509.145h1.649l.693-1.321-2.39-.937-1.29-1.273-6.522 3.843-5.185.192-1.816.72-1.577 1.129h1.004l.836.72-.812.577.238 1.248-.764-1.248-.215-1.201-4.062 1.225-3.488 1.32-2.843 3.29-3.13 3.29-3.297 1.393-4.779 1.801-3.249 2.042-3.058 1.68 5.805 2.402 5.137 3.53 3.632 1.993 3.512.385.717.888 2.389.505 1.625 1.873 4.038 1.777-5.137-.48-4.468-2.954 1.314 1.68 1.147 2.402 2.724-.264.621 1.633h-5.83l-6.929-.504.717-1.321.956-1.417-5.615.936-1.888 2.114-5.304 1.825-5.471 1.393.98-.649-.932.264 4.061 2.042 4.516 1.248-2.389.385-1.075-.697 1.72 2.642 3.178 2.401 5.973.168 5.184.505v-.769l-1.099-.288 1.506.36.931 1.321 4.062-2.065 3.034-1.753.956 1.873-2.174 1.225 1.29.96.789 1.345-1.004 2.401-2.389 1.657-4.11 1.105-4.444 2.017-1.672-1.585-.55 1.417-2.15 1.249 1.481.432-1.003.96.502.962-3.297 1.777-1.888 3.121-.98.985.813 1.417 1.601.888.931-1.224.215 1.392.502 1.513 3.68-.288 1.505.697.86.192.621.648-1.744.24-2.389.649-1.123-1.73-2.389 2.186 2.628 1.56 2.078 2.258 5.95-.864 2.389-4.443.573.456.574-.288-.741 5.716 2.27 4.274-.98 1.585-1.003 1.441 4.778-1.825 4.205.937.454-.673h.836l1.673 1.945 1.935.769.43-2.618.478-1.825 1.505.432.454 1.129-1.624-.264.143 1.369 3.44-.769 3.465-1.777-2.604 3.338 1.122 2.762-2.126 1.657 1.171 2.137-2.939 1.177-2.748 3.41-2.246.792-2.532 1.033-1.768 2.666-.335 1.632-1.577-.72-.453 1.105-.574-.769.12-.888-6.045 2.401-4.205 4.467 1.863-1.321 1.243-1.345.573.625.144.792 1.361-.528.813-.96 1.696-1.754v1.297l4.779-1.489 2.699.264 3.059-1.993 2.15-.552.645-.985.621-.408-.884-.264h-.955l3.918-2.594 4.778-1.897 5.018-3.698 5.041-3.29.239-.96-.74.287 2.03-1.897 2.222-1.609-1.481-1.44h-2.174l2.126-3.195 1.696-1.705 1.386-.432 1.29-.672-.716-1.201-1.29-.552 3.464-2.162 4.324-2.401 4.014-2.161 4.23-.697-2.51 2.041 3.656 1.85-5.71-.505-4.062 2.618-1.625 3.65 2.94 1.225-2.175 1.129-1.744 1.633 2.389.672.693-.72 2.604-.817 1.744-1.561v.768l2.127-.6v-1.297l1.003.913-.239-1.345.86-.936.406 1.368.956-1.032 1.625.528 2.103-1.56h-1.052l.765-.745.908-.529-.908-1.297-1.96.913 1.362-.432.407-1.297-.789.264-1.003.144.597-.408-.358-.36 1.887-1.585 1.983-1.369-.884 1.417.717 1.417.263-.745v.577l.55-.865v-1.056l1.767 1.128 3.536-.648-1.314.288v1.177l1.577-.192-1.6 1.104 1.767-.192-.238.648h2.532l.884 1.105 3.393-1.465-.789 1.225-.358 1.417 3.226.696 3.153.913h4.325l4.205-.216 4.778 1.657 5.496.168h-1.362v1.248l-.335-1.272-1.051-.769 5.615 6.316 9.222 3.602-.239-1.128-1.481-.529-.502-1.2h-2.15l.645-.457v-.792l2.556.792 2.39.12-.12 2.402 2.796 1.609-.335-2.738-1.051-3.146v-.456l.55-1.249.549 2.834 1.123 2.401 2.7 1.129 2.246-.504-1.219 1.489.55 1.609h.645l.382-.529.502 1.825 2.007 1.681-.932-.552-1.028-.336.813 1.249 1.624.936-.884.144-.812-.384 2.843 2.401 2.628 3.194h-1.218l1.003 1.201.717-.264-.239-.84.932.624 1.075.24-2.174 1.993v1.921l1.577-1.633.406-.696 1.29-.36 1.147-.745.167 2.882 1.482 1.993H3.236l-.836.673h1.385l1.171-.793-1.577 1.249-.143 1.993 1.744-.648 2.079-1.49.167.937 1.266-.216-1.816 1.105.693 1.2-.98-.192H5.387l1.004.937.501 1.153-1.577-.553 3.775.961-1.385.408.286 1.201-.43.264 2.533 3.242 1.362-2.017 1.051-1.681.143.72.717.313-.908.768 2.174 1.44-1.576-.287-1.506-.337 1.338 2.57 2.175 1.321-.526 1.777-.574 1.777 1.506-.456.669.912 2.986-1.345 1.864 2.402-3.847-.216-.167 3.626.621-1.033.693-.96 1.17.792 1.84-.696-3.392 1.585 1.481 1.008-1.195.264-1.17.361.955 1.032 1.482.913h3.846-.836l-.454.6 1.362-.168-.215 1.081 1.864-.577.931-1.657-.764 1.922-2.39.504 1.22.144-1.052.648 1.935-.576 1.386-.456.812.744 1.768-2.233v1.681l-.812 1.609 1.195-.12 1.576-.457-.812 2.762 2.652.889v-1.273l-.31-.937.477 2.042 1.41.84-1.003.72-.837-.528 1.243 1.009 2.102-1.009.144 1.609h1.17l-.645 1.129-.286 1.08 1.91 1.489-.262 1.345 1.147 1.537.597 1.993-1.003 2.354-1.171 1.777-.287-.408-.454-.145.813-.84.43.696.478-1.128v.504l.19-1.657v-1.777l-1.457 1.657.383.912-.192-1.128.311-2.786-3.536-.264-4.205-1.081.908 3.698 1.41 4.227.286-.6 1.028.6-1.004.865 1.147.744-.836 1.177-.383-.601 1.41 1.898 2.222.312-1.577.576-1.672 1.993-.359 4.059-.358 4.514-.908 3.002-.645 2.402 1.696 14.096 5.496 12.944-.645-.24-.12.72.932.216 1.433-.864.932 1.417.43 2.041-1.003-.697-.287-1.104 2.103 5.667 3.822 6.316 1.888 3.074 2.389 2.401 4.253 1.921 4.181 2.162 4.396 6.412 3.13 7.204 5.209 7.468 3.13 7.901.55-.216v1.129l.477-.384v-.649l.597 1.009-.143 1.176-2.007-1.657h-2.939l3.87 3.891 4.23.312 2.89 4.947 1.458 5.643 6.786 6.028 3.297-1.321-1.912-2.233-2.198-2.041-1.84-5.932-3.01-4.803.382.793v.888l-3.225-6.051-3.656-5.572-2.389-2.569-2.39-2.858-1.122-5.091-1.195-5.043 4.779 2.834 3.584 3.169 2.986 6.028 3.226 5.86 5.853 4.802 4.779 5.74-.932 2.041 1.649.865-.263.48v.528l3.297 2.21 3.082 2.713-.502.36-.621-.408 7.431 8.621 2.819 9.462-.693 1.777.645 2.858 2.915 2.834 3.536 2.137 8.912 5.163 9.414 4.539 3.798 1.873 3.919 1.633h6.212l5.758-1.321-.86-.144.454-.648 1.672.696 2.389 1.153-1.075-.553-.884-.792 4.062 2.617 2.843 2.81 3.488 3.842 4.779 1.874 3.703-.385 2.796-2.401 3.99 2.401 2.246 2.738 1.314.865 1.123 1.08-.574.408-.86-.768 3.56 5.019 5.208 3.842-1.075 3.867 3.106 3.338.239-1.489-1.218-1.537 4.42 5.067 4.038 3.89-.287-.864-.526-.745 1.529 1.225.908 1.969 3.417-.744 3.512 2.521v-1.032l.812-.169.646 2.402 1.839.288 1.004-2.113-.717-1.465 3.871-3.77 4.587 2.545.741-.6.406-.432.573 1.224 1.027.817-1.648 1.969 3.249 5.667v5.788l-.406 5.571.502.384 1.027.409-4.563 5.859-3.68 4.635 2.246 1.585 2.222 1.825-1.839-1.153-1.649-1.44-3.942 3.554-3.082 4.995-1.291 4.106-.979 4.419 1.409 1.297 1.458 1.224.43-1.056.741-.841.286.601-.334.528.525-1.201.526-1.393-1.29 3.074-1.243 3.266-.453.312-.693.793-2.39 4.611.837 4.274-.55 1.489-.43 1.129 2.604 1.945 2.987 1.969 5.137 8.693 3.846 9.606 3.704 9.102 3.751 8.333 12.161 9.365 11.516 9.198 1.219 13.688-1.744 12.896-1.577 12.871-2.581 12.704-.358 10.518-.406 10.879-3.68 10.734-4.563 8.454.358 5.235 1.147 5.235-1.027 3.746-1.195 3.674 2.389 6.148 3.728-1.441-.956 1.489-1.051 1.393 1.648.312-.191 2.401-.406-1.008-1.075-.216-.239 4.154v3.65l-.645 1.273-.98.961.956 1.393 1.672.144-1.457 2.641-2.055 2.282 1.123.192 1.457.768-2.389.288.813.961-1.888 2.401 1.051-.528-.788 1.729-1.41 1.321.741-1.297-.693-1.153-.717.913-1.648-.576h1.051l.956-.481-1.362-1.152-3.178-.192.836.6-.501.432.692.192.383-.84-1.744 2.93-1.147 2.521v-.912l-.908.144 1.457-.985 1.529-.864v1.657l2.007.888.98-.312.167 1.321.478.336.478-.528-.454 1.801v1.417l-.645.144v.528l-1.171-.528-1.051.24 2.747.456 2.915 1.105-.693.168.765 1.2-2.222-1.176-1.505.888-.693-.84-1.004.312 1.936 1.201.86 1.657-.693-.36h-.789l.12.96.98.264-1.506 1.489.55 2.834.645-1.657 1.051-1.057-.525 1.801 1.242 2.138-.956-.745h-1.218l.143 1.369 1.219 1.129-.956-.144-.908-.361.645 1.441 1.434.601-1.673-.769-1.839.168 1.672.745 1.505 1.176-.717.12-.692-.36.525 1.153 1.028.72.573-1.104.693-1.033-.335.745.598.408-1.147 1.104-1.505.745 1.338 1.081.931.576h-.621l1.028 2.233-1.291-.696 1.697 1.104.119 1.225-.502-.528 1.076 2.089v-2.641l1.075 1.368-.86-1.921 1.505.649h1.577l.191 2.545-1.505 1.513 1.075-1.465-.884-1.417v.817l-.12.744-1.553-.192-1.815-.912.191 2.017-.168 2.089 1.434-.985 1.457-.384-1.075.889-.908.84.645 1.057.669.72 1.314-1.729-.358-.648 1.004-.817 1.29-.144.884.144 2.915.577-2.891.504h-2.246l-.621 2.401h-1.96l1.53 1.681 2.198.577v-1.921l-.359-.793 5.328-.36-2.843 3.074.502-.961-.526-.744-.502.672-.716.456.549-.768-.717-.336.407 2.185 3.225 1.345 1.672-2.81.717-3.746 5.304-2.089h4.898l-1.433-3.338-3.417-1.081 1.601-2.401-.884-.649 2.222-2.689 1.983-2.786-1.529-1.105v-1.152l1.099 1.44 1.314.721 2.031-2.522-.669-1.608 5.734-5.116 3.178-5.691-5.711-4.443v-7.06l3.871-2.401 3.225-2.21.359-1.897.143-1.801 2.127-2.642 1.959-2.401h-1.434l-1.147-.841 4.564-.768-2.031-2.257.717.24.549.48-3.584-3.578.669-5.067 5.257 1.945 5.543-2.521-.215-4.299-.621-5.451 10.942.168 9.414-4.803 1.744-2.257 1.434-2.402-.55-2.714-1.123-1.248-1.051-3.723-1.362-3.314-1.481-1.921-1.243-1.897-.119-4.563 1.123-4.37 3.703 10.878 12.52.337 5.232-5.476 3.895-6.892 1.887-4.13 1.84-2.882v-3.891l.597 1.032.765.889.621-.577.717-.456-2.581 4.803-3.369 4.995 8.172-9.366 5.256-9.605 1.123-6.028-.478-6.148 1.027-.432.502-.985-.884-.24-.621-.696 1.457-.48.645.768 7.168-6.34 8.434-4.202 1.482-1.946.716 1.033 2.222-1.153 1.744-.912 1.96 1.465 2.675-.913 3.537-4.418 2.389-5.644 5.065-15.537 1.816-16.81-.574-.385-.167-1.056.812-2.402.837-2.401.621.816.119 1.033 4.158-4.803 1.744-5.691 3.369-1.609 1.792-3.506 2.747-4.587 1.816-7.805-.167.144zM222.711 159.639l-8.028 5.427-9.27 1.633-.621-1.008.119-3.002 5.878-.457 7.168-1.464 1.099-1.033 3.082-1.873.764.744-.119 1.033h-.072zm-.406-5.812l4.778-.504h4.325l-.454-.432.55-.48h-3.011l4.181-.865 4.444-2.401-1.863 1.464-1.529 1.633.167 1.73-1.935 2.401h-5.4l-4.444 1.465-.741-.841h-1.744l.358-2.065 2.39-1.201-.072.096zm-41.238-26.079l-.168.384 1.84-1.753-.167 1.057-.597.936 2.389-2.401 3.799.312 4.444 2.545 4.778 2.114.836 3.434 1.458 2.809v1.153l2.27 1.753 4.945 1.177h4.54v.552l-.263.288 4.038.889 2.556 2.113.335 2.234 1.41.696-1.195.816-.645 1.369-3.512-1.633-3.13-2.641.43 6.604-3.632 6.171-3.225-5.043-3.154.577 1.744-3.795.167-4.802-5.375-1.778-3.274 4.803v-2.281l-3.464 6.82.358 7.757-5.877-.288 1.409-12.368-1.505.576-1.194 1.081 1.839-3.77 2.533-3.458.406.336.86.937 6.236-1.057 5.424-1.057-1.912-1.585-2.676-1.056-2.15-.24-3.297-.385-4.97-.864-4.181-.144v-1.369l-.812-1.105-5.352 3.05-3.608-1.489-2.748 1.105-2.795-.12 6.785-5.836 7.168-4.082-.119-.048z" fill="#F7F7F9" stroke="#DCDDE0" stroke-linecap="round" stroke-linejoin="round"/><path d="M894.963 27.087l-2.669-1.872-4.483-1.873.717.229.701.197h-1.189l-.824.335-.442-.38.61-.38-2.15-.199h-1.784l1.357.853-.412 1.279 1.037.38-.396 1.325-1.8-2.893-1.037-2.603-3.827-2.466-4.682-2.146.534.258-1.312-.609-3.4-1.963-3.92-1.066-.198-.502.793.32-7.35-2.315-8.265-.532-2.837-.26-4.727-.654.351 1.523-.854.974 1.876 2.085-2.898 1.523-1.738-.838-1.998-1.126-.473-.853-.274-.73h-2.638l-6.771-.594-7 .137-2.973.259-2.852-.746-.275-.99-.305-.654-1.524-2.147-5.231-2.146-7.716.898-7.35-.563.991-.533-1.388-1.05h-1.967l-1.952.533-.092-1.66-2.943-.928 1.525-.122 1.373-.487-6.649-1.523-7.03 2.162-.778-.959 3.05.274-.152-.792v-.715l.732.502.671-.258-.122.7-.336.807 1.205-.792.396-1.218-3.568.091h-2.928l3.355-.32h3.644l-7.701-2.207-8.722-.532.457.76.656.792-3.202.381-1.739 1.644 1.312-.137h1.235l-1.129.685-1.174.426 1.129.929.594 1.34-3.05-.548-2.348.867.442.274.534.122-.839.152-.762.32.412.137.32.29-4.728-1.98-4.422 1.325-2.196-1.081-2.379-1.035-1.433.639-.869 1.705-2.166 1.614-2.455-.35-2.303-1.63-1.525-1.933L732.876 2 731.595.843l-.869.99-1.51-2.147 2.105.426 1.525-.365-1.632-.944-1.525-.64 1.876-.44.503-.853-1.769-.244 1.525-1.02-4.01-1.522-3.172-.563-1.175.09-1.143.32-2.791-1.141-2.516-.244-.808 2.42-2.349 1.173h-6.1l-4.788-2.1.656-.29h.701l-6.694-.868-7.838.61.488.654h.838l-1.708-.853-1.128-2.207-2.303 1.385-1.403-1.522-3.202.304-1.967 1.37 1.936-.335 1.525.229-2.211.791-2.333.092-1.433.99-2.593.639-4.041 1.08-3.538.944 2.516-1.218 2.364-1.72 4.575-1.857 4.148-2.512-.473-.198h-.519l3.721-1.233 3.66-1.705 2.852-2.633-2.959-2.192 1.846.472 1.708.76-.366-2.07-1.327-1.4.305.64-1.22.456-.198-1.614-1.663-.121-6.755-1.523-8.54.792 1.678-1.02.808-1.522-2.547-.29-2.562.442-.244-.579h-3.385l2.775-.928 2.806-.472L660.06-27l-.595 5.922-4.483-.168-4.331-.472 1.174 1.203 1.098 1.233-3.66-.335-1.753.503-3.05.547-3.05.198-.518-1.522-4.575.228-.793.472-1.388.472 1.403.107 1.83-.122-6.786 1.873-7 .791-2.409.64-2.943.837 1.189.228.58.716-.504-.26h-.564l-.167.823-.58.73-1.159-.106-1.159-.518v.716l1.952.624v.365l.976.548-1.342-.076-1.525-.198.519.533-.732-.213 1.631.913 1.952.67-2.668.746-3.554.898-6.252-.106-5.993 1.263-.29.99.687 1.004.366 1.995.96 1.446 2.41.761 1.616 2.07-3.614-.396-2.623-1.522-4.575-.167-3.355.593h1.236l.732.853-2.745.183-3.05-.183 3.919 2.542 2.577 1.994h.839l.808-.213h-4.209l-4.468-1.02-1.113-4.567-1.662-3.044-.641 3.836-4.01 2.801 2.638 4.72-.305 5.19 6.1.579 5.245 3.744-.64.412-.625.334.64 1.34.625.502 1.129.274 1.266.396-2.654-.228-2.272-1.05.351-1.264-.122-1.873-4.072-1.75-3.309 2.618.442.822.442.96-.64 1.141-.869 1.127-1.723 2.04-2.242 1.43-4.88 1.233-5.292-1.887 3.493-.259 3.797-.426 1.265-.929 1.114-1.43 1.769-4.4-1.525-4.217v-2.33l.091-2.146V5.38l-1.113-.76-.976-.975L579.573.6l-.427-3.608-3.964-.7h-3.416l-4.194 5.085-3.995 4.901 1.174 1.523.305 2.1-.107 1.858 2.547.472 1.296 1.872 1.433.974-.777 1.63-.946 1.521-5.093-2.572-4.834-1.736-5.52-2.694-7.015.944 1.525 2.542-2.471 1.72-.93.853v-1.386l-.701-.548v-.593l-1.525.182-.793.883-3.553.137-3.981.67-2.79 1.279-3.37.228.854-.609 1.021-.213v-1.522l-.838-.716 1.174-.091 1.144-.305-3.706.442-1.083 2.116-.686.365h-.778l-1.082-.822-2.135.61-1.525.623-1.418.822-2.44.579.244 1.34-1.998-.107-1.113 1.065-.336.838-.122.76-1.753.595-1.708.654-1.434-.883-2.165-1.507 1.281-1.811 3.05-.503-4.118-3.334-5.017-.137 2.394 2.314-1.006 2.908.839 1.203.747 1.126-.595 2.131-.091 2.314-.946-1.142-1.037.411.229-.898-1.129-.776h-1.83l-1.662.517-2.577 1.234-2.486 1.613.305 2.131 1.281 2.451-4.01-.533-1.784-.852-1.739-.655-1.525-.73-.915.67-1.006.44 3.05 2.239.35 2.04-3.049-.32-2.791-1.522-1.617-1.34-.686-2.055-.122-3.182-3.568-1.644.61-.152.29-.548h-.931l-.915-.168 1.083-.32h-1.342l.58-.12h.579l-1.769-1.265-1.998-1.02 6.756 2.086 7.625 2.025 9.332-2.36-2.47-6.226-3.294-1.172-4.682-2.192-5.444-1.75-4.773 1.613.687-.99.564-.837-.778-.32-.747.411-.488-.67-1.449.26.793-.442-1.311-.548 1.525.167 1.525-.517-1.617-.685-1.647-.32-2.089.761-2.653.411-.641-.41-.808.243-.351-1.157-2.12-.579 3.416-.243 2.867-1.081-1.143-.64h-1.312l-2.669-1.035-2.47 2.101.381-1.02-1.372.137 1.098-.867-1.525.228 1.189-.38-.716-.32.93-.244.747-.578-1.738-.533-1.815.7.595.122.488.38-1.236.822-1.631 1.188.32-1.355.091-1.4-2.5 1.826-2.135 2.025 1.021-1.812 1.525-1.705h-.976l-.427.274-1.616-.41-1.373.502-.549 1.78-2.226.914.32.472.427.579-1.372-.122-1.617-.213v-.7h-3.172l1.022.593h1.174l-.274.396.457.38-.228.168.396.746-2.104-.518-.885-.441-1.037.898.564 1.187h-1.281l-1.128.883.915-1.522v-1.614l-.854 1.37-1.052 1.203-.503-1.842-.443 1.31-.732.167.382.472-.839-.35-.885-.198.534 1.035-.884-.7-1.403 1.4-.321 1.522h-1.067l.732.426h-2.165l-.824.822 1.876.35h1.814l-1.082.244-.168.366-2.44-.26.793.747h-1.388l1.236.41-.839.381.168.244-.915-.183.716.518-1.342-1.111-1.601.38h.915l.885.183-1.19.441-1.418.137.259.152h-.716l.747.366-.747.487 1.402-.472 1.327.35h-1.189l-.488.563h.899l.9-.09-.64.273.152.533-.93-.213-1.083-.213.122-.29-.838.29.366.365-1.114.396 1.525.198 1.525.106h-1.967l-.579.868-2.196.183.457.822h-.991v.137l.518.121-1.296.427-.351-.137.717.335.854-.061-1.052.38h-.869l.152.883h1.022l-.793.61-1.327.547.854.198.534.7-1.251-.213v1.02l-.777.168.899.608h-1.28l-.351 1.005.777-.32-.137.64.702-.137.61-.411-1.083.807h-1.342.808l-.289-.442-.992.38-.808.518-.335.38.671-.106h-.9l-.137.579.762-.274h.778l-.686.182-.427.564.472.487-.976.7-1.723.305-2.79 2.085-.641.563 2.089-.608.885.76.732-1.035.884-.547.915-.503-.198.396h.564l-1.022.7-1.281 1.294.671-.122-.167.503-1.525.243-1.205.29v-.868l-1.632.259.321.213.427.137-1.525.487.228.198-1.525.517.565.503-.397.213.32.243-.869-.517-.808-.32.686.883.808.761-1.997-1.126-2.257.137.732.41-.656.153.854.228.869-.228-.351.594.656.243-1.998.091-1.906-.121 1.114.38-1.175.152 1.358.336 1.524.38-.579.487-.64.305-.382-1.249-.564.899-.534-.564-.747.107v.609l.595.274h-1.952l-1.312-.35.351.38.458.244-.336.746-.823.487.686.41-.641.123h.976l1.144.41-1.921.427h1.387l-1.769.228.427.487h2.349l1.952-.578.777.472 1.083.198-.732.441-.61.518-2.241-.777-2.669.396.351.213-.473.122.549.426.701-.167-.381.137-1.006.152.93.533 1.083-.305-.412 1.096-1.037.366.305.396.244.441.503-.29.244-.547v.761l.442.67 1.251-1.05 2.241-.823-.945.487-.625.899h-1.144l.107 1.37-.641.121v.381l-.854.198-.716.411.411-.29.077-.502-.671.716.198.807.274-.26.092.412.122-.35.229-.502.472.487.397.09.93-.562.671-.26-1.281.808.214.289h.518l.503-.091-.915.426-.701.472.625.807 1.205-.64-1.296.229.305.563-.9-.305-.915-.304 1.037 2.131 2.455.761 1.525.32 3.645-.929 1.433-1.415.686-1.325 1.266.396.976-.913.137-1.035.686-1.523.549 1.69 1.525 2.085-.533.746 1.174 1.264-.381.746.884-.366 1.647 6.41.945 4.901 7.091-2.907 2.73-6.683.671-1.005.427-1.203-.671-.548h-.869l2.516-.685.976-1.142 1.311.168.504-1.066.472.153.305-.26-.762-.151-.534-.274 1.525-.503.305-2.192-1.815-1.416-2.333-.99v-1.902l-.366-1.675.382-.121-.26-.366.854-1.233v-2.07l1.022-.396-.092-1.888 1.159 1.036.199-.685 2.15-1.203 1.708-.73 2.455-1.964 2.745-2.04-.747-.96-.778-.821 1.144-.624v-1.523l1.387-.457 1.068-.197 2.302-1.386h2.303l1.647.975 1.525 1.309v2.009l-5.505 3.669-4.575 2.74-.61 2.147v4.612l.198 1.933 1.327 2.725 3.172.472-.412.807.793.426-.335.366-.549.563 7.625-2.299 7.975-1.233-.092.929-.671-.38 2.257 1.689 2.273 1.066h-3.782l-1.434 1.978-4.986-.578-4.789.198-2.531 1.218.671 1.522-.671.152-.336.624 1.327.366 1.296.38-.122 1.112-.244 1.34-.594 2.222h-2.273l-1.387-1.157-1.937-.655-1.921 2.238-.839 2.086.442 2.283.229 2.238-1.8 1.78-2.134 1.63.899-.624 1.296-.32-2.394 1.233-.152-.396-2.516-.274v-.517l-6.1.685-6.1 2.085.503.335h.61l-2.806-.928-3.278-.61.488-.578h.747l-3.492 1.522-1.159-1.415-1.861-.153-1.357-.121-.091-.975-1.251-.41h.976l-.213-.61-.61-.152.656-1.522-.26-1.02.9-.259-.107-.35 1.083-.792.686-.152-.244-1.522-.701.198.305-.716h-1.129l.244-1.309-1.784 1.75-.778-.532-.899.73-.61-.365-.671-.365.122 1.903.442 1.05-.458.137-.259-.472 1.327 3.273v3.045l1.449 1.157 1.86 1.735-2.501-.99-1.067 1.675-2.074-1.08-1.968.898.443.304.533.107-3.187-.29-3.69 1.888-1.708 3.045 1.738 1.233-1.28.121-.946.396.412.137.305.335-1.098-.487-1.068.228 1.205.427 1.311.076h-.411l.137.41-3.141.092-3.371.974-.945 1.66-.671 1.72-2.028 1.218-.092.776-3.492.441-3.05-1.309-1.037 1.949-.838 2.299-3.05-.7-2.776 1.308.565.122.549-.167.122.32h.396-.778l-.686.837 2.653.64 1.724 1.323.442-.471.656.121-.183.305h1.082l-.152.472.961.319.091 1.447 1.037 1.522.671.776.686.761.183.883-.457.107 1.265 1.279.626 1.613-.641-1.263-.899-.944-.412 1.796.32.99-.595 2.222-1.159 2.558.763.472.396.609-10.003-1.325-8.769-.091h.259l.122.167-1.525.366-1.326.852.305.655.701.182-.442.838.808-.427v1.188h.381l-.427 2.649.321 2.74-1.373 3.608-.686 3.41.717-.275.457-.624-.152.975-.473.806.686-.167.625-.335-.411 2.36-.183 2.831 2.272-.167 1.784-.716 2.135 1.918 2.699 2.299 1.754-1.081 2.028-1.279 3.736-.609 2.928-1.202 2.074-1.385 1.25-2.056.824-1.431.305-.791.427-2.36.991-2.572 4.666-3.441 2.334-3.379 1.311-2.801 3.172-1.081.717.624 1.021.563 1.525.213h1.525l.915-.182.93.472 1.754-.853.458-1.872 3.492-1.233 3.05 2.603 1.875 2.314 1.815 2.192.625 1.766 1.418 1.781.946-.442h1.601l1.952 1.035 1.373.929 1.906 1.857 1.448 1.994-.381 2.786-.442 2.147 1.525-.427 1.159-1.948.686-.472.549-.487-.549-1.309-.701-.731 1.83-2.299 2.805 1.644-.823-2.253-1.815-1.4-2.592-1.233-.61-1.781-3.203-1.523-3.187-3.151-1.372-3.364-2.821-1.324.762-3.228 3.477-.593-.457.395h-.397l.412 1.34.701 1.172.595-1.05.702-.913 1.616 1.689 1.449 2.071 1.265 1.811 3.798 2.329 1.189.853 1.662 1.385 2.013 1.522.671 2.055v1.995l-.442 1.096 2.409 3.151 2.562 1.827h-1.022l.488 1.233.58.943h2.943l2.531.488-2.012.167-2.44-.274-.26 2.466 1.327 2.207.702-.35.823 1.31.717-.868 1.098.928-.534-1.826-.64-1.873.945.67 1.006-.167-.518-.731-.701-.898h1.524l1.19.852-1.007-2.603-2.882-1.522 1.205-.32-.244-1.248.579.32-.213.593-.747-2.451.396-2.664.671 1.325 1.342.928-.793-.487.244-.578.61.532.747.335-.366-.517-.35-.518.838.092.946.441-1.098-.898-.641-1.142 4.042-.609 4.132 1.005-.839 1.035-.686.913 2.135-1.522 2.074-1.629h1.815l1.525-.38-2.12-1.827-2.226-2.679 2.241-3.562 1.754-3.791-.29.152.473-.411-.503-.517.503-.594.168.457-.199.441 1.785-1.263-.168-1.781.564-.488.869-.395-.076.289.107-1.994.656.274.274.685 1.357-1.523 1.632-.989.625.533.183-1.523.58 1.325 1.525.122-1.525.548-1.525-.274.976.426-.336.502 2.882.503 2.486.776-1.738 1.005-1.525 1.065 2.562 1.629 2.5.685 3.142-1.172 2.745-1.142-2.089-.335-2.029-.578-.228-1.842-.077.213 3.996-1.827 4.193-1.72h1.846l1.753-.106-2.074 1.324-2.272.335 1.19 1.065.869 1.081-1.708.807-.503 1.751-1.647-.152-.809-.153.351.533-.778.381 2.12 1.096 1.922 1.111 1.769 1.309 1.723 1.172 1.875.624 1.952.381-1.265-.304-1.007.685 3.691 2.451.244 4.003-6.42 2.025-7-1.279-2.425-1.34-2.302-.959-4.011.244-3.751 1.279-4.057.73-3.4.503.64 1.035 1.418.35-1.921.228v.762l-4.712.152-3.569 3.044 1.159-.137h1.159l-.244 2.086.748 1.522-.61.198-.565.274-.122-.731-.488-.456.458 1.278 1.632 1.447.137 1.613v1.325l1.296-.32 1.342.152-1.235.594-1.098.502h.991l.961-.335-.381.366.167.426 1.983-.305 1.311 1.188 3.477-.731 3.767-.106 2.714.913 2.73.167 2.958-1.37 2.943-.624-.488 1.523.412 1.72-.473-.168-.411.092.213 1.811.29 1.933.793.198.777.777-1.189 2.116-1.22 2.055-.976.533-1.22 2.146-.93 3.547.717 3.638-.824-1.963-.778-1.979-2.622.669-2.562-.685.076.457-.366.304-.747-1.065.93.243-2.181-.761-2.104.533v-.518l-.808.96-3.767.38-4.087-.548-4.575-.944-4.041-1.385-4.285-2.299-4.758.305-1.799 2.923-.549 3.044-3.05 1.111-3.324-2.024-3.188-1.309-2.745-1.675-2.287-1.69-2.943-1.248-3.309-.578-2.821-.792-1.678-1.111-1.113-2.071 1.067-.943 1.144-1.142-.107-1.431-.167-1.096-.244-2.253.564-2.192-.961.076h-1.067l-.504-.32-.61-.152h-1.86l-2.165 1.811-1.098-1.187-3.447-.137-4.026.274-4.346.335-8.631 2.892-6.191 3.334-1.342-.563-.869-.183-.336-.396-.076-.532-3.34.578-2.928-1.522-1.342.213-1.052 1.522-1.25 2.238-1.525 2.192-2.211 1.279-2.151 1.339-1.86 3.395-.961 3.775.199 1.157v1.416l-1.678 2.786-2.501 2.101-2.546 1.172-2.364 1.233-4.118 5.709-3.431 6.637-1.708 3.775-1.189 5.176.412-.746.93 1.355.213 1.172v2.329l.397-.381-.549.442.823 4.887-.823 5.175-1.418 2.177-1.144 1.934 1.296.822.595 1.644.442-.609.686-.29-.625.396-.366.624.732-.274-.473.548 3.92.29 3.659.776-4.666.137-3.279 2.253 1.19-.167 1.525.137-1.449-.092-1.327.366.58.563h1.159l-.122.868.564.837 1.632-.35 1.189.243-.823-.259-.686.335.35.442h.732l-.549.974 1.663.655-.275.441v.518l.229-.198.442-.32 1.616 3.364 1.937 3.471.351-.137.488-.182-.32.654-.641-.122 1.007 1.69 1.83.944-.534.426-.229.137 3.843 2.923 4.041 3.045 5.795 2.329 6.405-1.523h-1.007l.564-.258 2.608-.229.686.092 1.098.258.961-.502.549.548-.32.137 6.496-.289 6.694-3.151 2.379-.518 3.05-.472-.533.563 1.906.122 1.311 1.112 1.281.289-.259.761.396-.213v.38h.458l-.61.183h.9l.518 2.908h2.318l.107.198v-.411.426l.244.289-.076-.639v-.64l.106.67.351.579.305-.594v-.411l2.028.517 1.113-1.157.915.396.671-1.355-.579 1.188.213 1.05v-.456h.443l.594 1.309.976.867.366-.395.351-.244v1.203l.442 1.126.092 2.131 1.052 1.31h2.074l1.982-.427-1.265 1.523-.336 2.268-2.547.289-1.738 1.203-.427-.35-.32.274.778.7 1.036.319-.945.259-.732-.548-.534 1.66-.488 1.765-.244-.304-.366-.426.824 1.842 1.296 1.05-.869-.152-.58-.716 1.037 1.447-.335.197.854 1.294 1.326.716h-.488l-.472-.183 4.285 5.115 4.88 1.081-1.342 1.857-1.159 1.629 1.311.533 1.662-.259-1.525 4.065 1.007 4.856.412 2.892 1.372 3.045-.564 3.684-1.8 2.77-2.531 6.683-.534 7.094 2.486 6.089 3.187 5.922 1.205 3.653.503 3.76 1.647 8.282 4.209 5.663.488 3.364 1.693 3.714 1.204 2.147.885 2.298-.397 1.447-.549.502.702 2.786.793 2.481 1.098-.228 1.86 1.522 2.76-.335 2.791-.822 5.596-.396 5.353-.746 1.952-1.141 3.05-1.386 3.843-3.257 3.263-3.867 4.392-6.089 2.745-6.835-1.983-.67-.442-2.344 2.471 2.207-1.053-1.979 4.758-2.862 3.37-3.958-.122.213h-.228l.122-2.557.366-2.573-.138.183v-.442l-1.372-2.953-1.205-4.673 1.83-.67 2.486-1.781.793-1.249 1.052-1.522 5.398-3.045 4.682-4.323.503-5.663-.808-7.033-.915-2.573-1.327-2.785-.335-3.502v-3.394l-.854-1.918-.656-2.284.61-2.192.93-1.233 2.242-4.11 1.525-3.304 6.344-6.226 7.624-7.094 5.429-6.485 3.965-7.428 1.113-2.071 1.052-2.101 1.525-2.861 1.251-2.375-.549-.213-.519.289.656-2.649-2.089-1.324-3.446.73-3.737 1.036-2.729.532-2.699.472-3.828.29-3.05-2.177-1.693 1.415-2.15-.243.488-2.314.763-2.207 1.357.35.64-1.188-1.189-1.004-1.052-1.096-3.05-3.197-3.218-2.421-.107.594-.076.594-1.921-4.263-1.296-4.49-1.693-1.523-1.708-1.781-1.22-7.185-3.629-4.856v-1.873l.777-.913-5.52-9.453-3.202-9.545 1.677 3.988 2.836 3.182.61-2.832 1.083-2.831.092.137.198-.32-.595 2.542-.305 2.375 3.248 3.897 3.569 5.983 2.577 2.892 2.272 3.167.29 2.801.686 3.303 1.937 2.04 2.043 1.918 1.312 2.466 1.25 2.558 1.525 1.902 1.205 1.995-.107 2.511-.351 1.69 1.281 4.186 1.876 3.365 3.05-.305 2.653-1.766 4.483-1.659 4.484-1.705 3.522-1.218 3.355-1.613 1.724-1.751 2.058-1.888-.884-1.248-.336-1.522 4.224 2.101 4.667-3.045 2.531-1.735 2.257-1.675.076-1.72.107-1.873 1.007-.959.335.518 3.248-5.161-2.882-4.764-3.141-1.523-2.806-2.451-.122-1.826-.534-1.751-5.414 5.526h-6.237l-.442.091.229.579-.61-.761.107-.792-5.704-7.916-8.143-6.089 1.632-1.522 1.525-1.766.976.137.854.213 1.143-.426.809-.883 1.22.746h1.174l1.235 1.172.991 1.659 1.525 2.223 2.059 2.237 3.477 2.71 4.193 1.355 1.403-.792 1.266-.761 2.455.563 1.266 2.497 5.657 2.101 6.1.304h2.806l3.34-.259 3.355-.197h3.659l-.427-.335-.549.152 2.822 2.847 2.333 1.887.412.472v.579l.854-.335.808-.457.472 2.527 4.087-.304-1.372 1.674-2.379.411 2.775 3.684h5.231l.518-1.994 1.617-1.035-.488 1.4h1.25l-1.296 4.08.503 4.399.305.64v1.963l1.236 4.917 1.662 4.567 3.309 8.038 3.172 8.281-.305-.669-.183-.67.732 2.877 1.906 2.283 3.05-2.009 2.974-.776-.915-1.523.899-1.811.763-1.523-.168-1.522 1.22-3.638-.153-3.364.29.106.275.289-.183-5.008 2.18-1.735 5.46-5.968 6.298-5.678h-.397l-.244.35.656-1.02.152.457 2.379-.929 1.769-2.024 1.068-2.664 2.013-1.949.259.913.091.96.138-.427.289.229.153-.411v-.427l.168.533v.579-1.066l.35-.989-.152.776.351-.579.076 1.173.671.304v-.548l-.275-.472.336.152.076-.502.259.7.122.701.366-1.005.122.791.321-.867-.077-.914.168.777.183.837.519-1.02.533-1.172-.183 1.294.839-.411-.351.487-.228.533.274-.229v.381l.579-.563.092-.883.32-1.249-.716-2.329h.762l.29-.487-.107.274h.274l.519 2.421 1.616-.564.275 1.401.884.091.229 3.045.625 1.126.687 1.599.579-.152.381 1.217.595-1.141-.168.532h.229l-.168 1.051.229.122.259.517-.259-.807 1.525 1.066.717 1.37h-1.556l1.601 1.324v-.639l.229-.852 1.281 5.175-.457 4.872.64-.822.458-.685-.336 1.522.244.594.32-.655.473-.563-.335.685v.761l.488-.487.366-.579-.183.518.228.502.168-.563.259-.533-.122.609.092.624 1.525-1.522.96-1.751v.625l.885-.092.473-1.202.137-1.233.93 1.75 1.418.914v4.125l.976 4.871.229-.73-.091-.761 1.128 4.11.579 2.527-.762 2.725v2.77l.518-1.339.61-1.203-.625 8.053 4.423 7.611.96 4.232 1.723 3.837 4.103 2.679 2.851.761.366.426.412.335-.976-2.892-1.159-3.486-.747-4.567-2.623-3.304-.305.868-.641.548-1.326-2.633-2.852-3.258.519.731.35.822-1.845-4.963-1.738-4.4.899-3.044 1.251-3.045 1.022-2.39 1.677-.685.442 2.055 1.891.548 1.174.99.702.243.732.746.61.746v1.172l.183 1.249.778-.305.457-.38.122.959-.183.746h2.089l1.983-1.218-.687.898-1.082.67 1.052.746.793.928-.442 1.903-.443 1.796 2.151-1.096.64-3.044.793.837 1.022.518-.198-1.066-.839-.989 1.525 1.111-1.053-1.127 1.144.594-.793-.792h.549l.442-.319-.274-.168-.305-.091.549-.381.473.411 2.287-.837 3.172-1.933.717-2.421.488-1.111-1.068-7.002-4.209-5.131-1.159-1.628-1.982-1.751-.823-1.949-.519-3.212 1.708-2.405.61-2.268 2.242-.7 1.006-1.233 1.022.228.808-.076v-.442l-.122-.487.092.168.122-.244.259.487.488.503.61.152 1.281-.487.503.578.518.183-.244 1.903.214 1.857 1.388-1.005-.702-1.004.442-.488.214-.959.778.183h-.107l2.684-1.126 1.997-1.127.854.457 1.129-.944.259.487.412-.381-.366-.578-.168-.655.351.746.701.35-.076-1.263-.854-.853.732-.487.93-.152-.838.274h.335l.854 1.522 1.738.076v-.532l.61-.381.748.305h1.311l-.091-.411-.26-.366 2.44-.213.504-1.111 2.409-1.172 1.83-1.705-.305-.411-.549-.092 1.159-.411 1.022.229.625-1.157.122-1.005.549.152.533-.198-.137-.35-.35-.152.671-.228.625.289-.259-.914.442-.852-.702-.259-.899-.35h1.372l.564-.792-.396-.258-.366-.853.976.122-.229.502.9-.943.305-1.401 1.067-1.309 1.876-1.264.229-1.172-.793-1.035 1.296-.091-.717-.731.702-.502.472.274.229-.625v-.791l-.534.32-.64.38.686-.776 1.037-.7-2.226-.594h-1.251l-.656-.457h-1.082l2.501-.974 2.211-1.264-2.638-2.877-3.203-1.522.199.274h-.473l2.455.472 3.507 1.096-2.912-5.404-4.346-4.324.991-2.435 1.997-1.675-.442-.304v-.548l.366.152.122-.289.092.38.183.335 1.021-.913v-.7l1.525-.762 1.861-.669.671-.533 1.22-.792-3.889-.791-3.416.654-.808.487h-1.769v-1.004l-.152-1.523-1.525-.076-1.708-.913 2.485-3.425 4.911-3.045 1.631-1.705 1.983-.731.564 2.649-2.15 2.329.915.366h1.006l-1.143.913-.992.883 4.102-1.857 4.575-2.223.9 1.523 1.967.213-.274 2.055.793 1.141-1.632.259-.869 1.446h.701l.671.244h-.335l-.275.183.732.335.564.167-.244.183-.137.259 1.052-.564-.396-.593 1.433.639h1.525v1.842l.305 1.766-.701-.67-1.113.426.915 1.37 1.006 1.188-.778 1.629-.899 1.415.427.487.488.548-.427.442-.275-.107.336.716.228.609.793-.807 1.068-.655v.655l.473.122v-.427l.289-.73.564.548-.304-.548 1.235-.487.945.609 1.617-1.249 1.525-1.857-1.037-5.161-2.837-5.145-1.204-2.146 2.516-2.192 2.714-3.913 3.05-3.212-.488-.685-.595-.609.915.883-.564-1.035.564.609.168.822.32-.609-.305-.563 1.723-1.096 1.525-1.233v.852l.549-.365.412-.502 9.424-3.38 8.891-11.448 2.729-5.89 1.388-5.923 1.525-4.262-1.296-4.126-.412-2.664-5.291-1.705v1.523l-1.114 1.522.641-.761.228-.944-1.524 1.172-1.968.366.702-.792.808-.685-1.189-.457 1.006-.99-1.525 1.067-1.296.395.305-1.187-.244-1.325h-2.028l-1.8-.593 5.688-5.13 6.832-5.526 7.152-5.45 8.83-1.522 3.949-.198 4.27.563-.335-.502v-.61l.549.107.564.153 3.904-.762 4.3 1.751-1.525.213-1.525.259 5.139.426 5.886-1.035-1.524-.502-1.297-.366 3.05-4.034 4.179-4.338 5.215-.898 4.331-.396-1.007 2.146.854 1.264-.29.837-.274.959 3.812-2.999 3.828-.822.229-.411.472-.152 1.312-3.639 5.2.411-1.25-.197.305.73-3.05 1.005-1.525 3.928-2.074 1.705-2.76 1.872-6.42 5.648-6.817 3.775-.793 2.253-1.296 1.735-1.525 7.125 1.372 7.49 1.342 3.41.473 3.805 2.806-2.466 1.998-3.045v-1.294l-.153-.928 1.967-.38 2.135.09-.29-1.811.305-2.025 2.517-1.111 2.013-.259.762-2.588.153-3.044 1.357-1.203 1.387-.609-.899.624.107.929 1.052-1.522-.946-2.923.61-2.192-1.647.41-.396-1.08-.168-1.705 1.174-1.644 1.068-1.035.701-2.01.824-1.613 2.821.091.823-.563 2.09-.853 1.433-.35-.32 1.127-.382 1.096 1.647-1.035 1.861-1.355 4.315-.305 3.416 2.512 2.684-2.557 2.318-2.07 1.083-.473 1.189-.38-.137-.38-.381-.168 5.764-2.77 6.588-1.889-.595-.456-.107-.761 2.562 1.522 2.959.715 1.189-2.298-1.738-2.01h.61l-.702-1.035-.305.442-.915-.213.869-1.523-.914-1.887h-1.861l-.625-1.553-1.525.243-1.83.396.778-.578-1.22-.746 1.616.304 1.617.213-.702-1.02h-1.632l3.66.746 2.273 1.127 3.141-1.522 2.15-1.827h-.671l-.457.441.518-.593 1.129-.32-.778-1.05v-1.873l.717.213v-.791l.549.137.122-.427.564.944.884-.807-.381 1.036.442 1.522 2.105.502 2.546.259 4.956 3.045 4.362.99.198.684v.7h.945v-.745l.793.076.778.121-.991-1.126-1.022-.38 1.22-.427 1.083-.609-.198-.761h-.87 1.068l.259-.974-.884-.38-.885-.625 1.662.305.519.547 1.25-.243 1.22.274-.091-.898-.93-.563 2.241.152L896 27.742l-.381-.396-.534-.168-.122-.09zm-353.315 79.129l.747-1.02 1.449-.396h1.098l-.519-1.157.885.32.976.396v.365l.229.411.228.609h-.808l-.869.228.976.214 1.037.182.274 2.375 1.525 1.918h-3.05l-2.257 1.127-2.241-2.299.396-3.045v-.091l-.076-.137zm-12.2 29.533l-.96.167.762-.32-6.1.153-5.505-2.071-1.647-3.12.153-2.436 1.296-2.679 2.226-.944-5.261-5.572-1.86-6.941-.549.411-.076.715-.778-1.583-1.22-1.629 1.327-1.918.396-2.451 1.434-.304h2.241l.976-1.31.504-1.278 2.622-.533 2.944-1.127 3.904 2.162 1.128 3.882-4.178.122-.351 2.755-1.723-.381-1.693.107 2.638 3.973 3.797 2.786v4.354l.58 4.719 1.021.563 1.114.746h-.656l-.229-.502 1.312 3.988.472 5.48-.061.016z" fill="#F7F7F9" stroke="#DCDDE0" stroke-linecap="round" stroke-linejoin="round"/><path fill="#fff" fill-opacity=".5" stroke="#00BC7F" stroke-width="2" stroke-linecap="round" stroke-linejoin="round" d="M154 121.532h180.155v72.291H154z"/><g filter="url(#filter0_d)"><g filter="url(#filter1_d)"><rect x="165.475" y="135.302" width="45.899" height="45.899" rx="2" fill="url(#paint0_linear)"/></g></g><path fill-rule="evenodd" clip-rule="evenodd" d="M192.589 155.598v3.807l-2.641 1.53-1.846-1.147v9.937l.052.001 9.954-5.737v-11.461l-.186-.001-5.333 3.071z" fill="#fff"/><path fill-rule="evenodd" clip-rule="evenodd" d="M188.021 146.777l-9.923 5.754 6.694 3.945 1.355-.827 3.291 1.841v-3.826l3.153-1.901v3.835l5.518-3.07v-.014l-10.088-5.737z" fill="#fff"/><path fill-rule="evenodd" clip-rule="evenodd" d="M186.77 159.024v3.822l-3.002 1.911v-7.647l1.138-.703-6.75-3.878-.058.002v11.458l10.005 5.736v-9.937l-1.333-.764z" fill="#fff"/><g filter="url(#filter2_d)"><g filter="url(#filter3_d)"><rect x="222.849" y="135.302" width="45.899" height="45.899" rx="2" fill="url(#paint1_linear)"/></g></g><path fill-rule="evenodd" clip-rule="evenodd" d="M249.962 155.598v3.807l-2.641 1.53-1.846-1.147v9.937l.052.001 9.954-5.737v-11.461l-.186-.001-5.333 3.071z" fill="#fff"/><path fill-rule="evenodd" clip-rule="evenodd" d="M245.394 146.777l-9.923 5.754 6.694 3.945 1.355-.827 3.291 1.841v-3.826l3.153-1.901v3.835l5.518-3.07v-.014l-10.088-5.737z" fill="#fff"/><path fill-rule="evenodd" clip-rule="evenodd" d="M244.143 159.024v3.822l-3.002 1.911v-7.647l1.138-.703-6.75-3.878-.058.002v11.458l10.005 5.736v-9.937l-1.333-.764z" fill="#fff"/><g filter="url(#filter4_d)"><g filter="url(#filter5_d)"><rect x="277.928" y="135.302" width="45.899" height="45.899" rx="2" fill="url(#paint2_linear)"/></g></g><path fill-rule="evenodd" clip-rule="evenodd" d="M305.041 155.598v3.807l-2.64 1.53-1.847-1.147v9.937l.052.001 9.954-5.737v-11.461l-.186-.001-5.333 3.071z" fill="#fff"/><path fill-rule="evenodd" clip-rule="evenodd" d="M300.474 146.777l-9.923 5.754 6.695 3.945 1.354-.827 3.291 1.841v-3.826l3.153-1.901v3.835l5.518-3.07v-.014l-10.088-5.737z" fill="#fff"/><path fill-rule="evenodd" clip-rule="evenodd" d="M299.222 159.024v3.822l-3.002 1.911v-7.647l1.138-.703-6.75-3.878-.058.002v11.458l10.005 5.736v-9.937l-1.333-.764z" fill="#fff"/><g filter="url(#filter6_d)"><rect x="41.256" y="178.874" width="45.899" height="45.899" rx="2" fill="#fff"/><rect x="41.756" y="179.374" width="44.899" height="44.899" rx="1.5" stroke="#DCDDE0"/></g><path d="M74.532 205.266l5.963 3.443v6.885l-5.963 3.442-5.962-3.442v-6.885l5.962-3.443z" fill="#00BC7F"/><g filter="url(#filter7_d)"><rect x="21.748" y="85.928" width="45.899" height="45.899" rx="2" fill="#fff"/><rect x="22.248" y="86.428" width="44.899" height="44.899" rx="1.5" stroke="#DCDDE0"/></g><path d="M55.025 113.468l5.962 3.442v6.885l-5.962 3.442-5.963-3.442v-6.885l5.963-3.442z" fill="#00BC7F"/><g filter="url(#filter8_d)"><rect x="245.475" y="301.817" width="45.899" height="45.899" rx="2" fill="#fff"/><rect x="245.975" y="302.317" width="44.899" height="44.899" rx="1.5" stroke="#DCDDE0"/></g><path d="M279.9 329.356l5.962 3.443v6.884l-5.962 3.443-5.963-3.443v-6.884l5.963-3.443z" fill="#00BC7F"/><g filter="url(#filter9_d)"><rect x="424.385" y="201.824" width="45.899" height="45.899" rx="2" fill="#fff"/><rect x="424.885" y="202.324" width="44.899" height="44.899" rx="1.5" stroke="#DCDDE0"/></g><path d="M459.957 229.363l5.963 3.443v6.885l-5.963 3.442-5.962-3.442v-6.885l5.962-3.443z" fill="#00BC7F"/><g filter="url(#filter10_d)"><rect x="424.385" y="74.453" width="45.899" height="45.899" rx="2" fill="#fff"/><rect x="424.885" y="74.953" width="44.899" height="44.899" rx="1.5" stroke="#DCDDE0"/></g><path d="M458.81 101.993l5.962 3.442v6.885l-5.962 3.443-5.963-3.443v-6.885l5.963-3.442z" fill="#00BC7F"/><path d="M420.368 99.977l-.995-.504C363.45 71.167 296.105 78.426 247.5 118v0m-175-6l7.058-5.014C130.689 70.656 200.358 75.475 246 118.5v0M69 233v0c55.417 43.905 136.626 30.368 174.805-29.139l1.194-1.861" stroke="#00BC7F" stroke-width="3" stroke-linecap="round" stroke-linejoin="round" stroke-dasharray="5 5"/><path d="M245.5 317.5l-.731-.893c-27.119-33.114-26.812-80.845.731-113.607v0m175.442 24.921v0c-50.991 36.845-121.337 30.486-164.894-14.907L245 201.5" stroke="#00BC7F" stroke-width="3" stroke-linecap="round" stroke-linejoin="round" stroke-dasharray="5 5"/><path fill="#fff" d="M191 200h115v16H191z"/><path d="M201.222 203.6v5.448l-4.224-5.448h-1.356v8.4h1.644v-5.46l4.224 5.46h1.356v-8.4h-1.644zm7.997 8.568c2.532 0 4.404-1.896 4.404-4.38 0-2.472-1.872-4.356-4.404-4.356-2.544 0-4.416 1.884-4.416 4.356 0 2.484 1.872 4.38 4.416 4.38zm0-1.524c-1.668 0-2.748-1.248-2.748-2.856 0-1.572 1.08-2.832 2.748-2.832 1.656 0 2.748 1.26 2.748 2.832 0 1.608-1.092 2.856-2.748 2.856zm13.399-7.044l-2.748 3.972-2.748-3.972h-1.572v8.4h1.644v-5.532l2.676 3.708 2.676-3.708V212h1.644v-8.4h-1.572zm9.98 8.4h1.716l-3.228-8.4h-2.136l-3.216 8.4h1.704l.696-1.824h3.78l.684 1.824zm-3.924-3.276l1.344-3.552 1.344 3.552h-2.688zm10.82-5.124h-3.648v8.4h3.648c2.472 0 4.02-1.776 4.02-4.2 0-2.472-1.572-4.2-4.02-4.2zm-.036 6.912h-1.98v-5.436h1.98c1.44 0 2.4 1.092 2.4 2.688 0 1.62-.96 2.748-2.4 2.748zm13.096 1.656c2.016 0 3.36-1.164 3.36-2.604 0-1.368-.972-1.908-2.256-2.304l-2.088-.672c-.552-.168-.804-.42-.804-.792 0-.492.528-.912 1.356-.912.948 0 1.728.468 2.076 1.152l1.524-.444c-.456-1.164-1.8-2.16-3.612-2.16-1.752 0-3.024 1.104-3.012 2.412-.012 1.08.792 1.788 1.896 2.136l2.148.672c.804.264 1.104.564 1.104 1.008 0 .552-.612 1.056-1.596 1.056-1.212 0-2.064-.696-2.4-1.572l-1.572.48c.468 1.308 1.824 2.544 3.876 2.544zm11.495-7.08V203.6h-6.192v8.4h6.18v-1.488h-4.572v-2.064h3.972v-1.44h-3.972v-1.92h4.584zm7.368 6.912h1.896l-2.088-3.108a2.663 2.663 0 001.836-2.556c0-1.332-1.056-2.736-2.88-2.736h-4.092v8.4h1.632v-2.94h1.788l1.908 2.94zm-3.696-6.924h2.412c.78 0 1.332.588 1.332 1.26 0 .696-.54 1.284-1.392 1.284h-2.352v-2.544zm13.113-1.476l-2.4 6.312-2.4-6.312h-1.812l3.312 8.4h1.8l3.312-8.4h-1.812zm9.563 1.488V203.6h-6.192v8.4h6.18v-1.488h-4.572v-2.064h3.972v-1.44h-3.972v-1.92h4.584zm7.368 6.912h1.896l-2.088-3.108a2.663 2.663 0 001.836-2.556c0-1.332-1.056-2.736-2.88-2.736h-4.092v8.4h1.632v-2.94h1.788l1.908 2.94zm-3.696-6.924h2.412c.78 0 1.332.588 1.332 1.26 0 .696-.54 1.284-1.392 1.284h-2.352v-2.544z" fill="#76767D"/><path fill="#fff" d="M21 136h48v28H21z"/><path d="M26.273 139.6v5.448L22.05 139.6h-1.356v8.4h1.644v-5.46l4.224 5.46h1.356v-8.4h-1.644zm7.997 8.568c2.532 0 4.404-1.896 4.404-4.38 0-2.472-1.872-4.356-4.404-4.356-2.544 0-4.416 1.884-4.416 4.356 0 2.484 1.872 4.38 4.416 4.38zm0-1.524c-1.668 0-2.748-1.248-2.748-2.856 0-1.572 1.08-2.832 2.748-2.832 1.656 0 2.748 1.26 2.748 2.832 0 1.608-1.092 2.856-2.748 2.856zm13.4-7.044l-2.748 3.972-2.748-3.972h-1.572v8.4h1.644v-5.532l2.676 3.708 2.676-3.708V148h1.644v-8.4H47.67zm9.98 8.4h1.715l-3.228-8.4h-2.136l-3.216 8.4h1.704l.696-1.824h3.78L57.65 148zm-3.925-3.276l1.344-3.552 1.344 3.552h-2.688zm10.821-5.124h-3.648v8.4h3.648c2.472 0 4.02-1.776 4.02-4.2 0-2.472-1.572-4.2-4.02-4.2zm-.036 6.912h-1.98v-5.436h1.98c1.44 0 2.4 1.092 2.4 2.688 0 1.62-.96 2.748-2.4 2.748zm-37.562 15.656c2.22 0 3.636-1.356 4.02-2.7l-1.596-.408c-.276.828-1.176 1.56-2.448 1.56-1.656 0-2.712-1.332-2.712-2.844 0-1.512 1.056-2.796 2.712-2.796 1.272 0 2.172.756 2.448 1.572l1.608-.396c-.384-1.332-1.8-2.724-4.068-2.724-2.496 0-4.38 1.884-4.38 4.356 0 2.484 1.884 4.38 4.416 4.38zm7.542-1.68V153.6h-1.644v8.4h5.832v-1.512H34.49zM40.456 162h1.668v-8.4h-1.668v8.4zm10.135-6.912V153.6h-6.192v8.4h6.18v-1.488h-4.572v-2.064h3.972v-1.44h-3.972v-1.92h4.584zm7.619-1.488v5.448l-4.223-5.448H52.63v8.4h1.644v-5.46l4.224 5.46h1.356v-8.4H58.21zm10.614 0H61.54v1.488h2.82V162h1.644v-6.912h2.82V153.6z" fill="#76767D"/></g><defs><filter id="filter0_d" x="162.475" y="134.302" width="51.899" height="51.899" filterUnits="userSpaceOnUse" color-interpolation-filters="sRGB"><feFlood flood-opacity="0" result="BackgroundImageFix"/><feColorMatrix in="SourceAlpha" values="0 0 0 0 0 0 0 0 0 0 0 0 0 0 0 0 0 0 127 0"/><feOffset dy="2"/><feGaussianBlur stdDeviation="1.5"/><feColorMatrix values="0 0 0 0 0.145098 0 0 0 0 0.160784 0 0 0 0 0.215686 0 0 0 0.08 0"/><feBlend in2="BackgroundImageFix" result="effect1_dropShadow"/><feBlend in="SourceGraphic" in2="effect1_dropShadow" result="shape"/></filter><filter id="filter1_d" x="153.475" y="131.302" width="69.899" height="69.899" filterUnits="userSpaceOnUse" color-interpolation-filters="sRGB"><feFlood flood-opacity="0" result="BackgroundImageFix"/><feColorMatrix in="SourceAlpha" values="0 0 0 0 0 0 0 0 0 0 0 0 0 0 0 0 0 0 127 0"/><feOffset dy="8"/><feGaussianBlur stdDeviation="6"/><feColorMatrix values="0 0 0 0 0.144162 0 0 0 0 0.149883 0 0 0 0 0.174672 0 0 0 0.08 0"/><feBlend in2="BackgroundImageFix" result="effect1_dropShadow"/><feBlend in="SourceGraphic" in2="effect1_dropShadow" result="shape"/></filter><filter id="filter2_d" x="219.849" y="134.302" width="51.899" height="51.899" filterUnits="userSpaceOnUse" color-interpolation-filters="sRGB"><feFlood flood-opacity="0" result="BackgroundImageFix"/><feColorMatrix in="SourceAlpha" values="0 0 0 0 0 0 0 0 0 0 0 0 0 0 0 0 0 0 127 0"/><feOffset dy="2"/><feGaussianBlur stdDeviation="1.5"/><feColorMatrix values="0 0 0 0 0.145098 0 0 0 0 0.160784 0 0 0 0 0.215686 0 0 0 0.08 0"/><feBlend in2="BackgroundImageFix" result="effect1_dropShadow"/><feBlend in="SourceGraphic" in2="effect1_dropShadow" result="shape"/></filter><filter id="filter3_d" x="210.849" y="131.302" width="69.899" height="69.899" filterUnits="userSpaceOnUse" color-interpolation-filters="sRGB"><feFlood flood-opacity="0" result="BackgroundImageFix"/><feColorMatrix in="SourceAlpha" values="0 0 0 0 0 0 0 0 0 0 0 0 0 0 0 0 0 0 127 0"/><feOffset dy="8"/><feGaussianBlur stdDeviation="6"/><feColorMatrix values="0 0 0 0 0.144162 0 0 0 0 0.149883 0 0 0 0 0.174672 0 0 0 0.08 0"/><feBlend in2="BackgroundImageFix" result="effect1_dropShadow"/><feBlend in="SourceGraphic" in2="effect1_dropShadow" result="shape"/></filter><filter id="filter4_d" x="274.928" y="134.302" width="51.899" height="51.899" filterUnits="userSpaceOnUse" color-interpolation-filters="sRGB"><feFlood flood-opacity="0" result="BackgroundImageFix"/><feColorMatrix in="SourceAlpha" values="0 0 0 0 0 0 0 0 0 0 0 0 0 0 0 0 0 0 127 0"/><feOffset dy="2"/><feGaussianBlur stdDeviation="1.5"/><feColorMatrix values="0 0 0 0 0.145098 0 0 0 0 0.160784 0 0 0 0 0.215686 0 0 0 0.08 0"/><feBlend in2="BackgroundImageFix" result="effect1_dropShadow"/><feBlend in="SourceGraphic" in2="effect1_dropShadow" result="shape"/></filter><filter id="filter5_d" x="265.928" y="131.302" width="69.899" height="69.899" filterUnits="userSpaceOnUse" color-interpolation-filters="sRGB"><feFlood flood-opacity="0" result="BackgroundImageFix"/><feColorMatrix in="SourceAlpha" values="0 0 0 0 0 0 0 0 0 0 0 0 0 0 0 0 0 0 127 0"/><feOffset dy="8"/><feGaussianBlur stdDeviation="6"/><feColorMatrix values="0 0 0 0 0.144162 0 0 0 0 0.149883 0 0 0 0 0.174672 0 0 0 0.08 0"/><feBlend in2="BackgroundImageFix" result="effect1_dropShadow"/><feBlend in="SourceGraphic" in2="effect1_dropShadow" result="shape"/></filter><filter id="filter6_d" x="38.256" y="177.874" width="51.899" height="51.899" filterUnits="userSpaceOnUse" color-interpolation-filters="sRGB"><feFlood flood-opacity="0" result="BackgroundImageFix"/><feColorMatrix in="SourceAlpha" values="0 0 0 0 0 0 0 0 0 0 0 0 0 0 0 0 0 0 127 0"/><feOffset dy="2"/><feGaussianBlur stdDeviation="1.5"/><feColorMatrix values="0 0 0 0 0.145098 0 0 0 0 0.160784 0 0 0 0 0.215686 0 0 0 0.08 0"/><feBlend in2="BackgroundImageFix" result="effect1_dropShadow"/><feBlend in="SourceGraphic" in2="effect1_dropShadow" result="shape"/></filter><filter id="filter7_d" x="18.748" y="84.928" width="51.899" height="51.899" filterUnits="userSpaceOnUse" color-interpolation-filters="sRGB"><feFlood flood-opacity="0" result="BackgroundImageFix"/><feColorMatrix in="SourceAlpha" values="0 0 0 0 0 0 0 0 0 0 0 0 0 0 0 0 0 0 127 0"/><feOffset dy="2"/><feGaussianBlur stdDeviation="1.5"/><feColorMatrix values="0 0 0 0 0.145098 0 0 0 0 0.160784 0 0 0 0 0.215686 0 0 0 0.08 0"/><feBlend in2="BackgroundImageFix" result="effect1_dropShadow"/><feBlend in="SourceGraphic" in2="effect1_dropShadow" result="shape"/></filter><filter id="filter8_d" x="242.475" y="300.817" width="51.899" height="51.899" filterUnits="userSpaceOnUse" color-interpolation-filters="sRGB"><feFlood flood-opacity="0" result="BackgroundImageFix"/><feColorMatrix in="SourceAlpha" values="0 0 0 0 0 0 0 0 0 0 0 0 0 0 0 0 0 0 127 0"/><feOffset dy="2"/><feGaussianBlur stdDeviation="1.5"/><feColorMatrix values="0 0 0 0 0.145098 0 0 0 0 0.160784 0 0 0 0 0.215686 0 0 0 0.08 0"/><feBlend in2="BackgroundImageFix" result="effect1_dropShadow"/><feBlend in="SourceGraphic" in2="effect1_dropShadow" result="shape"/></filter><filter id="filter9_d" x="421.385" y="200.824" width="51.899" height="51.899" filterUnits="userSpaceOnUse" color-interpolation-filters="sRGB"><feFlood flood-opacity="0" result="BackgroundImageFix"/><feColorMatrix in="SourceAlpha" values="0 0 0 0 0 0 0 0 0 0 0 0 0 0 0 0 0 0 127 0"/><feOffset dy="2"/><feGaussianBlur stdDeviation="1.5"/><feColorMatrix values="0 0 0 0 0.145098 0 0 0 0 0.160784 0 0 0 0 0.215686 0 0 0 0.08 0"/><feBlend in2="BackgroundImageFix" result="effect1_dropShadow"/><feBlend in="SourceGraphic" in2="effect1_dropShadow" result="shape"/></filter><filter id="filter10_d" x="421.385" y="73.453" width="51.899" height="51.899" filterUnits="userSpaceOnUse" color-interpolation-filters="sRGB"><feFlood flood-opacity="0" result="BackgroundImageFix"/><feColorMatrix in="SourceAlpha" values="0 0 0 0 0 0 0 0 0 0 0 0 0 0 0 0 0 0 127 0"/><feOffset dy="2"/><feGaussianBlur stdDeviation="1.5"/><feColorMatrix values="0 0 0 0 0.145098 0 0 0 0 0.160784 0 0 0 0 0.215686 0 0 0 0.08 0"/><feBlend in2="BackgroundImageFix" result="effect1_dropShadow"/><feBlend in="SourceGraphic" in2="effect1_dropShadow" result="shape"/></filter><linearGradient id="paint0_linear" x1="165.475" y1="135.302" x2="208.915" y2="181.201" gradientUnits="userSpaceOnUse"><stop stop-color="#00BC7F"/><stop offset="1" stop-color="#007854"/></linearGradient><linearGradient id="paint1_linear" x1="222.849" y1="135.302" x2="266.289" y2="181.201" gradientUnits="userSpaceOnUse"><stop stop-color="#00BC7F"/><stop offset="1" stop-color="#007854"/></linearGradient><linearGradient id="paint2_linear" x1="277.928" y1="135.302" x2="321.368" y2="181.201" gradientUnits="userSpaceOnUse"><stop stop-color="#00BC7F"/><stop offset="1" stop-color="#007854"/></linearGradient><clipPath id="clip0"><path fill="#fff" d="M0 0h488v356H0z"/></clipPath></defs></svg>