<svg fill="none" height="80" viewBox="0 0 80 80" width="80" xmlns="http://www.w3.org/2000/svg" xmlns:xlink="http://www.w3.org/1999/xlink"><linearGradient id="a"><stop offset="0" stop-color="#60dea9"/><stop offset=".9375" stop-color="#f1fdcd"/></linearGradient><linearGradient id="b" gradientUnits="userSpaceOnUse" x1="28" x2="67.2207" xlink:href="#a" y1="21" y2="68.9123"/><linearGradient id="c" gradientUnits="userSpaceOnUse" x1="8" x2="43.191" xlink:href="#a" y1="71" y2="39.0103"/><linearGradient id="d" gradientUnits="userSpaceOnUse" x1="37.2" x2="57.0472" y1="55" y2="11.9033"><stop offset="0" stop-color="#60dea9"/><stop offset=".359375" stop-color="#60dea9" stop-opacity=".96"/><stop offset=".703125" stop-color="#60dea9" stop-opacity=".88"/><stop offset="1" stop-color="#60dea9" stop-opacity=".7"/></linearGradient><path d="m0 0h80v80h-80z" fill="#fff"/><rect fill="#fff" fill-opacity=".8" height="44" rx="1.5" width="44" x="28" y="21"/><rect fill="url(#b)" fill-opacity=".4" height="44" rx="1.5" width="44" x="28" y="21"/><rect fill="#fff" fill-opacity=".8" height="44" rx="1.5" width="44" x="8" y="27"/><rect fill="url(#c)" fill-opacity=".9" height="44" rx="1.5" width="44" x="8" y="27"/><rect fill="url(#d)" height="44" rx="1.5" width="44" x="18" y="11"/><g stroke="#000" stroke-width="1.75"><path clip-rule="evenodd" d="m35 37c-1.6569 0-3 1.3431-3 3s1.3431 3 3 3 3-1.3431 3-3-1.3431-3-3-3z" fill-rule="evenodd" stroke-linecap="round" stroke-linejoin="round"/><path clip-rule="evenodd" d="m47 30c-1.6569 0-3 1.3431-3 3s1.3431 3 3 3 3-1.3431 3-3-1.3431-3-3-3z" fill-rule="evenodd" stroke-linecap="round" stroke-linejoin="round"/><path clip-rule="evenodd" d="m35 23c-1.6569 0-3 1.3431-3 3s1.3431 3 3 3 3-1.3431 3-3-1.3431-3-3-3z" fill-rule="evenodd" stroke-linecap="round" stroke-linejoin="round"/><path d="m44.4102 31.4902-6.83-3.98" stroke-linecap="round" stroke-linejoin="round"/><path d="m37.5902 38.4902 6.82-3.98" stroke-linecap="round" stroke-linejoin="round"/><path d="m35.125 29v8"/></g></svg>