<svg fill="none" height="80" viewBox="0 0 80 80" width="80" xmlns="http://www.w3.org/2000/svg" xmlns:xlink="http://www.w3.org/1999/xlink"><linearGradient id="a"><stop offset="0" stop-color="#60dea9"/><stop offset=".9375" stop-color="#f1fdcd"/></linearGradient><linearGradient id="b" gradientUnits="userSpaceOnUse" x1="18" x2="57.2207" xlink:href="#a" y1="30" y2="77.9123"/><linearGradient id="c" gradientUnits="userSpaceOnUse" x1="18" x2="61.5665" xlink:href="#a" y1="64" y2="68.3458"/><linearGradient id="d" gradientUnits="userSpaceOnUse" x1="37.2" x2="57.0472" y1="54" y2="10.9033"><stop offset="0" stop-color="#60dea9"/><stop offset=".359375" stop-color="#60dea9" stop-opacity=".96"/><stop offset=".703125" stop-color="#60dea9" stop-opacity=".88"/><stop offset="1" stop-color="#60dea9" stop-opacity=".7"/></linearGradient><path d="m0 0h80v80h-80z" fill="#fff"/><rect fill="#fff" fill-opacity=".8" height="44" rx="1.5" width="44" x="18" y="30"/><rect fill="url(#b)" fill-opacity=".4" height="44" rx="1.5" width="44" x="18" y="30"/><rect fill="#fff" fill-opacity=".8" height="44" rx="1.5" width="44" x="18" y="20"/><rect fill="url(#c)" fill-opacity=".9" height="44" rx="1.5" width="44" x="18" y="20"/><rect fill="url(#d)" height="44" rx="1.5" width="44" x="18" y="10"/><g stroke="#000" stroke-linecap="round" stroke-linejoin="round" stroke-width="1.75"><path d="m49.1665 25.3335v5h-5"/><path d="m30.8335 38.6665v-5h5"/><path d="m32.9248 29.5001c.8591-2.4276 2.9036-4.2448 5.4152-4.8131 2.5117-.5683 5.1393.1917 6.9598 2.0131l3.8667 3.6334"/><path d="m30.8335 33.6665 3.8667 3.6333c1.8204 1.8214 4.448 2.5815 6.9597 2.0132s4.5562-2.3855 5.4153-4.8132"/></g></svg>