<svg fill="none" height="80" viewBox="0 0 80 80" width="80" xmlns="http://www.w3.org/2000/svg" xmlns:xlink="http://www.w3.org/1999/xlink"><linearGradient id="a"><stop offset="0" stop-color="#60dea9"/><stop offset=".9375" stop-color="#f1fdcd"/></linearGradient><linearGradient id="b" gradientUnits="userSpaceOnUse" x1="6" x2="33.6328" xlink:href="#a" y1="6" y2="39.7564"/><linearGradient id="c" gradientUnits="userSpaceOnUse" x1="43" x2="70.6328" xlink:href="#a" y1="43" y2="76.7564"/><linearGradient id="d" gradientUnits="userSpaceOnUse" x1="43" x2="70.2229" xlink:href="#a" y1="68" y2="45.7155"/><linearGradient id="e" gradientUnits="userSpaceOnUse" x1="12" x2="39.2229" xlink:href="#a" y1="37" y2="14.7155"/><linearGradient id="f" gradientUnits="userSpaceOnUse" x1="20.0952" x2="42.4647" y1="18" y2="65.9153"><stop offset="0" stop-color="#60dea9"/><stop offset=".359375" stop-color="#60dea9" stop-opacity=".96"/><stop offset=".703125" stop-color="#60dea9" stop-opacity=".88"/><stop offset="1" stop-color="#60dea9" stop-opacity=".7"/></linearGradient><path d="m0 0h80v80h-80z" fill="#fff"/><rect fill="#fff" fill-opacity=".8" height="31" rx="1.5" width="31" x="6" y="6"/><rect fill="url(#b)" fill-opacity=".4" height="31" rx="1.5" width="31" x="6" y="6"/><rect fill="#fff" fill-opacity=".8" height="31" rx="1.5" width="31" x="43" y="43"/><rect fill="url(#c)" fill-opacity=".4" height="31" rx="1.5" width="31" x="43" y="43"/><rect fill="#fff" fill-opacity=".8" height="25" rx="1.5" width="25" x="43" y="43"/><rect fill="url(#d)" fill-opacity=".9" height="25" rx="1.5" width="25" x="43" y="43"/><rect fill="#fff" fill-opacity=".8" height="25" rx="1.5" width="25" x="12" y="12"/><rect fill="url(#e)" fill-opacity=".9" height="25" rx="1.5" width="25" x="12" y="12"/><rect fill="url(#f)" height="44" rx="1.5" width="44" x="18" y="18"/><g stroke="#000" stroke-linecap="round" stroke-linejoin="round"><path d="m37.5 32.5h-5v5" stroke-width="2"/><path d="m42.5 47.5h5v-5" stroke-width="2"/><path d="m32.5002 32.5 5.8333 5.8333" stroke-width="1.5"/><path d="m47.5 47.4998-5.8333-5.8333" stroke-width="1.5"/></g></svg>